M48
;DRILL file {Pcbnew (2012-01-19 BZR 3256)-stable} date 7/17/2013 1:14:44 PM
;FORMAT={-:-/ absolute / inch / decimal}
FMAT,2
INCH,TZ
T1C0.025
T2C0.032
T3C0.037
T4C0.039
T5C0.040
T6C0.081
T7C0.120
%
G90
G05
M72
T1
X3.550Y-2.150
X3.550Y-4.575
X3.625Y-3.300
X3.700Y-2.800
X3.700Y-2.975
X3.725Y-1.700
X3.850Y-4.650
X3.925Y-2.250
X3.975Y-2.200
X4.000Y-2.150
X4.000Y-4.800
X4.050Y-1.675
X4.050Y-4.775
X4.100Y-4.750
X4.150Y-4.725
X4.250Y-2.575
X4.425Y-2.625
X4.450Y-3.400
X4.450Y-4.675
X4.450Y-4.875
X4.500Y-1.925
X4.525Y-1.300
X4.550Y-2.675
X4.550Y-5.275
X4.625Y-3.325
X4.650Y-1.925
X4.650Y-2.575
X4.675Y-3.475
X4.700Y-4.300
X4.725Y-3.425
X4.750Y-1.750
X4.750Y-3.375
X4.750Y-4.025
X4.750Y-4.125
X4.750Y-4.425
X4.800Y-4.075
X4.950Y-7.000
X4.975Y-6.925
X5.000Y-6.975
X5.025Y-1.800
X5.025Y-3.050
X5.025Y-4.400
X5.050Y-1.700
X5.050Y-4.625
X5.050Y-5.850
X5.075Y-2.950
X5.075Y-3.825
X5.100Y-4.850
X5.100Y-5.750
X5.125Y-1.900
X5.125Y-3.200
X5.125Y-3.625
X5.125Y-5.825
X5.175Y-3.500
X5.250Y-2.150
X5.250Y-3.450
X5.275Y-3.825
X5.325Y-3.950
X5.325Y-4.200
X5.325Y-4.500
X5.325Y-4.600
X5.325Y-4.700
X5.375Y-3.750
X5.375Y-6.725
X5.425Y-1.900
X5.425Y-3.200
X5.425Y-4.450
X5.425Y-5.675
X5.450Y-6.375
X5.475Y-4.400
X5.475Y-5.025
X5.475Y-6.775
X5.525Y-5.000
X5.525Y-5.125
X5.525Y-6.125
X5.525Y-6.525
X5.550Y-5.475
X5.575Y-5.425
X5.575Y-7.050
X5.600Y-6.375
X5.625Y-5.100
X5.650Y-5.275
X5.650Y-5.425
X5.675Y-4.200
X5.675Y-5.050
X5.725Y-2.000
X5.725Y-3.300
X5.725Y-4.400
X5.725Y-4.550
X5.725Y-5.225
X5.725Y-5.425
X5.850Y-5.225
X5.975Y-4.300
X6.025Y-2.100
X6.025Y-3.400
X6.025Y-4.650
X6.025Y-5.675
X6.025Y-6.050
X6.025Y-6.725
X6.125Y-6.050
X6.150Y-6.375
X6.175Y-4.100
X6.175Y-4.200
X6.225Y-6.000
X6.275Y-4.100
X6.275Y-4.400
X6.325Y-4.900
X6.575Y-4.775
X6.625Y-4.825
X6.675Y-6.725
X6.725Y-1.050
X6.725Y-1.900
X6.725Y-2.350
X6.725Y-3.200
X6.725Y-3.650
X6.725Y-4.450
X6.775Y-6.775
X6.825Y-5.050
X6.875Y-5.425
X6.875Y-7.050
X6.925Y-5.100
X6.950Y-5.275
X6.950Y-5.425
X6.975Y-5.050
X7.025Y-1.100
X7.025Y-2.000
X7.025Y-2.400
X7.025Y-3.300
X7.025Y-3.700
X7.025Y-4.550
X7.025Y-5.275
X7.025Y-5.425
X7.150Y-5.200
X7.275Y-4.300
X7.325Y-1.150
X7.325Y-2.100
X7.325Y-2.450
X7.325Y-3.400
X7.325Y-3.750
X7.325Y-4.650
X7.325Y-5.675
X7.425Y-6.050
X7.475Y-4.100
X7.475Y-4.225
X7.525Y-6.000
X7.575Y-4.700
X7.600Y-4.100
X7.675Y-4.900
X7.875Y-4.775
X7.925Y-4.825
X7.975Y-6.725
X8.025Y-1.050
X8.025Y-1.900
X8.025Y-2.350
X8.025Y-3.200
X8.025Y-3.650
X8.025Y-4.450
X8.075Y-6.775
X8.125Y-5.125
X8.175Y-5.425
X8.175Y-7.050
X8.225Y-5.100
X8.250Y-5.275
X8.250Y-5.425
X8.275Y-5.050
X8.325Y-1.100
X8.325Y-2.000
X8.325Y-2.400
X8.325Y-3.300
X8.325Y-3.700
X8.325Y-4.550
X8.325Y-5.225
X8.325Y-5.425
X8.450Y-5.225
X8.625Y-1.150
X8.625Y-2.100
X8.625Y-2.450
X8.625Y-3.400
X8.625Y-3.750
X8.625Y-4.325
X8.625Y-4.700
X8.625Y-5.675
X8.725Y-6.050
X8.775Y-4.175
X8.775Y-4.300
X8.825Y-6.000
X8.875Y-4.600
X8.900Y-4.175
X8.975Y-4.900
X9.175Y-4.775
X9.200Y-6.725
X9.225Y-4.825
X9.275Y-1.050
X9.275Y-4.450
X9.325Y-1.900
X9.325Y-2.350
X9.325Y-3.200
X9.325Y-3.650
X9.325Y-6.775
X9.425Y-5.125
X9.425Y-7.050
X9.475Y-5.425
X9.525Y-5.100
X9.550Y-5.275
X9.550Y-5.425
X9.575Y-1.100
X9.575Y-5.050
X9.625Y-2.000
X9.625Y-2.400
X9.625Y-3.300
X9.625Y-3.700
X9.625Y-4.600
X9.625Y-5.225
X9.625Y-5.425
X9.750Y-5.225
X9.850Y-1.150
X9.925Y-2.100
X9.925Y-2.450
X9.925Y-3.400
X9.925Y-3.750
X9.925Y-4.275
X9.925Y-4.700
X9.925Y-5.675
X9.950Y-6.550
X10.000Y-6.000
X10.050Y-5.950
X10.050Y-6.125
X10.075Y-4.125
X10.075Y-4.250
X10.125Y-6.000
X10.125Y-6.125
X10.125Y-6.925
X10.175Y-4.650
X10.200Y-4.125
X10.200Y-6.200
X10.200Y-6.275
X10.200Y-6.350
X10.275Y-4.900
X10.475Y-4.700
X10.525Y-4.825
X10.600Y-6.200
X10.625Y-6.375
X10.675Y-6.275
T2
X3.500Y-2.975
X3.500Y-3.075
X3.500Y-3.175
X3.500Y-3.275
X3.850Y-1.000
X3.850Y-1.100
X3.850Y-1.200
X3.850Y-1.300
X3.850Y-1.400
X3.850Y-1.500
X3.850Y-1.600
X3.850Y-1.700
X3.850Y-1.800
X3.850Y-2.200
X3.850Y-2.300
X3.850Y-2.400
X3.850Y-2.500
X3.850Y-4.050
X3.850Y-4.150
X3.850Y-4.350
X3.850Y-4.450
X4.050Y-4.050
X4.050Y-4.150
X4.050Y-4.350
X4.050Y-4.450
X4.300Y-4.950
X4.350Y-1.000
X4.350Y-1.100
X4.350Y-1.200
X4.350Y-1.300
X4.350Y-1.400
X4.350Y-1.500
X4.350Y-1.600
X4.350Y-1.700
X4.350Y-1.800
X4.350Y-1.900
X4.350Y-2.000
X4.350Y-2.100
X4.350Y-2.200
X4.350Y-2.300
X4.350Y-2.400
X4.350Y-2.500
X4.400Y-5.550
X4.400Y-6.000
X4.400Y-6.425
X4.400Y-6.550
X4.500Y-4.150
X4.500Y-4.350
X4.600Y-4.950
X4.700Y-5.550
X4.700Y-6.000
X4.700Y-6.425
X4.700Y-6.550
X4.800Y-5.700
X4.800Y-6.000
X4.800Y-6.100
X4.800Y-6.400
X4.900Y-1.350
X4.900Y-1.450
X4.900Y-1.550
X4.900Y-1.650
X4.900Y-1.750
X4.900Y-1.850
X4.900Y-1.950
X4.900Y-2.050
X4.900Y-2.650
X4.900Y-2.750
X4.900Y-2.850
X4.900Y-2.950
X4.900Y-3.050
X4.900Y-3.150
X4.900Y-3.250
X4.900Y-3.350
X4.900Y-3.950
X4.900Y-4.050
X4.900Y-4.150
X4.900Y-4.250
X4.900Y-4.350
X4.900Y-4.450
X4.900Y-4.550
X4.900Y-4.650
X5.175Y-6.625
X5.175Y-6.925
X5.200Y-1.350
X5.200Y-1.450
X5.200Y-1.550
X5.200Y-1.650
X5.200Y-1.750
X5.200Y-1.850
X5.200Y-1.950
X5.200Y-2.050
X5.200Y-2.650
X5.200Y-2.750
X5.200Y-2.850
X5.200Y-2.950
X5.200Y-3.050
X5.200Y-3.150
X5.200Y-3.250
X5.200Y-3.350
X5.200Y-3.950
X5.200Y-4.050
X5.200Y-4.150
X5.200Y-4.250
X5.200Y-4.350
X5.200Y-4.450
X5.200Y-4.550
X5.200Y-4.650
X5.275Y-6.175
X5.275Y-6.475
X5.275Y-6.625
X5.275Y-6.925
X5.375Y-6.175
X5.375Y-6.475
X5.375Y-6.625
X5.375Y-6.925
X5.425Y-1.275
X5.425Y-2.225
X5.425Y-2.575
X5.425Y-3.525
X5.425Y-3.875
X5.425Y-4.825
X5.475Y-6.175
X5.475Y-6.475
X5.475Y-6.625
X5.475Y-6.925
X5.525Y-1.275
X5.525Y-2.225
X5.525Y-2.575
X5.525Y-3.525
X5.525Y-3.875
X5.525Y-4.825
X5.575Y-6.175
X5.575Y-6.475
X5.575Y-6.625
X5.575Y-6.925
X5.625Y-1.275
X5.625Y-2.225
X5.625Y-2.575
X5.625Y-3.525
X5.625Y-3.875
X5.625Y-4.825
X5.675Y-6.175
X5.675Y-6.475
X5.675Y-6.625
X5.675Y-6.925
X5.725Y-1.275
X5.725Y-2.225
X5.725Y-2.575
X5.725Y-3.525
X5.725Y-3.875
X5.725Y-4.825
X5.775Y-6.175
X5.775Y-6.475
X5.775Y-6.625
X5.775Y-6.925
X5.825Y-1.275
X5.825Y-2.225
X5.825Y-2.575
X5.825Y-3.525
X5.825Y-3.875
X5.825Y-4.825
X5.825Y-5.525
X5.825Y-5.825
X5.875Y-6.175
X5.875Y-6.475
X5.875Y-6.625
X5.875Y-6.925
X5.925Y-1.275
X5.925Y-2.225
X5.925Y-2.575
X5.925Y-3.525
X5.925Y-3.875
X5.925Y-4.825
X5.925Y-5.075
X5.925Y-5.375
X5.925Y-5.525
X5.925Y-5.825
X5.975Y-6.175
X5.975Y-6.475
X6.025Y-1.275
X6.025Y-2.225
X6.025Y-2.575
X6.025Y-3.525
X6.025Y-3.875
X6.025Y-4.825
X6.025Y-5.075
X6.025Y-5.375
X6.025Y-5.525
X6.025Y-5.825
X6.125Y-1.275
X6.125Y-2.225
X6.125Y-2.575
X6.125Y-3.525
X6.125Y-3.875
X6.125Y-4.825
X6.125Y-5.075
X6.125Y-5.375
X6.125Y-5.525
X6.125Y-5.825
X6.225Y-1.275
X6.225Y-2.225
X6.225Y-2.575
X6.225Y-3.525
X6.225Y-3.875
X6.225Y-4.825
X6.225Y-5.075
X6.225Y-5.375
X6.225Y-5.525
X6.225Y-5.825
X6.325Y-1.275
X6.325Y-2.225
X6.325Y-2.575
X6.325Y-3.525
X6.325Y-3.875
X6.325Y-4.825
X6.325Y-5.075
X6.325Y-5.375
X6.325Y-5.525
X6.325Y-5.825
X6.425Y-1.275
X6.425Y-2.225
X6.425Y-2.575
X6.425Y-3.525
X6.425Y-3.875
X6.425Y-4.825
X6.425Y-5.075
X6.425Y-5.375
X6.425Y-5.525
X6.425Y-5.825
X6.475Y-6.625
X6.475Y-6.925
X6.525Y-1.275
X6.525Y-2.225
X6.525Y-2.575
X6.525Y-3.525
X6.525Y-3.875
X6.525Y-4.825
X6.525Y-5.075
X6.525Y-5.375
X6.525Y-5.525
X6.525Y-5.825
X6.575Y-6.175
X6.575Y-6.475
X6.575Y-6.625
X6.575Y-6.925
X6.625Y-5.075
X6.625Y-5.375
X6.675Y-6.175
X6.675Y-6.475
X6.675Y-6.625
X6.675Y-6.925
X6.725Y-1.275
X6.725Y-2.225
X6.725Y-2.575
X6.725Y-3.525
X6.725Y-3.875
X6.725Y-4.825
X6.775Y-6.175
X6.775Y-6.475
X6.775Y-6.625
X6.775Y-6.925
X6.825Y-1.275
X6.825Y-2.225
X6.825Y-2.575
X6.825Y-3.525
X6.825Y-3.875
X6.825Y-4.825
X6.875Y-6.175
X6.875Y-6.475
X6.875Y-6.625
X6.875Y-6.925
X6.925Y-1.275
X6.925Y-2.225
X6.925Y-2.575
X6.925Y-3.525
X6.925Y-3.875
X6.925Y-4.825
X6.975Y-6.175
X6.975Y-6.475
X6.975Y-6.625
X6.975Y-6.925
X7.025Y-1.275
X7.025Y-2.225
X7.025Y-2.575
X7.025Y-3.525
X7.025Y-3.875
X7.025Y-4.825
X7.075Y-6.175
X7.075Y-6.475
X7.075Y-6.625
X7.075Y-6.925
X7.125Y-1.275
X7.125Y-2.225
X7.125Y-2.575
X7.125Y-3.525
X7.125Y-3.875
X7.125Y-4.825
X7.125Y-5.525
X7.125Y-5.825
X7.175Y-6.175
X7.175Y-6.475
X7.175Y-6.625
X7.175Y-6.925
X7.225Y-1.275
X7.225Y-2.225
X7.225Y-2.575
X7.225Y-3.525
X7.225Y-3.875
X7.225Y-4.825
X7.225Y-5.075
X7.225Y-5.375
X7.225Y-5.525
X7.225Y-5.825
X7.275Y-6.175
X7.275Y-6.475
X7.325Y-1.275
X7.325Y-2.225
X7.325Y-2.575
X7.325Y-3.525
X7.325Y-3.875
X7.325Y-4.825
X7.325Y-5.075
X7.325Y-5.375
X7.325Y-5.525
X7.325Y-5.825
X7.425Y-1.275
X7.425Y-2.225
X7.425Y-2.575
X7.425Y-3.525
X7.425Y-3.875
X7.425Y-4.825
X7.425Y-5.075
X7.425Y-5.375
X7.425Y-5.525
X7.425Y-5.825
X7.525Y-1.275
X7.525Y-2.225
X7.525Y-2.575
X7.525Y-3.525
X7.525Y-3.875
X7.525Y-4.825
X7.525Y-5.075
X7.525Y-5.375
X7.525Y-5.525
X7.525Y-5.825
X7.625Y-1.275
X7.625Y-2.225
X7.625Y-2.575
X7.625Y-3.525
X7.625Y-3.875
X7.625Y-4.825
X7.625Y-5.075
X7.625Y-5.375
X7.625Y-5.525
X7.625Y-5.825
X7.725Y-1.275
X7.725Y-2.225
X7.725Y-2.575
X7.725Y-3.525
X7.725Y-3.875
X7.725Y-4.825
X7.725Y-5.075
X7.725Y-5.375
X7.725Y-5.525
X7.725Y-5.825
X7.775Y-6.625
X7.775Y-6.925
X7.825Y-1.275
X7.825Y-2.225
X7.825Y-2.575
X7.825Y-3.525
X7.825Y-3.875
X7.825Y-4.825
X7.825Y-5.075
X7.825Y-5.375
X7.825Y-5.525
X7.825Y-5.825
X7.875Y-6.175
X7.875Y-6.475
X7.875Y-6.625
X7.875Y-6.925
X7.925Y-5.075
X7.925Y-5.375
X7.975Y-6.175
X7.975Y-6.475
X7.975Y-6.625
X7.975Y-6.925
X8.025Y-1.275
X8.025Y-2.225
X8.025Y-2.575
X8.025Y-3.525
X8.025Y-3.875
X8.025Y-4.825
X8.075Y-6.175
X8.075Y-6.475
X8.075Y-6.625
X8.075Y-6.925
X8.125Y-1.275
X8.125Y-2.225
X8.125Y-2.575
X8.125Y-3.525
X8.125Y-3.875
X8.125Y-4.825
X8.175Y-6.175
X8.175Y-6.475
X8.175Y-6.625
X8.175Y-6.925
X8.225Y-1.275
X8.225Y-2.225
X8.225Y-2.575
X8.225Y-3.525
X8.225Y-3.875
X8.225Y-4.825
X8.275Y-6.175
X8.275Y-6.475
X8.275Y-6.625
X8.275Y-6.925
X8.325Y-1.275
X8.325Y-2.225
X8.325Y-2.575
X8.325Y-3.525
X8.325Y-3.875
X8.325Y-4.825
X8.375Y-6.175
X8.375Y-6.475
X8.375Y-6.625
X8.375Y-6.925
X8.425Y-1.275
X8.425Y-2.225
X8.425Y-2.575
X8.425Y-3.525
X8.425Y-3.875
X8.425Y-4.825
X8.425Y-5.525
X8.425Y-5.825
X8.475Y-6.175
X8.475Y-6.475
X8.475Y-6.625
X8.475Y-6.925
X8.525Y-1.275
X8.525Y-2.225
X8.525Y-2.575
X8.525Y-3.525
X8.525Y-3.875
X8.525Y-4.825
X8.525Y-5.075
X8.525Y-5.375
X8.525Y-5.525
X8.525Y-5.825
X8.575Y-6.175
X8.575Y-6.475
X8.625Y-1.275
X8.625Y-2.225
X8.625Y-2.575
X8.625Y-3.525
X8.625Y-3.875
X8.625Y-4.825
X8.625Y-5.075
X8.625Y-5.375
X8.625Y-5.525
X8.625Y-5.825
X8.725Y-1.275
X8.725Y-2.225
X8.725Y-2.575
X8.725Y-3.525
X8.725Y-3.875
X8.725Y-4.825
X8.725Y-5.075
X8.725Y-5.375
X8.725Y-5.525
X8.725Y-5.825
X8.825Y-1.275
X8.825Y-2.225
X8.825Y-2.575
X8.825Y-3.525
X8.825Y-3.875
X8.825Y-4.825
X8.825Y-5.075
X8.825Y-5.375
X8.825Y-5.525
X8.825Y-5.825
X8.925Y-1.275
X8.925Y-2.225
X8.925Y-2.575
X8.925Y-3.525
X8.925Y-3.875
X8.925Y-4.825
X8.925Y-5.075
X8.925Y-5.375
X8.925Y-5.525
X8.925Y-5.825
X9.025Y-1.275
X9.025Y-2.225
X9.025Y-2.575
X9.025Y-3.525
X9.025Y-3.875
X9.025Y-4.825
X9.025Y-5.075
X9.025Y-5.375
X9.025Y-5.525
X9.025Y-5.825
X9.075Y-6.625
X9.075Y-6.925
X9.125Y-1.275
X9.125Y-2.225
X9.125Y-2.575
X9.125Y-3.525
X9.125Y-3.875
X9.125Y-4.825
X9.125Y-5.075
X9.125Y-5.375
X9.125Y-5.525
X9.125Y-5.825
X9.175Y-6.175
X9.175Y-6.475
X9.175Y-6.625
X9.175Y-6.925
X9.225Y-5.075
X9.225Y-5.375
X9.275Y-6.175
X9.275Y-6.475
X9.275Y-6.625
X9.275Y-6.925
X9.325Y-1.275
X9.325Y-2.225
X9.325Y-2.575
X9.325Y-3.525
X9.325Y-3.875
X9.325Y-4.825
X9.375Y-6.175
X9.375Y-6.475
X9.375Y-6.625
X9.375Y-6.925
X9.425Y-1.275
X9.425Y-2.225
X9.425Y-2.575
X9.425Y-3.525
X9.425Y-3.875
X9.425Y-4.825
X9.475Y-6.175
X9.475Y-6.475
X9.475Y-6.625
X9.475Y-6.925
X9.525Y-1.275
X9.525Y-2.225
X9.525Y-2.575
X9.525Y-3.525
X9.525Y-3.875
X9.525Y-4.825
X9.575Y-6.175
X9.575Y-6.475
X9.575Y-6.625
X9.575Y-6.925
X9.625Y-1.275
X9.625Y-2.225
X9.625Y-2.575
X9.625Y-3.525
X9.625Y-3.875
X9.625Y-4.825
X9.675Y-6.175
X9.675Y-6.475
X9.675Y-6.625
X9.675Y-6.925
X9.725Y-1.275
X9.725Y-2.225
X9.725Y-2.575
X9.725Y-3.525
X9.725Y-3.875
X9.725Y-4.825
X9.725Y-5.525
X9.725Y-5.825
X9.775Y-6.175
X9.775Y-6.475
X9.775Y-6.625
X9.775Y-6.925
X9.825Y-1.275
X9.825Y-2.225
X9.825Y-2.575
X9.825Y-3.525
X9.825Y-3.875
X9.825Y-4.825
X9.825Y-5.075
X9.825Y-5.375
X9.825Y-5.525
X9.825Y-5.825
X9.875Y-6.175
X9.875Y-6.475
X9.925Y-1.275
X9.925Y-2.225
X9.925Y-2.575
X9.925Y-3.525
X9.925Y-3.875
X9.925Y-4.825
X9.925Y-5.075
X9.925Y-5.375
X9.925Y-5.525
X9.925Y-5.825
X10.025Y-1.275
X10.025Y-2.225
X10.025Y-2.575
X10.025Y-3.525
X10.025Y-3.875
X10.025Y-4.825
X10.025Y-5.075
X10.025Y-5.375
X10.025Y-5.525
X10.025Y-5.825
X10.125Y-1.275
X10.125Y-2.225
X10.125Y-2.575
X10.125Y-3.525
X10.125Y-3.875
X10.125Y-4.825
X10.125Y-5.075
X10.125Y-5.375
X10.125Y-5.525
X10.125Y-5.825
X10.225Y-1.275
X10.225Y-2.225
X10.225Y-2.575
X10.225Y-3.525
X10.225Y-3.875
X10.225Y-4.825
X10.225Y-5.075
X10.225Y-5.375
X10.225Y-5.525
X10.225Y-5.825
X10.325Y-1.275
X10.325Y-2.225
X10.325Y-2.575
X10.325Y-3.525
X10.325Y-3.875
X10.325Y-4.825
X10.325Y-5.075
X10.325Y-5.375
X10.325Y-5.525
X10.325Y-5.825
X10.425Y-1.275
X10.425Y-2.225
X10.425Y-2.575
X10.425Y-3.525
X10.425Y-3.875
X10.425Y-4.825
X10.425Y-5.075
X10.425Y-5.375
X10.425Y-5.525
X10.425Y-5.825
X10.525Y-5.075
X10.525Y-5.375
T3
X3.880Y-5.700
X3.880Y-6.250
X3.880Y-6.800
X4.000Y-5.700
X4.000Y-6.250
X4.000Y-6.800
X4.120Y-5.700
X4.120Y-6.250
X4.120Y-6.800
T4
X3.825Y-4.963
X3.825Y-5.138
X4.075Y-4.963
X4.075Y-5.138
T5
X4.300Y-4.100
X4.300Y-4.200
X4.300Y-4.300
T6
X3.768Y-5.700
X3.768Y-6.250
X3.768Y-6.800
X4.232Y-5.700
X4.232Y-6.250
X4.232Y-6.800
T7
X5.100Y-0.800
X5.100Y-5.300
X10.850Y-0.800
X10.850Y-5.300
T0
M30
