G04 (created by PCBNEW-RS274X (2012-01-19 BZR 3256)-stable) date 7/17/2013 1:40:20 PM*
G01*
G70*
G90*
%MOIN*%
G04 Gerber Fmt 3.4, Leading zero omitted, Abs format*
%FSLAX34Y34*%
G04 APERTURE LIST*
%ADD10C,0.006000*%
%ADD11C,0.160000*%
%ADD12R,0.055000X0.055000*%
%ADD13C,0.055000*%
%ADD14R,0.060000X0.060000*%
%ADD15C,0.060000*%
%ADD16R,0.090000X0.062000*%
%ADD17O,0.090000X0.062000*%
%ADD18C,0.070000*%
%ADD19R,0.070000X0.070000*%
%ADD20R,0.062000X0.090000*%
%ADD21O,0.062000X0.090000*%
%ADD22C,0.067000*%
%ADD23C,0.065000*%
%ADD24C,0.099000*%
%ADD25C,0.035000*%
%ADD26C,0.012000*%
%ADD27C,0.008000*%
%ADD28C,0.010000*%
G04 APERTURE END LIST*
G54D10*
G54D11*
X108500Y-53000D03*
X108500Y-08000D03*
G54D12*
X38500Y-41500D03*
G54D13*
X38500Y-40500D03*
G54D12*
X38500Y-43500D03*
G54D13*
X38500Y-44500D03*
G54D14*
X65250Y-12750D03*
G54D15*
X64250Y-12750D03*
X63250Y-12750D03*
X62250Y-12750D03*
X61250Y-12750D03*
X60250Y-12750D03*
X59250Y-12750D03*
X58250Y-12750D03*
X57250Y-12750D03*
X56250Y-12750D03*
X55250Y-12750D03*
X54250Y-12750D03*
X54250Y-22250D03*
X55250Y-22250D03*
X56250Y-22250D03*
X57250Y-22250D03*
X58250Y-22250D03*
X59250Y-22250D03*
X60250Y-22250D03*
X61250Y-22250D03*
X62250Y-22250D03*
X63250Y-22250D03*
X64250Y-22250D03*
X65250Y-22250D03*
G54D14*
X65250Y-25750D03*
G54D15*
X64250Y-25750D03*
X63250Y-25750D03*
X62250Y-25750D03*
X61250Y-25750D03*
X60250Y-25750D03*
X59250Y-25750D03*
X58250Y-25750D03*
X57250Y-25750D03*
X56250Y-25750D03*
X55250Y-25750D03*
X54250Y-25750D03*
X54250Y-35250D03*
X55250Y-35250D03*
X56250Y-35250D03*
X57250Y-35250D03*
X58250Y-35250D03*
X59250Y-35250D03*
X60250Y-35250D03*
X61250Y-35250D03*
X62250Y-35250D03*
X63250Y-35250D03*
X64250Y-35250D03*
X65250Y-35250D03*
G54D14*
X65250Y-38750D03*
G54D15*
X64250Y-38750D03*
X63250Y-38750D03*
X62250Y-38750D03*
X61250Y-38750D03*
X60250Y-38750D03*
X59250Y-38750D03*
X58250Y-38750D03*
X57250Y-38750D03*
X56250Y-38750D03*
X55250Y-38750D03*
X54250Y-38750D03*
X54250Y-48250D03*
X55250Y-48250D03*
X56250Y-48250D03*
X57250Y-48250D03*
X58250Y-48250D03*
X59250Y-48250D03*
X60250Y-48250D03*
X61250Y-48250D03*
X62250Y-48250D03*
X63250Y-48250D03*
X64250Y-48250D03*
X65250Y-48250D03*
G54D14*
X78250Y-12750D03*
G54D15*
X77250Y-12750D03*
X76250Y-12750D03*
X75250Y-12750D03*
X74250Y-12750D03*
X73250Y-12750D03*
X72250Y-12750D03*
X71250Y-12750D03*
X70250Y-12750D03*
X69250Y-12750D03*
X68250Y-12750D03*
X67250Y-12750D03*
X67250Y-22250D03*
X68250Y-22250D03*
X69250Y-22250D03*
X70250Y-22250D03*
X71250Y-22250D03*
X72250Y-22250D03*
X73250Y-22250D03*
X74250Y-22250D03*
X75250Y-22250D03*
X76250Y-22250D03*
X77250Y-22250D03*
X78250Y-22250D03*
G54D14*
X78250Y-25750D03*
G54D15*
X77250Y-25750D03*
X76250Y-25750D03*
X75250Y-25750D03*
X74250Y-25750D03*
X73250Y-25750D03*
X72250Y-25750D03*
X71250Y-25750D03*
X70250Y-25750D03*
X69250Y-25750D03*
X68250Y-25750D03*
X67250Y-25750D03*
X67250Y-35250D03*
X68250Y-35250D03*
X69250Y-35250D03*
X70250Y-35250D03*
X71250Y-35250D03*
X72250Y-35250D03*
X73250Y-35250D03*
X74250Y-35250D03*
X75250Y-35250D03*
X76250Y-35250D03*
X77250Y-35250D03*
X78250Y-35250D03*
G54D14*
X78250Y-38750D03*
G54D15*
X77250Y-38750D03*
X76250Y-38750D03*
X75250Y-38750D03*
X74250Y-38750D03*
X73250Y-38750D03*
X72250Y-38750D03*
X71250Y-38750D03*
X70250Y-38750D03*
X69250Y-38750D03*
X68250Y-38750D03*
X67250Y-38750D03*
X67250Y-48250D03*
X68250Y-48250D03*
X69250Y-48250D03*
X70250Y-48250D03*
X71250Y-48250D03*
X72250Y-48250D03*
X73250Y-48250D03*
X74250Y-48250D03*
X75250Y-48250D03*
X76250Y-48250D03*
X77250Y-48250D03*
X78250Y-48250D03*
G54D14*
X91250Y-12750D03*
G54D15*
X90250Y-12750D03*
X89250Y-12750D03*
X88250Y-12750D03*
X87250Y-12750D03*
X86250Y-12750D03*
X85250Y-12750D03*
X84250Y-12750D03*
X83250Y-12750D03*
X82250Y-12750D03*
X81250Y-12750D03*
X80250Y-12750D03*
X80250Y-22250D03*
X81250Y-22250D03*
X82250Y-22250D03*
X83250Y-22250D03*
X84250Y-22250D03*
X85250Y-22250D03*
X86250Y-22250D03*
X87250Y-22250D03*
X88250Y-22250D03*
X89250Y-22250D03*
X90250Y-22250D03*
X91250Y-22250D03*
G54D14*
X91250Y-25750D03*
G54D15*
X90250Y-25750D03*
X89250Y-25750D03*
X88250Y-25750D03*
X87250Y-25750D03*
X86250Y-25750D03*
X85250Y-25750D03*
X84250Y-25750D03*
X83250Y-25750D03*
X82250Y-25750D03*
X81250Y-25750D03*
X80250Y-25750D03*
X80250Y-35250D03*
X81250Y-35250D03*
X82250Y-35250D03*
X83250Y-35250D03*
X84250Y-35250D03*
X85250Y-35250D03*
X86250Y-35250D03*
X87250Y-35250D03*
X88250Y-35250D03*
X89250Y-35250D03*
X90250Y-35250D03*
X91250Y-35250D03*
G54D14*
X91250Y-38750D03*
G54D15*
X90250Y-38750D03*
X89250Y-38750D03*
X88250Y-38750D03*
X87250Y-38750D03*
X86250Y-38750D03*
X85250Y-38750D03*
X84250Y-38750D03*
X83250Y-38750D03*
X82250Y-38750D03*
X81250Y-38750D03*
X80250Y-38750D03*
X80250Y-48250D03*
X81250Y-48250D03*
X82250Y-48250D03*
X83250Y-48250D03*
X84250Y-48250D03*
X85250Y-48250D03*
X86250Y-48250D03*
X87250Y-48250D03*
X88250Y-48250D03*
X89250Y-48250D03*
X90250Y-48250D03*
X91250Y-48250D03*
G54D14*
X104250Y-12750D03*
G54D15*
X103250Y-12750D03*
X102250Y-12750D03*
X101250Y-12750D03*
X100250Y-12750D03*
X99250Y-12750D03*
X98250Y-12750D03*
X97250Y-12750D03*
X96250Y-12750D03*
X95250Y-12750D03*
X94250Y-12750D03*
X93250Y-12750D03*
X93250Y-22250D03*
X94250Y-22250D03*
X95250Y-22250D03*
X96250Y-22250D03*
X97250Y-22250D03*
X98250Y-22250D03*
X99250Y-22250D03*
X100250Y-22250D03*
X101250Y-22250D03*
X102250Y-22250D03*
X103250Y-22250D03*
X104250Y-22250D03*
G54D14*
X104250Y-25750D03*
G54D15*
X103250Y-25750D03*
X102250Y-25750D03*
X101250Y-25750D03*
X100250Y-25750D03*
X99250Y-25750D03*
X98250Y-25750D03*
X97250Y-25750D03*
X96250Y-25750D03*
X95250Y-25750D03*
X94250Y-25750D03*
X93250Y-25750D03*
X93250Y-35250D03*
X94250Y-35250D03*
X95250Y-35250D03*
X96250Y-35250D03*
X97250Y-35250D03*
X98250Y-35250D03*
X99250Y-35250D03*
X100250Y-35250D03*
X101250Y-35250D03*
X102250Y-35250D03*
X103250Y-35250D03*
X104250Y-35250D03*
G54D14*
X104250Y-38750D03*
G54D15*
X103250Y-38750D03*
X102250Y-38750D03*
X101250Y-38750D03*
X100250Y-38750D03*
X99250Y-38750D03*
X98250Y-38750D03*
X97250Y-38750D03*
X96250Y-38750D03*
X95250Y-38750D03*
X94250Y-38750D03*
X93250Y-38750D03*
X93250Y-48250D03*
X94250Y-48250D03*
X95250Y-48250D03*
X96250Y-48250D03*
X97250Y-48250D03*
X98250Y-48250D03*
X99250Y-48250D03*
X100250Y-48250D03*
X101250Y-48250D03*
X102250Y-48250D03*
X103250Y-48250D03*
X104250Y-48250D03*
G54D16*
X52000Y-20500D03*
G54D17*
X52000Y-19500D03*
X52000Y-18500D03*
X52000Y-17500D03*
X52000Y-16500D03*
X52000Y-15500D03*
X52000Y-14500D03*
X52000Y-13500D03*
X49000Y-13500D03*
X49000Y-14500D03*
X49000Y-15500D03*
X49000Y-16500D03*
X49000Y-17500D03*
X49000Y-18500D03*
X49000Y-19500D03*
X49000Y-20500D03*
G54D16*
X52000Y-33500D03*
G54D17*
X52000Y-32500D03*
X52000Y-31500D03*
X52000Y-30500D03*
X52000Y-29500D03*
X52000Y-28500D03*
X52000Y-27500D03*
X52000Y-26500D03*
X49000Y-26500D03*
X49000Y-27500D03*
X49000Y-28500D03*
X49000Y-29500D03*
X49000Y-30500D03*
X49000Y-31500D03*
X49000Y-32500D03*
X49000Y-33500D03*
G54D16*
X52000Y-46500D03*
G54D17*
X52000Y-45500D03*
X52000Y-44500D03*
X52000Y-43500D03*
X52000Y-42500D03*
X52000Y-41500D03*
X52000Y-40500D03*
X52000Y-39500D03*
X49000Y-39500D03*
X49000Y-40500D03*
X49000Y-41500D03*
X49000Y-42500D03*
X49000Y-43500D03*
X49000Y-44500D03*
X49000Y-45500D03*
X49000Y-46500D03*
G54D18*
X43000Y-41000D03*
X43000Y-42000D03*
G54D19*
X43000Y-43000D03*
G54D13*
X65250Y-53750D03*
X65250Y-50750D03*
X73250Y-53750D03*
X73250Y-50750D03*
X72250Y-53750D03*
X72250Y-50750D03*
X74250Y-53750D03*
X74250Y-50750D03*
X75250Y-53750D03*
X75250Y-50750D03*
X62250Y-53750D03*
X62250Y-50750D03*
X61250Y-53750D03*
X61250Y-50750D03*
X59250Y-53750D03*
X59250Y-50750D03*
X60250Y-53750D03*
X60250Y-50750D03*
X64250Y-53750D03*
X64250Y-50750D03*
X63250Y-53750D03*
X63250Y-50750D03*
X76250Y-53750D03*
X76250Y-50750D03*
X66250Y-53750D03*
X66250Y-50750D03*
X94750Y-64750D03*
X94750Y-61750D03*
X93750Y-64750D03*
X93750Y-61750D03*
X91750Y-64750D03*
X91750Y-61750D03*
X92750Y-64750D03*
X92750Y-61750D03*
X96750Y-64750D03*
X96750Y-61750D03*
X95750Y-64750D03*
X95750Y-61750D03*
X97750Y-64750D03*
X97750Y-61750D03*
X87250Y-53750D03*
X87250Y-50750D03*
X105250Y-53750D03*
X105250Y-50750D03*
X104250Y-53750D03*
X104250Y-50750D03*
X102250Y-53750D03*
X102250Y-50750D03*
X103250Y-53750D03*
X103250Y-50750D03*
X99250Y-53750D03*
X99250Y-50750D03*
X98250Y-53750D03*
X98250Y-50750D03*
X100250Y-53750D03*
X100250Y-50750D03*
X101250Y-53750D03*
X101250Y-50750D03*
X88250Y-53750D03*
X88250Y-50750D03*
X77250Y-53750D03*
X77250Y-50750D03*
X85250Y-53750D03*
X85250Y-50750D03*
X86250Y-53750D03*
X86250Y-50750D03*
X90250Y-53750D03*
X90250Y-50750D03*
X89250Y-53750D03*
X89250Y-50750D03*
X91250Y-53750D03*
X91250Y-50750D03*
X92250Y-53750D03*
X92250Y-50750D03*
X79250Y-53750D03*
X79250Y-50750D03*
X78250Y-53750D03*
X78250Y-50750D03*
X85750Y-64750D03*
X85750Y-61750D03*
X98750Y-64750D03*
X98750Y-61750D03*
X43000Y-49500D03*
X46000Y-49500D03*
X44000Y-55500D03*
X47000Y-55500D03*
X48000Y-60000D03*
X48000Y-57000D03*
X44000Y-60000D03*
X47000Y-60000D03*
X48000Y-64000D03*
X48000Y-61000D03*
X44000Y-64250D03*
X47000Y-64250D03*
X44000Y-65500D03*
X47000Y-65500D03*
X59750Y-64750D03*
X59750Y-61750D03*
X58750Y-64750D03*
X58750Y-61750D03*
X56750Y-64750D03*
X56750Y-61750D03*
X57750Y-64750D03*
X57750Y-61750D03*
X53750Y-64750D03*
X53750Y-61750D03*
X52750Y-64750D03*
X52750Y-61750D03*
X54750Y-64750D03*
X54750Y-61750D03*
X55750Y-64750D03*
X55750Y-61750D03*
X68750Y-64750D03*
X68750Y-61750D03*
X84750Y-64750D03*
X84750Y-61750D03*
X82750Y-64750D03*
X82750Y-61750D03*
X83750Y-64750D03*
X83750Y-61750D03*
X79750Y-64750D03*
X79750Y-61750D03*
X78750Y-64750D03*
X78750Y-61750D03*
X80750Y-64750D03*
X80750Y-61750D03*
X81750Y-64750D03*
X81750Y-61750D03*
X72750Y-64750D03*
X72750Y-61750D03*
X71750Y-64750D03*
X71750Y-61750D03*
X69750Y-64750D03*
X69750Y-61750D03*
X70750Y-64750D03*
X70750Y-61750D03*
X66750Y-64750D03*
X66750Y-61750D03*
X65750Y-64750D03*
X65750Y-61750D03*
X67750Y-64750D03*
X67750Y-61750D03*
G54D20*
X97750Y-66250D03*
G54D21*
X96750Y-66250D03*
X95750Y-66250D03*
X94750Y-66250D03*
X93750Y-66250D03*
X92750Y-66250D03*
X91750Y-66250D03*
X90750Y-66250D03*
X90750Y-69250D03*
X91750Y-69250D03*
X92750Y-69250D03*
X93750Y-69250D03*
X94750Y-69250D03*
X95750Y-69250D03*
X96750Y-69250D03*
X97750Y-69250D03*
G54D20*
X84750Y-66250D03*
G54D21*
X83750Y-66250D03*
X82750Y-66250D03*
X81750Y-66250D03*
X80750Y-66250D03*
X79750Y-66250D03*
X78750Y-66250D03*
X77750Y-66250D03*
X77750Y-69250D03*
X78750Y-69250D03*
X79750Y-69250D03*
X80750Y-69250D03*
X81750Y-69250D03*
X82750Y-69250D03*
X83750Y-69250D03*
X84750Y-69250D03*
G54D20*
X71750Y-66250D03*
G54D21*
X70750Y-66250D03*
X69750Y-66250D03*
X68750Y-66250D03*
X67750Y-66250D03*
X66750Y-66250D03*
X65750Y-66250D03*
X64750Y-66250D03*
X64750Y-69250D03*
X65750Y-69250D03*
X66750Y-69250D03*
X67750Y-69250D03*
X68750Y-69250D03*
X69750Y-69250D03*
X70750Y-69250D03*
X71750Y-69250D03*
G54D20*
X58750Y-66250D03*
G54D21*
X57750Y-66250D03*
X56750Y-66250D03*
X55750Y-66250D03*
X54750Y-66250D03*
X53750Y-66250D03*
X52750Y-66250D03*
X51750Y-66250D03*
X51750Y-69250D03*
X52750Y-69250D03*
X53750Y-69250D03*
X54750Y-69250D03*
X55750Y-69250D03*
X56750Y-69250D03*
X57750Y-69250D03*
X58750Y-69250D03*
G54D20*
X104250Y-55250D03*
G54D21*
X103250Y-55250D03*
X102250Y-55250D03*
X101250Y-55250D03*
X100250Y-55250D03*
X99250Y-55250D03*
X98250Y-55250D03*
X97250Y-55250D03*
X97250Y-58250D03*
X98250Y-58250D03*
X99250Y-58250D03*
X100250Y-58250D03*
X101250Y-58250D03*
X102250Y-58250D03*
X103250Y-58250D03*
X104250Y-58250D03*
G54D20*
X65250Y-55250D03*
G54D21*
X64250Y-55250D03*
X63250Y-55250D03*
X62250Y-55250D03*
X61250Y-55250D03*
X60250Y-55250D03*
X59250Y-55250D03*
X58250Y-55250D03*
X58250Y-58250D03*
X59250Y-58250D03*
X60250Y-58250D03*
X61250Y-58250D03*
X62250Y-58250D03*
X63250Y-58250D03*
X64250Y-58250D03*
X65250Y-58250D03*
G54D20*
X78250Y-55250D03*
G54D21*
X77250Y-55250D03*
X76250Y-55250D03*
X75250Y-55250D03*
X74250Y-55250D03*
X73250Y-55250D03*
X72250Y-55250D03*
X71250Y-55250D03*
X71250Y-58250D03*
X72250Y-58250D03*
X73250Y-58250D03*
X74250Y-58250D03*
X75250Y-58250D03*
X76250Y-58250D03*
X77250Y-58250D03*
X78250Y-58250D03*
G54D20*
X91250Y-55250D03*
G54D21*
X90250Y-55250D03*
X89250Y-55250D03*
X88250Y-55250D03*
X87250Y-55250D03*
X86250Y-55250D03*
X85250Y-55250D03*
X84250Y-55250D03*
X84250Y-58250D03*
X85250Y-58250D03*
X86250Y-58250D03*
X87250Y-58250D03*
X88250Y-58250D03*
X89250Y-58250D03*
X90250Y-58250D03*
X91250Y-58250D03*
G54D13*
X45000Y-41500D03*
X45000Y-43500D03*
G54D14*
X40500Y-44500D03*
G54D15*
X40500Y-43500D03*
G54D14*
X40500Y-40500D03*
G54D15*
X40500Y-41500D03*
G54D12*
X35000Y-32750D03*
G54D13*
X35000Y-31750D03*
X35000Y-30750D03*
X35000Y-29750D03*
G54D15*
X38500Y-10000D03*
X38500Y-11000D03*
X38500Y-12000D03*
X38500Y-13000D03*
X38500Y-14000D03*
X38500Y-15000D03*
X38500Y-16000D03*
X38500Y-17000D03*
X38500Y-18000D03*
X38500Y-22000D03*
X38500Y-23000D03*
X38500Y-24000D03*
X38500Y-25000D03*
X43500Y-25000D03*
X43500Y-24000D03*
X43500Y-23000D03*
X43500Y-22000D03*
X43500Y-21000D03*
X43500Y-20000D03*
X43500Y-19000D03*
X43500Y-18000D03*
X43500Y-17000D03*
X43500Y-16000D03*
X43500Y-15000D03*
X43500Y-14000D03*
X43500Y-13000D03*
X43500Y-12000D03*
X43500Y-11000D03*
X43500Y-10000D03*
G54D11*
X51000Y-53000D03*
G54D22*
X38250Y-49625D03*
X38250Y-51375D03*
X40750Y-51375D03*
X40750Y-49625D03*
G54D11*
X51000Y-08000D03*
G54D23*
X38800Y-57000D03*
X40000Y-57000D03*
G54D24*
X37680Y-57000D03*
X42320Y-57000D03*
G54D23*
X41200Y-57000D03*
X38800Y-62500D03*
X40000Y-62500D03*
G54D24*
X37680Y-62500D03*
X42320Y-62500D03*
G54D23*
X41200Y-62500D03*
X38800Y-68000D03*
X40000Y-68000D03*
G54D24*
X37680Y-68000D03*
X42320Y-68000D03*
G54D23*
X41200Y-68000D03*
G54D25*
X51750Y-35000D03*
X47500Y-33750D03*
X60250Y-56750D03*
X86250Y-56750D03*
X92000Y-67250D03*
X66750Y-67250D03*
X53750Y-37500D03*
X73250Y-56750D03*
X60250Y-67250D03*
X99250Y-56750D03*
X53750Y-67250D03*
X61500Y-63750D03*
X46250Y-33250D03*
X54250Y-56750D03*
X60250Y-60500D03*
X79750Y-67250D03*
X54750Y-67750D03*
X50750Y-29500D03*
X67750Y-67750D03*
X100500Y-61250D03*
X93250Y-67750D03*
X87250Y-60500D03*
X53250Y-39500D03*
X50500Y-17000D03*
X50750Y-38250D03*
X53250Y-42000D03*
X62750Y-44000D03*
X56750Y-42000D03*
X57250Y-44000D03*
X80750Y-67750D03*
X99500Y-65500D03*
X61250Y-60500D03*
X100500Y-59500D03*
X74250Y-60500D03*
X94250Y-70500D03*
X55250Y-65250D03*
X54750Y-44000D03*
X75250Y-60000D03*
X55750Y-70500D03*
X101250Y-60000D03*
X101250Y-61250D03*
X62250Y-60000D03*
X68750Y-70500D03*
X88250Y-60000D03*
X100000Y-60000D03*
X50250Y-30500D03*
X50250Y-18000D03*
X101250Y-69250D03*
X47500Y-17500D03*
X54750Y-50250D03*
X50250Y-44000D03*
X81750Y-70500D03*
X55250Y-61250D03*
X55500Y-54750D03*
X40000Y-21500D03*
X101750Y-46500D03*
X51250Y-36250D03*
X52750Y-38250D03*
X53250Y-45000D03*
X102750Y-49000D03*
X97500Y-52250D03*
X95250Y-51000D03*
X105250Y-48250D03*
X102000Y-41250D03*
X100750Y-42500D03*
X95750Y-50500D03*
X88750Y-46000D03*
X53250Y-46000D03*
X39750Y-22000D03*
X89750Y-49000D03*
X84500Y-52250D03*
X82250Y-51000D03*
X92250Y-48250D03*
X89000Y-41750D03*
X87750Y-43000D03*
X82750Y-50500D03*
X75750Y-47000D03*
X53250Y-47000D03*
X39250Y-22500D03*
X76750Y-49000D03*
X71500Y-52000D03*
X69250Y-51000D03*
X79250Y-48250D03*
X76000Y-41000D03*
X74750Y-42250D03*
X69750Y-50500D03*
X51000Y-48500D03*
X63250Y-49000D03*
X58500Y-52250D03*
X56250Y-51000D03*
X66250Y-48250D03*
X61750Y-42000D03*
X62750Y-41000D03*
X56750Y-50500D03*
X102000Y-63500D03*
X102000Y-62750D03*
X45000Y-19250D03*
X102000Y-62000D03*
X44500Y-34000D03*
X54500Y-63750D03*
X56000Y-63750D03*
X106250Y-63750D03*
X106750Y-62750D03*
X106000Y-62000D03*
X60250Y-34000D03*
X86250Y-34000D03*
X73250Y-34000D03*
X99250Y-34000D03*
X83250Y-24000D03*
X96250Y-24000D03*
X70250Y-24000D03*
X96250Y-33000D03*
X57250Y-33000D03*
X70250Y-33000D03*
X83250Y-33000D03*
X52500Y-34500D03*
X73250Y-46500D03*
X99250Y-47000D03*
X86250Y-47000D03*
X60250Y-46500D03*
X92750Y-44500D03*
X80250Y-44500D03*
X67250Y-44500D03*
X54250Y-44500D03*
X86250Y-37500D03*
X99250Y-37500D03*
X73250Y-37500D03*
X57250Y-20000D03*
X70250Y-20000D03*
X83250Y-20000D03*
X96250Y-20000D03*
X99250Y-24500D03*
X73250Y-24500D03*
X86250Y-24500D03*
X93250Y-32000D03*
X80250Y-32000D03*
X67250Y-32000D03*
X54250Y-32000D03*
X50500Y-46250D03*
X83250Y-37000D03*
X96250Y-37000D03*
X70250Y-37000D03*
X70250Y-45500D03*
X57250Y-45500D03*
X96250Y-46000D03*
X83250Y-45500D03*
X93250Y-36500D03*
X51250Y-32000D03*
X67250Y-36500D03*
X80250Y-36500D03*
X93250Y-23500D03*
X67250Y-23500D03*
X51250Y-19000D03*
X80250Y-23500D03*
X83250Y-11000D03*
X70250Y-11000D03*
X95750Y-11000D03*
X73250Y-11500D03*
X98500Y-11500D03*
X86250Y-11500D03*
X67250Y-10500D03*
X92750Y-10500D03*
X80250Y-10500D03*
X80250Y-19000D03*
X54250Y-19000D03*
X67250Y-19000D03*
X93250Y-19000D03*
X99250Y-21000D03*
X60250Y-21000D03*
X86250Y-21000D03*
X73250Y-21000D03*
X52500Y-21500D03*
X36250Y-33000D03*
X38500Y-46500D03*
X35500Y-45750D03*
X35500Y-21500D03*
X46750Y-34750D03*
X45250Y-13000D03*
X46500Y-19250D03*
X46500Y-25750D03*
X45500Y-26750D03*
X47000Y-43000D03*
X45500Y-52750D03*
X44500Y-48750D03*
X44500Y-46750D03*
X37250Y-17000D03*
X41500Y-47250D03*
X96250Y-52250D03*
X96250Y-54250D03*
X94250Y-51250D03*
X95500Y-52750D03*
X95500Y-54250D03*
X94750Y-54250D03*
X104750Y-47000D03*
X100750Y-41250D03*
X99250Y-42750D03*
X41000Y-47500D03*
X83250Y-54250D03*
X83250Y-52250D03*
X81250Y-51250D03*
X82500Y-52750D03*
X82500Y-54250D03*
X91750Y-47750D03*
X81750Y-54250D03*
X86250Y-43250D03*
X87750Y-41750D03*
X40500Y-47750D03*
X37000Y-28000D03*
X70250Y-52750D03*
X70250Y-54250D03*
X68250Y-50500D03*
X69500Y-54250D03*
X69500Y-52750D03*
X78750Y-47750D03*
X68750Y-54250D03*
X72750Y-43000D03*
X74750Y-41000D03*
X37000Y-29750D03*
X40000Y-48000D03*
X57250Y-54250D03*
X57250Y-52250D03*
X55250Y-51250D03*
X56500Y-52750D03*
X55250Y-50000D03*
X56500Y-54250D03*
X55750Y-54250D03*
X65750Y-47750D03*
X59750Y-43000D03*
X61750Y-41000D03*
X47250Y-34250D03*
X47500Y-44250D03*
X44250Y-26250D03*
X42500Y-25750D03*
X47500Y-41250D03*
X48000Y-40750D03*
X50000Y-69750D03*
X49750Y-69250D03*
X51000Y-57500D03*
X40500Y-16750D03*
X50500Y-58500D03*
X51250Y-58250D03*
X47500Y-40250D03*
X49500Y-70000D03*
G54D26*
X38500Y-44500D02*
X40500Y-44500D01*
X43500Y-43500D02*
X43000Y-43000D01*
X45000Y-43500D02*
X43500Y-43500D01*
X41500Y-44500D02*
X43000Y-43000D01*
X40500Y-44500D02*
X41500Y-44500D01*
G54D27*
X79750Y-67250D02*
X79750Y-69250D01*
X54250Y-53000D02*
X54250Y-49250D01*
X92750Y-69250D02*
X92750Y-68000D01*
X51750Y-35000D02*
X49250Y-35000D01*
X92750Y-68000D02*
X92000Y-67250D01*
X86250Y-56750D02*
X86250Y-58250D01*
X60250Y-65000D02*
X61500Y-63750D01*
X79750Y-67250D02*
X79750Y-67250D01*
X99250Y-56750D02*
X99250Y-58250D01*
X60250Y-58250D02*
X60250Y-56750D01*
X73250Y-56750D02*
X73250Y-58250D01*
X49250Y-35000D02*
X48750Y-35000D01*
X53750Y-67250D02*
X53750Y-67250D01*
X46250Y-33250D02*
X44000Y-33250D01*
X60250Y-65000D02*
X60250Y-67250D01*
X44000Y-33250D02*
X43500Y-32750D01*
X53750Y-48750D02*
X53750Y-42000D01*
X48750Y-35000D02*
X47500Y-33750D01*
X43500Y-31750D02*
X43500Y-25000D01*
X54250Y-49250D02*
X53750Y-48750D01*
X66750Y-69250D02*
X66750Y-67250D01*
X92000Y-67250D02*
X92000Y-67250D01*
X60250Y-58250D02*
X60250Y-60500D01*
X53750Y-42000D02*
X53750Y-37750D01*
X53750Y-37750D02*
X53750Y-37500D01*
X54250Y-56750D02*
X54250Y-53000D01*
X53750Y-67250D02*
X53750Y-69250D01*
X43500Y-32750D02*
X43500Y-31750D01*
X43500Y-32750D02*
X43500Y-31750D01*
X54750Y-69250D02*
X54750Y-69000D01*
X61250Y-60500D02*
X61250Y-58250D01*
X61250Y-58250D02*
X61250Y-56750D01*
X100250Y-59250D02*
X100250Y-58250D01*
X93750Y-69250D02*
X93750Y-68250D01*
X57250Y-44000D02*
X57000Y-43750D01*
X100500Y-64500D02*
X100500Y-61250D01*
X54750Y-69000D02*
X54750Y-67750D01*
X93750Y-68250D02*
X93250Y-67750D01*
X87250Y-60500D02*
X87250Y-58250D01*
X74250Y-60500D02*
X74250Y-58250D01*
X50750Y-29500D02*
X49000Y-29500D01*
X67750Y-67750D02*
X67750Y-69250D01*
X99500Y-65500D02*
X100500Y-64500D01*
X49000Y-16500D02*
X49000Y-15500D01*
X62750Y-51500D02*
X62750Y-47750D01*
X44500Y-23000D02*
X46000Y-21500D01*
X50500Y-17000D02*
X50000Y-16500D01*
X50000Y-16500D02*
X49000Y-16500D01*
X61750Y-52500D02*
X62750Y-51500D01*
X46000Y-21500D02*
X46000Y-16750D01*
X61250Y-56750D02*
X61750Y-56250D01*
X50000Y-40750D02*
X49250Y-41500D01*
X57000Y-42250D02*
X56750Y-42000D01*
X46000Y-16750D02*
X47250Y-15500D01*
X61750Y-56250D02*
X61750Y-52500D01*
X57000Y-43750D02*
X57000Y-42250D01*
X44500Y-23000D02*
X43500Y-24000D01*
X49000Y-41500D02*
X49250Y-41500D01*
X100500Y-59500D02*
X100250Y-59250D01*
X80750Y-67750D02*
X80750Y-69250D01*
X53250Y-42000D02*
X53250Y-39500D01*
X49000Y-15500D02*
X47250Y-15500D01*
X49000Y-29500D02*
X49000Y-28500D01*
X49000Y-41500D02*
X49000Y-42500D01*
X62750Y-47750D02*
X62750Y-44000D01*
X50750Y-38250D02*
X50000Y-39000D01*
X50000Y-39000D02*
X50000Y-40750D01*
X94750Y-69250D02*
X94750Y-70000D01*
X62250Y-58250D02*
X62250Y-60000D01*
X68750Y-70000D02*
X68750Y-70250D01*
X47500Y-17500D02*
X48000Y-17500D01*
X68750Y-70250D02*
X68750Y-70500D01*
X55250Y-66750D02*
X55250Y-65250D01*
X81750Y-70500D02*
X81750Y-69250D01*
X101250Y-69250D02*
X101250Y-61250D01*
X48000Y-17500D02*
X49000Y-17500D01*
X54750Y-50250D02*
X54750Y-44500D01*
X50000Y-44000D02*
X49500Y-43500D01*
X101250Y-58250D02*
X101250Y-60000D01*
X49750Y-17500D02*
X49000Y-17500D01*
X94750Y-70000D02*
X94250Y-70500D01*
X55500Y-54750D02*
X55500Y-61000D01*
X55750Y-70500D02*
X55750Y-69250D01*
X68750Y-69250D02*
X68750Y-70000D01*
X49500Y-43500D02*
X49000Y-43500D01*
X54750Y-44500D02*
X54750Y-44000D01*
X50250Y-30500D02*
X49000Y-30500D01*
X101250Y-60000D02*
X100000Y-60000D01*
X55750Y-67250D02*
X55250Y-66750D01*
X50250Y-44000D02*
X50000Y-44000D01*
X88250Y-60000D02*
X88250Y-58250D01*
X55750Y-70500D02*
X55750Y-67250D01*
X75250Y-58250D02*
X75250Y-60000D01*
X50250Y-18000D02*
X49750Y-17500D01*
X55250Y-61250D02*
X55500Y-61000D01*
X102250Y-58250D02*
X102250Y-57000D01*
X45500Y-34750D02*
X45750Y-35000D01*
X52750Y-38750D02*
X52750Y-38250D01*
X45500Y-34750D02*
X41750Y-34750D01*
X40250Y-22250D02*
X40250Y-21750D01*
X40250Y-21750D02*
X40000Y-21500D01*
X41750Y-34750D02*
X40000Y-33000D01*
X102250Y-57000D02*
X101750Y-56500D01*
X53250Y-45000D02*
X52750Y-44500D01*
X40000Y-22500D02*
X40250Y-22250D01*
X52750Y-44500D02*
X52750Y-38750D01*
X40000Y-24750D02*
X40000Y-33000D01*
X51250Y-36250D02*
X49500Y-36250D01*
X101750Y-56500D02*
X101750Y-50000D01*
X47000Y-36250D02*
X45750Y-35000D01*
X101750Y-50000D02*
X101750Y-46500D01*
X49500Y-36250D02*
X47000Y-36250D01*
X40000Y-24750D02*
X40000Y-22500D01*
X105250Y-49500D02*
X105250Y-50750D01*
X104250Y-48250D02*
X104250Y-48500D01*
X104250Y-41250D02*
X104250Y-48250D01*
X104250Y-28000D02*
X104250Y-35250D01*
X102750Y-38250D02*
X102750Y-39750D01*
X104250Y-23000D02*
X102750Y-24500D01*
X104250Y-48500D02*
X105250Y-49500D01*
X104250Y-35250D02*
X104250Y-36750D01*
X102750Y-24500D02*
X102750Y-26500D01*
X104250Y-36750D02*
X102750Y-38250D01*
X104250Y-22250D02*
X104250Y-23000D01*
X102750Y-39750D02*
X104250Y-41250D01*
X102750Y-26500D02*
X104250Y-28000D01*
X101250Y-27500D02*
X100750Y-27000D01*
X102750Y-49000D02*
X103000Y-49250D01*
X101250Y-37250D02*
X100750Y-37750D01*
X101250Y-35250D02*
X101250Y-27500D01*
X101250Y-35250D02*
X101250Y-37250D01*
X104250Y-50500D02*
X104250Y-50750D01*
X101250Y-23250D02*
X101250Y-22250D01*
X101250Y-40750D02*
X101250Y-44500D01*
X100750Y-37750D02*
X100750Y-40250D01*
X103000Y-49250D02*
X104250Y-50500D01*
X100750Y-27000D02*
X100750Y-26500D01*
X100750Y-23750D02*
X100750Y-26500D01*
X101250Y-44500D02*
X101250Y-48250D01*
X100750Y-40250D02*
X101250Y-40750D01*
X101250Y-23250D02*
X100750Y-23750D01*
X97750Y-23750D02*
X97750Y-26500D01*
X97500Y-50500D02*
X97500Y-52250D01*
X97750Y-26500D02*
X97750Y-26750D01*
X98250Y-48250D02*
X98250Y-49750D01*
X98250Y-37250D02*
X97750Y-37750D01*
X97750Y-26750D02*
X98250Y-27250D01*
X98250Y-37250D02*
X98250Y-35250D01*
X97750Y-37750D02*
X97750Y-39250D01*
X98250Y-27250D02*
X98250Y-28750D01*
X97750Y-39250D02*
X97750Y-40250D01*
X98250Y-23250D02*
X98250Y-22250D01*
X98250Y-48250D02*
X98250Y-42000D01*
X98250Y-35250D02*
X98250Y-28750D01*
X98250Y-23250D02*
X97750Y-23750D01*
X98250Y-40750D02*
X98250Y-42000D01*
X98250Y-49750D02*
X97500Y-50500D01*
X97750Y-40250D02*
X98250Y-40750D01*
X94750Y-39250D02*
X94750Y-40250D01*
X95250Y-23250D02*
X95250Y-22250D01*
X95250Y-35250D02*
X95250Y-28750D01*
X94750Y-26500D02*
X94750Y-26750D01*
X94750Y-26750D02*
X95250Y-27250D01*
X94750Y-23750D02*
X94750Y-26500D01*
X95250Y-23250D02*
X94750Y-23750D01*
X94750Y-37750D02*
X94750Y-39250D01*
X94750Y-40250D02*
X95250Y-40750D01*
X95250Y-40750D02*
X95250Y-48250D01*
X95250Y-35250D02*
X95250Y-37250D01*
X95250Y-37250D02*
X94750Y-37750D01*
X95250Y-48250D02*
X95250Y-51000D01*
X95250Y-27250D02*
X95250Y-28750D01*
X105250Y-19000D02*
X104250Y-18000D01*
X104750Y-38750D02*
X105250Y-39250D01*
X105250Y-23500D02*
X105250Y-19000D01*
X104250Y-18000D02*
X104250Y-12750D01*
X104250Y-38750D02*
X104750Y-38750D01*
X104750Y-38750D02*
X105250Y-38250D01*
X104250Y-25750D02*
X104250Y-24500D01*
X104250Y-24500D02*
X105250Y-23500D01*
X105250Y-39250D02*
X105250Y-48250D01*
X105250Y-38250D02*
X105250Y-27000D01*
X105250Y-27000D02*
X104250Y-26000D01*
X104250Y-26000D02*
X104250Y-25750D01*
X101250Y-25750D02*
X101250Y-24000D01*
X101750Y-37500D02*
X101250Y-38000D01*
X100750Y-42500D02*
X100750Y-49750D01*
X101250Y-40000D02*
X102000Y-40750D01*
X100250Y-50250D02*
X100250Y-50750D01*
X101250Y-18500D02*
X101250Y-12750D01*
X102000Y-40750D02*
X102000Y-41250D01*
X101750Y-19000D02*
X101250Y-18500D01*
X101250Y-24000D02*
X101750Y-23500D01*
X101750Y-23500D02*
X101750Y-19000D01*
X101750Y-27250D02*
X101750Y-37500D01*
X100750Y-49750D02*
X100250Y-50250D01*
X101250Y-38000D02*
X101250Y-38750D01*
X101250Y-26750D02*
X101750Y-27250D01*
X101250Y-38750D02*
X101250Y-40000D01*
X101250Y-25750D02*
X101250Y-26750D01*
X98250Y-25750D02*
X98250Y-24000D01*
X98750Y-27000D02*
X98750Y-28750D01*
X98250Y-18500D02*
X98250Y-12750D01*
X98250Y-25750D02*
X98250Y-26500D01*
X98750Y-35750D02*
X98750Y-28750D01*
X98750Y-23500D02*
X98750Y-19000D01*
X98250Y-38000D02*
X98250Y-38750D01*
X98250Y-24000D02*
X98750Y-23500D01*
X99750Y-48750D02*
X99750Y-49250D01*
X99750Y-41500D02*
X99750Y-48750D01*
X98750Y-37500D02*
X98250Y-38000D01*
X98750Y-19000D02*
X98250Y-18500D01*
X99750Y-49250D02*
X99250Y-49750D01*
X98750Y-35750D02*
X98750Y-37500D01*
X99250Y-49750D02*
X99250Y-50750D01*
X98250Y-40000D02*
X99750Y-41500D01*
X98250Y-38750D02*
X98250Y-40000D01*
X98250Y-26500D02*
X98750Y-27000D01*
X95750Y-35750D02*
X95750Y-28750D01*
X96750Y-41500D02*
X96750Y-48500D01*
X95250Y-12750D02*
X95250Y-18500D01*
X95750Y-37500D02*
X95250Y-38000D01*
X95250Y-38000D02*
X95250Y-38750D01*
X95250Y-24000D02*
X95250Y-25750D01*
X95750Y-23500D02*
X95250Y-24000D01*
X95750Y-27000D02*
X95750Y-28750D01*
X95250Y-25750D02*
X95250Y-26500D01*
X95250Y-26500D02*
X95750Y-27000D01*
X95250Y-40000D02*
X96750Y-41500D01*
X95250Y-38750D02*
X95250Y-40000D01*
X95250Y-18500D02*
X95750Y-19000D01*
X95750Y-49500D02*
X95750Y-50500D01*
X96750Y-48500D02*
X95750Y-49500D01*
X95750Y-35750D02*
X95750Y-37500D01*
X95750Y-19000D02*
X95750Y-23500D01*
X52750Y-45500D02*
X52750Y-45250D01*
X51250Y-40250D02*
X51250Y-39250D01*
X51750Y-37500D02*
X51250Y-37000D01*
X53000Y-45750D02*
X52750Y-45500D01*
X53250Y-46000D02*
X53000Y-45750D01*
X89250Y-58250D02*
X89250Y-57250D01*
X39750Y-33250D02*
X39750Y-27000D01*
X51250Y-44750D02*
X51250Y-40250D01*
X52500Y-45000D02*
X51500Y-45000D01*
X51250Y-39250D02*
X51750Y-38750D01*
X39750Y-27000D02*
X39750Y-23250D01*
X89250Y-57250D02*
X88750Y-56750D01*
X51500Y-45000D02*
X51250Y-44750D01*
X39750Y-23250D02*
X39750Y-22000D01*
X41500Y-35000D02*
X39750Y-33250D01*
X88750Y-56750D02*
X88750Y-46000D01*
X51250Y-37000D02*
X50750Y-36500D01*
X50750Y-36500D02*
X46750Y-36500D01*
X45250Y-35000D02*
X41500Y-35000D01*
X52750Y-45250D02*
X52500Y-45000D01*
X51750Y-38750D02*
X51750Y-37500D01*
X46750Y-36500D02*
X45250Y-35000D01*
X92250Y-49500D02*
X92250Y-50750D01*
X89750Y-27000D02*
X91250Y-28500D01*
X91250Y-48250D02*
X91250Y-41000D01*
X91250Y-28500D02*
X91250Y-35250D01*
X91250Y-23000D02*
X89750Y-24500D01*
X91250Y-48250D02*
X91250Y-48500D01*
X91250Y-36750D02*
X91250Y-35250D01*
X89750Y-24500D02*
X89750Y-27000D01*
X91250Y-22250D02*
X91250Y-23000D01*
X91250Y-48500D02*
X92250Y-49500D01*
X91250Y-36750D02*
X89750Y-38250D01*
X89750Y-38250D02*
X89750Y-39500D01*
X91250Y-41000D02*
X89750Y-39500D01*
X87750Y-40500D02*
X88250Y-41000D01*
X88250Y-36750D02*
X87750Y-37250D01*
X88250Y-41000D02*
X88250Y-48250D01*
X87750Y-37250D02*
X87750Y-39500D01*
X91250Y-50750D02*
X91250Y-50500D01*
X88250Y-35250D02*
X88250Y-36750D01*
X91250Y-50500D02*
X90250Y-49500D01*
X89750Y-49000D02*
X90250Y-49500D01*
X87750Y-24000D02*
X88250Y-23500D01*
X88250Y-27750D02*
X87750Y-27250D01*
X88250Y-23500D02*
X88250Y-22250D01*
X88250Y-35250D02*
X88250Y-27750D01*
X87750Y-27250D02*
X87750Y-24000D01*
X87750Y-39500D02*
X87750Y-40500D01*
X85250Y-41000D02*
X85250Y-48250D01*
X85250Y-35250D02*
X85250Y-36750D01*
X84750Y-37250D02*
X84750Y-40500D01*
X85250Y-27750D02*
X84750Y-27250D01*
X85250Y-23500D02*
X85250Y-22250D01*
X84750Y-27250D02*
X84750Y-24000D01*
X85250Y-48250D02*
X85250Y-49750D01*
X84750Y-24000D02*
X85250Y-23500D01*
X85250Y-36750D02*
X84750Y-37250D01*
X84500Y-50500D02*
X84500Y-52250D01*
X85250Y-35250D02*
X85250Y-27750D01*
X84750Y-40500D02*
X85250Y-41000D01*
X85250Y-49750D02*
X84500Y-50500D01*
X82250Y-41000D02*
X82250Y-48250D01*
X82250Y-36750D02*
X81750Y-37250D01*
X82250Y-22250D02*
X82250Y-23250D01*
X81750Y-40500D02*
X82250Y-41000D01*
X81750Y-23750D02*
X81750Y-27250D01*
X82250Y-48250D02*
X82250Y-51000D01*
X82250Y-23250D02*
X81750Y-23750D01*
X82250Y-27750D02*
X82250Y-35250D01*
X81750Y-27250D02*
X82250Y-27750D01*
X82250Y-35250D02*
X82250Y-36750D01*
X81750Y-37250D02*
X81750Y-40500D01*
X91750Y-38750D02*
X92250Y-38250D01*
X92250Y-39250D02*
X92250Y-41250D01*
X92250Y-38250D02*
X92250Y-26750D01*
X92250Y-26750D02*
X91250Y-25750D01*
X91250Y-24500D02*
X92250Y-23500D01*
X91250Y-25750D02*
X91250Y-24500D01*
X91250Y-18500D02*
X91250Y-12750D01*
X91250Y-38750D02*
X91750Y-38750D01*
X92250Y-23500D02*
X92250Y-19500D01*
X91250Y-18500D02*
X91750Y-19000D01*
X91750Y-38750D02*
X92250Y-39250D01*
X92250Y-41250D02*
X92250Y-48250D01*
X91750Y-19000D02*
X92250Y-19500D01*
X88750Y-23750D02*
X88250Y-24250D01*
X87250Y-50250D02*
X87250Y-50750D01*
X88250Y-24250D02*
X88250Y-25750D01*
X88250Y-40250D02*
X89000Y-41000D01*
X88250Y-27000D02*
X88750Y-27500D01*
X88750Y-19000D02*
X88750Y-23750D01*
X87750Y-43000D02*
X87750Y-49750D01*
X88750Y-27500D02*
X88750Y-33750D01*
X88250Y-37500D02*
X88250Y-38750D01*
X87750Y-49750D02*
X87250Y-50250D01*
X89000Y-41000D02*
X89000Y-41750D01*
X88750Y-37000D02*
X88750Y-33750D01*
X88250Y-37500D02*
X88750Y-37000D01*
X88250Y-18500D02*
X88750Y-19000D01*
X88250Y-12750D02*
X88250Y-18500D01*
X88250Y-38750D02*
X88250Y-40250D01*
X88250Y-25750D02*
X88250Y-27000D01*
X85750Y-27500D02*
X85750Y-37000D01*
X85750Y-37000D02*
X85250Y-37500D01*
X85250Y-25750D02*
X85250Y-27000D01*
X85250Y-40250D02*
X85250Y-38750D01*
X85250Y-18500D02*
X85750Y-19000D01*
X86750Y-49250D02*
X86750Y-41750D01*
X85750Y-23750D02*
X85250Y-24250D01*
X86750Y-41750D02*
X85250Y-40250D01*
X85250Y-27000D02*
X85750Y-27500D01*
X85750Y-19000D02*
X85750Y-23750D01*
X86250Y-50750D02*
X86250Y-49750D01*
X85250Y-12750D02*
X85250Y-18500D01*
X85250Y-24250D02*
X85250Y-25750D01*
X86250Y-49750D02*
X86750Y-49250D01*
X85250Y-37500D02*
X85250Y-38750D01*
X82250Y-37500D02*
X82250Y-38750D01*
X83250Y-41250D02*
X83500Y-41500D01*
X82750Y-19000D02*
X82250Y-18500D01*
X82250Y-40250D02*
X83250Y-41250D01*
X82250Y-25750D02*
X82250Y-24000D01*
X82250Y-38750D02*
X82250Y-40250D01*
X82250Y-25750D02*
X82250Y-27000D01*
X82750Y-37000D02*
X82250Y-37500D01*
X82750Y-23500D02*
X82750Y-19000D01*
X83500Y-41500D02*
X83750Y-41750D01*
X83750Y-41750D02*
X83750Y-48500D01*
X82250Y-18500D02*
X82250Y-12750D01*
X82250Y-24000D02*
X82750Y-23500D01*
X82250Y-27000D02*
X82750Y-27500D01*
X82750Y-27500D02*
X82750Y-37000D01*
X82750Y-49500D02*
X82750Y-50500D01*
X83750Y-48500D02*
X82750Y-49500D01*
X51250Y-45750D02*
X51000Y-45500D01*
X45000Y-35250D02*
X41250Y-35250D01*
X46500Y-36750D02*
X45000Y-35250D01*
X39500Y-33500D02*
X39500Y-30750D01*
X75750Y-49500D02*
X75250Y-49000D01*
X76250Y-57000D02*
X75750Y-56500D01*
X41250Y-35250D02*
X39500Y-33500D01*
X51500Y-37750D02*
X51000Y-37250D01*
X39500Y-22750D02*
X39250Y-22500D01*
X50500Y-36750D02*
X46500Y-36750D01*
X39500Y-30750D02*
X39500Y-23250D01*
X75750Y-49500D02*
X75750Y-47000D01*
X51000Y-37250D02*
X50500Y-36750D01*
X51000Y-41250D02*
X51000Y-44500D01*
X53000Y-46750D02*
X53000Y-46250D01*
X52750Y-46000D02*
X51500Y-46000D01*
X51000Y-45500D02*
X51000Y-45250D01*
X51500Y-38500D02*
X51500Y-37750D01*
X53250Y-47000D02*
X53000Y-46750D01*
X75750Y-56500D02*
X75750Y-49500D01*
X53000Y-46250D02*
X52750Y-46000D01*
X51000Y-41250D02*
X51000Y-39000D01*
X51500Y-46000D02*
X51250Y-45750D01*
X51000Y-45250D02*
X51000Y-44500D01*
X51000Y-39000D02*
X51500Y-38500D01*
X76250Y-58250D02*
X76250Y-57000D01*
X39500Y-23250D02*
X39500Y-22750D01*
X78250Y-36750D02*
X76750Y-38250D01*
X76750Y-25000D02*
X78250Y-23500D01*
X76750Y-26250D02*
X76750Y-25000D01*
X79250Y-50750D02*
X79250Y-49250D01*
X78250Y-23500D02*
X78250Y-22250D01*
X78250Y-35250D02*
X78250Y-27750D01*
X78250Y-27750D02*
X76750Y-26250D01*
X76750Y-38250D02*
X76750Y-39000D01*
X78250Y-35250D02*
X78250Y-36750D01*
X76750Y-39000D02*
X78250Y-40500D01*
X79250Y-49250D02*
X78250Y-48250D01*
X78250Y-40500D02*
X78250Y-48250D01*
X75250Y-48250D02*
X75250Y-40250D01*
X75250Y-27500D02*
X74750Y-27000D01*
X74750Y-39750D02*
X74750Y-38000D01*
X75250Y-40250D02*
X74750Y-39750D01*
X76750Y-49000D02*
X77000Y-49000D01*
X74750Y-27000D02*
X74750Y-24250D01*
X75250Y-35250D02*
X75250Y-27500D01*
X75250Y-23750D02*
X75250Y-22250D01*
X78250Y-50750D02*
X78250Y-50250D01*
X75250Y-37500D02*
X75250Y-35250D01*
X77000Y-49000D02*
X78250Y-50250D01*
X74750Y-24250D02*
X75250Y-23750D01*
X74750Y-38000D02*
X75250Y-37500D01*
X72250Y-27000D02*
X72250Y-35250D01*
X72250Y-40500D02*
X72250Y-48250D01*
X72250Y-35250D02*
X72250Y-36000D01*
X71750Y-26500D02*
X72250Y-27000D01*
X72250Y-48250D02*
X72250Y-49500D01*
X71500Y-50250D02*
X71500Y-52000D01*
X71750Y-36500D02*
X71750Y-40000D01*
X71750Y-24250D02*
X71750Y-26500D01*
X72250Y-22250D02*
X72250Y-23750D01*
X72250Y-36000D02*
X71750Y-36500D01*
X72250Y-23750D02*
X71750Y-24250D01*
X71750Y-40000D02*
X72250Y-40500D01*
X72250Y-49500D02*
X71500Y-50250D01*
X69250Y-35250D02*
X69250Y-27250D01*
X69250Y-40250D02*
X68750Y-39750D01*
X69250Y-48250D02*
X69250Y-40250D01*
X69250Y-23250D02*
X69250Y-22250D01*
X69250Y-27250D02*
X68750Y-26750D01*
X68750Y-23750D02*
X69250Y-23250D01*
X68750Y-38000D02*
X69250Y-37500D01*
X68750Y-39750D02*
X68750Y-38000D01*
X69250Y-51000D02*
X69250Y-48250D01*
X68750Y-26750D02*
X68750Y-23750D01*
X69250Y-37500D02*
X69250Y-35250D01*
X78250Y-25750D02*
X79250Y-25750D01*
X79250Y-13250D02*
X79250Y-25750D01*
X78750Y-12750D02*
X79250Y-13250D01*
X78250Y-12750D02*
X78750Y-12750D01*
X79250Y-38750D02*
X79250Y-48250D01*
X79250Y-38750D02*
X78250Y-38750D01*
X79250Y-25750D02*
X79250Y-38750D01*
X75250Y-24750D02*
X76750Y-23250D01*
X75250Y-26750D02*
X75250Y-25750D01*
X75250Y-25750D02*
X75250Y-24750D01*
X76750Y-28250D02*
X75250Y-26750D01*
X76000Y-40250D02*
X76000Y-41000D01*
X75250Y-38000D02*
X76750Y-36500D01*
X76750Y-36500D02*
X76750Y-28250D01*
X75250Y-14750D02*
X75250Y-12750D01*
X75250Y-38750D02*
X75250Y-38000D01*
X74750Y-42250D02*
X74750Y-48750D01*
X74750Y-50250D02*
X74250Y-50750D01*
X75250Y-38750D02*
X75250Y-39500D01*
X74750Y-48750D02*
X74750Y-50250D01*
X76750Y-16250D02*
X75250Y-14750D01*
X75250Y-39500D02*
X76000Y-40250D01*
X76750Y-23250D02*
X76750Y-16250D01*
X73250Y-50750D02*
X73250Y-50000D01*
X72750Y-15000D02*
X72250Y-14500D01*
X73750Y-41000D02*
X72250Y-39500D01*
X73750Y-49500D02*
X73750Y-41000D01*
X72250Y-24250D02*
X72750Y-23750D01*
X72750Y-26250D02*
X72250Y-25750D01*
X72250Y-25750D02*
X72250Y-24250D01*
X72250Y-14500D02*
X72250Y-12750D01*
X72250Y-36500D02*
X72750Y-36000D01*
X73250Y-50000D02*
X73750Y-49500D01*
X72750Y-36000D02*
X72750Y-26250D01*
X72250Y-39500D02*
X72250Y-38750D01*
X72750Y-23750D02*
X72750Y-15000D01*
X72250Y-38750D02*
X72250Y-36500D01*
X69750Y-49500D02*
X69750Y-50500D01*
X69750Y-23500D02*
X69750Y-20250D01*
X69250Y-24000D02*
X69750Y-23500D01*
X69250Y-26500D02*
X69250Y-25750D01*
X70750Y-48500D02*
X69750Y-49500D01*
X69750Y-27000D02*
X69250Y-26500D01*
X69250Y-38750D02*
X69250Y-38250D01*
X69250Y-39500D02*
X70000Y-40250D01*
X69250Y-38750D02*
X69250Y-39500D01*
X69250Y-38250D02*
X69750Y-37750D01*
X70000Y-41750D02*
X70750Y-42500D01*
X70000Y-40250D02*
X70000Y-41750D01*
X69250Y-19750D02*
X69250Y-12750D01*
X69750Y-20250D02*
X69250Y-19750D01*
X69750Y-37750D02*
X69750Y-27000D01*
X69250Y-25750D02*
X69250Y-24000D01*
X70750Y-42500D02*
X70750Y-48500D01*
X51000Y-48500D02*
X51000Y-46500D01*
X63750Y-49500D02*
X63250Y-49000D01*
X63250Y-58250D02*
X63250Y-57000D01*
X50750Y-45750D02*
X50750Y-45500D01*
X63250Y-57000D02*
X63750Y-56500D01*
X50750Y-37500D02*
X50250Y-37000D01*
X51000Y-46000D02*
X50750Y-45750D01*
X46250Y-37000D02*
X44750Y-35500D01*
X63750Y-49750D02*
X63750Y-49500D01*
X41000Y-35500D02*
X39250Y-33750D01*
X50750Y-38750D02*
X51250Y-38250D01*
X51250Y-38000D02*
X50750Y-37500D01*
X44750Y-35500D02*
X41000Y-35500D01*
X50250Y-37000D02*
X46250Y-37000D01*
X51250Y-38250D02*
X51250Y-38000D01*
X63750Y-56500D02*
X63750Y-49750D01*
X51000Y-46500D02*
X51000Y-46000D01*
X39250Y-33750D02*
X39250Y-23750D01*
X50750Y-43750D02*
X50750Y-38750D01*
X39250Y-23750D02*
X38500Y-23000D01*
X50750Y-45500D02*
X50750Y-43750D01*
X65250Y-41250D02*
X65250Y-48250D01*
X65250Y-22250D02*
X65250Y-23500D01*
X65250Y-36750D02*
X63750Y-38250D01*
X65250Y-27750D02*
X65250Y-35250D01*
X63750Y-39750D02*
X65250Y-41250D01*
X63750Y-26250D02*
X65250Y-27750D01*
X66250Y-49500D02*
X66250Y-50750D01*
X65250Y-35250D02*
X65250Y-36750D01*
X65250Y-48250D02*
X65250Y-48500D01*
X63750Y-25000D02*
X63750Y-26250D01*
X65250Y-48500D02*
X66250Y-49500D01*
X63750Y-38250D02*
X63750Y-39750D01*
X65250Y-23500D02*
X63750Y-25000D01*
X63750Y-47750D02*
X63750Y-44250D01*
X65250Y-50500D02*
X65250Y-50750D01*
X61750Y-40000D02*
X62250Y-40500D01*
X62250Y-42750D02*
X62250Y-47250D01*
X62250Y-42500D02*
X62250Y-42750D01*
X62250Y-47250D02*
X62250Y-48250D01*
X61750Y-24750D02*
X61750Y-26250D01*
X62250Y-35250D02*
X62250Y-37000D01*
X64000Y-49250D02*
X65250Y-50500D01*
X62250Y-37000D02*
X61750Y-37500D01*
X61750Y-39250D02*
X61750Y-40000D01*
X63750Y-44250D02*
X62250Y-42750D01*
X62250Y-22250D02*
X62250Y-24250D01*
X62250Y-27500D02*
X62250Y-35250D01*
X64000Y-49250D02*
X63750Y-49000D01*
X61750Y-27000D02*
X62250Y-27500D01*
X63750Y-49000D02*
X63750Y-47750D01*
X62250Y-24250D02*
X61750Y-24750D01*
X61750Y-37500D02*
X61750Y-39250D01*
X61750Y-26250D02*
X61750Y-27000D01*
X62250Y-40500D02*
X62250Y-42500D01*
X59250Y-48250D02*
X59250Y-49750D01*
X59250Y-24250D02*
X58750Y-24750D01*
X58750Y-40000D02*
X59250Y-40500D01*
X59250Y-40500D02*
X59250Y-48250D01*
X58750Y-26250D02*
X58750Y-28500D01*
X58750Y-39250D02*
X58750Y-40000D01*
X59250Y-49750D02*
X58500Y-50500D01*
X59250Y-22250D02*
X59250Y-24250D01*
X58750Y-39250D02*
X58750Y-39000D01*
X58750Y-37750D02*
X58750Y-39000D01*
X58750Y-28500D02*
X59250Y-29000D01*
X58750Y-24750D02*
X58750Y-26250D01*
X59250Y-35250D02*
X59250Y-37250D01*
X59250Y-37250D02*
X58750Y-37750D01*
X59250Y-29000D02*
X59250Y-35250D01*
X58500Y-50500D02*
X58500Y-52250D01*
X56250Y-48250D02*
X56250Y-51000D01*
X55750Y-37750D02*
X55750Y-39250D01*
X56250Y-40500D02*
X56250Y-48250D01*
X56250Y-37250D02*
X55750Y-37750D01*
X55750Y-24250D02*
X55750Y-26250D01*
X56250Y-23750D02*
X55750Y-24250D01*
X56250Y-22250D02*
X56250Y-23750D01*
X56250Y-30500D02*
X56250Y-35250D01*
X55750Y-30000D02*
X56250Y-30500D01*
X55750Y-26250D02*
X55750Y-30000D01*
X55750Y-40000D02*
X56250Y-40500D01*
X56250Y-35250D02*
X56250Y-37250D01*
X55750Y-39250D02*
X55750Y-40000D01*
X66250Y-38250D02*
X65750Y-38750D01*
X65250Y-25750D02*
X65250Y-25000D01*
X66250Y-45250D02*
X66250Y-48250D01*
X66000Y-38750D02*
X66250Y-39000D01*
X65250Y-26250D02*
X66250Y-27250D01*
X66250Y-16500D02*
X65250Y-15500D01*
X66250Y-27250D02*
X66250Y-38250D01*
X65750Y-38750D02*
X65250Y-38750D01*
X66250Y-39000D02*
X66250Y-45250D01*
X65250Y-25000D02*
X66000Y-24250D01*
X65250Y-15500D02*
X65250Y-12750D01*
X65250Y-25750D02*
X65250Y-26250D01*
X66000Y-24250D02*
X66250Y-24000D01*
X66250Y-24000D02*
X66250Y-16500D01*
X65750Y-38750D02*
X66000Y-38750D01*
X61750Y-48750D02*
X61750Y-49750D01*
X62250Y-38750D02*
X62250Y-37750D01*
X62750Y-19000D02*
X62750Y-24500D01*
X62750Y-37250D02*
X62750Y-35750D01*
X62750Y-24500D02*
X62250Y-25000D01*
X62750Y-27250D02*
X62750Y-35750D01*
X62250Y-37750D02*
X62750Y-37250D01*
X61750Y-43750D02*
X61750Y-48750D01*
X62250Y-38750D02*
X62250Y-39750D01*
X62250Y-25000D02*
X62250Y-25750D01*
X62250Y-18500D02*
X62750Y-19000D01*
X62250Y-39750D02*
X62750Y-40250D01*
X62250Y-12750D02*
X62250Y-18500D01*
X62750Y-40250D02*
X62750Y-41000D01*
X61750Y-42000D02*
X61750Y-43750D01*
X62250Y-26750D02*
X62250Y-25750D01*
X61250Y-50250D02*
X61250Y-50750D01*
X62250Y-26750D02*
X62750Y-27250D01*
X61750Y-49750D02*
X61250Y-50250D01*
X59750Y-22750D02*
X59750Y-24500D01*
X59750Y-28750D02*
X59750Y-35750D01*
X59250Y-12750D02*
X59250Y-18500D01*
X60750Y-41250D02*
X60750Y-48750D01*
X59250Y-25000D02*
X59250Y-25750D01*
X59750Y-37500D02*
X59750Y-35750D01*
X59250Y-38750D02*
X59250Y-38000D01*
X59750Y-24500D02*
X59250Y-25000D01*
X60250Y-49750D02*
X60250Y-50750D01*
X59250Y-28250D02*
X59750Y-28750D01*
X59750Y-19000D02*
X59750Y-22750D01*
X59250Y-39750D02*
X60750Y-41250D01*
X60750Y-49250D02*
X60250Y-49750D01*
X59250Y-18500D02*
X59750Y-19000D01*
X59250Y-38750D02*
X59250Y-39750D01*
X60750Y-48750D02*
X60750Y-49250D01*
X59250Y-38000D02*
X59750Y-37500D01*
X59250Y-28250D02*
X59250Y-25750D01*
X56750Y-37500D02*
X56750Y-35750D01*
X56250Y-12750D02*
X56250Y-18500D01*
X57750Y-48500D02*
X56750Y-49500D01*
X56250Y-29750D02*
X56250Y-25750D01*
X56750Y-30250D02*
X56750Y-35750D01*
X56250Y-38000D02*
X56750Y-37500D01*
X56250Y-38750D02*
X56250Y-38000D01*
X56750Y-19000D02*
X56750Y-22750D01*
X56250Y-39750D02*
X57750Y-41250D01*
X56250Y-29750D02*
X56750Y-30250D01*
X56750Y-22750D02*
X56750Y-24000D01*
X56250Y-18500D02*
X56750Y-19000D01*
X56250Y-24500D02*
X56250Y-25750D01*
X57750Y-41250D02*
X57750Y-48500D01*
X56750Y-24000D02*
X56250Y-24500D01*
X56750Y-49500D02*
X56750Y-50500D01*
X56250Y-38750D02*
X56250Y-39750D01*
G54D26*
X54500Y-63750D02*
X56000Y-63750D01*
X52250Y-38500D02*
X52250Y-36250D01*
X51750Y-35750D02*
X47000Y-35750D01*
X52500Y-39000D02*
X52500Y-38750D01*
X52500Y-38750D02*
X52250Y-38500D01*
X52000Y-39500D02*
X52500Y-39000D01*
X106750Y-62750D02*
X106250Y-63250D01*
X47000Y-35750D02*
X45250Y-34000D01*
X45250Y-34000D02*
X44500Y-34000D01*
X52250Y-36250D02*
X51750Y-35750D01*
X106250Y-63250D02*
X106250Y-63750D01*
X102000Y-62000D02*
X106000Y-62000D01*
X102000Y-63500D02*
X102000Y-62750D01*
G54D27*
X60250Y-34000D02*
X60250Y-35250D01*
X73250Y-34000D02*
X73250Y-35250D01*
X86250Y-34000D02*
X86250Y-35250D01*
X99250Y-34000D02*
X99250Y-35250D01*
X70250Y-24000D02*
X70250Y-25750D01*
X83250Y-25750D02*
X83250Y-24000D01*
X96250Y-24000D02*
X96250Y-25750D01*
X57250Y-33000D02*
X57250Y-35250D01*
X83250Y-33000D02*
X83250Y-35250D01*
X70250Y-33000D02*
X70250Y-35250D01*
X96250Y-35250D02*
X96250Y-33000D01*
X50750Y-33500D02*
X50750Y-33750D01*
X51500Y-34500D02*
X52500Y-34500D01*
X49750Y-32500D02*
X50750Y-33500D01*
X50750Y-33750D02*
X51500Y-34500D01*
X49000Y-32500D02*
X49750Y-32500D01*
X73250Y-47500D02*
X73250Y-48250D01*
X60250Y-46500D02*
X60250Y-48250D01*
X86250Y-47000D02*
X86250Y-48250D01*
X99250Y-47000D02*
X99250Y-48250D01*
X73250Y-47500D02*
X73250Y-46500D01*
X93250Y-45000D02*
X92750Y-44500D01*
X93250Y-45250D02*
X93250Y-45000D01*
X80250Y-44500D02*
X80250Y-45250D01*
X80250Y-45250D02*
X80250Y-48250D01*
X93250Y-45250D02*
X93250Y-48250D01*
X54250Y-44500D02*
X54250Y-48250D01*
X67250Y-45250D02*
X67250Y-48250D01*
X67250Y-45250D02*
X67250Y-44500D01*
X86250Y-37500D02*
X86250Y-38750D01*
X73250Y-37500D02*
X73250Y-38750D01*
X99250Y-37500D02*
X99250Y-38750D01*
X57250Y-22250D02*
X57250Y-20000D01*
X83250Y-22250D02*
X83250Y-20000D01*
X70250Y-22250D02*
X70250Y-20000D01*
X96250Y-20000D02*
X96250Y-22250D01*
X73250Y-25750D02*
X73250Y-24500D01*
X86250Y-24500D02*
X86250Y-25750D01*
X99250Y-25750D02*
X99250Y-24500D01*
X67250Y-32000D02*
X67250Y-35250D01*
X80250Y-32000D02*
X80250Y-35250D01*
X54250Y-32000D02*
X54250Y-35250D01*
X93250Y-32000D02*
X93250Y-35250D01*
X50250Y-46250D02*
X49500Y-45500D01*
X50500Y-46250D02*
X50250Y-46250D01*
X49500Y-45500D02*
X49000Y-45500D01*
X49000Y-45500D02*
X49500Y-45500D01*
X83250Y-37000D02*
X83250Y-38750D01*
X70250Y-37000D02*
X70250Y-38750D01*
X96250Y-38750D02*
X96250Y-37000D01*
X57250Y-45500D02*
X57250Y-48250D01*
X83250Y-46250D02*
X83250Y-48250D01*
X83250Y-46250D02*
X83250Y-45500D01*
X96250Y-46000D02*
X96250Y-48250D01*
X70250Y-46250D02*
X70250Y-45500D01*
X70250Y-46250D02*
X70250Y-48250D01*
X93250Y-36500D02*
X93250Y-38750D01*
X67250Y-36500D02*
X67250Y-38750D01*
X50750Y-31500D02*
X49000Y-31500D01*
X51250Y-32000D02*
X50750Y-31500D01*
X80250Y-36500D02*
X80250Y-38750D01*
X50750Y-18500D02*
X49000Y-18500D01*
X51250Y-19000D02*
X50750Y-18500D01*
X67250Y-23500D02*
X67250Y-25750D01*
X80250Y-25750D02*
X80250Y-23500D01*
X93250Y-23500D02*
X93250Y-25750D01*
X96250Y-11500D02*
X95750Y-11000D01*
X70250Y-12750D02*
X70250Y-11000D01*
X83250Y-11000D02*
X83250Y-12750D01*
X96250Y-12750D02*
X96250Y-11500D01*
X98500Y-11500D02*
X99250Y-12250D01*
X99250Y-12250D02*
X99250Y-12750D01*
X73250Y-12750D02*
X73250Y-11500D01*
X86250Y-11500D02*
X86250Y-12750D01*
X93250Y-12750D02*
X93250Y-11000D01*
X80250Y-10500D02*
X80250Y-12750D01*
X67250Y-12750D02*
X67250Y-10500D01*
X93250Y-11000D02*
X92750Y-10500D01*
X93250Y-22250D02*
X93250Y-19000D01*
X67250Y-19000D02*
X67250Y-22250D01*
X80250Y-19000D02*
X80250Y-22250D01*
X54250Y-22250D02*
X54250Y-19000D01*
X99250Y-22250D02*
X99250Y-21000D01*
X60250Y-22250D02*
X60250Y-21000D01*
X73250Y-21000D02*
X73250Y-22250D01*
X86250Y-21000D02*
X86250Y-22250D01*
X49000Y-19500D02*
X50000Y-19500D01*
X50750Y-21000D02*
X50750Y-20250D01*
X50750Y-20250D02*
X50000Y-19500D01*
X51250Y-21500D02*
X52500Y-21500D01*
X51250Y-21500D02*
X50750Y-21000D01*
X65250Y-55250D02*
X65250Y-53750D01*
X64250Y-55250D02*
X64250Y-53750D01*
X63250Y-55250D02*
X63250Y-53750D01*
X62250Y-53750D02*
X62250Y-55250D01*
X61250Y-53750D02*
X61250Y-55250D01*
X60250Y-53750D02*
X60250Y-55250D01*
X59250Y-53750D02*
X59250Y-55250D01*
X66250Y-53750D02*
X66250Y-54000D01*
X66000Y-54250D02*
X66000Y-56250D01*
X66000Y-56250D02*
X64250Y-58000D01*
X64250Y-58000D02*
X64250Y-58250D01*
X66250Y-54000D02*
X66000Y-54250D01*
X78250Y-53750D02*
X78250Y-55250D01*
X77250Y-53750D02*
X77250Y-55250D01*
X76250Y-53750D02*
X76250Y-55250D01*
X75250Y-53750D02*
X75250Y-55250D01*
X74250Y-53750D02*
X74250Y-55250D01*
X54750Y-64750D02*
X54750Y-66250D01*
X72750Y-66750D02*
X72750Y-64750D01*
X70750Y-68750D02*
X72750Y-66750D01*
X70750Y-69250D02*
X70750Y-68750D01*
X57750Y-64750D02*
X57750Y-66250D01*
X55750Y-64750D02*
X55750Y-66250D01*
X73250Y-53750D02*
X73250Y-55250D01*
X53750Y-64750D02*
X53750Y-66250D01*
X52750Y-64750D02*
X52750Y-66250D01*
X99250Y-53750D02*
X99250Y-55250D01*
X92250Y-55750D02*
X92250Y-53750D01*
X90250Y-58250D02*
X90250Y-57750D01*
X90250Y-57750D02*
X92250Y-55750D01*
X104250Y-53750D02*
X104250Y-55250D01*
X103250Y-53750D02*
X103250Y-55250D01*
X102250Y-53750D02*
X102250Y-55250D01*
X101250Y-53750D02*
X101250Y-55250D01*
X100250Y-53750D02*
X100250Y-55250D01*
X98250Y-53750D02*
X98250Y-55250D01*
X105250Y-56000D02*
X103250Y-58000D01*
X103250Y-58000D02*
X103250Y-58250D01*
X105250Y-53750D02*
X105250Y-56000D01*
X72250Y-53750D02*
X72250Y-55250D01*
X77250Y-57750D02*
X79250Y-55750D01*
X79250Y-55750D02*
X79250Y-53750D01*
X77250Y-58250D02*
X77250Y-57750D01*
X91250Y-55250D02*
X91250Y-53750D01*
X90250Y-55250D02*
X90250Y-53750D01*
X89250Y-53750D02*
X89250Y-55250D01*
X88250Y-53750D02*
X88250Y-55250D01*
X87250Y-53750D02*
X87250Y-55250D01*
X86250Y-53750D02*
X86250Y-55250D01*
X85250Y-53750D02*
X85250Y-55250D01*
X79750Y-64750D02*
X79750Y-66250D01*
X78750Y-64750D02*
X78750Y-66250D01*
X85750Y-67000D02*
X83750Y-69000D01*
X83750Y-69000D02*
X83750Y-69250D01*
X85750Y-66750D02*
X85750Y-67000D01*
X85750Y-64750D02*
X85750Y-66750D01*
X80750Y-64750D02*
X80750Y-66250D01*
X71750Y-64750D02*
X71750Y-66250D01*
X70750Y-64750D02*
X70750Y-66250D01*
X69750Y-64750D02*
X69750Y-66250D01*
X68750Y-64750D02*
X68750Y-66250D01*
X67750Y-64750D02*
X67750Y-66250D01*
X66750Y-64750D02*
X66750Y-66250D01*
X65750Y-64750D02*
X65750Y-66250D01*
X97750Y-64750D02*
X97750Y-66250D01*
X96750Y-64750D02*
X96750Y-66250D01*
X95750Y-64750D02*
X95750Y-66250D01*
X94750Y-64750D02*
X94750Y-66250D01*
X93750Y-64750D02*
X93750Y-66250D01*
X92750Y-64750D02*
X92750Y-66250D01*
X91750Y-64750D02*
X91750Y-66250D01*
X98750Y-67000D02*
X96750Y-69000D01*
X96750Y-69000D02*
X96750Y-69250D01*
X98750Y-66500D02*
X98750Y-67000D01*
X98750Y-64750D02*
X98750Y-66500D01*
X84750Y-66250D02*
X84750Y-64750D01*
X83750Y-64750D02*
X83750Y-66250D01*
X82750Y-64750D02*
X82750Y-66250D01*
X81750Y-64750D02*
X81750Y-66250D01*
X56750Y-64750D02*
X56750Y-66250D01*
X58750Y-64750D02*
X58750Y-66250D01*
X59750Y-67000D02*
X57750Y-69000D01*
X57750Y-69000D02*
X57750Y-69250D01*
X59750Y-64750D02*
X59750Y-67000D01*
X40000Y-57000D02*
X40000Y-56500D01*
X41000Y-55500D02*
X44000Y-55500D01*
X40000Y-56500D02*
X41000Y-55500D01*
X40000Y-68000D02*
X40000Y-66000D01*
X40000Y-66000D02*
X41750Y-64250D01*
X41750Y-64250D02*
X44000Y-64250D01*
X36250Y-34500D02*
X36250Y-33000D01*
X42500Y-13000D02*
X43500Y-13000D01*
X35500Y-35250D02*
X36250Y-34500D01*
X35500Y-45750D02*
X35500Y-35250D01*
X40750Y-51375D02*
X40750Y-49625D01*
X40750Y-49625D02*
X38500Y-47250D01*
X41250Y-17000D02*
X41250Y-14250D01*
X38500Y-47250D02*
X38500Y-46500D01*
X41250Y-14250D02*
X42500Y-13000D01*
X43000Y-49500D02*
X40875Y-49500D01*
X35500Y-21500D02*
X37500Y-19500D01*
X37500Y-19500D02*
X38750Y-19500D01*
X38750Y-19500D02*
X41250Y-17000D01*
X40875Y-49500D02*
X40750Y-49625D01*
X47250Y-64000D02*
X48000Y-64000D01*
X47000Y-64250D02*
X47250Y-64000D01*
X47000Y-65500D02*
X47000Y-64250D01*
X48000Y-61000D02*
X48000Y-60000D01*
X48000Y-60000D02*
X47000Y-60000D01*
X47000Y-43500D02*
X47000Y-43000D01*
X47000Y-44250D02*
X47000Y-43500D01*
X45250Y-13000D02*
X45250Y-13000D01*
X46500Y-25750D02*
X46500Y-19250D01*
X45500Y-31000D02*
X45500Y-26750D01*
X47000Y-56000D02*
X47000Y-55500D01*
X48000Y-57000D02*
X47000Y-56000D01*
X46000Y-31500D02*
X45500Y-31000D01*
X44250Y-12000D02*
X43500Y-12000D01*
X45250Y-13000D02*
X44250Y-12000D01*
X46750Y-34750D02*
X46750Y-32250D01*
X46750Y-32250D02*
X46000Y-31500D01*
X44500Y-46750D02*
X47000Y-44250D01*
X45500Y-52750D02*
X44500Y-51750D01*
X44500Y-51750D02*
X44500Y-48750D01*
X41250Y-60000D02*
X44000Y-60000D01*
X40000Y-62500D02*
X40000Y-61250D01*
X40000Y-61250D02*
X41250Y-60000D01*
X95750Y-69250D02*
X95750Y-67500D01*
X38000Y-14000D02*
X38500Y-14000D01*
X52000Y-60750D02*
X52000Y-62250D01*
X52500Y-62750D02*
X52750Y-62750D01*
X52000Y-62250D02*
X52500Y-62750D01*
X95750Y-67500D02*
X95250Y-67000D01*
X95250Y-67000D02*
X95250Y-64250D01*
X73500Y-62750D02*
X78000Y-62750D01*
X53500Y-57000D02*
X47500Y-51000D01*
X47500Y-51000D02*
X47500Y-48250D01*
X52000Y-60750D02*
X53500Y-59250D01*
X60250Y-62750D02*
X64250Y-62750D01*
X95250Y-64250D02*
X93750Y-62750D01*
X37250Y-17000D02*
X37250Y-14750D01*
X37250Y-14750D02*
X38000Y-14000D01*
X93750Y-62750D02*
X78000Y-62750D01*
X53500Y-57250D02*
X53500Y-57000D01*
X46500Y-47250D02*
X45000Y-47250D01*
X41500Y-47250D02*
X45000Y-47250D01*
X47500Y-48250D02*
X46500Y-47250D01*
X53500Y-59250D02*
X53500Y-57250D01*
X52750Y-62750D02*
X60250Y-62750D01*
X64250Y-62750D02*
X73500Y-62750D01*
X103250Y-35250D02*
X103250Y-36750D01*
X101750Y-24500D02*
X103250Y-23000D01*
X101750Y-38250D02*
X101750Y-39250D01*
X101750Y-26500D02*
X101750Y-24500D01*
X104750Y-60750D02*
X106000Y-59500D01*
X99750Y-60750D02*
X104750Y-60750D01*
X103250Y-35250D02*
X103250Y-28000D01*
X101750Y-39250D02*
X101750Y-39750D01*
X101750Y-39750D02*
X103250Y-41250D01*
X103250Y-41250D02*
X103250Y-48250D01*
X106000Y-53000D02*
X104750Y-51750D01*
X104750Y-50000D02*
X104750Y-51750D01*
X103250Y-23000D02*
X103250Y-22250D01*
X103250Y-28000D02*
X101750Y-26500D01*
X106000Y-59500D02*
X106000Y-53000D01*
X103250Y-48500D02*
X104750Y-50000D01*
X103250Y-48500D02*
X103250Y-48250D01*
X98750Y-61750D02*
X99750Y-60750D01*
X103250Y-36750D02*
X101750Y-38250D01*
X100250Y-49500D02*
X99750Y-50000D01*
X100250Y-35250D02*
X100250Y-36750D01*
X100250Y-28000D02*
X100250Y-35250D01*
X99750Y-40750D02*
X100250Y-41250D01*
X99750Y-23500D02*
X99750Y-26500D01*
X99750Y-37250D02*
X99750Y-39250D01*
X100250Y-23000D02*
X99750Y-23500D01*
X97750Y-61500D02*
X99750Y-59500D01*
X100250Y-41250D02*
X100250Y-48250D01*
X100250Y-36750D02*
X99750Y-37250D01*
X99750Y-39250D02*
X99750Y-40750D01*
X97750Y-61750D02*
X97750Y-61500D01*
X100250Y-49500D02*
X100250Y-48250D01*
X99750Y-50000D02*
X99750Y-57000D01*
X99750Y-26500D02*
X99750Y-27500D01*
X100250Y-22250D02*
X100250Y-23000D01*
X99750Y-27500D02*
X100250Y-28000D01*
X99750Y-59500D02*
X99750Y-57000D01*
X97250Y-48250D02*
X97250Y-42000D01*
X96250Y-60000D02*
X96250Y-54250D01*
X96750Y-23250D02*
X96750Y-26500D01*
X96750Y-60500D02*
X96750Y-61750D01*
X96500Y-49750D02*
X96500Y-52000D01*
X97250Y-49000D02*
X96500Y-49750D01*
X97250Y-22750D02*
X96750Y-23250D01*
X97250Y-22750D02*
X97250Y-22250D01*
X96750Y-39250D02*
X96750Y-40750D01*
X97250Y-27750D02*
X97250Y-28750D01*
X96250Y-60000D02*
X96750Y-60500D01*
X96750Y-27250D02*
X97250Y-27750D01*
X96750Y-40750D02*
X97250Y-41250D01*
X96500Y-52000D02*
X96250Y-52250D01*
X97250Y-48250D02*
X97250Y-49000D01*
X97250Y-35250D02*
X97250Y-28750D01*
X97250Y-36750D02*
X96750Y-37250D01*
X97250Y-36750D02*
X97250Y-35250D01*
X97250Y-41250D02*
X97250Y-42000D01*
X96750Y-26500D02*
X96750Y-27250D01*
X96750Y-37250D02*
X96750Y-39250D01*
X93750Y-23250D02*
X93750Y-26500D01*
X95500Y-60000D02*
X95500Y-60500D01*
X93750Y-40750D02*
X94250Y-41250D01*
X93750Y-37250D02*
X93750Y-39250D01*
X94250Y-22750D02*
X93750Y-23250D01*
X94250Y-35250D02*
X94250Y-36750D01*
X95500Y-60500D02*
X95750Y-60750D01*
X93750Y-27250D02*
X94250Y-27750D01*
X95750Y-60750D02*
X95750Y-61750D01*
X94250Y-36750D02*
X93750Y-37250D01*
X94250Y-27750D02*
X94250Y-28750D01*
X94250Y-35250D02*
X94250Y-28750D01*
X95500Y-54250D02*
X95500Y-60000D01*
X94250Y-22750D02*
X94250Y-22250D01*
X93750Y-39250D02*
X93750Y-40750D01*
X93750Y-26500D02*
X93750Y-27250D01*
X94250Y-51500D02*
X95500Y-52750D01*
X94250Y-41250D02*
X94250Y-48250D01*
X94250Y-51250D02*
X94250Y-51500D01*
X103250Y-39500D02*
X103250Y-38750D01*
X103250Y-26000D02*
X104750Y-27500D01*
X103250Y-24750D02*
X104750Y-23250D01*
X103250Y-25750D02*
X103250Y-26000D01*
X94750Y-54250D02*
X94750Y-56250D01*
X104750Y-23250D02*
X104750Y-19750D01*
X104750Y-41000D02*
X104750Y-47000D01*
X94750Y-58500D02*
X94750Y-56250D01*
X104750Y-19750D02*
X103250Y-18250D01*
X103250Y-18250D02*
X103250Y-12750D01*
X103250Y-39500D02*
X104750Y-41000D01*
X94750Y-58500D02*
X94750Y-60000D01*
X94750Y-60000D02*
X94750Y-61750D01*
X104750Y-27500D02*
X104750Y-37250D01*
X103250Y-25750D02*
X103250Y-24750D01*
X104750Y-37250D02*
X103250Y-38750D01*
X100250Y-40500D02*
X100750Y-41000D01*
X94250Y-62500D02*
X97000Y-62500D01*
X100750Y-41000D02*
X100750Y-41250D01*
X93750Y-62000D02*
X94250Y-62500D01*
X98750Y-43250D02*
X98750Y-48750D01*
X100250Y-37500D02*
X100250Y-38750D01*
X97000Y-62500D02*
X97250Y-62250D01*
X98750Y-59500D02*
X97500Y-60750D01*
X100250Y-19000D02*
X100750Y-19500D01*
X100250Y-25750D02*
X100250Y-27250D01*
X98750Y-57000D02*
X98750Y-59500D01*
X97250Y-62250D02*
X97250Y-61000D01*
X99250Y-42750D02*
X98750Y-43250D01*
X100250Y-38750D02*
X100250Y-40500D01*
X93750Y-61750D02*
X93750Y-62000D01*
X97250Y-61000D02*
X97500Y-60750D01*
X100250Y-27250D02*
X100750Y-27750D01*
X100750Y-23000D02*
X100250Y-23500D01*
X100750Y-27750D02*
X100750Y-37000D01*
X100250Y-23500D02*
X100250Y-25750D01*
X100750Y-37000D02*
X100250Y-37500D01*
X100250Y-12750D02*
X100250Y-19000D01*
X98750Y-57000D02*
X98750Y-48750D01*
X100750Y-19500D02*
X100750Y-23000D01*
X97000Y-50000D02*
X97000Y-53000D01*
X96500Y-53500D02*
X95750Y-53500D01*
X97750Y-41000D02*
X97750Y-42000D01*
X97250Y-40500D02*
X97750Y-41000D01*
X97750Y-35750D02*
X97750Y-37000D01*
X92750Y-61250D02*
X94000Y-60000D01*
X97250Y-27000D02*
X97750Y-27500D01*
X97250Y-19000D02*
X97750Y-19500D01*
X94000Y-54250D02*
X94000Y-54000D01*
X95000Y-53500D02*
X95750Y-53500D01*
X94000Y-54500D02*
X94000Y-54250D01*
X94000Y-54000D02*
X94500Y-53500D01*
X97250Y-12750D02*
X97250Y-19000D01*
X97000Y-53000D02*
X96500Y-53500D01*
X94000Y-60000D02*
X94000Y-54500D01*
X94500Y-53500D02*
X95000Y-53500D01*
X97750Y-37000D02*
X97250Y-37500D01*
X97750Y-49250D02*
X97000Y-50000D01*
X97750Y-19500D02*
X97750Y-23000D01*
X97750Y-23000D02*
X97250Y-23500D01*
X92750Y-61750D02*
X92750Y-61250D01*
X97250Y-40500D02*
X97250Y-38750D01*
X97250Y-25750D02*
X97250Y-27000D01*
X97750Y-48750D02*
X97750Y-42000D01*
X97750Y-27500D02*
X97750Y-28750D01*
X97250Y-37500D02*
X97250Y-38750D01*
X97750Y-35750D02*
X97750Y-28750D01*
X97250Y-23500D02*
X97250Y-25750D01*
X97750Y-48750D02*
X97750Y-49250D01*
X94750Y-23000D02*
X94750Y-19500D01*
X93500Y-50500D02*
X93500Y-55750D01*
X94750Y-35750D02*
X94750Y-28750D01*
X94250Y-38750D02*
X94250Y-40500D01*
X93500Y-55750D02*
X93500Y-59500D01*
X94750Y-49250D02*
X93500Y-50500D01*
X94250Y-37500D02*
X94250Y-38750D01*
X91750Y-61250D02*
X91750Y-61750D01*
X94250Y-27000D02*
X94750Y-27500D01*
X93500Y-59500D02*
X91750Y-61250D01*
X94750Y-27500D02*
X94750Y-28750D01*
X94750Y-48750D02*
X94750Y-49250D01*
X94750Y-35750D02*
X94750Y-37000D01*
X94250Y-19000D02*
X94250Y-12750D01*
X94250Y-23500D02*
X94750Y-23000D01*
X94750Y-37000D02*
X94250Y-37500D01*
X94750Y-41000D02*
X94750Y-48750D01*
X94250Y-25750D02*
X94250Y-23500D01*
X94250Y-40500D02*
X94750Y-41000D01*
X94250Y-25750D02*
X94250Y-27000D01*
X94750Y-19500D02*
X94250Y-19000D01*
X51500Y-60500D02*
X51500Y-62250D01*
X41500Y-47750D02*
X41750Y-47500D01*
X51500Y-62250D02*
X52250Y-63000D01*
X52250Y-63000D02*
X62000Y-63000D01*
X62000Y-63000D02*
X62250Y-63250D01*
X41000Y-47500D02*
X41250Y-47750D01*
X82750Y-69250D02*
X82750Y-68500D01*
X47250Y-48500D02*
X46250Y-47500D01*
X53000Y-57000D02*
X47250Y-51250D01*
X53000Y-57250D02*
X53000Y-57000D01*
X53000Y-59000D02*
X51500Y-60500D01*
X82750Y-68500D02*
X81250Y-67000D01*
X81250Y-67000D02*
X81250Y-64500D01*
X81250Y-64500D02*
X80000Y-63250D01*
X80000Y-63250D02*
X62250Y-63250D01*
X41250Y-47750D02*
X41500Y-47750D01*
X46250Y-47500D02*
X41750Y-47500D01*
X47250Y-51250D02*
X47250Y-48500D01*
X53000Y-57250D02*
X53000Y-59000D01*
X88750Y-24500D02*
X88750Y-26750D01*
X88750Y-38000D02*
X88750Y-39500D01*
X90250Y-48500D02*
X90250Y-48250D01*
X90250Y-48250D02*
X90250Y-41000D01*
X93000Y-58500D02*
X93000Y-53000D01*
X89750Y-61750D02*
X93000Y-58500D01*
X91750Y-51750D02*
X91750Y-50000D01*
X93000Y-53000D02*
X91750Y-51750D01*
X85750Y-61750D02*
X89750Y-61750D01*
X88750Y-26750D02*
X90250Y-28250D01*
X90250Y-41000D02*
X88750Y-39500D01*
X91750Y-50000D02*
X90250Y-48500D01*
X90250Y-36500D02*
X88750Y-38000D01*
X90250Y-23000D02*
X88750Y-24500D01*
X90250Y-36500D02*
X90250Y-35250D01*
X90250Y-22250D02*
X90250Y-23000D01*
X90250Y-28250D02*
X90250Y-35250D01*
X86750Y-41000D02*
X86750Y-39500D01*
X86750Y-27750D02*
X86750Y-23500D01*
X87250Y-48250D02*
X87250Y-49500D01*
X86750Y-38250D02*
X86750Y-39500D01*
X87250Y-35250D02*
X87250Y-36250D01*
X87250Y-28250D02*
X86750Y-27750D01*
X87250Y-48250D02*
X87250Y-41500D01*
X87250Y-41500D02*
X86750Y-41000D01*
X86750Y-54500D02*
X86750Y-59500D01*
X86750Y-39500D02*
X86750Y-39250D01*
X84750Y-61500D02*
X84750Y-61750D01*
X87250Y-35250D02*
X87250Y-28250D01*
X87250Y-36250D02*
X86750Y-36750D01*
X86750Y-36750D02*
X86750Y-38250D01*
X86750Y-23500D02*
X87250Y-23000D01*
X87250Y-23000D02*
X87250Y-22250D01*
X87250Y-49500D02*
X86750Y-50000D01*
X86750Y-50000D02*
X86750Y-54500D01*
X86750Y-59500D02*
X84750Y-61500D01*
X84250Y-41500D02*
X84250Y-48250D01*
X83500Y-52000D02*
X83500Y-49750D01*
X84250Y-49000D02*
X84250Y-48250D01*
X84250Y-28250D02*
X83750Y-27750D01*
X83500Y-49750D02*
X84250Y-49000D01*
X84250Y-35250D02*
X84250Y-28250D01*
X83750Y-23500D02*
X84250Y-23000D01*
X83750Y-61750D02*
X83750Y-60000D01*
X84250Y-36250D02*
X83750Y-36750D01*
X84250Y-23000D02*
X84250Y-22250D01*
X83250Y-52250D02*
X83500Y-52000D01*
X83250Y-59500D02*
X83250Y-54250D01*
X83250Y-59500D02*
X83750Y-60000D01*
X83750Y-41000D02*
X84250Y-41500D01*
X83750Y-36750D02*
X83750Y-41000D01*
X84250Y-35250D02*
X84250Y-36250D01*
X83750Y-27750D02*
X83750Y-23500D01*
X80750Y-36750D02*
X80750Y-41000D01*
X81250Y-28250D02*
X81250Y-35250D01*
X82500Y-52750D02*
X81250Y-51500D01*
X82500Y-60500D02*
X82500Y-54250D01*
X80750Y-41000D02*
X81250Y-41500D01*
X81250Y-51500D02*
X81250Y-51250D01*
X81250Y-22750D02*
X80750Y-23250D01*
X80750Y-23250D02*
X80750Y-27750D01*
X81250Y-22250D02*
X81250Y-22750D01*
X81250Y-41500D02*
X81250Y-48250D01*
X82500Y-60500D02*
X82750Y-60750D01*
X81250Y-36250D02*
X80750Y-36750D01*
X81250Y-35250D02*
X81250Y-36250D01*
X80750Y-27750D02*
X81250Y-28250D01*
X82750Y-61750D02*
X82750Y-60750D01*
X91750Y-20000D02*
X90250Y-18500D01*
X91250Y-27000D02*
X90250Y-26000D01*
X90250Y-38750D02*
X91750Y-37250D01*
X91750Y-27500D02*
X91250Y-27000D01*
X90250Y-18500D02*
X90250Y-12750D01*
X91750Y-23250D02*
X91750Y-20000D01*
X91750Y-40500D02*
X91750Y-47750D01*
X91750Y-37250D02*
X91750Y-27500D01*
X90250Y-26000D02*
X90250Y-25750D01*
X81750Y-54250D02*
X81750Y-61750D01*
X90250Y-25000D02*
X90250Y-24750D01*
X90250Y-39000D02*
X90250Y-38750D01*
X90250Y-25750D02*
X90250Y-25000D01*
X91500Y-23500D02*
X91750Y-23250D01*
X90250Y-39000D02*
X91750Y-40500D01*
X90250Y-24750D02*
X91500Y-23500D01*
X86250Y-43250D02*
X86250Y-43250D01*
X80750Y-61750D02*
X80750Y-61750D01*
X84250Y-60750D02*
X85750Y-59250D01*
X86250Y-43250D02*
X85750Y-43750D01*
X87250Y-25750D02*
X87250Y-23750D01*
X87750Y-28000D02*
X87750Y-33500D01*
X84250Y-62000D02*
X84250Y-60750D01*
X87750Y-41250D02*
X87250Y-40750D01*
X87250Y-23750D02*
X87750Y-23250D01*
X84000Y-62250D02*
X84250Y-62000D01*
X87250Y-25750D02*
X87250Y-27500D01*
X87250Y-27500D02*
X87750Y-28000D01*
X85750Y-59250D02*
X85750Y-43750D01*
X87750Y-41750D02*
X87750Y-41250D01*
X87250Y-40750D02*
X87250Y-38750D01*
X87250Y-37000D02*
X87250Y-38750D01*
X87250Y-37000D02*
X87750Y-36500D01*
X87750Y-23250D02*
X87750Y-19500D01*
X81250Y-62250D02*
X84000Y-62250D01*
X87750Y-19500D02*
X87250Y-19000D01*
X87750Y-36500D02*
X87750Y-33500D01*
X80750Y-61750D02*
X81250Y-62250D01*
X87250Y-19000D02*
X87250Y-12750D01*
X81000Y-54500D02*
X81000Y-59500D01*
X84750Y-28000D02*
X84750Y-36500D01*
X84250Y-19000D02*
X84250Y-12750D01*
X79750Y-60750D02*
X79750Y-61750D01*
X84750Y-49250D02*
X84000Y-50000D01*
X84250Y-37000D02*
X84250Y-38750D01*
X84000Y-53000D02*
X83500Y-53500D01*
X81000Y-54500D02*
X81000Y-54000D01*
X82250Y-53500D02*
X82000Y-53500D01*
X84250Y-38750D02*
X84250Y-40750D01*
X84000Y-50000D02*
X84000Y-53000D01*
X81500Y-53500D02*
X82000Y-53500D01*
X84750Y-41250D02*
X84750Y-49250D01*
X84250Y-25750D02*
X84250Y-23750D01*
X84750Y-36500D02*
X84250Y-37000D01*
X83500Y-53500D02*
X82250Y-53500D01*
X84250Y-23750D02*
X84750Y-23250D01*
X84750Y-19500D02*
X84250Y-19000D01*
X84250Y-27500D02*
X84750Y-28000D01*
X84750Y-23250D02*
X84750Y-19500D01*
X84250Y-25750D02*
X84250Y-27500D01*
X81000Y-59500D02*
X79750Y-60750D01*
X84250Y-40750D02*
X84750Y-41250D01*
X81000Y-54000D02*
X81500Y-53500D01*
X78750Y-61750D02*
X78750Y-61000D01*
X81750Y-36500D02*
X81250Y-37000D01*
X81750Y-19500D02*
X81250Y-19000D01*
X80500Y-50500D02*
X81750Y-49250D01*
X81250Y-23500D02*
X81750Y-23000D01*
X81250Y-19000D02*
X81250Y-12750D01*
X81250Y-40750D02*
X81750Y-41250D01*
X80500Y-59250D02*
X80500Y-50500D01*
X78750Y-61000D02*
X80500Y-59250D01*
X81250Y-40750D02*
X81250Y-38750D01*
X81250Y-27500D02*
X81750Y-28000D01*
X81750Y-23000D02*
X81750Y-19500D01*
X81250Y-25750D02*
X81250Y-23500D01*
X81250Y-25750D02*
X81250Y-27500D01*
X81750Y-41250D02*
X81750Y-49250D01*
X81250Y-37000D02*
X81250Y-38750D01*
X81750Y-28000D02*
X81750Y-36500D01*
X51000Y-60250D02*
X51000Y-62250D01*
X40750Y-48000D02*
X41750Y-48000D01*
X47000Y-48750D02*
X46000Y-47750D01*
X67500Y-63750D02*
X62250Y-63750D01*
X68250Y-67000D02*
X68250Y-64500D01*
X37000Y-23500D02*
X37500Y-23000D01*
X52500Y-57250D02*
X52500Y-57000D01*
X37750Y-22750D02*
X38500Y-22000D01*
X37750Y-22750D02*
X37500Y-23000D01*
X52500Y-57000D02*
X47000Y-51500D01*
X52500Y-58750D02*
X52500Y-57250D01*
X37000Y-28000D02*
X37000Y-24250D01*
X69750Y-69250D02*
X69750Y-68500D01*
X37000Y-24250D02*
X37000Y-23500D01*
X51000Y-60250D02*
X52500Y-58750D01*
X46000Y-47750D02*
X42000Y-47750D01*
X40500Y-47750D02*
X40750Y-48000D01*
X41750Y-48000D02*
X42000Y-47750D01*
X68250Y-64500D02*
X67500Y-63750D01*
X47000Y-51500D02*
X47000Y-48750D01*
X61750Y-63250D02*
X62250Y-63750D01*
X69750Y-68500D02*
X68250Y-67000D01*
X51000Y-62250D02*
X52000Y-63250D01*
X52000Y-63250D02*
X61750Y-63250D01*
X78750Y-49750D02*
X78750Y-51500D01*
X77250Y-27750D02*
X75750Y-26250D01*
X78750Y-51500D02*
X80000Y-52750D01*
X77250Y-48250D02*
X78750Y-49750D01*
X77250Y-36750D02*
X77250Y-35250D01*
X75750Y-26250D02*
X75750Y-25000D01*
X77250Y-40750D02*
X75750Y-39250D01*
X77250Y-23500D02*
X77250Y-22250D01*
X80000Y-52750D02*
X80000Y-59000D01*
X75750Y-39250D02*
X75750Y-38250D01*
X77250Y-35250D02*
X77250Y-27750D01*
X75750Y-38250D02*
X77250Y-36750D01*
X77250Y-48250D02*
X77250Y-40750D01*
X75750Y-25000D02*
X77250Y-23500D01*
X72750Y-61750D02*
X77250Y-61750D01*
X77250Y-61750D02*
X80000Y-59000D01*
X74250Y-28250D02*
X73750Y-27750D01*
X74250Y-48250D02*
X74250Y-49750D01*
X74250Y-48250D02*
X74250Y-40750D01*
X74250Y-37500D02*
X74250Y-35250D01*
X74250Y-40750D02*
X73750Y-40250D01*
X73750Y-25250D02*
X74250Y-24750D01*
X73750Y-27750D02*
X73750Y-25250D01*
X74250Y-35250D02*
X74250Y-28250D01*
X73750Y-50250D02*
X73750Y-59750D01*
X73750Y-40250D02*
X73750Y-38000D01*
X74250Y-49750D02*
X73750Y-50250D01*
X73750Y-38000D02*
X74250Y-37500D01*
X74250Y-24750D02*
X74250Y-22250D01*
X73750Y-59750D02*
X71750Y-61750D01*
X71250Y-22250D02*
X71250Y-23750D01*
X70750Y-36500D02*
X71250Y-36000D01*
X70250Y-54250D02*
X70250Y-60250D01*
X71250Y-36000D02*
X71250Y-35250D01*
X71250Y-41750D02*
X70750Y-41250D01*
X70250Y-60250D02*
X70250Y-60500D01*
X70750Y-41250D02*
X70750Y-36500D01*
X71250Y-48250D02*
X71250Y-41750D01*
X71250Y-23750D02*
X70750Y-24250D01*
X70250Y-49750D02*
X70250Y-52750D01*
X71250Y-48750D02*
X70250Y-49750D01*
X71250Y-48250D02*
X71250Y-48750D01*
X70750Y-24250D02*
X70750Y-27000D01*
X70750Y-61000D02*
X70750Y-61750D01*
X70250Y-60500D02*
X70750Y-61000D01*
X70750Y-27000D02*
X71250Y-27500D01*
X71250Y-27500D02*
X71250Y-35250D01*
X69500Y-52750D02*
X68250Y-51500D01*
X68250Y-37000D02*
X68250Y-35250D01*
X68250Y-40750D02*
X67750Y-40250D01*
X69500Y-56500D02*
X69500Y-54250D01*
X69500Y-61000D02*
X69750Y-61250D01*
X67750Y-23000D02*
X67750Y-27250D01*
X68250Y-51500D02*
X68250Y-50500D01*
X69500Y-60250D02*
X69500Y-61000D01*
X67750Y-27250D02*
X68250Y-27750D01*
X69500Y-60250D02*
X69500Y-56500D01*
X68250Y-22500D02*
X67750Y-23000D01*
X67750Y-37500D02*
X68250Y-37000D01*
X67750Y-40250D02*
X67750Y-37500D01*
X68250Y-27750D02*
X68250Y-35250D01*
X68250Y-48250D02*
X68250Y-40750D01*
X68250Y-22250D02*
X68250Y-22500D01*
X69750Y-61250D02*
X69750Y-61750D01*
X78750Y-27250D02*
X77250Y-25750D01*
X77250Y-25250D02*
X78750Y-23750D01*
X78750Y-23750D02*
X78750Y-21000D01*
X77250Y-15500D02*
X77250Y-12750D01*
X78750Y-21000D02*
X78750Y-17000D01*
X78750Y-40250D02*
X78750Y-47750D01*
X77250Y-38500D02*
X78750Y-37000D01*
X77250Y-38750D02*
X78750Y-40250D01*
X78750Y-37000D02*
X78750Y-31750D01*
X78750Y-17000D02*
X77250Y-15500D01*
X68750Y-60250D02*
X68750Y-54250D01*
X77250Y-38750D02*
X77250Y-38500D01*
X77250Y-25750D02*
X77250Y-25250D01*
X78750Y-31750D02*
X78750Y-27250D01*
X68750Y-60250D02*
X68750Y-61750D01*
X74250Y-38750D02*
X74250Y-40000D01*
X74750Y-37500D02*
X74250Y-38000D01*
X74250Y-25500D02*
X74250Y-25750D01*
X74750Y-28000D02*
X74750Y-37250D01*
X71250Y-62000D02*
X71250Y-60750D01*
X74250Y-21000D02*
X74750Y-21500D01*
X72750Y-43000D02*
X72750Y-59250D01*
X74750Y-37250D02*
X74750Y-37500D01*
X74250Y-12750D02*
X74250Y-21000D01*
X74750Y-40500D02*
X74750Y-41000D01*
X74750Y-21500D02*
X74750Y-23750D01*
X67750Y-61750D02*
X67750Y-61750D01*
X74750Y-23750D02*
X74500Y-24000D01*
X74500Y-25250D02*
X74250Y-25500D01*
X72750Y-59250D02*
X71250Y-60750D01*
X74250Y-38000D02*
X74250Y-38750D01*
X74250Y-25750D02*
X74250Y-27500D01*
X67750Y-61750D02*
X68250Y-62250D01*
X74250Y-27500D02*
X74750Y-28000D01*
X74250Y-40000D02*
X74750Y-40500D01*
X74500Y-24000D02*
X74500Y-25250D01*
X71000Y-62250D02*
X71250Y-62000D01*
X68250Y-62250D02*
X71000Y-62250D01*
X71000Y-50000D02*
X71000Y-53000D01*
X68000Y-54000D02*
X68500Y-53500D01*
X71250Y-14500D02*
X71250Y-12750D01*
X68000Y-54750D02*
X67500Y-55250D01*
X71000Y-53000D02*
X70500Y-53500D01*
X71750Y-23750D02*
X71750Y-15000D01*
X66750Y-61000D02*
X66750Y-61750D01*
X70500Y-53500D02*
X69250Y-53500D01*
X71250Y-26750D02*
X71250Y-25750D01*
X71750Y-49250D02*
X71000Y-50000D01*
X67500Y-55250D02*
X67500Y-60250D01*
X71750Y-36000D02*
X71750Y-27250D01*
X68500Y-53500D02*
X69250Y-53500D01*
X71250Y-36500D02*
X71750Y-36000D01*
X71250Y-24250D02*
X71750Y-23750D01*
X71250Y-25750D02*
X71250Y-24250D01*
X71250Y-40750D02*
X71750Y-41250D01*
X71750Y-41250D02*
X71750Y-49250D01*
X71250Y-38750D02*
X71250Y-36500D01*
X68000Y-54750D02*
X68000Y-54000D01*
X71750Y-27250D02*
X71250Y-26750D01*
X67500Y-60250D02*
X66750Y-61000D01*
X71750Y-15000D02*
X71250Y-14500D01*
X71250Y-38750D02*
X71250Y-40750D01*
X68250Y-20000D02*
X68750Y-20500D01*
X68250Y-27000D02*
X68750Y-27500D01*
X68750Y-23000D02*
X68250Y-23500D01*
X65750Y-61250D02*
X65750Y-61750D01*
X68250Y-40000D02*
X68750Y-40500D01*
X67000Y-60000D02*
X65750Y-61250D01*
X68250Y-38750D02*
X68250Y-40000D01*
X68750Y-37250D02*
X68250Y-37750D01*
X68250Y-25750D02*
X68250Y-27000D01*
X68750Y-27500D02*
X68750Y-37250D01*
X67500Y-54500D02*
X67000Y-55000D01*
X68750Y-40500D02*
X68750Y-49000D01*
X67500Y-54500D02*
X67500Y-50250D01*
X68250Y-37750D02*
X68250Y-38750D01*
X67000Y-55000D02*
X67000Y-60000D01*
X68750Y-20500D02*
X68750Y-23000D01*
X68250Y-12750D02*
X68250Y-20000D01*
X67500Y-50250D02*
X68750Y-49000D01*
X68250Y-23500D02*
X68250Y-25750D01*
X37250Y-28500D02*
X37500Y-28250D01*
X56750Y-69250D02*
X56750Y-67750D01*
X37500Y-28250D02*
X37500Y-27750D01*
X37000Y-29250D02*
X37000Y-28750D01*
X37250Y-24500D02*
X37500Y-24250D01*
X37000Y-28750D02*
X37250Y-28500D01*
X56250Y-67250D02*
X56250Y-64500D01*
X37000Y-29750D02*
X37000Y-29250D01*
X56000Y-64250D02*
X51250Y-64250D01*
X51250Y-64250D02*
X50500Y-63500D01*
X46750Y-49000D02*
X45750Y-48000D01*
X46750Y-51750D02*
X46750Y-49000D01*
X52000Y-57000D02*
X46750Y-51750D01*
X45750Y-48000D02*
X42250Y-48000D01*
X52000Y-57250D02*
X52000Y-57000D01*
X40250Y-48250D02*
X41000Y-48250D01*
X41000Y-48250D02*
X42000Y-48250D01*
X42000Y-48250D02*
X42250Y-48000D01*
X40000Y-48000D02*
X40250Y-48250D01*
X50500Y-60000D02*
X50500Y-63500D01*
X56750Y-67750D02*
X56250Y-67250D01*
X50500Y-60000D02*
X52000Y-58500D01*
X52000Y-58500D02*
X52000Y-57250D01*
X37500Y-27750D02*
X37250Y-27500D01*
X40000Y-48000D02*
X40000Y-48000D01*
X37250Y-27500D02*
X37250Y-24500D01*
X56250Y-64500D02*
X56000Y-64250D01*
X37750Y-24000D02*
X37500Y-24250D01*
X38500Y-24000D02*
X37750Y-24000D01*
X62750Y-39500D02*
X62750Y-38000D01*
X64250Y-48500D02*
X65750Y-50000D01*
X62750Y-25250D02*
X62750Y-26250D01*
X64250Y-35250D02*
X64250Y-27750D01*
X64250Y-48500D02*
X64250Y-48250D01*
X67000Y-53750D02*
X67000Y-53000D01*
X66500Y-59500D02*
X66500Y-54250D01*
X64250Y-48250D02*
X64250Y-41000D01*
X65750Y-50000D02*
X65750Y-51750D01*
X64250Y-27750D02*
X62750Y-26250D01*
X66500Y-54250D02*
X67000Y-53750D01*
X64250Y-22250D02*
X64250Y-23750D01*
X64250Y-23750D02*
X64250Y-23750D01*
X67000Y-53000D02*
X65750Y-51750D01*
X62750Y-38000D02*
X64250Y-36500D01*
X62750Y-25250D02*
X64250Y-23750D01*
X64250Y-61750D02*
X66500Y-59500D01*
X64250Y-41000D02*
X62750Y-39500D01*
X59750Y-61750D02*
X64250Y-61750D01*
X64250Y-36500D02*
X64250Y-35250D01*
X59000Y-61250D02*
X60250Y-61250D01*
X61250Y-36500D02*
X60750Y-37000D01*
X61250Y-36500D02*
X61250Y-35250D01*
X61250Y-48250D02*
X61250Y-42750D01*
X60750Y-39250D02*
X60750Y-40500D01*
X58750Y-61500D02*
X59000Y-61250D01*
X61250Y-49500D02*
X61250Y-48250D01*
X60750Y-27500D02*
X61250Y-28000D01*
X60750Y-26250D02*
X60750Y-27500D01*
X60750Y-24250D02*
X60750Y-26250D01*
X61250Y-22250D02*
X61250Y-23750D01*
X61250Y-23750D02*
X60750Y-24250D01*
X60750Y-40500D02*
X61250Y-41000D01*
X60750Y-60750D02*
X60750Y-57500D01*
X58750Y-61750D02*
X58750Y-61500D01*
X61250Y-49500D02*
X60750Y-50000D01*
X61250Y-28000D02*
X61250Y-35250D01*
X61250Y-41000D02*
X61250Y-42750D01*
X60750Y-50000D02*
X60750Y-57500D01*
X60750Y-37000D02*
X60750Y-39250D01*
X60250Y-61250D02*
X60750Y-60750D01*
X58250Y-29500D02*
X58250Y-35250D01*
X57500Y-49750D02*
X57500Y-52000D01*
X58250Y-35250D02*
X58250Y-36750D01*
X57500Y-52000D02*
X57250Y-52250D01*
X57750Y-29000D02*
X58250Y-29500D01*
X57750Y-26250D02*
X57750Y-29000D01*
X57750Y-24250D02*
X57750Y-26250D01*
X57750Y-37250D02*
X57750Y-39250D01*
X57250Y-59500D02*
X57250Y-60750D01*
X58250Y-22250D02*
X58250Y-23750D01*
X57250Y-59500D02*
X57250Y-54250D01*
X58250Y-49000D02*
X58250Y-48250D01*
X58250Y-49000D02*
X57500Y-49750D01*
X57750Y-61250D02*
X57750Y-61750D01*
X58250Y-23750D02*
X57750Y-24250D01*
X57250Y-60750D02*
X57750Y-61250D01*
X58250Y-41000D02*
X58250Y-48250D01*
X57750Y-40500D02*
X58250Y-41000D01*
X57750Y-39250D02*
X57750Y-40500D01*
X58250Y-36750D02*
X57750Y-37250D01*
X56500Y-54250D02*
X56500Y-59500D01*
X55250Y-41000D02*
X55250Y-48250D01*
X54750Y-39250D02*
X54750Y-40500D01*
X54750Y-26250D02*
X54750Y-30500D01*
X55250Y-23250D02*
X54750Y-23750D01*
X54750Y-40500D02*
X55250Y-41000D01*
X55250Y-31000D02*
X55250Y-35250D01*
X55250Y-50000D02*
X55250Y-48250D01*
X55250Y-36750D02*
X54750Y-37250D01*
X55250Y-51250D02*
X55250Y-51500D01*
X55250Y-51500D02*
X56500Y-52750D01*
X55250Y-35250D02*
X55250Y-36750D01*
X54750Y-37250D02*
X54750Y-39250D01*
X56500Y-61000D02*
X56750Y-61250D01*
X54750Y-23750D02*
X54750Y-26250D01*
X55250Y-22250D02*
X55250Y-23250D01*
X56750Y-61250D02*
X56750Y-61750D01*
X56500Y-59500D02*
X56500Y-61000D01*
X54750Y-30500D02*
X55250Y-31000D01*
X64250Y-25250D02*
X64250Y-25750D01*
X64250Y-38750D02*
X64250Y-38500D01*
X64250Y-26000D02*
X64250Y-25750D01*
X64250Y-39500D02*
X64250Y-38750D01*
X64250Y-12750D02*
X64250Y-16000D01*
X64250Y-39500D02*
X65750Y-41000D01*
X65750Y-37000D02*
X65750Y-27500D01*
X65750Y-23750D02*
X64250Y-25250D01*
X64250Y-38500D02*
X65750Y-37000D01*
X56000Y-54500D02*
X55750Y-54250D01*
X65750Y-22750D02*
X65750Y-23750D01*
X55750Y-61500D02*
X56000Y-61250D01*
X65750Y-41000D02*
X65750Y-47750D01*
X56000Y-61250D02*
X56000Y-54500D01*
X65750Y-17500D02*
X65750Y-22750D01*
X55750Y-61750D02*
X55750Y-61500D01*
X65750Y-27500D02*
X64250Y-26000D01*
X64250Y-16000D02*
X65750Y-17500D01*
X54750Y-61750D02*
X55250Y-62250D01*
X61750Y-36750D02*
X61750Y-35750D01*
X61250Y-40250D02*
X61750Y-40750D01*
X61250Y-27250D02*
X61250Y-25750D01*
X61250Y-40250D02*
X61250Y-38750D01*
X61750Y-27750D02*
X61750Y-35750D01*
X61250Y-27250D02*
X61750Y-27750D01*
X59750Y-45000D02*
X59750Y-48750D01*
X61250Y-12750D02*
X61250Y-19000D01*
X61750Y-40750D02*
X61750Y-41000D01*
X61250Y-38750D02*
X61250Y-37250D01*
X61750Y-24000D02*
X61250Y-24500D01*
X58250Y-60750D02*
X58750Y-60250D01*
X54750Y-61750D02*
X54750Y-61750D01*
X58750Y-60250D02*
X59750Y-59250D01*
X61750Y-19500D02*
X61750Y-24000D01*
X59750Y-57000D02*
X59750Y-48750D01*
X61250Y-37250D02*
X61750Y-36750D01*
X55250Y-62250D02*
X58000Y-62250D01*
X59750Y-43000D02*
X59750Y-45000D01*
X61250Y-19000D02*
X61750Y-19500D01*
X59750Y-59250D02*
X59750Y-57000D01*
X58250Y-62000D02*
X58250Y-60750D01*
X61250Y-24500D02*
X61250Y-25750D01*
X58000Y-62250D02*
X58250Y-62000D01*
X58750Y-24000D02*
X58250Y-24500D01*
X58750Y-19500D02*
X58750Y-22750D01*
X58250Y-28750D02*
X58250Y-25750D01*
X58000Y-50000D02*
X58000Y-53000D01*
X58750Y-29250D02*
X58750Y-35750D01*
X58250Y-38750D02*
X58250Y-37500D01*
X58250Y-40250D02*
X58250Y-38750D01*
X58750Y-22750D02*
X58750Y-24000D01*
X58750Y-48750D02*
X58750Y-49250D01*
X55250Y-54000D02*
X55750Y-53500D01*
X57500Y-53500D02*
X58000Y-53000D01*
X58750Y-37000D02*
X58750Y-35750D01*
X54500Y-61000D02*
X55250Y-60250D01*
X58250Y-28750D02*
X58750Y-29250D01*
X56750Y-53500D02*
X57500Y-53500D01*
X58750Y-49250D02*
X58000Y-50000D01*
X58250Y-12750D02*
X58250Y-19000D01*
X58250Y-37500D02*
X58750Y-37000D01*
X58250Y-40250D02*
X58750Y-40750D01*
X55250Y-60250D02*
X55250Y-59750D01*
X55000Y-55000D02*
X55000Y-54250D01*
X55000Y-54250D02*
X55250Y-54000D01*
X58250Y-19000D02*
X58750Y-19500D01*
X55250Y-59750D02*
X55250Y-55500D01*
X58750Y-40750D02*
X58750Y-48750D01*
X55750Y-53500D02*
X56750Y-53500D01*
X58250Y-24500D02*
X58250Y-25750D01*
X53750Y-61750D02*
X54500Y-61000D01*
X55250Y-55250D02*
X55000Y-55000D01*
X55250Y-55500D02*
X55250Y-55250D01*
X53000Y-61750D02*
X54250Y-60500D01*
X55250Y-24000D02*
X55250Y-25750D01*
X55750Y-50000D02*
X55250Y-50500D01*
X55250Y-19000D02*
X55750Y-19500D01*
X54750Y-51000D02*
X55250Y-50500D01*
X55250Y-38750D02*
X55250Y-40250D01*
X55750Y-22750D02*
X55750Y-23500D01*
X55250Y-40250D02*
X55750Y-40750D01*
X54250Y-60500D02*
X54750Y-60000D01*
X55750Y-23500D02*
X55250Y-24000D01*
X52750Y-61750D02*
X53000Y-61750D01*
X55250Y-30250D02*
X55750Y-30750D01*
X55750Y-30750D02*
X55750Y-35750D01*
X55750Y-49250D02*
X55750Y-50000D01*
X55750Y-40750D02*
X55750Y-48750D01*
X55250Y-37500D02*
X55750Y-37000D01*
X55750Y-48750D02*
X55750Y-49250D01*
X54750Y-60000D02*
X54750Y-52000D01*
X55250Y-30250D02*
X55250Y-25750D01*
X55250Y-50500D02*
X54750Y-51000D01*
X55750Y-19500D02*
X55750Y-22750D01*
X54750Y-52000D02*
X54750Y-51000D01*
X55250Y-38750D02*
X55250Y-37500D01*
X55750Y-37000D02*
X55750Y-35750D01*
X55250Y-12750D02*
X55250Y-19000D01*
X47250Y-34250D02*
X47000Y-34000D01*
X47750Y-44500D02*
X47500Y-44250D01*
X47000Y-34000D02*
X47000Y-27500D01*
X46500Y-26250D02*
X44250Y-26250D01*
X47000Y-26750D02*
X46500Y-26250D01*
X47000Y-27500D02*
X47000Y-26750D01*
X42500Y-25750D02*
X42500Y-22500D01*
X42500Y-22500D02*
X43000Y-22000D01*
X43000Y-22000D02*
X43500Y-22000D01*
X49000Y-44500D02*
X47750Y-44500D01*
X38750Y-21500D02*
X43250Y-17000D01*
X36500Y-31500D02*
X36500Y-23250D01*
X36500Y-23250D02*
X38250Y-21500D01*
X38250Y-21500D02*
X38750Y-21500D01*
X35000Y-32750D02*
X35250Y-32750D01*
X35250Y-32750D02*
X36500Y-31500D01*
X43250Y-17000D02*
X43500Y-17000D01*
X35000Y-31750D02*
X35250Y-31750D01*
X36000Y-31000D02*
X36000Y-23250D01*
X42750Y-17000D02*
X42750Y-16750D01*
X36000Y-23250D02*
X38250Y-21000D01*
X38250Y-21000D02*
X38750Y-21000D01*
X35250Y-31750D02*
X36000Y-31000D01*
X42750Y-16750D02*
X43500Y-16000D01*
X38750Y-21000D02*
X42750Y-17000D01*
X35500Y-23250D02*
X35500Y-30250D01*
X43500Y-15000D02*
X42750Y-15000D01*
X38750Y-20500D02*
X38250Y-20500D01*
X38250Y-20500D02*
X35500Y-23250D01*
X35500Y-30250D02*
X35000Y-30750D01*
X42750Y-15000D02*
X42250Y-15500D01*
X42250Y-17000D02*
X38750Y-20500D01*
X42250Y-15500D02*
X42250Y-17000D01*
X41750Y-17000D02*
X41750Y-14750D01*
X42500Y-14000D02*
X43500Y-14000D01*
X35000Y-29750D02*
X35000Y-23000D01*
X38000Y-20000D02*
X38750Y-20000D01*
X38750Y-20000D02*
X41750Y-17000D01*
X35000Y-23000D02*
X38000Y-20000D01*
X41750Y-14750D02*
X42500Y-14000D01*
G54D26*
X38250Y-54000D02*
X38250Y-55500D01*
X38250Y-51375D02*
X38250Y-54000D01*
X47500Y-41250D02*
X48000Y-40750D01*
X49500Y-69500D02*
X49500Y-70000D01*
X47750Y-40500D02*
X47500Y-40250D01*
X49000Y-40500D02*
X47750Y-40500D01*
X38250Y-55500D02*
X38800Y-56050D01*
X50000Y-69750D02*
X49000Y-69750D01*
X47750Y-40500D02*
X45750Y-40500D01*
X38800Y-62500D02*
X38800Y-57000D01*
X38250Y-51375D02*
X38250Y-49625D01*
X38800Y-56050D02*
X38800Y-57000D01*
X38500Y-18000D02*
X39250Y-18000D01*
X39250Y-18000D02*
X40500Y-16750D01*
X51250Y-58250D02*
X51000Y-58500D01*
X51000Y-58500D02*
X50500Y-58500D01*
X38250Y-54000D02*
X47500Y-54000D01*
X47500Y-54000D02*
X51000Y-57500D01*
X38800Y-68000D02*
X38800Y-62500D01*
X49750Y-69250D02*
X49500Y-69500D01*
G54D10*
G36*
X51700Y-58229D02*
X50979Y-58950D01*
X50271Y-58950D01*
X49300Y-57979D01*
X49300Y-56479D01*
X47521Y-54700D01*
X39450Y-54700D01*
X39450Y-56825D01*
X39425Y-56885D01*
X39425Y-57114D01*
X39450Y-57174D01*
X39450Y-62325D01*
X39425Y-62385D01*
X39425Y-62614D01*
X39450Y-62674D01*
X39450Y-67825D01*
X39425Y-67885D01*
X39425Y-68114D01*
X39450Y-68174D01*
X39450Y-68274D01*
X39511Y-68322D01*
X39512Y-68325D01*
X39674Y-68487D01*
X39762Y-68523D01*
X40732Y-69300D01*
X49271Y-69300D01*
X49521Y-69050D01*
X49979Y-69050D01*
X50200Y-69271D01*
X50200Y-70229D01*
X49979Y-70450D01*
X39368Y-70450D01*
X39368Y-68084D01*
X39368Y-62584D01*
X39368Y-57084D01*
X39356Y-56861D01*
X39292Y-56704D01*
X39196Y-56675D01*
X39125Y-56746D01*
X39125Y-56604D01*
X39096Y-56508D01*
X38884Y-56432D01*
X38827Y-56435D01*
X38827Y-51463D01*
X38827Y-49713D01*
X38817Y-49485D01*
X38750Y-49323D01*
X38653Y-49293D01*
X38582Y-49364D01*
X38582Y-49222D01*
X38552Y-49125D01*
X38338Y-49048D01*
X38110Y-49058D01*
X37948Y-49125D01*
X37918Y-49222D01*
X38250Y-49554D01*
X38582Y-49222D01*
X38582Y-49364D01*
X38321Y-49625D01*
X38653Y-49957D01*
X38750Y-49927D01*
X38827Y-49713D01*
X38827Y-51463D01*
X38817Y-51235D01*
X38750Y-51073D01*
X38653Y-51043D01*
X38582Y-51114D01*
X38582Y-50972D01*
X38582Y-50028D01*
X38250Y-49696D01*
X38179Y-49767D01*
X38179Y-49625D01*
X37847Y-49293D01*
X37750Y-49323D01*
X37673Y-49537D01*
X37683Y-49765D01*
X37750Y-49927D01*
X37847Y-49957D01*
X38179Y-49625D01*
X38179Y-49767D01*
X37918Y-50028D01*
X37948Y-50125D01*
X38162Y-50202D01*
X38390Y-50192D01*
X38552Y-50125D01*
X38582Y-50028D01*
X38582Y-50972D01*
X38552Y-50875D01*
X38338Y-50798D01*
X38110Y-50808D01*
X37948Y-50875D01*
X37918Y-50972D01*
X38250Y-51304D01*
X38582Y-50972D01*
X38582Y-51114D01*
X38321Y-51375D01*
X38653Y-51707D01*
X38750Y-51677D01*
X38827Y-51463D01*
X38827Y-56435D01*
X38661Y-56444D01*
X38582Y-56476D01*
X38582Y-51778D01*
X38250Y-51446D01*
X38179Y-51517D01*
X38179Y-51375D01*
X37847Y-51043D01*
X37750Y-51073D01*
X37673Y-51287D01*
X37683Y-51515D01*
X37750Y-51677D01*
X37847Y-51707D01*
X38179Y-51375D01*
X38179Y-51517D01*
X37918Y-51778D01*
X37948Y-51875D01*
X38162Y-51952D01*
X38390Y-51942D01*
X38552Y-51875D01*
X38582Y-51778D01*
X38582Y-56476D01*
X38504Y-56508D01*
X38475Y-56604D01*
X38800Y-56929D01*
X39125Y-56604D01*
X39125Y-56746D01*
X38871Y-57000D01*
X39196Y-57325D01*
X39292Y-57296D01*
X39368Y-57084D01*
X39368Y-62584D01*
X39356Y-62361D01*
X39292Y-62204D01*
X39196Y-62175D01*
X39125Y-62246D01*
X39125Y-62104D01*
X39125Y-57396D01*
X38800Y-57071D01*
X38729Y-57142D01*
X38729Y-57000D01*
X38404Y-56675D01*
X38308Y-56704D01*
X38288Y-56759D01*
X38234Y-56630D01*
X38051Y-56446D01*
X37810Y-56346D01*
X37550Y-56346D01*
X37310Y-56446D01*
X37126Y-56629D01*
X37026Y-56870D01*
X37026Y-57130D01*
X37126Y-57370D01*
X37309Y-57554D01*
X37550Y-57654D01*
X37810Y-57654D01*
X38050Y-57554D01*
X38234Y-57371D01*
X38286Y-57243D01*
X38308Y-57296D01*
X38404Y-57325D01*
X38729Y-57000D01*
X38729Y-57142D01*
X38475Y-57396D01*
X38504Y-57492D01*
X38716Y-57568D01*
X38939Y-57556D01*
X39096Y-57492D01*
X39125Y-57396D01*
X39125Y-62104D01*
X39096Y-62008D01*
X38884Y-61932D01*
X38661Y-61944D01*
X38504Y-62008D01*
X38475Y-62104D01*
X38800Y-62429D01*
X39125Y-62104D01*
X39125Y-62246D01*
X38871Y-62500D01*
X39196Y-62825D01*
X39292Y-62796D01*
X39368Y-62584D01*
X39368Y-68084D01*
X39356Y-67861D01*
X39292Y-67704D01*
X39196Y-67675D01*
X39125Y-67746D01*
X39125Y-67604D01*
X39125Y-62896D01*
X38800Y-62571D01*
X38729Y-62642D01*
X38729Y-62500D01*
X38404Y-62175D01*
X38308Y-62204D01*
X38288Y-62259D01*
X38234Y-62130D01*
X38051Y-61946D01*
X37810Y-61846D01*
X37550Y-61846D01*
X37310Y-61946D01*
X37126Y-62129D01*
X37026Y-62370D01*
X37026Y-62630D01*
X37126Y-62870D01*
X37309Y-63054D01*
X37550Y-63154D01*
X37810Y-63154D01*
X38050Y-63054D01*
X38234Y-62871D01*
X38286Y-62743D01*
X38308Y-62796D01*
X38404Y-62825D01*
X38729Y-62500D01*
X38729Y-62642D01*
X38475Y-62896D01*
X38504Y-62992D01*
X38716Y-63068D01*
X38939Y-63056D01*
X39096Y-62992D01*
X39125Y-62896D01*
X39125Y-67604D01*
X39096Y-67508D01*
X38884Y-67432D01*
X38661Y-67444D01*
X38504Y-67508D01*
X38475Y-67604D01*
X38800Y-67929D01*
X39125Y-67604D01*
X39125Y-67746D01*
X38871Y-68000D01*
X39196Y-68325D01*
X39292Y-68296D01*
X39368Y-68084D01*
X39368Y-70450D01*
X39125Y-70450D01*
X39125Y-68396D01*
X38800Y-68071D01*
X38729Y-68142D01*
X38729Y-68000D01*
X38404Y-67675D01*
X38308Y-67704D01*
X38288Y-67759D01*
X38234Y-67630D01*
X38051Y-67446D01*
X37810Y-67346D01*
X37550Y-67346D01*
X37310Y-67446D01*
X37126Y-67629D01*
X37026Y-67870D01*
X37026Y-68130D01*
X37126Y-68370D01*
X37309Y-68554D01*
X37550Y-68654D01*
X37810Y-68654D01*
X38050Y-68554D01*
X38234Y-68371D01*
X38286Y-68243D01*
X38308Y-68296D01*
X38404Y-68325D01*
X38729Y-68000D01*
X38729Y-68142D01*
X38475Y-68396D01*
X38504Y-68492D01*
X38716Y-68568D01*
X38939Y-68556D01*
X39096Y-68492D01*
X39125Y-68396D01*
X39125Y-70450D01*
X38021Y-70450D01*
X36050Y-68479D01*
X36050Y-40521D01*
X37521Y-39050D01*
X44979Y-39050D01*
X45979Y-40050D01*
X47729Y-40050D01*
X48200Y-40521D01*
X48200Y-40979D01*
X47729Y-41450D01*
X45979Y-41450D01*
X45519Y-41910D01*
X45519Y-41574D01*
X45508Y-41370D01*
X45452Y-41233D01*
X45361Y-41210D01*
X45290Y-41281D01*
X45290Y-41139D01*
X45267Y-41048D01*
X45074Y-40981D01*
X44870Y-40992D01*
X44733Y-41048D01*
X44710Y-41139D01*
X45000Y-41429D01*
X45290Y-41139D01*
X45290Y-41281D01*
X45071Y-41500D01*
X45361Y-41790D01*
X45452Y-41767D01*
X45519Y-41574D01*
X45519Y-41910D01*
X45290Y-42139D01*
X45290Y-41861D01*
X45000Y-41571D01*
X44929Y-41642D01*
X44929Y-41500D01*
X44639Y-41210D01*
X44548Y-41233D01*
X44481Y-41426D01*
X44492Y-41630D01*
X44548Y-41767D01*
X44639Y-41790D01*
X44929Y-41500D01*
X44929Y-41642D01*
X44710Y-41861D01*
X44733Y-41952D01*
X44926Y-42019D01*
X45130Y-42008D01*
X45267Y-41952D01*
X45290Y-41861D01*
X45290Y-42139D01*
X44979Y-42450D01*
X43599Y-42450D01*
X43599Y-41119D01*
X43599Y-40881D01*
X43508Y-40661D01*
X43339Y-40492D01*
X43119Y-40401D01*
X42881Y-40401D01*
X42661Y-40492D01*
X42492Y-40661D01*
X42401Y-40881D01*
X42401Y-41119D01*
X42492Y-41339D01*
X42661Y-41508D01*
X42680Y-41515D01*
X42657Y-41586D01*
X43000Y-41929D01*
X43343Y-41586D01*
X43319Y-41515D01*
X43339Y-41508D01*
X43508Y-41339D01*
X43599Y-41119D01*
X43599Y-42450D01*
X43593Y-42450D01*
X43502Y-42450D01*
X43491Y-42439D01*
X43443Y-42419D01*
X43502Y-42361D01*
X43466Y-42325D01*
X43513Y-42310D01*
X43593Y-42091D01*
X43582Y-41856D01*
X43513Y-41690D01*
X43414Y-41657D01*
X43106Y-41965D01*
X43071Y-42000D01*
X43000Y-42071D01*
X42929Y-42000D01*
X42894Y-41965D01*
X42586Y-41657D01*
X42487Y-41690D01*
X42407Y-41909D01*
X42418Y-42144D01*
X42487Y-42310D01*
X42533Y-42325D01*
X42498Y-42361D01*
X42556Y-42419D01*
X42509Y-42438D01*
X41021Y-40950D01*
X41002Y-40950D01*
X41011Y-40941D01*
X41049Y-40849D01*
X41050Y-40612D01*
X41050Y-40388D01*
X41049Y-40151D01*
X41011Y-40059D01*
X40941Y-39989D01*
X40850Y-39951D01*
X40751Y-39951D01*
X40612Y-39950D01*
X40550Y-40012D01*
X40550Y-40450D01*
X40988Y-40450D01*
X41050Y-40388D01*
X41050Y-40612D01*
X40988Y-40550D01*
X40600Y-40550D01*
X40550Y-40550D01*
X40450Y-40550D01*
X40450Y-40450D01*
X40450Y-40012D01*
X40388Y-39950D01*
X40249Y-39951D01*
X40150Y-39951D01*
X40059Y-39989D01*
X39989Y-40059D01*
X39951Y-40151D01*
X39950Y-40388D01*
X40012Y-40450D01*
X40450Y-40450D01*
X40450Y-40550D01*
X40400Y-40550D01*
X40012Y-40550D01*
X39950Y-40612D01*
X39951Y-40849D01*
X39989Y-40941D01*
X39998Y-40950D01*
X39019Y-40950D01*
X39019Y-40574D01*
X39008Y-40370D01*
X38952Y-40233D01*
X38861Y-40210D01*
X38790Y-40281D01*
X38790Y-40139D01*
X38767Y-40048D01*
X38574Y-39981D01*
X38370Y-39992D01*
X38233Y-40048D01*
X38210Y-40139D01*
X38500Y-40429D01*
X38790Y-40139D01*
X38790Y-40281D01*
X38571Y-40500D01*
X38861Y-40790D01*
X38952Y-40767D01*
X39019Y-40574D01*
X39019Y-40950D01*
X38767Y-40950D01*
X38790Y-40861D01*
X38500Y-40571D01*
X38429Y-40642D01*
X38429Y-40500D01*
X38139Y-40210D01*
X38048Y-40233D01*
X37981Y-40426D01*
X37992Y-40630D01*
X38048Y-40767D01*
X38139Y-40790D01*
X38429Y-40500D01*
X38429Y-40642D01*
X38210Y-40861D01*
X38232Y-40950D01*
X37979Y-40950D01*
X37700Y-41229D01*
X37700Y-47021D01*
X39450Y-48771D01*
X39450Y-53300D01*
X47479Y-53300D01*
X51700Y-57521D01*
X51700Y-58229D01*
X51700Y-58229D01*
G37*
G54D28*
X51700Y-58229D02*
X50979Y-58950D01*
X50271Y-58950D01*
X49300Y-57979D01*
X49300Y-56479D01*
X47521Y-54700D01*
X39450Y-54700D01*
X39450Y-56825D01*
X39425Y-56885D01*
X39425Y-57114D01*
X39450Y-57174D01*
X39450Y-62325D01*
X39425Y-62385D01*
X39425Y-62614D01*
X39450Y-62674D01*
X39450Y-67825D01*
X39425Y-67885D01*
X39425Y-68114D01*
X39450Y-68174D01*
X39450Y-68274D01*
X39511Y-68322D01*
X39512Y-68325D01*
X39674Y-68487D01*
X39762Y-68523D01*
X40732Y-69300D01*
X49271Y-69300D01*
X49521Y-69050D01*
X49979Y-69050D01*
X50200Y-69271D01*
X50200Y-70229D01*
X49979Y-70450D01*
X39368Y-70450D01*
X39368Y-68084D01*
X39368Y-62584D01*
X39368Y-57084D01*
X39356Y-56861D01*
X39292Y-56704D01*
X39196Y-56675D01*
X39125Y-56746D01*
X39125Y-56604D01*
X39096Y-56508D01*
X38884Y-56432D01*
X38827Y-56435D01*
X38827Y-51463D01*
X38827Y-49713D01*
X38817Y-49485D01*
X38750Y-49323D01*
X38653Y-49293D01*
X38582Y-49364D01*
X38582Y-49222D01*
X38552Y-49125D01*
X38338Y-49048D01*
X38110Y-49058D01*
X37948Y-49125D01*
X37918Y-49222D01*
X38250Y-49554D01*
X38582Y-49222D01*
X38582Y-49364D01*
X38321Y-49625D01*
X38653Y-49957D01*
X38750Y-49927D01*
X38827Y-49713D01*
X38827Y-51463D01*
X38817Y-51235D01*
X38750Y-51073D01*
X38653Y-51043D01*
X38582Y-51114D01*
X38582Y-50972D01*
X38582Y-50028D01*
X38250Y-49696D01*
X38179Y-49767D01*
X38179Y-49625D01*
X37847Y-49293D01*
X37750Y-49323D01*
X37673Y-49537D01*
X37683Y-49765D01*
X37750Y-49927D01*
X37847Y-49957D01*
X38179Y-49625D01*
X38179Y-49767D01*
X37918Y-50028D01*
X37948Y-50125D01*
X38162Y-50202D01*
X38390Y-50192D01*
X38552Y-50125D01*
X38582Y-50028D01*
X38582Y-50972D01*
X38552Y-50875D01*
X38338Y-50798D01*
X38110Y-50808D01*
X37948Y-50875D01*
X37918Y-50972D01*
X38250Y-51304D01*
X38582Y-50972D01*
X38582Y-51114D01*
X38321Y-51375D01*
X38653Y-51707D01*
X38750Y-51677D01*
X38827Y-51463D01*
X38827Y-56435D01*
X38661Y-56444D01*
X38582Y-56476D01*
X38582Y-51778D01*
X38250Y-51446D01*
X38179Y-51517D01*
X38179Y-51375D01*
X37847Y-51043D01*
X37750Y-51073D01*
X37673Y-51287D01*
X37683Y-51515D01*
X37750Y-51677D01*
X37847Y-51707D01*
X38179Y-51375D01*
X38179Y-51517D01*
X37918Y-51778D01*
X37948Y-51875D01*
X38162Y-51952D01*
X38390Y-51942D01*
X38552Y-51875D01*
X38582Y-51778D01*
X38582Y-56476D01*
X38504Y-56508D01*
X38475Y-56604D01*
X38800Y-56929D01*
X39125Y-56604D01*
X39125Y-56746D01*
X38871Y-57000D01*
X39196Y-57325D01*
X39292Y-57296D01*
X39368Y-57084D01*
X39368Y-62584D01*
X39356Y-62361D01*
X39292Y-62204D01*
X39196Y-62175D01*
X39125Y-62246D01*
X39125Y-62104D01*
X39125Y-57396D01*
X38800Y-57071D01*
X38729Y-57142D01*
X38729Y-57000D01*
X38404Y-56675D01*
X38308Y-56704D01*
X38288Y-56759D01*
X38234Y-56630D01*
X38051Y-56446D01*
X37810Y-56346D01*
X37550Y-56346D01*
X37310Y-56446D01*
X37126Y-56629D01*
X37026Y-56870D01*
X37026Y-57130D01*
X37126Y-57370D01*
X37309Y-57554D01*
X37550Y-57654D01*
X37810Y-57654D01*
X38050Y-57554D01*
X38234Y-57371D01*
X38286Y-57243D01*
X38308Y-57296D01*
X38404Y-57325D01*
X38729Y-57000D01*
X38729Y-57142D01*
X38475Y-57396D01*
X38504Y-57492D01*
X38716Y-57568D01*
X38939Y-57556D01*
X39096Y-57492D01*
X39125Y-57396D01*
X39125Y-62104D01*
X39096Y-62008D01*
X38884Y-61932D01*
X38661Y-61944D01*
X38504Y-62008D01*
X38475Y-62104D01*
X38800Y-62429D01*
X39125Y-62104D01*
X39125Y-62246D01*
X38871Y-62500D01*
X39196Y-62825D01*
X39292Y-62796D01*
X39368Y-62584D01*
X39368Y-68084D01*
X39356Y-67861D01*
X39292Y-67704D01*
X39196Y-67675D01*
X39125Y-67746D01*
X39125Y-67604D01*
X39125Y-62896D01*
X38800Y-62571D01*
X38729Y-62642D01*
X38729Y-62500D01*
X38404Y-62175D01*
X38308Y-62204D01*
X38288Y-62259D01*
X38234Y-62130D01*
X38051Y-61946D01*
X37810Y-61846D01*
X37550Y-61846D01*
X37310Y-61946D01*
X37126Y-62129D01*
X37026Y-62370D01*
X37026Y-62630D01*
X37126Y-62870D01*
X37309Y-63054D01*
X37550Y-63154D01*
X37810Y-63154D01*
X38050Y-63054D01*
X38234Y-62871D01*
X38286Y-62743D01*
X38308Y-62796D01*
X38404Y-62825D01*
X38729Y-62500D01*
X38729Y-62642D01*
X38475Y-62896D01*
X38504Y-62992D01*
X38716Y-63068D01*
X38939Y-63056D01*
X39096Y-62992D01*
X39125Y-62896D01*
X39125Y-67604D01*
X39096Y-67508D01*
X38884Y-67432D01*
X38661Y-67444D01*
X38504Y-67508D01*
X38475Y-67604D01*
X38800Y-67929D01*
X39125Y-67604D01*
X39125Y-67746D01*
X38871Y-68000D01*
X39196Y-68325D01*
X39292Y-68296D01*
X39368Y-68084D01*
X39368Y-70450D01*
X39125Y-70450D01*
X39125Y-68396D01*
X38800Y-68071D01*
X38729Y-68142D01*
X38729Y-68000D01*
X38404Y-67675D01*
X38308Y-67704D01*
X38288Y-67759D01*
X38234Y-67630D01*
X38051Y-67446D01*
X37810Y-67346D01*
X37550Y-67346D01*
X37310Y-67446D01*
X37126Y-67629D01*
X37026Y-67870D01*
X37026Y-68130D01*
X37126Y-68370D01*
X37309Y-68554D01*
X37550Y-68654D01*
X37810Y-68654D01*
X38050Y-68554D01*
X38234Y-68371D01*
X38286Y-68243D01*
X38308Y-68296D01*
X38404Y-68325D01*
X38729Y-68000D01*
X38729Y-68142D01*
X38475Y-68396D01*
X38504Y-68492D01*
X38716Y-68568D01*
X38939Y-68556D01*
X39096Y-68492D01*
X39125Y-68396D01*
X39125Y-70450D01*
X38021Y-70450D01*
X36050Y-68479D01*
X36050Y-40521D01*
X37521Y-39050D01*
X44979Y-39050D01*
X45979Y-40050D01*
X47729Y-40050D01*
X48200Y-40521D01*
X48200Y-40979D01*
X47729Y-41450D01*
X45979Y-41450D01*
X45519Y-41910D01*
X45519Y-41574D01*
X45508Y-41370D01*
X45452Y-41233D01*
X45361Y-41210D01*
X45290Y-41281D01*
X45290Y-41139D01*
X45267Y-41048D01*
X45074Y-40981D01*
X44870Y-40992D01*
X44733Y-41048D01*
X44710Y-41139D01*
X45000Y-41429D01*
X45290Y-41139D01*
X45290Y-41281D01*
X45071Y-41500D01*
X45361Y-41790D01*
X45452Y-41767D01*
X45519Y-41574D01*
X45519Y-41910D01*
X45290Y-42139D01*
X45290Y-41861D01*
X45000Y-41571D01*
X44929Y-41642D01*
X44929Y-41500D01*
X44639Y-41210D01*
X44548Y-41233D01*
X44481Y-41426D01*
X44492Y-41630D01*
X44548Y-41767D01*
X44639Y-41790D01*
X44929Y-41500D01*
X44929Y-41642D01*
X44710Y-41861D01*
X44733Y-41952D01*
X44926Y-42019D01*
X45130Y-42008D01*
X45267Y-41952D01*
X45290Y-41861D01*
X45290Y-42139D01*
X44979Y-42450D01*
X43599Y-42450D01*
X43599Y-41119D01*
X43599Y-40881D01*
X43508Y-40661D01*
X43339Y-40492D01*
X43119Y-40401D01*
X42881Y-40401D01*
X42661Y-40492D01*
X42492Y-40661D01*
X42401Y-40881D01*
X42401Y-41119D01*
X42492Y-41339D01*
X42661Y-41508D01*
X42680Y-41515D01*
X42657Y-41586D01*
X43000Y-41929D01*
X43343Y-41586D01*
X43319Y-41515D01*
X43339Y-41508D01*
X43508Y-41339D01*
X43599Y-41119D01*
X43599Y-42450D01*
X43593Y-42450D01*
X43502Y-42450D01*
X43491Y-42439D01*
X43443Y-42419D01*
X43502Y-42361D01*
X43466Y-42325D01*
X43513Y-42310D01*
X43593Y-42091D01*
X43582Y-41856D01*
X43513Y-41690D01*
X43414Y-41657D01*
X43106Y-41965D01*
X43071Y-42000D01*
X43000Y-42071D01*
X42929Y-42000D01*
X42894Y-41965D01*
X42586Y-41657D01*
X42487Y-41690D01*
X42407Y-41909D01*
X42418Y-42144D01*
X42487Y-42310D01*
X42533Y-42325D01*
X42498Y-42361D01*
X42556Y-42419D01*
X42509Y-42438D01*
X41021Y-40950D01*
X41002Y-40950D01*
X41011Y-40941D01*
X41049Y-40849D01*
X41050Y-40612D01*
X41050Y-40388D01*
X41049Y-40151D01*
X41011Y-40059D01*
X40941Y-39989D01*
X40850Y-39951D01*
X40751Y-39951D01*
X40612Y-39950D01*
X40550Y-40012D01*
X40550Y-40450D01*
X40988Y-40450D01*
X41050Y-40388D01*
X41050Y-40612D01*
X40988Y-40550D01*
X40600Y-40550D01*
X40550Y-40550D01*
X40450Y-40550D01*
X40450Y-40450D01*
X40450Y-40012D01*
X40388Y-39950D01*
X40249Y-39951D01*
X40150Y-39951D01*
X40059Y-39989D01*
X39989Y-40059D01*
X39951Y-40151D01*
X39950Y-40388D01*
X40012Y-40450D01*
X40450Y-40450D01*
X40450Y-40550D01*
X40400Y-40550D01*
X40012Y-40550D01*
X39950Y-40612D01*
X39951Y-40849D01*
X39989Y-40941D01*
X39998Y-40950D01*
X39019Y-40950D01*
X39019Y-40574D01*
X39008Y-40370D01*
X38952Y-40233D01*
X38861Y-40210D01*
X38790Y-40281D01*
X38790Y-40139D01*
X38767Y-40048D01*
X38574Y-39981D01*
X38370Y-39992D01*
X38233Y-40048D01*
X38210Y-40139D01*
X38500Y-40429D01*
X38790Y-40139D01*
X38790Y-40281D01*
X38571Y-40500D01*
X38861Y-40790D01*
X38952Y-40767D01*
X39019Y-40574D01*
X39019Y-40950D01*
X38767Y-40950D01*
X38790Y-40861D01*
X38500Y-40571D01*
X38429Y-40642D01*
X38429Y-40500D01*
X38139Y-40210D01*
X38048Y-40233D01*
X37981Y-40426D01*
X37992Y-40630D01*
X38048Y-40767D01*
X38139Y-40790D01*
X38429Y-40500D01*
X38429Y-40642D01*
X38210Y-40861D01*
X38232Y-40950D01*
X37979Y-40950D01*
X37700Y-41229D01*
X37700Y-47021D01*
X39450Y-48771D01*
X39450Y-53300D01*
X47479Y-53300D01*
X51700Y-57521D01*
X51700Y-58229D01*
G54D10*
G36*
X45950Y-44729D02*
X45519Y-45160D01*
X45519Y-43574D01*
X45508Y-43370D01*
X45452Y-43233D01*
X45361Y-43210D01*
X45290Y-43281D01*
X45290Y-43139D01*
X45267Y-43048D01*
X45074Y-42981D01*
X44870Y-42992D01*
X44733Y-43048D01*
X44710Y-43139D01*
X45000Y-43429D01*
X45290Y-43139D01*
X45290Y-43281D01*
X45071Y-43500D01*
X45361Y-43790D01*
X45452Y-43767D01*
X45519Y-43574D01*
X45519Y-45160D01*
X45479Y-45200D01*
X45290Y-45200D01*
X45290Y-43861D01*
X45000Y-43571D01*
X44929Y-43642D01*
X44929Y-43500D01*
X44639Y-43210D01*
X44548Y-43233D01*
X44481Y-43426D01*
X44492Y-43630D01*
X44548Y-43767D01*
X44639Y-43790D01*
X44929Y-43500D01*
X44929Y-43642D01*
X44710Y-43861D01*
X44733Y-43952D01*
X44926Y-44019D01*
X45130Y-44008D01*
X45267Y-43952D01*
X45290Y-43861D01*
X45290Y-45200D01*
X43600Y-45200D01*
X43600Y-43112D01*
X43538Y-43050D01*
X43050Y-43050D01*
X43050Y-43538D01*
X43112Y-43600D01*
X43399Y-43599D01*
X43491Y-43561D01*
X43561Y-43491D01*
X43599Y-43400D01*
X43599Y-43301D01*
X43600Y-43112D01*
X43600Y-45200D01*
X42950Y-45200D01*
X42950Y-43538D01*
X42950Y-43050D01*
X42462Y-43050D01*
X42400Y-43112D01*
X42401Y-43301D01*
X42401Y-43400D01*
X42439Y-43491D01*
X42509Y-43561D01*
X42601Y-43599D01*
X42888Y-43600D01*
X42950Y-43538D01*
X42950Y-45200D01*
X41050Y-45200D01*
X41050Y-44612D01*
X40988Y-44550D01*
X40550Y-44550D01*
X40550Y-44988D01*
X40612Y-45050D01*
X40751Y-45049D01*
X40850Y-45049D01*
X40941Y-45011D01*
X41011Y-44941D01*
X41049Y-44849D01*
X41050Y-44612D01*
X41050Y-45200D01*
X40450Y-45200D01*
X40450Y-44988D01*
X40450Y-44550D01*
X40012Y-44550D01*
X39950Y-44612D01*
X39951Y-44849D01*
X39989Y-44941D01*
X40059Y-45011D01*
X40150Y-45049D01*
X40249Y-45049D01*
X40388Y-45050D01*
X40450Y-44988D01*
X40450Y-45200D01*
X39019Y-45200D01*
X39019Y-44574D01*
X39008Y-44370D01*
X38952Y-44233D01*
X38861Y-44210D01*
X38571Y-44500D01*
X38861Y-44790D01*
X38952Y-44767D01*
X39019Y-44574D01*
X39019Y-45200D01*
X38790Y-45200D01*
X38790Y-44861D01*
X38500Y-44571D01*
X38210Y-44861D01*
X38233Y-44952D01*
X38426Y-45019D01*
X38630Y-45008D01*
X38767Y-44952D01*
X38790Y-44861D01*
X38790Y-45200D01*
X38271Y-45200D01*
X38050Y-44979D01*
X38050Y-44767D01*
X38139Y-44790D01*
X38429Y-44500D01*
X38139Y-44210D01*
X38050Y-44232D01*
X38050Y-44050D01*
X38232Y-44050D01*
X38210Y-44139D01*
X38500Y-44429D01*
X38790Y-44139D01*
X38767Y-44050D01*
X39998Y-44050D01*
X39989Y-44059D01*
X39951Y-44151D01*
X39950Y-44388D01*
X40012Y-44450D01*
X40400Y-44450D01*
X40450Y-44450D01*
X40550Y-44450D01*
X40600Y-44450D01*
X40988Y-44450D01*
X41050Y-44388D01*
X41049Y-44151D01*
X41011Y-44059D01*
X41002Y-44050D01*
X41021Y-44050D01*
X42271Y-42800D01*
X42400Y-42800D01*
X42400Y-42888D01*
X42462Y-42950D01*
X42900Y-42950D01*
X42950Y-42950D01*
X43050Y-42950D01*
X43100Y-42950D01*
X43538Y-42950D01*
X43600Y-42888D01*
X43599Y-42800D01*
X45229Y-42800D01*
X45950Y-43521D01*
X45950Y-44729D01*
X45950Y-44729D01*
G37*
G54D28*
X45950Y-44729D02*
X45519Y-45160D01*
X45519Y-43574D01*
X45508Y-43370D01*
X45452Y-43233D01*
X45361Y-43210D01*
X45290Y-43281D01*
X45290Y-43139D01*
X45267Y-43048D01*
X45074Y-42981D01*
X44870Y-42992D01*
X44733Y-43048D01*
X44710Y-43139D01*
X45000Y-43429D01*
X45290Y-43139D01*
X45290Y-43281D01*
X45071Y-43500D01*
X45361Y-43790D01*
X45452Y-43767D01*
X45519Y-43574D01*
X45519Y-45160D01*
X45479Y-45200D01*
X45290Y-45200D01*
X45290Y-43861D01*
X45000Y-43571D01*
X44929Y-43642D01*
X44929Y-43500D01*
X44639Y-43210D01*
X44548Y-43233D01*
X44481Y-43426D01*
X44492Y-43630D01*
X44548Y-43767D01*
X44639Y-43790D01*
X44929Y-43500D01*
X44929Y-43642D01*
X44710Y-43861D01*
X44733Y-43952D01*
X44926Y-44019D01*
X45130Y-44008D01*
X45267Y-43952D01*
X45290Y-43861D01*
X45290Y-45200D01*
X43600Y-45200D01*
X43600Y-43112D01*
X43538Y-43050D01*
X43050Y-43050D01*
X43050Y-43538D01*
X43112Y-43600D01*
X43399Y-43599D01*
X43491Y-43561D01*
X43561Y-43491D01*
X43599Y-43400D01*
X43599Y-43301D01*
X43600Y-43112D01*
X43600Y-45200D01*
X42950Y-45200D01*
X42950Y-43538D01*
X42950Y-43050D01*
X42462Y-43050D01*
X42400Y-43112D01*
X42401Y-43301D01*
X42401Y-43400D01*
X42439Y-43491D01*
X42509Y-43561D01*
X42601Y-43599D01*
X42888Y-43600D01*
X42950Y-43538D01*
X42950Y-45200D01*
X41050Y-45200D01*
X41050Y-44612D01*
X40988Y-44550D01*
X40550Y-44550D01*
X40550Y-44988D01*
X40612Y-45050D01*
X40751Y-45049D01*
X40850Y-45049D01*
X40941Y-45011D01*
X41011Y-44941D01*
X41049Y-44849D01*
X41050Y-44612D01*
X41050Y-45200D01*
X40450Y-45200D01*
X40450Y-44988D01*
X40450Y-44550D01*
X40012Y-44550D01*
X39950Y-44612D01*
X39951Y-44849D01*
X39989Y-44941D01*
X40059Y-45011D01*
X40150Y-45049D01*
X40249Y-45049D01*
X40388Y-45050D01*
X40450Y-44988D01*
X40450Y-45200D01*
X39019Y-45200D01*
X39019Y-44574D01*
X39008Y-44370D01*
X38952Y-44233D01*
X38861Y-44210D01*
X38571Y-44500D01*
X38861Y-44790D01*
X38952Y-44767D01*
X39019Y-44574D01*
X39019Y-45200D01*
X38790Y-45200D01*
X38790Y-44861D01*
X38500Y-44571D01*
X38210Y-44861D01*
X38233Y-44952D01*
X38426Y-45019D01*
X38630Y-45008D01*
X38767Y-44952D01*
X38790Y-44861D01*
X38790Y-45200D01*
X38271Y-45200D01*
X38050Y-44979D01*
X38050Y-44767D01*
X38139Y-44790D01*
X38429Y-44500D01*
X38139Y-44210D01*
X38050Y-44232D01*
X38050Y-44050D01*
X38232Y-44050D01*
X38210Y-44139D01*
X38500Y-44429D01*
X38790Y-44139D01*
X38767Y-44050D01*
X39998Y-44050D01*
X39989Y-44059D01*
X39951Y-44151D01*
X39950Y-44388D01*
X40012Y-44450D01*
X40400Y-44450D01*
X40450Y-44450D01*
X40550Y-44450D01*
X40600Y-44450D01*
X40988Y-44450D01*
X41050Y-44388D01*
X41049Y-44151D01*
X41011Y-44059D01*
X41002Y-44050D01*
X41021Y-44050D01*
X42271Y-42800D01*
X42400Y-42800D01*
X42400Y-42888D01*
X42462Y-42950D01*
X42900Y-42950D01*
X42950Y-42950D01*
X43050Y-42950D01*
X43100Y-42950D01*
X43538Y-42950D01*
X43600Y-42888D01*
X43599Y-42800D01*
X45229Y-42800D01*
X45950Y-43521D01*
X45950Y-44729D01*
G54D10*
G36*
X53950Y-36729D02*
X53560Y-37118D01*
X53510Y-37139D01*
X53390Y-37259D01*
X53368Y-37310D01*
X52848Y-37830D01*
X52835Y-37825D01*
X52666Y-37825D01*
X52510Y-37889D01*
X52390Y-38009D01*
X52325Y-38165D01*
X52325Y-38334D01*
X52389Y-38490D01*
X52460Y-38561D01*
X52460Y-38750D01*
X52460Y-39052D01*
X52373Y-38990D01*
X52160Y-38940D01*
X52050Y-38940D01*
X52050Y-39400D01*
X52050Y-39450D01*
X52050Y-39550D01*
X51950Y-39550D01*
X51950Y-39450D01*
X51950Y-39400D01*
X51950Y-38960D01*
X51955Y-38955D01*
X52018Y-38861D01*
X52040Y-38750D01*
X52040Y-37500D01*
X52018Y-37389D01*
X51955Y-37295D01*
X51550Y-36890D01*
X51550Y-36551D01*
X51610Y-36491D01*
X51675Y-36335D01*
X51675Y-36166D01*
X51611Y-36010D01*
X51586Y-35985D01*
X52689Y-34881D01*
X52740Y-34861D01*
X52860Y-34741D01*
X52925Y-34585D01*
X52925Y-34416D01*
X52861Y-34260D01*
X52800Y-34199D01*
X52800Y-27479D01*
X52694Y-27373D01*
X52618Y-27189D01*
X52464Y-27035D01*
X52384Y-27001D01*
X52550Y-26882D01*
X52665Y-26696D01*
X52682Y-26637D01*
X52682Y-26363D01*
X52665Y-26304D01*
X52550Y-26118D01*
X52373Y-25990D01*
X52160Y-25940D01*
X52050Y-25940D01*
X52050Y-26450D01*
X52635Y-26450D01*
X52682Y-26363D01*
X52682Y-26637D01*
X52635Y-26550D01*
X52100Y-26550D01*
X52050Y-26550D01*
X51950Y-26550D01*
X51950Y-26450D01*
X51950Y-25940D01*
X51840Y-25940D01*
X51627Y-25990D01*
X51450Y-26118D01*
X51335Y-26304D01*
X51318Y-26363D01*
X51365Y-26450D01*
X51950Y-26450D01*
X51950Y-26550D01*
X51900Y-26550D01*
X51365Y-26550D01*
X51318Y-26637D01*
X51335Y-26696D01*
X51450Y-26882D01*
X51615Y-27001D01*
X51536Y-27035D01*
X51446Y-27125D01*
X50550Y-26229D01*
X50550Y-25521D01*
X52800Y-23271D01*
X52800Y-21801D01*
X52860Y-21741D01*
X52925Y-21585D01*
X52925Y-21416D01*
X52861Y-21260D01*
X52800Y-21199D01*
X52800Y-14479D01*
X52694Y-14373D01*
X52618Y-14189D01*
X52464Y-14035D01*
X52384Y-14001D01*
X52550Y-13882D01*
X52665Y-13696D01*
X52682Y-13637D01*
X52682Y-13363D01*
X52665Y-13304D01*
X52550Y-13118D01*
X52373Y-12990D01*
X52160Y-12940D01*
X52050Y-12940D01*
X52050Y-13450D01*
X52635Y-13450D01*
X52682Y-13363D01*
X52682Y-13637D01*
X52635Y-13550D01*
X52100Y-13550D01*
X52050Y-13550D01*
X51950Y-13550D01*
X51950Y-13450D01*
X51950Y-12940D01*
X51840Y-12940D01*
X51627Y-12990D01*
X51450Y-13118D01*
X51335Y-13304D01*
X51318Y-13363D01*
X51365Y-13450D01*
X51950Y-13450D01*
X51950Y-13550D01*
X51900Y-13550D01*
X51365Y-13550D01*
X51318Y-13637D01*
X51335Y-13696D01*
X51450Y-13882D01*
X51615Y-14001D01*
X51536Y-14035D01*
X51382Y-14189D01*
X51377Y-14200D01*
X51271Y-14200D01*
X49521Y-12450D01*
X48478Y-12450D01*
X47700Y-13229D01*
X47700Y-14729D01*
X47211Y-15217D01*
X47139Y-15232D01*
X47107Y-15253D01*
X47044Y-15295D01*
X45795Y-16545D01*
X45732Y-16639D01*
X45717Y-16711D01*
X45700Y-16729D01*
X45700Y-19729D01*
X44479Y-20950D01*
X44049Y-20950D01*
X44049Y-20891D01*
X44049Y-19109D01*
X44049Y-18891D01*
X44043Y-18876D01*
X44043Y-18079D01*
X44032Y-17866D01*
X43972Y-17719D01*
X43878Y-17692D01*
X43571Y-18000D01*
X43878Y-18308D01*
X43972Y-18281D01*
X44043Y-18079D01*
X44043Y-18876D01*
X43965Y-18689D01*
X43811Y-18535D01*
X43719Y-18497D01*
X43781Y-18472D01*
X43808Y-18378D01*
X43500Y-18071D01*
X43192Y-18378D01*
X43219Y-18472D01*
X43284Y-18495D01*
X43189Y-18535D01*
X43035Y-18689D01*
X42951Y-18891D01*
X42951Y-19109D01*
X43035Y-19311D01*
X43189Y-19465D01*
X43280Y-19502D01*
X43219Y-19528D01*
X43192Y-19622D01*
X43500Y-19929D01*
X43808Y-19622D01*
X43781Y-19528D01*
X43715Y-19504D01*
X43811Y-19465D01*
X43965Y-19311D01*
X44049Y-19109D01*
X44049Y-20891D01*
X44043Y-20876D01*
X44043Y-20079D01*
X44032Y-19866D01*
X43972Y-19719D01*
X43878Y-19692D01*
X43571Y-20000D01*
X43878Y-20308D01*
X43972Y-20281D01*
X44043Y-20079D01*
X44043Y-20876D01*
X43965Y-20689D01*
X43811Y-20535D01*
X43719Y-20497D01*
X43781Y-20472D01*
X43808Y-20378D01*
X43500Y-20071D01*
X43429Y-20141D01*
X43429Y-20000D01*
X43122Y-19692D01*
X43028Y-19719D01*
X42957Y-19921D01*
X42968Y-20134D01*
X43028Y-20281D01*
X43122Y-20308D01*
X43429Y-20000D01*
X43429Y-20141D01*
X43192Y-20378D01*
X43219Y-20472D01*
X43284Y-20495D01*
X43189Y-20535D01*
X43035Y-20689D01*
X42951Y-20891D01*
X42951Y-20950D01*
X42771Y-20950D01*
X42050Y-20229D01*
X42050Y-19021D01*
X42966Y-18104D01*
X42968Y-18134D01*
X43028Y-18281D01*
X43122Y-18308D01*
X43394Y-18035D01*
X43429Y-18000D01*
X43500Y-17929D01*
X43535Y-17894D01*
X43808Y-17622D01*
X43781Y-17528D01*
X43715Y-17504D01*
X43811Y-17465D01*
X43965Y-17311D01*
X44049Y-17109D01*
X44049Y-17022D01*
X44300Y-16771D01*
X44300Y-14021D01*
X44985Y-13336D01*
X45009Y-13360D01*
X45165Y-13425D01*
X45334Y-13425D01*
X45490Y-13361D01*
X45610Y-13241D01*
X45675Y-13085D01*
X45675Y-12916D01*
X45611Y-12760D01*
X45491Y-12640D01*
X45439Y-12618D01*
X45271Y-12450D01*
X45110Y-12450D01*
X44455Y-11795D01*
X44361Y-11732D01*
X44250Y-11710D01*
X44049Y-11710D01*
X44049Y-10109D01*
X44049Y-09891D01*
X43965Y-09689D01*
X43811Y-09535D01*
X43609Y-09451D01*
X43391Y-09451D01*
X43189Y-09535D01*
X43035Y-09689D01*
X42951Y-09891D01*
X42951Y-10109D01*
X43035Y-10311D01*
X43189Y-10465D01*
X43280Y-10502D01*
X43219Y-10528D01*
X43192Y-10622D01*
X43500Y-10929D01*
X43808Y-10622D01*
X43781Y-10528D01*
X43715Y-10504D01*
X43811Y-10465D01*
X43965Y-10311D01*
X44049Y-10109D01*
X44049Y-11710D01*
X44043Y-11710D01*
X44043Y-11079D01*
X44032Y-10866D01*
X43972Y-10719D01*
X43878Y-10692D01*
X43571Y-11000D01*
X43878Y-11308D01*
X43972Y-11281D01*
X44043Y-11079D01*
X44043Y-11710D01*
X43973Y-11710D01*
X43965Y-11689D01*
X43811Y-11535D01*
X43719Y-11497D01*
X43781Y-11472D01*
X43808Y-11378D01*
X43500Y-11071D01*
X43429Y-11141D01*
X43429Y-11000D01*
X43122Y-10692D01*
X43028Y-10719D01*
X42957Y-10921D01*
X42968Y-11134D01*
X43028Y-11281D01*
X43122Y-11308D01*
X43429Y-11000D01*
X43429Y-11141D01*
X43192Y-11378D01*
X43219Y-11472D01*
X43284Y-11495D01*
X43189Y-11535D01*
X43035Y-11689D01*
X42951Y-11891D01*
X42951Y-12109D01*
X43035Y-12311D01*
X43174Y-12450D01*
X38826Y-12450D01*
X38965Y-12311D01*
X39049Y-12109D01*
X39049Y-11891D01*
X39049Y-10109D01*
X39049Y-09891D01*
X38965Y-09689D01*
X38811Y-09535D01*
X38609Y-09451D01*
X38391Y-09451D01*
X38189Y-09535D01*
X38035Y-09689D01*
X37951Y-09891D01*
X37951Y-10109D01*
X38035Y-10311D01*
X38189Y-10465D01*
X38280Y-10502D01*
X38219Y-10528D01*
X38192Y-10622D01*
X38500Y-10929D01*
X38808Y-10622D01*
X38781Y-10528D01*
X38715Y-10504D01*
X38811Y-10465D01*
X38965Y-10311D01*
X39049Y-10109D01*
X39049Y-11891D01*
X39043Y-11876D01*
X39043Y-11079D01*
X39032Y-10866D01*
X38972Y-10719D01*
X38878Y-10692D01*
X38571Y-11000D01*
X38878Y-11308D01*
X38972Y-11281D01*
X39043Y-11079D01*
X39043Y-11876D01*
X38965Y-11689D01*
X38811Y-11535D01*
X38719Y-11497D01*
X38781Y-11472D01*
X38808Y-11378D01*
X38500Y-11071D01*
X38429Y-11141D01*
X38429Y-11000D01*
X38122Y-10692D01*
X38028Y-10719D01*
X37957Y-10921D01*
X37968Y-11134D01*
X38028Y-11281D01*
X38122Y-11308D01*
X38429Y-11000D01*
X38429Y-11141D01*
X38192Y-11378D01*
X38219Y-11472D01*
X38284Y-11495D01*
X38189Y-11535D01*
X38035Y-11689D01*
X37951Y-11891D01*
X37951Y-12109D01*
X38035Y-12311D01*
X38174Y-12450D01*
X37771Y-12450D01*
X37300Y-11979D01*
X37300Y-09271D01*
X38021Y-08550D01*
X47979Y-08550D01*
X50214Y-10785D01*
X50970Y-11598D01*
X51020Y-11550D01*
X52479Y-11550D01*
X53701Y-12772D01*
X53701Y-12859D01*
X53785Y-13061D01*
X53939Y-13215D01*
X53950Y-13219D01*
X53950Y-18699D01*
X53890Y-18759D01*
X53825Y-18915D01*
X53825Y-19084D01*
X53889Y-19240D01*
X53950Y-19301D01*
X53950Y-21780D01*
X53939Y-21785D01*
X53785Y-21939D01*
X53701Y-22141D01*
X53701Y-22359D01*
X53785Y-22561D01*
X53939Y-22715D01*
X53950Y-22719D01*
X53950Y-25280D01*
X53939Y-25285D01*
X53785Y-25439D01*
X53701Y-25641D01*
X53701Y-25859D01*
X53785Y-26061D01*
X53939Y-26215D01*
X53950Y-26219D01*
X53950Y-31699D01*
X53890Y-31759D01*
X53825Y-31915D01*
X53825Y-32084D01*
X53889Y-32240D01*
X53950Y-32301D01*
X53950Y-34780D01*
X53939Y-34785D01*
X53785Y-34939D01*
X53701Y-35141D01*
X53701Y-35359D01*
X53785Y-35561D01*
X53939Y-35715D01*
X53950Y-35719D01*
X53950Y-36729D01*
X53950Y-36729D01*
G37*
G54D28*
X53950Y-36729D02*
X53560Y-37118D01*
X53510Y-37139D01*
X53390Y-37259D01*
X53368Y-37310D01*
X52848Y-37830D01*
X52835Y-37825D01*
X52666Y-37825D01*
X52510Y-37889D01*
X52390Y-38009D01*
X52325Y-38165D01*
X52325Y-38334D01*
X52389Y-38490D01*
X52460Y-38561D01*
X52460Y-38750D01*
X52460Y-39052D01*
X52373Y-38990D01*
X52160Y-38940D01*
X52050Y-38940D01*
X52050Y-39400D01*
X52050Y-39450D01*
X52050Y-39550D01*
X51950Y-39550D01*
X51950Y-39450D01*
X51950Y-39400D01*
X51950Y-38960D01*
X51955Y-38955D01*
X52018Y-38861D01*
X52040Y-38750D01*
X52040Y-37500D01*
X52018Y-37389D01*
X51955Y-37295D01*
X51550Y-36890D01*
X51550Y-36551D01*
X51610Y-36491D01*
X51675Y-36335D01*
X51675Y-36166D01*
X51611Y-36010D01*
X51586Y-35985D01*
X52689Y-34881D01*
X52740Y-34861D01*
X52860Y-34741D01*
X52925Y-34585D01*
X52925Y-34416D01*
X52861Y-34260D01*
X52800Y-34199D01*
X52800Y-27479D01*
X52694Y-27373D01*
X52618Y-27189D01*
X52464Y-27035D01*
X52384Y-27001D01*
X52550Y-26882D01*
X52665Y-26696D01*
X52682Y-26637D01*
X52682Y-26363D01*
X52665Y-26304D01*
X52550Y-26118D01*
X52373Y-25990D01*
X52160Y-25940D01*
X52050Y-25940D01*
X52050Y-26450D01*
X52635Y-26450D01*
X52682Y-26363D01*
X52682Y-26637D01*
X52635Y-26550D01*
X52100Y-26550D01*
X52050Y-26550D01*
X51950Y-26550D01*
X51950Y-26450D01*
X51950Y-25940D01*
X51840Y-25940D01*
X51627Y-25990D01*
X51450Y-26118D01*
X51335Y-26304D01*
X51318Y-26363D01*
X51365Y-26450D01*
X51950Y-26450D01*
X51950Y-26550D01*
X51900Y-26550D01*
X51365Y-26550D01*
X51318Y-26637D01*
X51335Y-26696D01*
X51450Y-26882D01*
X51615Y-27001D01*
X51536Y-27035D01*
X51446Y-27125D01*
X50550Y-26229D01*
X50550Y-25521D01*
X52800Y-23271D01*
X52800Y-21801D01*
X52860Y-21741D01*
X52925Y-21585D01*
X52925Y-21416D01*
X52861Y-21260D01*
X52800Y-21199D01*
X52800Y-14479D01*
X52694Y-14373D01*
X52618Y-14189D01*
X52464Y-14035D01*
X52384Y-14001D01*
X52550Y-13882D01*
X52665Y-13696D01*
X52682Y-13637D01*
X52682Y-13363D01*
X52665Y-13304D01*
X52550Y-13118D01*
X52373Y-12990D01*
X52160Y-12940D01*
X52050Y-12940D01*
X52050Y-13450D01*
X52635Y-13450D01*
X52682Y-13363D01*
X52682Y-13637D01*
X52635Y-13550D01*
X52100Y-13550D01*
X52050Y-13550D01*
X51950Y-13550D01*
X51950Y-13450D01*
X51950Y-12940D01*
X51840Y-12940D01*
X51627Y-12990D01*
X51450Y-13118D01*
X51335Y-13304D01*
X51318Y-13363D01*
X51365Y-13450D01*
X51950Y-13450D01*
X51950Y-13550D01*
X51900Y-13550D01*
X51365Y-13550D01*
X51318Y-13637D01*
X51335Y-13696D01*
X51450Y-13882D01*
X51615Y-14001D01*
X51536Y-14035D01*
X51382Y-14189D01*
X51377Y-14200D01*
X51271Y-14200D01*
X49521Y-12450D01*
X48478Y-12450D01*
X47700Y-13229D01*
X47700Y-14729D01*
X47211Y-15217D01*
X47139Y-15232D01*
X47107Y-15253D01*
X47044Y-15295D01*
X45795Y-16545D01*
X45732Y-16639D01*
X45717Y-16711D01*
X45700Y-16729D01*
X45700Y-19729D01*
X44479Y-20950D01*
X44049Y-20950D01*
X44049Y-20891D01*
X44049Y-19109D01*
X44049Y-18891D01*
X44043Y-18876D01*
X44043Y-18079D01*
X44032Y-17866D01*
X43972Y-17719D01*
X43878Y-17692D01*
X43571Y-18000D01*
X43878Y-18308D01*
X43972Y-18281D01*
X44043Y-18079D01*
X44043Y-18876D01*
X43965Y-18689D01*
X43811Y-18535D01*
X43719Y-18497D01*
X43781Y-18472D01*
X43808Y-18378D01*
X43500Y-18071D01*
X43192Y-18378D01*
X43219Y-18472D01*
X43284Y-18495D01*
X43189Y-18535D01*
X43035Y-18689D01*
X42951Y-18891D01*
X42951Y-19109D01*
X43035Y-19311D01*
X43189Y-19465D01*
X43280Y-19502D01*
X43219Y-19528D01*
X43192Y-19622D01*
X43500Y-19929D01*
X43808Y-19622D01*
X43781Y-19528D01*
X43715Y-19504D01*
X43811Y-19465D01*
X43965Y-19311D01*
X44049Y-19109D01*
X44049Y-20891D01*
X44043Y-20876D01*
X44043Y-20079D01*
X44032Y-19866D01*
X43972Y-19719D01*
X43878Y-19692D01*
X43571Y-20000D01*
X43878Y-20308D01*
X43972Y-20281D01*
X44043Y-20079D01*
X44043Y-20876D01*
X43965Y-20689D01*
X43811Y-20535D01*
X43719Y-20497D01*
X43781Y-20472D01*
X43808Y-20378D01*
X43500Y-20071D01*
X43429Y-20141D01*
X43429Y-20000D01*
X43122Y-19692D01*
X43028Y-19719D01*
X42957Y-19921D01*
X42968Y-20134D01*
X43028Y-20281D01*
X43122Y-20308D01*
X43429Y-20000D01*
X43429Y-20141D01*
X43192Y-20378D01*
X43219Y-20472D01*
X43284Y-20495D01*
X43189Y-20535D01*
X43035Y-20689D01*
X42951Y-20891D01*
X42951Y-20950D01*
X42771Y-20950D01*
X42050Y-20229D01*
X42050Y-19021D01*
X42966Y-18104D01*
X42968Y-18134D01*
X43028Y-18281D01*
X43122Y-18308D01*
X43394Y-18035D01*
X43429Y-18000D01*
X43500Y-17929D01*
X43535Y-17894D01*
X43808Y-17622D01*
X43781Y-17528D01*
X43715Y-17504D01*
X43811Y-17465D01*
X43965Y-17311D01*
X44049Y-17109D01*
X44049Y-17022D01*
X44300Y-16771D01*
X44300Y-14021D01*
X44985Y-13336D01*
X45009Y-13360D01*
X45165Y-13425D01*
X45334Y-13425D01*
X45490Y-13361D01*
X45610Y-13241D01*
X45675Y-13085D01*
X45675Y-12916D01*
X45611Y-12760D01*
X45491Y-12640D01*
X45439Y-12618D01*
X45271Y-12450D01*
X45110Y-12450D01*
X44455Y-11795D01*
X44361Y-11732D01*
X44250Y-11710D01*
X44049Y-11710D01*
X44049Y-10109D01*
X44049Y-09891D01*
X43965Y-09689D01*
X43811Y-09535D01*
X43609Y-09451D01*
X43391Y-09451D01*
X43189Y-09535D01*
X43035Y-09689D01*
X42951Y-09891D01*
X42951Y-10109D01*
X43035Y-10311D01*
X43189Y-10465D01*
X43280Y-10502D01*
X43219Y-10528D01*
X43192Y-10622D01*
X43500Y-10929D01*
X43808Y-10622D01*
X43781Y-10528D01*
X43715Y-10504D01*
X43811Y-10465D01*
X43965Y-10311D01*
X44049Y-10109D01*
X44049Y-11710D01*
X44043Y-11710D01*
X44043Y-11079D01*
X44032Y-10866D01*
X43972Y-10719D01*
X43878Y-10692D01*
X43571Y-11000D01*
X43878Y-11308D01*
X43972Y-11281D01*
X44043Y-11079D01*
X44043Y-11710D01*
X43973Y-11710D01*
X43965Y-11689D01*
X43811Y-11535D01*
X43719Y-11497D01*
X43781Y-11472D01*
X43808Y-11378D01*
X43500Y-11071D01*
X43429Y-11141D01*
X43429Y-11000D01*
X43122Y-10692D01*
X43028Y-10719D01*
X42957Y-10921D01*
X42968Y-11134D01*
X43028Y-11281D01*
X43122Y-11308D01*
X43429Y-11000D01*
X43429Y-11141D01*
X43192Y-11378D01*
X43219Y-11472D01*
X43284Y-11495D01*
X43189Y-11535D01*
X43035Y-11689D01*
X42951Y-11891D01*
X42951Y-12109D01*
X43035Y-12311D01*
X43174Y-12450D01*
X38826Y-12450D01*
X38965Y-12311D01*
X39049Y-12109D01*
X39049Y-11891D01*
X39049Y-10109D01*
X39049Y-09891D01*
X38965Y-09689D01*
X38811Y-09535D01*
X38609Y-09451D01*
X38391Y-09451D01*
X38189Y-09535D01*
X38035Y-09689D01*
X37951Y-09891D01*
X37951Y-10109D01*
X38035Y-10311D01*
X38189Y-10465D01*
X38280Y-10502D01*
X38219Y-10528D01*
X38192Y-10622D01*
X38500Y-10929D01*
X38808Y-10622D01*
X38781Y-10528D01*
X38715Y-10504D01*
X38811Y-10465D01*
X38965Y-10311D01*
X39049Y-10109D01*
X39049Y-11891D01*
X39043Y-11876D01*
X39043Y-11079D01*
X39032Y-10866D01*
X38972Y-10719D01*
X38878Y-10692D01*
X38571Y-11000D01*
X38878Y-11308D01*
X38972Y-11281D01*
X39043Y-11079D01*
X39043Y-11876D01*
X38965Y-11689D01*
X38811Y-11535D01*
X38719Y-11497D01*
X38781Y-11472D01*
X38808Y-11378D01*
X38500Y-11071D01*
X38429Y-11141D01*
X38429Y-11000D01*
X38122Y-10692D01*
X38028Y-10719D01*
X37957Y-10921D01*
X37968Y-11134D01*
X38028Y-11281D01*
X38122Y-11308D01*
X38429Y-11000D01*
X38429Y-11141D01*
X38192Y-11378D01*
X38219Y-11472D01*
X38284Y-11495D01*
X38189Y-11535D01*
X38035Y-11689D01*
X37951Y-11891D01*
X37951Y-12109D01*
X38035Y-12311D01*
X38174Y-12450D01*
X37771Y-12450D01*
X37300Y-11979D01*
X37300Y-09271D01*
X38021Y-08550D01*
X47979Y-08550D01*
X50214Y-10785D01*
X50970Y-11598D01*
X51020Y-11550D01*
X52479Y-11550D01*
X53701Y-12772D01*
X53701Y-12859D01*
X53785Y-13061D01*
X53939Y-13215D01*
X53950Y-13219D01*
X53950Y-18699D01*
X53890Y-18759D01*
X53825Y-18915D01*
X53825Y-19084D01*
X53889Y-19240D01*
X53950Y-19301D01*
X53950Y-21780D01*
X53939Y-21785D01*
X53785Y-21939D01*
X53701Y-22141D01*
X53701Y-22359D01*
X53785Y-22561D01*
X53939Y-22715D01*
X53950Y-22719D01*
X53950Y-25280D01*
X53939Y-25285D01*
X53785Y-25439D01*
X53701Y-25641D01*
X53701Y-25859D01*
X53785Y-26061D01*
X53939Y-26215D01*
X53950Y-26219D01*
X53950Y-31699D01*
X53890Y-31759D01*
X53825Y-31915D01*
X53825Y-32084D01*
X53889Y-32240D01*
X53950Y-32301D01*
X53950Y-34780D01*
X53939Y-34785D01*
X53785Y-34939D01*
X53701Y-35141D01*
X53701Y-35359D01*
X53785Y-35561D01*
X53939Y-35715D01*
X53950Y-35719D01*
X53950Y-36729D01*
G54D10*
G36*
X107200Y-63729D02*
X106729Y-64200D01*
X102021Y-64200D01*
X101550Y-63729D01*
X101550Y-62021D01*
X102021Y-61550D01*
X106485Y-61550D01*
X107200Y-62027D01*
X107200Y-63729D01*
X107200Y-63729D01*
G37*
G54D28*
X107200Y-63729D02*
X106729Y-64200D01*
X102021Y-64200D01*
X101550Y-63729D01*
X101550Y-62021D01*
X102021Y-61550D01*
X106485Y-61550D01*
X107200Y-62027D01*
X107200Y-63729D01*
M02*
