G04 (created by PCBNEW (2012-01-19 BZR 3256)-stable) date 7/17/2013 11:20:33 AM*
G01*
G70*
G90*
%MOIN*%
G04 Gerber Fmt 3.4, Leading zero omitted, Abs format*
%FSLAX34Y34*%
G04 APERTURE LIST*
%ADD10C,0.001000*%
%ADD11C,0.015000*%
%ADD12C,0.008000*%
G04 APERTURE END LIST*
G54D10*
G54D11*
X110000Y-71500D02*
X110000Y-06500D01*
X33500Y-71500D02*
X110000Y-71500D01*
X33500Y-06500D02*
X33500Y-71500D01*
X110000Y-06500D02*
X33500Y-06500D01*
G54D10*
X37275Y-56595D02*
X38085Y-57405D01*
X38085Y-56595D02*
X37275Y-57405D01*
X37275Y-62095D02*
X38085Y-62905D01*
X38085Y-62095D02*
X37275Y-62905D01*
X37275Y-67595D02*
X38085Y-68405D01*
X38085Y-67595D02*
X37275Y-68405D01*
X41915Y-56595D02*
X42725Y-57405D01*
X42725Y-56595D02*
X41915Y-57405D01*
X41915Y-62095D02*
X42725Y-62905D01*
X42725Y-62095D02*
X41915Y-62905D01*
X41915Y-67595D02*
X42725Y-68405D01*
X42725Y-67595D02*
X41915Y-68405D01*
G54D12*
X33739Y-72855D02*
X33739Y-72055D01*
X33930Y-72055D01*
X34044Y-72093D01*
X34120Y-72169D01*
X34159Y-72245D01*
X34197Y-72398D01*
X34197Y-72512D01*
X34159Y-72664D01*
X34120Y-72741D01*
X34044Y-72817D01*
X33930Y-72855D01*
X33739Y-72855D01*
X34539Y-72855D02*
X34539Y-72321D01*
X34539Y-72474D02*
X34578Y-72398D01*
X34616Y-72360D01*
X34692Y-72321D01*
X34768Y-72321D01*
X35034Y-72855D02*
X35034Y-72321D01*
X35034Y-72055D02*
X34996Y-72093D01*
X35034Y-72131D01*
X35073Y-72093D01*
X35034Y-72055D01*
X35034Y-72131D01*
X35530Y-72855D02*
X35454Y-72817D01*
X35415Y-72741D01*
X35415Y-72055D01*
X35949Y-72855D02*
X35873Y-72817D01*
X35834Y-72741D01*
X35834Y-72055D01*
X36863Y-72855D02*
X36863Y-72055D01*
X37130Y-72626D01*
X37397Y-72055D01*
X37397Y-72855D01*
X38120Y-72855D02*
X38120Y-72436D01*
X38082Y-72360D01*
X38006Y-72321D01*
X37854Y-72321D01*
X37777Y-72360D01*
X38120Y-72817D02*
X38044Y-72855D01*
X37854Y-72855D01*
X37777Y-72817D01*
X37739Y-72741D01*
X37739Y-72664D01*
X37777Y-72588D01*
X37854Y-72550D01*
X38044Y-72550D01*
X38120Y-72512D01*
X38501Y-72321D02*
X38501Y-73121D01*
X38501Y-72360D02*
X38578Y-72321D01*
X38730Y-72321D01*
X38806Y-72360D01*
X38844Y-72398D01*
X38882Y-72474D01*
X38882Y-72702D01*
X38844Y-72779D01*
X38806Y-72817D01*
X38730Y-72855D01*
X38578Y-72855D01*
X38501Y-72817D01*
X39225Y-72779D02*
X39264Y-72817D01*
X39225Y-72855D01*
X39187Y-72817D01*
X39225Y-72779D01*
X39225Y-72855D01*
X39225Y-72360D02*
X39264Y-72398D01*
X39225Y-72436D01*
X39187Y-72398D01*
X39225Y-72360D01*
X39225Y-72436D01*
X32539Y-73806D02*
X33349Y-74616D01*
X33349Y-73806D02*
X32539Y-74616D01*
X33892Y-73735D02*
X33968Y-73735D01*
X34044Y-73773D01*
X34082Y-73811D01*
X34120Y-73887D01*
X34159Y-74040D01*
X34159Y-74230D01*
X34120Y-74382D01*
X34082Y-74459D01*
X34044Y-74497D01*
X33968Y-74535D01*
X33892Y-74535D01*
X33816Y-74497D01*
X33778Y-74459D01*
X33739Y-74382D01*
X33701Y-74230D01*
X33701Y-74040D01*
X33739Y-73887D01*
X33778Y-73811D01*
X33816Y-73773D01*
X33892Y-73735D01*
X34501Y-74459D02*
X34540Y-74497D01*
X34501Y-74535D01*
X34463Y-74497D01*
X34501Y-74459D01*
X34501Y-74535D01*
X35035Y-73735D02*
X35111Y-73735D01*
X35187Y-73773D01*
X35225Y-73811D01*
X35263Y-73887D01*
X35302Y-74040D01*
X35302Y-74230D01*
X35263Y-74382D01*
X35225Y-74459D01*
X35187Y-74497D01*
X35111Y-74535D01*
X35035Y-74535D01*
X34959Y-74497D01*
X34921Y-74459D01*
X34882Y-74382D01*
X34844Y-74230D01*
X34844Y-74040D01*
X34882Y-73887D01*
X34921Y-73811D01*
X34959Y-73773D01*
X35035Y-73735D01*
X35759Y-74078D02*
X35683Y-74040D01*
X35644Y-74001D01*
X35606Y-73925D01*
X35606Y-73887D01*
X35644Y-73811D01*
X35683Y-73773D01*
X35759Y-73735D01*
X35911Y-73735D01*
X35987Y-73773D01*
X36025Y-73811D01*
X36064Y-73887D01*
X36064Y-73925D01*
X36025Y-74001D01*
X35987Y-74040D01*
X35911Y-74078D01*
X35759Y-74078D01*
X35683Y-74116D01*
X35644Y-74154D01*
X35606Y-74230D01*
X35606Y-74382D01*
X35644Y-74459D01*
X35683Y-74497D01*
X35759Y-74535D01*
X35911Y-74535D01*
X35987Y-74497D01*
X36025Y-74459D01*
X36064Y-74382D01*
X36064Y-74230D01*
X36025Y-74154D01*
X35987Y-74116D01*
X35911Y-74078D01*
X36826Y-74535D02*
X36368Y-74535D01*
X36597Y-74535D02*
X36597Y-73735D01*
X36521Y-73849D01*
X36445Y-73925D01*
X36368Y-73963D01*
X37130Y-73735D02*
X37130Y-73887D01*
X37435Y-73735D02*
X37435Y-73887D01*
X38960Y-73697D02*
X38274Y-74725D01*
X39798Y-73811D02*
X39836Y-73773D01*
X39913Y-73735D01*
X40103Y-73735D01*
X40179Y-73773D01*
X40217Y-73811D01*
X40256Y-73887D01*
X40256Y-73963D01*
X40217Y-74078D01*
X39760Y-74535D01*
X40256Y-74535D01*
X40598Y-74459D02*
X40637Y-74497D01*
X40598Y-74535D01*
X40560Y-74497D01*
X40598Y-74459D01*
X40598Y-74535D01*
X41132Y-73735D02*
X41208Y-73735D01*
X41284Y-73773D01*
X41322Y-73811D01*
X41360Y-73887D01*
X41399Y-74040D01*
X41399Y-74230D01*
X41360Y-74382D01*
X41322Y-74459D01*
X41284Y-74497D01*
X41208Y-74535D01*
X41132Y-74535D01*
X41056Y-74497D01*
X41018Y-74459D01*
X40979Y-74382D01*
X40941Y-74230D01*
X40941Y-74040D01*
X40979Y-73887D01*
X41018Y-73811D01*
X41056Y-73773D01*
X41132Y-73735D01*
X42084Y-73735D02*
X41932Y-73735D01*
X41856Y-73773D01*
X41818Y-73811D01*
X41741Y-73925D01*
X41703Y-74078D01*
X41703Y-74382D01*
X41741Y-74459D01*
X41780Y-74497D01*
X41856Y-74535D01*
X42008Y-74535D01*
X42084Y-74497D01*
X42122Y-74459D01*
X42161Y-74382D01*
X42161Y-74192D01*
X42122Y-74116D01*
X42084Y-74078D01*
X42008Y-74040D01*
X41856Y-74040D01*
X41780Y-74078D01*
X41741Y-74116D01*
X41703Y-74192D01*
X42503Y-74535D02*
X42503Y-74001D01*
X42503Y-74078D02*
X42542Y-74040D01*
X42618Y-74001D01*
X42732Y-74001D01*
X42808Y-74040D01*
X42846Y-74116D01*
X42846Y-74535D01*
X42846Y-74116D02*
X42884Y-74040D01*
X42961Y-74001D01*
X43075Y-74001D01*
X43151Y-74040D01*
X43189Y-74116D01*
X43189Y-74535D01*
X43570Y-74535D02*
X43570Y-74001D01*
X43570Y-74078D02*
X43609Y-74040D01*
X43685Y-74001D01*
X43799Y-74001D01*
X43875Y-74040D01*
X43913Y-74116D01*
X43913Y-74535D01*
X43913Y-74116D02*
X43951Y-74040D01*
X44028Y-74001D01*
X44142Y-74001D01*
X44218Y-74040D01*
X44256Y-74116D01*
X44256Y-74535D01*
X45476Y-74840D02*
X45438Y-74801D01*
X45362Y-74687D01*
X45324Y-74611D01*
X45286Y-74497D01*
X45247Y-74306D01*
X45247Y-74154D01*
X45286Y-73963D01*
X45324Y-73849D01*
X45362Y-73773D01*
X45438Y-73659D01*
X45476Y-73621D01*
X46123Y-73735D02*
X45971Y-73735D01*
X45895Y-73773D01*
X45857Y-73811D01*
X45780Y-73925D01*
X45742Y-74078D01*
X45742Y-74382D01*
X45780Y-74459D01*
X45819Y-74497D01*
X45895Y-74535D01*
X46047Y-74535D01*
X46123Y-74497D01*
X46161Y-74459D01*
X46200Y-74382D01*
X46200Y-74192D01*
X46161Y-74116D01*
X46123Y-74078D01*
X46047Y-74040D01*
X45895Y-74040D01*
X45819Y-74078D01*
X45780Y-74116D01*
X45742Y-74192D01*
X47152Y-74535D02*
X47152Y-73735D01*
X47495Y-74535D02*
X47495Y-74116D01*
X47457Y-74040D01*
X47381Y-74001D01*
X47267Y-74001D01*
X47191Y-74040D01*
X47152Y-74078D01*
X47991Y-74535D02*
X47915Y-74497D01*
X47876Y-74459D01*
X47838Y-74382D01*
X47838Y-74154D01*
X47876Y-74078D01*
X47915Y-74040D01*
X47991Y-74001D01*
X48105Y-74001D01*
X48181Y-74040D01*
X48219Y-74078D01*
X48257Y-74154D01*
X48257Y-74382D01*
X48219Y-74459D01*
X48181Y-74497D01*
X48105Y-74535D01*
X47991Y-74535D01*
X48715Y-74535D02*
X48639Y-74497D01*
X48600Y-74421D01*
X48600Y-73735D01*
X49324Y-74497D02*
X49248Y-74535D01*
X49096Y-74535D01*
X49019Y-74497D01*
X48981Y-74421D01*
X48981Y-74116D01*
X49019Y-74040D01*
X49096Y-74001D01*
X49248Y-74001D01*
X49324Y-74040D01*
X49362Y-74116D01*
X49362Y-74192D01*
X48981Y-74268D01*
X49667Y-74497D02*
X49744Y-74535D01*
X49896Y-74535D01*
X49972Y-74497D01*
X50010Y-74421D01*
X50010Y-74382D01*
X49972Y-74306D01*
X49896Y-74268D01*
X49782Y-74268D01*
X49705Y-74230D01*
X49667Y-74154D01*
X49667Y-74116D01*
X49705Y-74040D01*
X49782Y-74001D01*
X49896Y-74001D01*
X49972Y-74040D01*
X50277Y-74840D02*
X50315Y-74801D01*
X50392Y-74687D01*
X50430Y-74611D01*
X50468Y-74497D01*
X50506Y-74306D01*
X50506Y-74154D01*
X50468Y-73963D01*
X50430Y-73849D01*
X50392Y-73773D01*
X50315Y-73659D01*
X50277Y-73621D01*
M02*
