M48
;DRILL file {Pcbnew (2012-01-19 BZR 3256)-stable} date 7/17/2013 11:20:19 AM
;FORMAT={-:-/ absolute / inch / decimal}
FMAT,2
INCH,TZ
T1C0.025
T2C0.032
T3C0.037
T4C0.039
T5C0.040
T6C0.120
%
G90
G05
M72
T1
X3.550Y2.150
X3.550Y4.575
X3.625Y3.300
X3.700Y2.800
X3.700Y2.975
X3.725Y1.700
X3.850Y4.650
X3.925Y2.250
X3.975Y2.200
X4.000Y2.150
X4.000Y4.800
X4.050Y1.675
X4.050Y4.775
X4.100Y4.750
X4.150Y4.725
X4.250Y2.575
X4.425Y2.625
X4.450Y3.400
X4.450Y4.675
X4.450Y4.875
X4.500Y1.925
X4.525Y1.300
X4.550Y2.675
X4.550Y5.275
X4.625Y3.325
X4.650Y1.925
X4.650Y2.575
X4.675Y3.475
X4.700Y4.300
X4.725Y3.425
X4.750Y1.750
X4.750Y3.375
X4.750Y4.025
X4.750Y4.125
X4.750Y4.425
X4.800Y4.075
X4.950Y7.000
X4.975Y6.925
X5.000Y6.975
X5.025Y1.800
X5.025Y3.050
X5.025Y4.400
X5.050Y1.700
X5.050Y4.625
X5.050Y5.850
X5.075Y2.950
X5.075Y3.825
X5.100Y4.850
X5.100Y5.750
X5.125Y1.900
X5.125Y3.200
X5.125Y3.625
X5.125Y5.825
X5.175Y3.500
X5.250Y2.150
X5.250Y3.450
X5.275Y3.825
X5.325Y3.950
X5.325Y4.200
X5.325Y4.500
X5.325Y4.600
X5.325Y4.700
X5.375Y3.750
X5.375Y6.725
X5.425Y1.900
X5.425Y3.200
X5.425Y4.450
X5.425Y5.675
X5.450Y6.375
X5.475Y4.400
X5.475Y5.025
X5.475Y6.775
X5.525Y5.000
X5.525Y5.125
X5.525Y6.125
X5.525Y6.525
X5.550Y5.475
X5.575Y5.425
X5.575Y7.050
X5.600Y6.375
X5.625Y5.100
X5.650Y5.275
X5.650Y5.425
X5.675Y4.200
X5.675Y5.050
X5.725Y2.000
X5.725Y3.300
X5.725Y4.400
X5.725Y4.550
X5.725Y5.225
X5.725Y5.425
X5.850Y5.225
X5.975Y4.300
X6.025Y2.100
X6.025Y3.400
X6.025Y4.650
X6.025Y5.675
X6.025Y6.050
X6.025Y6.725
X6.125Y6.050
X6.150Y6.375
X6.175Y4.100
X6.175Y4.200
X6.225Y6.000
X6.275Y4.100
X6.275Y4.400
X6.325Y4.900
X6.575Y4.775
X6.625Y4.825
X6.675Y6.725
X6.725Y1.050
X6.725Y1.900
X6.725Y2.350
X6.725Y3.200
X6.725Y3.650
X6.725Y4.450
X6.775Y6.775
X6.825Y5.050
X6.875Y5.425
X6.875Y7.050
X6.925Y5.100
X6.950Y5.275
X6.950Y5.425
X6.975Y5.050
X7.025Y1.100
X7.025Y2.000
X7.025Y2.400
X7.025Y3.300
X7.025Y3.700
X7.025Y4.550
X7.025Y5.275
X7.025Y5.425
X7.150Y5.200
X7.275Y4.300
X7.325Y1.150
X7.325Y2.100
X7.325Y2.450
X7.325Y3.400
X7.325Y3.750
X7.325Y4.650
X7.325Y5.675
X7.425Y6.050
X7.475Y4.100
X7.475Y4.225
X7.525Y6.000
X7.575Y4.700
X7.600Y4.100
X7.675Y4.900
X7.875Y4.775
X7.925Y4.825
X7.975Y6.725
X8.025Y1.050
X8.025Y1.900
X8.025Y2.350
X8.025Y3.200
X8.025Y3.650
X8.025Y4.450
X8.075Y6.775
X8.125Y5.125
X8.175Y5.425
X8.175Y7.050
X8.225Y5.100
X8.250Y5.275
X8.250Y5.425
X8.275Y5.050
X8.325Y1.100
X8.325Y2.000
X8.325Y2.400
X8.325Y3.300
X8.325Y3.700
X8.325Y4.550
X8.325Y5.225
X8.325Y5.425
X8.450Y5.225
X8.625Y1.150
X8.625Y2.100
X8.625Y2.450
X8.625Y3.400
X8.625Y3.750
X8.625Y4.325
X8.625Y4.700
X8.625Y5.675
X8.725Y6.050
X8.775Y4.175
X8.775Y4.300
X8.825Y6.000
X8.875Y4.600
X8.900Y4.175
X8.975Y4.900
X9.175Y4.775
X9.200Y6.725
X9.225Y4.825
X9.275Y1.050
X9.275Y4.450
X9.325Y1.900
X9.325Y2.350
X9.325Y3.200
X9.325Y3.650
X9.325Y6.775
X9.425Y5.125
X9.425Y7.050
X9.475Y5.425
X9.525Y5.100
X9.550Y5.275
X9.550Y5.425
X9.575Y1.100
X9.575Y5.050
X9.625Y2.000
X9.625Y2.400
X9.625Y3.300
X9.625Y3.700
X9.625Y4.600
X9.625Y5.225
X9.625Y5.425
X9.750Y5.225
X9.850Y1.150
X9.925Y2.100
X9.925Y2.450
X9.925Y3.400
X9.925Y3.750
X9.925Y4.275
X9.925Y4.700
X9.925Y5.675
X9.950Y6.550
X10.000Y6.000
X10.050Y5.950
X10.050Y6.125
X10.075Y4.125
X10.075Y4.250
X10.125Y6.000
X10.125Y6.125
X10.125Y6.925
X10.175Y4.650
X10.200Y4.125
X10.200Y6.200
X10.200Y6.275
X10.200Y6.350
X10.275Y4.900
X10.475Y4.700
X10.525Y4.825
X10.600Y6.200
X10.625Y6.375
X10.675Y6.275
T2
X3.500Y2.975
X3.500Y3.075
X3.500Y3.175
X3.500Y3.275
X3.850Y1.000
X3.850Y1.100
X3.850Y1.200
X3.850Y1.300
X3.850Y1.400
X3.850Y1.500
X3.850Y1.600
X3.850Y1.700
X3.850Y1.800
X3.850Y2.200
X3.850Y2.300
X3.850Y2.400
X3.850Y2.500
X3.850Y4.050
X3.850Y4.150
X3.850Y4.350
X3.850Y4.450
X4.050Y4.050
X4.050Y4.150
X4.050Y4.350
X4.050Y4.450
X4.300Y4.950
X4.350Y1.000
X4.350Y1.100
X4.350Y1.200
X4.350Y1.300
X4.350Y1.400
X4.350Y1.500
X4.350Y1.600
X4.350Y1.700
X4.350Y1.800
X4.350Y1.900
X4.350Y2.000
X4.350Y2.100
X4.350Y2.200
X4.350Y2.300
X4.350Y2.400
X4.350Y2.500
X4.400Y5.550
X4.400Y6.000
X4.400Y6.425
X4.400Y6.550
X4.500Y4.150
X4.500Y4.350
X4.600Y4.950
X4.700Y5.550
X4.700Y6.000
X4.700Y6.425
X4.700Y6.550
X4.800Y5.700
X4.800Y6.000
X4.800Y6.100
X4.800Y6.400
X4.900Y1.350
X4.900Y1.450
X4.900Y1.550
X4.900Y1.650
X4.900Y1.750
X4.900Y1.850
X4.900Y1.950
X4.900Y2.050
X4.900Y2.650
X4.900Y2.750
X4.900Y2.850
X4.900Y2.950
X4.900Y3.050
X4.900Y3.150
X4.900Y3.250
X4.900Y3.350
X4.900Y3.950
X4.900Y4.050
X4.900Y4.150
X4.900Y4.250
X4.900Y4.350
X4.900Y4.450
X4.900Y4.550
X4.900Y4.650
X5.175Y6.625
X5.175Y6.925
X5.200Y1.350
X5.200Y1.450
X5.200Y1.550
X5.200Y1.650
X5.200Y1.750
X5.200Y1.850
X5.200Y1.950
X5.200Y2.050
X5.200Y2.650
X5.200Y2.750
X5.200Y2.850
X5.200Y2.950
X5.200Y3.050
X5.200Y3.150
X5.200Y3.250
X5.200Y3.350
X5.200Y3.950
X5.200Y4.050
X5.200Y4.150
X5.200Y4.250
X5.200Y4.350
X5.200Y4.450
X5.200Y4.550
X5.200Y4.650
X5.275Y6.175
X5.275Y6.475
X5.275Y6.625
X5.275Y6.925
X5.375Y6.175
X5.375Y6.475
X5.375Y6.625
X5.375Y6.925
X5.425Y1.275
X5.425Y2.225
X5.425Y2.575
X5.425Y3.525
X5.425Y3.875
X5.425Y4.825
X5.475Y6.175
X5.475Y6.475
X5.475Y6.625
X5.475Y6.925
X5.525Y1.275
X5.525Y2.225
X5.525Y2.575
X5.525Y3.525
X5.525Y3.875
X5.525Y4.825
X5.575Y6.175
X5.575Y6.475
X5.575Y6.625
X5.575Y6.925
X5.625Y1.275
X5.625Y2.225
X5.625Y2.575
X5.625Y3.525
X5.625Y3.875
X5.625Y4.825
X5.675Y6.175
X5.675Y6.475
X5.675Y6.625
X5.675Y6.925
X5.725Y1.275
X5.725Y2.225
X5.725Y2.575
X5.725Y3.525
X5.725Y3.875
X5.725Y4.825
X5.775Y6.175
X5.775Y6.475
X5.775Y6.625
X5.775Y6.925
X5.825Y1.275
X5.825Y2.225
X5.825Y2.575
X5.825Y3.525
X5.825Y3.875
X5.825Y4.825
X5.825Y5.525
X5.825Y5.825
X5.875Y6.175
X5.875Y6.475
X5.875Y6.625
X5.875Y6.925
X5.925Y1.275
X5.925Y2.225
X5.925Y2.575
X5.925Y3.525
X5.925Y3.875
X5.925Y4.825
X5.925Y5.075
X5.925Y5.375
X5.925Y5.525
X5.925Y5.825
X5.975Y6.175
X5.975Y6.475
X6.025Y1.275
X6.025Y2.225
X6.025Y2.575
X6.025Y3.525
X6.025Y3.875
X6.025Y4.825
X6.025Y5.075
X6.025Y5.375
X6.025Y5.525
X6.025Y5.825
X6.125Y1.275
X6.125Y2.225
X6.125Y2.575
X6.125Y3.525
X6.125Y3.875
X6.125Y4.825
X6.125Y5.075
X6.125Y5.375
X6.125Y5.525
X6.125Y5.825
X6.225Y1.275
X6.225Y2.225
X6.225Y2.575
X6.225Y3.525
X6.225Y3.875
X6.225Y4.825
X6.225Y5.075
X6.225Y5.375
X6.225Y5.525
X6.225Y5.825
X6.325Y1.275
X6.325Y2.225
X6.325Y2.575
X6.325Y3.525
X6.325Y3.875
X6.325Y4.825
X6.325Y5.075
X6.325Y5.375
X6.325Y5.525
X6.325Y5.825
X6.425Y1.275
X6.425Y2.225
X6.425Y2.575
X6.425Y3.525
X6.425Y3.875
X6.425Y4.825
X6.425Y5.075
X6.425Y5.375
X6.425Y5.525
X6.425Y5.825
X6.475Y6.625
X6.475Y6.925
X6.525Y1.275
X6.525Y2.225
X6.525Y2.575
X6.525Y3.525
X6.525Y3.875
X6.525Y4.825
X6.525Y5.075
X6.525Y5.375
X6.525Y5.525
X6.525Y5.825
X6.575Y6.175
X6.575Y6.475
X6.575Y6.625
X6.575Y6.925
X6.625Y5.075
X6.625Y5.375
X6.675Y6.175
X6.675Y6.475
X6.675Y6.625
X6.675Y6.925
X6.725Y1.275
X6.725Y2.225
X6.725Y2.575
X6.725Y3.525
X6.725Y3.875
X6.725Y4.825
X6.775Y6.175
X6.775Y6.475
X6.775Y6.625
X6.775Y6.925
X6.825Y1.275
X6.825Y2.225
X6.825Y2.575
X6.825Y3.525
X6.825Y3.875
X6.825Y4.825
X6.875Y6.175
X6.875Y6.475
X6.875Y6.625
X6.875Y6.925
X6.925Y1.275
X6.925Y2.225
X6.925Y2.575
X6.925Y3.525
X6.925Y3.875
X6.925Y4.825
X6.975Y6.175
X6.975Y6.475
X6.975Y6.625
X6.975Y6.925
X7.025Y1.275
X7.025Y2.225
X7.025Y2.575
X7.025Y3.525
X7.025Y3.875
X7.025Y4.825
X7.075Y6.175
X7.075Y6.475
X7.075Y6.625
X7.075Y6.925
X7.125Y1.275
X7.125Y2.225
X7.125Y2.575
X7.125Y3.525
X7.125Y3.875
X7.125Y4.825
X7.125Y5.525
X7.125Y5.825
X7.175Y6.175
X7.175Y6.475
X7.175Y6.625
X7.175Y6.925
X7.225Y1.275
X7.225Y2.225
X7.225Y2.575
X7.225Y3.525
X7.225Y3.875
X7.225Y4.825
X7.225Y5.075
X7.225Y5.375
X7.225Y5.525
X7.225Y5.825
X7.275Y6.175
X7.275Y6.475
X7.325Y1.275
X7.325Y2.225
X7.325Y2.575
X7.325Y3.525
X7.325Y3.875
X7.325Y4.825
X7.325Y5.075
X7.325Y5.375
X7.325Y5.525
X7.325Y5.825
X7.425Y1.275
X7.425Y2.225
X7.425Y2.575
X7.425Y3.525
X7.425Y3.875
X7.425Y4.825
X7.425Y5.075
X7.425Y5.375
X7.425Y5.525
X7.425Y5.825
X7.525Y1.275
X7.525Y2.225
X7.525Y2.575
X7.525Y3.525
X7.525Y3.875
X7.525Y4.825
X7.525Y5.075
X7.525Y5.375
X7.525Y5.525
X7.525Y5.825
X7.625Y1.275
X7.625Y2.225
X7.625Y2.575
X7.625Y3.525
X7.625Y3.875
X7.625Y4.825
X7.625Y5.075
X7.625Y5.375
X7.625Y5.525
X7.625Y5.825
X7.725Y1.275
X7.725Y2.225
X7.725Y2.575
X7.725Y3.525
X7.725Y3.875
X7.725Y4.825
X7.725Y5.075
X7.725Y5.375
X7.725Y5.525
X7.725Y5.825
X7.775Y6.625
X7.775Y6.925
X7.825Y1.275
X7.825Y2.225
X7.825Y2.575
X7.825Y3.525
X7.825Y3.875
X7.825Y4.825
X7.825Y5.075
X7.825Y5.375
X7.825Y5.525
X7.825Y5.825
X7.875Y6.175
X7.875Y6.475
X7.875Y6.625
X7.875Y6.925
X7.925Y5.075
X7.925Y5.375
X7.975Y6.175
X7.975Y6.475
X7.975Y6.625
X7.975Y6.925
X8.025Y1.275
X8.025Y2.225
X8.025Y2.575
X8.025Y3.525
X8.025Y3.875
X8.025Y4.825
X8.075Y6.175
X8.075Y6.475
X8.075Y6.625
X8.075Y6.925
X8.125Y1.275
X8.125Y2.225
X8.125Y2.575
X8.125Y3.525
X8.125Y3.875
X8.125Y4.825
X8.175Y6.175
X8.175Y6.475
X8.175Y6.625
X8.175Y6.925
X8.225Y1.275
X8.225Y2.225
X8.225Y2.575
X8.225Y3.525
X8.225Y3.875
X8.225Y4.825
X8.275Y6.175
X8.275Y6.475
X8.275Y6.625
X8.275Y6.925
X8.325Y1.275
X8.325Y2.225
X8.325Y2.575
X8.325Y3.525
X8.325Y3.875
X8.325Y4.825
X8.375Y6.175
X8.375Y6.475
X8.375Y6.625
X8.375Y6.925
X8.425Y1.275
X8.425Y2.225
X8.425Y2.575
X8.425Y3.525
X8.425Y3.875
X8.425Y4.825
X8.425Y5.525
X8.425Y5.825
X8.475Y6.175
X8.475Y6.475
X8.475Y6.625
X8.475Y6.925
X8.525Y1.275
X8.525Y2.225
X8.525Y2.575
X8.525Y3.525
X8.525Y3.875
X8.525Y4.825
X8.525Y5.075
X8.525Y5.375
X8.525Y5.525
X8.525Y5.825
X8.575Y6.175
X8.575Y6.475
X8.625Y1.275
X8.625Y2.225
X8.625Y2.575
X8.625Y3.525
X8.625Y3.875
X8.625Y4.825
X8.625Y5.075
X8.625Y5.375
X8.625Y5.525
X8.625Y5.825
X8.725Y1.275
X8.725Y2.225
X8.725Y2.575
X8.725Y3.525
X8.725Y3.875
X8.725Y4.825
X8.725Y5.075
X8.725Y5.375
X8.725Y5.525
X8.725Y5.825
X8.825Y1.275
X8.825Y2.225
X8.825Y2.575
X8.825Y3.525
X8.825Y3.875
X8.825Y4.825
X8.825Y5.075
X8.825Y5.375
X8.825Y5.525
X8.825Y5.825
X8.925Y1.275
X8.925Y2.225
X8.925Y2.575
X8.925Y3.525
X8.925Y3.875
X8.925Y4.825
X8.925Y5.075
X8.925Y5.375
X8.925Y5.525
X8.925Y5.825
X9.025Y1.275
X9.025Y2.225
X9.025Y2.575
X9.025Y3.525
X9.025Y3.875
X9.025Y4.825
X9.025Y5.075
X9.025Y5.375
X9.025Y5.525
X9.025Y5.825
X9.075Y6.625
X9.075Y6.925
X9.125Y1.275
X9.125Y2.225
X9.125Y2.575
X9.125Y3.525
X9.125Y3.875
X9.125Y4.825
X9.125Y5.075
X9.125Y5.375
X9.125Y5.525
X9.125Y5.825
X9.175Y6.175
X9.175Y6.475
X9.175Y6.625
X9.175Y6.925
X9.225Y5.075
X9.225Y5.375
X9.275Y6.175
X9.275Y6.475
X9.275Y6.625
X9.275Y6.925
X9.325Y1.275
X9.325Y2.225
X9.325Y2.575
X9.325Y3.525
X9.325Y3.875
X9.325Y4.825
X9.375Y6.175
X9.375Y6.475
X9.375Y6.625
X9.375Y6.925
X9.425Y1.275
X9.425Y2.225
X9.425Y2.575
X9.425Y3.525
X9.425Y3.875
X9.425Y4.825
X9.475Y6.175
X9.475Y6.475
X9.475Y6.625
X9.475Y6.925
X9.525Y1.275
X9.525Y2.225
X9.525Y2.575
X9.525Y3.525
X9.525Y3.875
X9.525Y4.825
X9.575Y6.175
X9.575Y6.475
X9.575Y6.625
X9.575Y6.925
X9.625Y1.275
X9.625Y2.225
X9.625Y2.575
X9.625Y3.525
X9.625Y3.875
X9.625Y4.825
X9.675Y6.175
X9.675Y6.475
X9.675Y6.625
X9.675Y6.925
X9.725Y1.275
X9.725Y2.225
X9.725Y2.575
X9.725Y3.525
X9.725Y3.875
X9.725Y4.825
X9.725Y5.525
X9.725Y5.825
X9.775Y6.175
X9.775Y6.475
X9.775Y6.625
X9.775Y6.925
X9.825Y1.275
X9.825Y2.225
X9.825Y2.575
X9.825Y3.525
X9.825Y3.875
X9.825Y4.825
X9.825Y5.075
X9.825Y5.375
X9.825Y5.525
X9.825Y5.825
X9.875Y6.175
X9.875Y6.475
X9.925Y1.275
X9.925Y2.225
X9.925Y2.575
X9.925Y3.525
X9.925Y3.875
X9.925Y4.825
X9.925Y5.075
X9.925Y5.375
X9.925Y5.525
X9.925Y5.825
X10.025Y1.275
X10.025Y2.225
X10.025Y2.575
X10.025Y3.525
X10.025Y3.875
X10.025Y4.825
X10.025Y5.075
X10.025Y5.375
X10.025Y5.525
X10.025Y5.825
X10.125Y1.275
X10.125Y2.225
X10.125Y2.575
X10.125Y3.525
X10.125Y3.875
X10.125Y4.825
X10.125Y5.075
X10.125Y5.375
X10.125Y5.525
X10.125Y5.825
X10.225Y1.275
X10.225Y2.225
X10.225Y2.575
X10.225Y3.525
X10.225Y3.875
X10.225Y4.825
X10.225Y5.075
X10.225Y5.375
X10.225Y5.525
X10.225Y5.825
X10.325Y1.275
X10.325Y2.225
X10.325Y2.575
X10.325Y3.525
X10.325Y3.875
X10.325Y4.825
X10.325Y5.075
X10.325Y5.375
X10.325Y5.525
X10.325Y5.825
X10.425Y1.275
X10.425Y2.225
X10.425Y2.575
X10.425Y3.525
X10.425Y3.875
X10.425Y4.825
X10.425Y5.075
X10.425Y5.375
X10.425Y5.525
X10.425Y5.825
X10.525Y5.075
X10.525Y5.375
T3
X3.880Y5.700
X3.880Y6.250
X3.880Y6.800
X4.000Y5.700
X4.000Y6.250
X4.000Y6.800
X4.120Y5.700
X4.120Y6.250
X4.120Y6.800
T4
X3.825Y4.963
X3.825Y5.138
X4.075Y4.963
X4.075Y5.138
T5
X4.300Y4.100
X4.300Y4.200
X4.300Y4.300
T6
X5.100Y0.800
X5.100Y5.300
X10.850Y0.800
X10.850Y5.300
T0
M30
