G04 (created by PCBNEW-RS274X (2012-01-19 BZR 3256)-stable) date 7/17/2013 11:23:13 AM*
G01*
G70*
G90*
%MOIN*%
G04 Gerber Fmt 3.4, Leading zero omitted, Abs format*
%FSLAX34Y34*%
G04 APERTURE LIST*
%ADD10C,0.006000*%
%ADD11C,0.160000*%
%ADD12R,0.055000X0.055000*%
%ADD13C,0.055000*%
%ADD14R,0.060000X0.060000*%
%ADD15C,0.060000*%
%ADD16R,0.090000X0.062000*%
%ADD17O,0.090000X0.062000*%
%ADD18C,0.070000*%
%ADD19R,0.070000X0.070000*%
%ADD20R,0.062000X0.090000*%
%ADD21O,0.062000X0.090000*%
%ADD22C,0.065000*%
%ADD23C,0.067000*%
%ADD24C,0.035000*%
%ADD25C,0.008000*%
%ADD26C,0.012000*%
%ADD27C,0.010000*%
G04 APERTURE END LIST*
G54D10*
G54D11*
X108500Y-53000D03*
X108500Y-08000D03*
G54D12*
X38500Y-41500D03*
G54D13*
X38500Y-40500D03*
G54D12*
X38500Y-43500D03*
G54D13*
X38500Y-44500D03*
G54D14*
X65250Y-12750D03*
G54D15*
X64250Y-12750D03*
X63250Y-12750D03*
X62250Y-12750D03*
X61250Y-12750D03*
X60250Y-12750D03*
X59250Y-12750D03*
X58250Y-12750D03*
X57250Y-12750D03*
X56250Y-12750D03*
X55250Y-12750D03*
X54250Y-12750D03*
X54250Y-22250D03*
X55250Y-22250D03*
X56250Y-22250D03*
X57250Y-22250D03*
X58250Y-22250D03*
X59250Y-22250D03*
X60250Y-22250D03*
X61250Y-22250D03*
X62250Y-22250D03*
X63250Y-22250D03*
X64250Y-22250D03*
X65250Y-22250D03*
G54D14*
X65250Y-25750D03*
G54D15*
X64250Y-25750D03*
X63250Y-25750D03*
X62250Y-25750D03*
X61250Y-25750D03*
X60250Y-25750D03*
X59250Y-25750D03*
X58250Y-25750D03*
X57250Y-25750D03*
X56250Y-25750D03*
X55250Y-25750D03*
X54250Y-25750D03*
X54250Y-35250D03*
X55250Y-35250D03*
X56250Y-35250D03*
X57250Y-35250D03*
X58250Y-35250D03*
X59250Y-35250D03*
X60250Y-35250D03*
X61250Y-35250D03*
X62250Y-35250D03*
X63250Y-35250D03*
X64250Y-35250D03*
X65250Y-35250D03*
G54D14*
X65250Y-38750D03*
G54D15*
X64250Y-38750D03*
X63250Y-38750D03*
X62250Y-38750D03*
X61250Y-38750D03*
X60250Y-38750D03*
X59250Y-38750D03*
X58250Y-38750D03*
X57250Y-38750D03*
X56250Y-38750D03*
X55250Y-38750D03*
X54250Y-38750D03*
X54250Y-48250D03*
X55250Y-48250D03*
X56250Y-48250D03*
X57250Y-48250D03*
X58250Y-48250D03*
X59250Y-48250D03*
X60250Y-48250D03*
X61250Y-48250D03*
X62250Y-48250D03*
X63250Y-48250D03*
X64250Y-48250D03*
X65250Y-48250D03*
G54D14*
X78250Y-12750D03*
G54D15*
X77250Y-12750D03*
X76250Y-12750D03*
X75250Y-12750D03*
X74250Y-12750D03*
X73250Y-12750D03*
X72250Y-12750D03*
X71250Y-12750D03*
X70250Y-12750D03*
X69250Y-12750D03*
X68250Y-12750D03*
X67250Y-12750D03*
X67250Y-22250D03*
X68250Y-22250D03*
X69250Y-22250D03*
X70250Y-22250D03*
X71250Y-22250D03*
X72250Y-22250D03*
X73250Y-22250D03*
X74250Y-22250D03*
X75250Y-22250D03*
X76250Y-22250D03*
X77250Y-22250D03*
X78250Y-22250D03*
G54D14*
X78250Y-25750D03*
G54D15*
X77250Y-25750D03*
X76250Y-25750D03*
X75250Y-25750D03*
X74250Y-25750D03*
X73250Y-25750D03*
X72250Y-25750D03*
X71250Y-25750D03*
X70250Y-25750D03*
X69250Y-25750D03*
X68250Y-25750D03*
X67250Y-25750D03*
X67250Y-35250D03*
X68250Y-35250D03*
X69250Y-35250D03*
X70250Y-35250D03*
X71250Y-35250D03*
X72250Y-35250D03*
X73250Y-35250D03*
X74250Y-35250D03*
X75250Y-35250D03*
X76250Y-35250D03*
X77250Y-35250D03*
X78250Y-35250D03*
G54D14*
X78250Y-38750D03*
G54D15*
X77250Y-38750D03*
X76250Y-38750D03*
X75250Y-38750D03*
X74250Y-38750D03*
X73250Y-38750D03*
X72250Y-38750D03*
X71250Y-38750D03*
X70250Y-38750D03*
X69250Y-38750D03*
X68250Y-38750D03*
X67250Y-38750D03*
X67250Y-48250D03*
X68250Y-48250D03*
X69250Y-48250D03*
X70250Y-48250D03*
X71250Y-48250D03*
X72250Y-48250D03*
X73250Y-48250D03*
X74250Y-48250D03*
X75250Y-48250D03*
X76250Y-48250D03*
X77250Y-48250D03*
X78250Y-48250D03*
G54D14*
X91250Y-12750D03*
G54D15*
X90250Y-12750D03*
X89250Y-12750D03*
X88250Y-12750D03*
X87250Y-12750D03*
X86250Y-12750D03*
X85250Y-12750D03*
X84250Y-12750D03*
X83250Y-12750D03*
X82250Y-12750D03*
X81250Y-12750D03*
X80250Y-12750D03*
X80250Y-22250D03*
X81250Y-22250D03*
X82250Y-22250D03*
X83250Y-22250D03*
X84250Y-22250D03*
X85250Y-22250D03*
X86250Y-22250D03*
X87250Y-22250D03*
X88250Y-22250D03*
X89250Y-22250D03*
X90250Y-22250D03*
X91250Y-22250D03*
G54D14*
X91250Y-25750D03*
G54D15*
X90250Y-25750D03*
X89250Y-25750D03*
X88250Y-25750D03*
X87250Y-25750D03*
X86250Y-25750D03*
X85250Y-25750D03*
X84250Y-25750D03*
X83250Y-25750D03*
X82250Y-25750D03*
X81250Y-25750D03*
X80250Y-25750D03*
X80250Y-35250D03*
X81250Y-35250D03*
X82250Y-35250D03*
X83250Y-35250D03*
X84250Y-35250D03*
X85250Y-35250D03*
X86250Y-35250D03*
X87250Y-35250D03*
X88250Y-35250D03*
X89250Y-35250D03*
X90250Y-35250D03*
X91250Y-35250D03*
G54D14*
X91250Y-38750D03*
G54D15*
X90250Y-38750D03*
X89250Y-38750D03*
X88250Y-38750D03*
X87250Y-38750D03*
X86250Y-38750D03*
X85250Y-38750D03*
X84250Y-38750D03*
X83250Y-38750D03*
X82250Y-38750D03*
X81250Y-38750D03*
X80250Y-38750D03*
X80250Y-48250D03*
X81250Y-48250D03*
X82250Y-48250D03*
X83250Y-48250D03*
X84250Y-48250D03*
X85250Y-48250D03*
X86250Y-48250D03*
X87250Y-48250D03*
X88250Y-48250D03*
X89250Y-48250D03*
X90250Y-48250D03*
X91250Y-48250D03*
G54D14*
X104250Y-12750D03*
G54D15*
X103250Y-12750D03*
X102250Y-12750D03*
X101250Y-12750D03*
X100250Y-12750D03*
X99250Y-12750D03*
X98250Y-12750D03*
X97250Y-12750D03*
X96250Y-12750D03*
X95250Y-12750D03*
X94250Y-12750D03*
X93250Y-12750D03*
X93250Y-22250D03*
X94250Y-22250D03*
X95250Y-22250D03*
X96250Y-22250D03*
X97250Y-22250D03*
X98250Y-22250D03*
X99250Y-22250D03*
X100250Y-22250D03*
X101250Y-22250D03*
X102250Y-22250D03*
X103250Y-22250D03*
X104250Y-22250D03*
G54D14*
X104250Y-25750D03*
G54D15*
X103250Y-25750D03*
X102250Y-25750D03*
X101250Y-25750D03*
X100250Y-25750D03*
X99250Y-25750D03*
X98250Y-25750D03*
X97250Y-25750D03*
X96250Y-25750D03*
X95250Y-25750D03*
X94250Y-25750D03*
X93250Y-25750D03*
X93250Y-35250D03*
X94250Y-35250D03*
X95250Y-35250D03*
X96250Y-35250D03*
X97250Y-35250D03*
X98250Y-35250D03*
X99250Y-35250D03*
X100250Y-35250D03*
X101250Y-35250D03*
X102250Y-35250D03*
X103250Y-35250D03*
X104250Y-35250D03*
G54D14*
X104250Y-38750D03*
G54D15*
X103250Y-38750D03*
X102250Y-38750D03*
X101250Y-38750D03*
X100250Y-38750D03*
X99250Y-38750D03*
X98250Y-38750D03*
X97250Y-38750D03*
X96250Y-38750D03*
X95250Y-38750D03*
X94250Y-38750D03*
X93250Y-38750D03*
X93250Y-48250D03*
X94250Y-48250D03*
X95250Y-48250D03*
X96250Y-48250D03*
X97250Y-48250D03*
X98250Y-48250D03*
X99250Y-48250D03*
X100250Y-48250D03*
X101250Y-48250D03*
X102250Y-48250D03*
X103250Y-48250D03*
X104250Y-48250D03*
G54D16*
X52000Y-20500D03*
G54D17*
X52000Y-19500D03*
X52000Y-18500D03*
X52000Y-17500D03*
X52000Y-16500D03*
X52000Y-15500D03*
X52000Y-14500D03*
X52000Y-13500D03*
X49000Y-13500D03*
X49000Y-14500D03*
X49000Y-15500D03*
X49000Y-16500D03*
X49000Y-17500D03*
X49000Y-18500D03*
X49000Y-19500D03*
X49000Y-20500D03*
G54D16*
X52000Y-33500D03*
G54D17*
X52000Y-32500D03*
X52000Y-31500D03*
X52000Y-30500D03*
X52000Y-29500D03*
X52000Y-28500D03*
X52000Y-27500D03*
X52000Y-26500D03*
X49000Y-26500D03*
X49000Y-27500D03*
X49000Y-28500D03*
X49000Y-29500D03*
X49000Y-30500D03*
X49000Y-31500D03*
X49000Y-32500D03*
X49000Y-33500D03*
G54D16*
X52000Y-46500D03*
G54D17*
X52000Y-45500D03*
X52000Y-44500D03*
X52000Y-43500D03*
X52000Y-42500D03*
X52000Y-41500D03*
X52000Y-40500D03*
X52000Y-39500D03*
X49000Y-39500D03*
X49000Y-40500D03*
X49000Y-41500D03*
X49000Y-42500D03*
X49000Y-43500D03*
X49000Y-44500D03*
X49000Y-45500D03*
X49000Y-46500D03*
G54D18*
X43000Y-41000D03*
X43000Y-42000D03*
G54D19*
X43000Y-43000D03*
G54D13*
X65250Y-53750D03*
X65250Y-50750D03*
X73250Y-53750D03*
X73250Y-50750D03*
X72250Y-53750D03*
X72250Y-50750D03*
X74250Y-53750D03*
X74250Y-50750D03*
X75250Y-53750D03*
X75250Y-50750D03*
X62250Y-53750D03*
X62250Y-50750D03*
X61250Y-53750D03*
X61250Y-50750D03*
X59250Y-53750D03*
X59250Y-50750D03*
X60250Y-53750D03*
X60250Y-50750D03*
X64250Y-53750D03*
X64250Y-50750D03*
X63250Y-53750D03*
X63250Y-50750D03*
X76250Y-53750D03*
X76250Y-50750D03*
X66250Y-53750D03*
X66250Y-50750D03*
X94750Y-64750D03*
X94750Y-61750D03*
X93750Y-64750D03*
X93750Y-61750D03*
X91750Y-64750D03*
X91750Y-61750D03*
X92750Y-64750D03*
X92750Y-61750D03*
X96750Y-64750D03*
X96750Y-61750D03*
X95750Y-64750D03*
X95750Y-61750D03*
X97750Y-64750D03*
X97750Y-61750D03*
X87250Y-53750D03*
X87250Y-50750D03*
X105250Y-53750D03*
X105250Y-50750D03*
X104250Y-53750D03*
X104250Y-50750D03*
X102250Y-53750D03*
X102250Y-50750D03*
X103250Y-53750D03*
X103250Y-50750D03*
X99250Y-53750D03*
X99250Y-50750D03*
X98250Y-53750D03*
X98250Y-50750D03*
X100250Y-53750D03*
X100250Y-50750D03*
X101250Y-53750D03*
X101250Y-50750D03*
X88250Y-53750D03*
X88250Y-50750D03*
X77250Y-53750D03*
X77250Y-50750D03*
X85250Y-53750D03*
X85250Y-50750D03*
X86250Y-53750D03*
X86250Y-50750D03*
X90250Y-53750D03*
X90250Y-50750D03*
X89250Y-53750D03*
X89250Y-50750D03*
X91250Y-53750D03*
X91250Y-50750D03*
X92250Y-53750D03*
X92250Y-50750D03*
X79250Y-53750D03*
X79250Y-50750D03*
X78250Y-53750D03*
X78250Y-50750D03*
X85750Y-64750D03*
X85750Y-61750D03*
X98750Y-64750D03*
X98750Y-61750D03*
X43000Y-49500D03*
X46000Y-49500D03*
X44000Y-55500D03*
X47000Y-55500D03*
X48000Y-60000D03*
X48000Y-57000D03*
X44000Y-60000D03*
X47000Y-60000D03*
X48000Y-64000D03*
X48000Y-61000D03*
X44000Y-64250D03*
X47000Y-64250D03*
X44000Y-65500D03*
X47000Y-65500D03*
X59750Y-64750D03*
X59750Y-61750D03*
X58750Y-64750D03*
X58750Y-61750D03*
X56750Y-64750D03*
X56750Y-61750D03*
X57750Y-64750D03*
X57750Y-61750D03*
X53750Y-64750D03*
X53750Y-61750D03*
X52750Y-64750D03*
X52750Y-61750D03*
X54750Y-64750D03*
X54750Y-61750D03*
X55750Y-64750D03*
X55750Y-61750D03*
X68750Y-64750D03*
X68750Y-61750D03*
X84750Y-64750D03*
X84750Y-61750D03*
X82750Y-64750D03*
X82750Y-61750D03*
X83750Y-64750D03*
X83750Y-61750D03*
X79750Y-64750D03*
X79750Y-61750D03*
X78750Y-64750D03*
X78750Y-61750D03*
X80750Y-64750D03*
X80750Y-61750D03*
X81750Y-64750D03*
X81750Y-61750D03*
X72750Y-64750D03*
X72750Y-61750D03*
X71750Y-64750D03*
X71750Y-61750D03*
X69750Y-64750D03*
X69750Y-61750D03*
X70750Y-64750D03*
X70750Y-61750D03*
X66750Y-64750D03*
X66750Y-61750D03*
X65750Y-64750D03*
X65750Y-61750D03*
X67750Y-64750D03*
X67750Y-61750D03*
G54D20*
X97750Y-66250D03*
G54D21*
X96750Y-66250D03*
X95750Y-66250D03*
X94750Y-66250D03*
X93750Y-66250D03*
X92750Y-66250D03*
X91750Y-66250D03*
X90750Y-66250D03*
X90750Y-69250D03*
X91750Y-69250D03*
X92750Y-69250D03*
X93750Y-69250D03*
X94750Y-69250D03*
X95750Y-69250D03*
X96750Y-69250D03*
X97750Y-69250D03*
G54D20*
X84750Y-66250D03*
G54D21*
X83750Y-66250D03*
X82750Y-66250D03*
X81750Y-66250D03*
X80750Y-66250D03*
X79750Y-66250D03*
X78750Y-66250D03*
X77750Y-66250D03*
X77750Y-69250D03*
X78750Y-69250D03*
X79750Y-69250D03*
X80750Y-69250D03*
X81750Y-69250D03*
X82750Y-69250D03*
X83750Y-69250D03*
X84750Y-69250D03*
G54D20*
X71750Y-66250D03*
G54D21*
X70750Y-66250D03*
X69750Y-66250D03*
X68750Y-66250D03*
X67750Y-66250D03*
X66750Y-66250D03*
X65750Y-66250D03*
X64750Y-66250D03*
X64750Y-69250D03*
X65750Y-69250D03*
X66750Y-69250D03*
X67750Y-69250D03*
X68750Y-69250D03*
X69750Y-69250D03*
X70750Y-69250D03*
X71750Y-69250D03*
G54D20*
X58750Y-66250D03*
G54D21*
X57750Y-66250D03*
X56750Y-66250D03*
X55750Y-66250D03*
X54750Y-66250D03*
X53750Y-66250D03*
X52750Y-66250D03*
X51750Y-66250D03*
X51750Y-69250D03*
X52750Y-69250D03*
X53750Y-69250D03*
X54750Y-69250D03*
X55750Y-69250D03*
X56750Y-69250D03*
X57750Y-69250D03*
X58750Y-69250D03*
G54D20*
X104250Y-55250D03*
G54D21*
X103250Y-55250D03*
X102250Y-55250D03*
X101250Y-55250D03*
X100250Y-55250D03*
X99250Y-55250D03*
X98250Y-55250D03*
X97250Y-55250D03*
X97250Y-58250D03*
X98250Y-58250D03*
X99250Y-58250D03*
X100250Y-58250D03*
X101250Y-58250D03*
X102250Y-58250D03*
X103250Y-58250D03*
X104250Y-58250D03*
G54D20*
X65250Y-55250D03*
G54D21*
X64250Y-55250D03*
X63250Y-55250D03*
X62250Y-55250D03*
X61250Y-55250D03*
X60250Y-55250D03*
X59250Y-55250D03*
X58250Y-55250D03*
X58250Y-58250D03*
X59250Y-58250D03*
X60250Y-58250D03*
X61250Y-58250D03*
X62250Y-58250D03*
X63250Y-58250D03*
X64250Y-58250D03*
X65250Y-58250D03*
G54D20*
X78250Y-55250D03*
G54D21*
X77250Y-55250D03*
X76250Y-55250D03*
X75250Y-55250D03*
X74250Y-55250D03*
X73250Y-55250D03*
X72250Y-55250D03*
X71250Y-55250D03*
X71250Y-58250D03*
X72250Y-58250D03*
X73250Y-58250D03*
X74250Y-58250D03*
X75250Y-58250D03*
X76250Y-58250D03*
X77250Y-58250D03*
X78250Y-58250D03*
G54D20*
X91250Y-55250D03*
G54D21*
X90250Y-55250D03*
X89250Y-55250D03*
X88250Y-55250D03*
X87250Y-55250D03*
X86250Y-55250D03*
X85250Y-55250D03*
X84250Y-55250D03*
X84250Y-58250D03*
X85250Y-58250D03*
X86250Y-58250D03*
X87250Y-58250D03*
X88250Y-58250D03*
X89250Y-58250D03*
X90250Y-58250D03*
X91250Y-58250D03*
G54D13*
X45000Y-41500D03*
X45000Y-43500D03*
G54D14*
X40500Y-44500D03*
G54D15*
X40500Y-43500D03*
G54D14*
X40500Y-40500D03*
G54D15*
X40500Y-41500D03*
G54D22*
X38800Y-68000D03*
X40000Y-68000D03*
X41200Y-68000D03*
X38800Y-62500D03*
X40000Y-62500D03*
X41200Y-62500D03*
X38800Y-57000D03*
X40000Y-57000D03*
X41200Y-57000D03*
G54D12*
X35000Y-32750D03*
G54D13*
X35000Y-31750D03*
X35000Y-30750D03*
X35000Y-29750D03*
G54D15*
X38500Y-10000D03*
X38500Y-11000D03*
X38500Y-12000D03*
X38500Y-13000D03*
X38500Y-14000D03*
X38500Y-15000D03*
X38500Y-16000D03*
X38500Y-17000D03*
X38500Y-18000D03*
X38500Y-22000D03*
X38500Y-23000D03*
X38500Y-24000D03*
X38500Y-25000D03*
X43500Y-25000D03*
X43500Y-24000D03*
X43500Y-23000D03*
X43500Y-22000D03*
X43500Y-21000D03*
X43500Y-20000D03*
X43500Y-19000D03*
X43500Y-18000D03*
X43500Y-17000D03*
X43500Y-16000D03*
X43500Y-15000D03*
X43500Y-14000D03*
X43500Y-13000D03*
X43500Y-12000D03*
X43500Y-11000D03*
X43500Y-10000D03*
G54D11*
X51000Y-53000D03*
G54D23*
X38250Y-49625D03*
X38250Y-51375D03*
X40750Y-51375D03*
X40750Y-49625D03*
G54D11*
X51000Y-08000D03*
G54D24*
X60250Y-56750D03*
X51750Y-35000D03*
X47500Y-33750D03*
X92000Y-67250D03*
X86250Y-56750D03*
X66750Y-67250D03*
X53750Y-37500D03*
X60250Y-67250D03*
X61500Y-63750D03*
X73250Y-56750D03*
X53750Y-67250D03*
X99250Y-56750D03*
X79750Y-67250D03*
X60250Y-60500D03*
X46250Y-33250D03*
X54250Y-56750D03*
X54750Y-67750D03*
X50750Y-29500D03*
X67750Y-67750D03*
X87250Y-60500D03*
X100500Y-61250D03*
X93250Y-67750D03*
X53250Y-39500D03*
X50500Y-17000D03*
X50750Y-38250D03*
X53250Y-42000D03*
X62750Y-44000D03*
X56750Y-42000D03*
X57250Y-44000D03*
X74250Y-60500D03*
X80750Y-67750D03*
X99500Y-65500D03*
X61250Y-60500D03*
X100500Y-59500D03*
X101250Y-61250D03*
X75250Y-60000D03*
X62250Y-60000D03*
X55750Y-70500D03*
X88250Y-60000D03*
X68750Y-70500D03*
X94250Y-70500D03*
X101250Y-60000D03*
X55250Y-65250D03*
X100000Y-60000D03*
X54750Y-44000D03*
X47500Y-17500D03*
X50250Y-18000D03*
X81750Y-70500D03*
X50250Y-30500D03*
X50250Y-44000D03*
X55500Y-54750D03*
X55250Y-61250D03*
X54750Y-50250D03*
X101250Y-69250D03*
X52750Y-38250D03*
X40000Y-21500D03*
X101750Y-46500D03*
X51250Y-36250D03*
X53250Y-45000D03*
X102750Y-49000D03*
X97500Y-52250D03*
X95250Y-51000D03*
X105250Y-48250D03*
X102000Y-41250D03*
X100750Y-42500D03*
X95750Y-50500D03*
X88750Y-46000D03*
X53250Y-46000D03*
X39750Y-22000D03*
X89750Y-49000D03*
X84500Y-52250D03*
X82250Y-51000D03*
X92250Y-48250D03*
X87750Y-43000D03*
X89000Y-41750D03*
X82750Y-50500D03*
X75750Y-47000D03*
X39250Y-22500D03*
X53250Y-47000D03*
X76750Y-49000D03*
X71500Y-52000D03*
X69250Y-51000D03*
X79250Y-48250D03*
X76000Y-41000D03*
X74750Y-42250D03*
X69750Y-50500D03*
X63250Y-49000D03*
X51000Y-48500D03*
X58500Y-52250D03*
X56250Y-51000D03*
X66250Y-48250D03*
X62750Y-41000D03*
X61750Y-42000D03*
X56750Y-50500D03*
X45000Y-19250D03*
X102000Y-63500D03*
X44500Y-34000D03*
X102000Y-62750D03*
X54500Y-63750D03*
X56000Y-63750D03*
X106250Y-63750D03*
X106750Y-62750D03*
X106000Y-62000D03*
X102000Y-62000D03*
X60250Y-34000D03*
X86250Y-34000D03*
X99250Y-34000D03*
X73250Y-34000D03*
X83250Y-24000D03*
X96250Y-24000D03*
X70250Y-24000D03*
X70250Y-33000D03*
X57250Y-33000D03*
X96250Y-33000D03*
X83250Y-33000D03*
X52500Y-34500D03*
X73250Y-46500D03*
X99250Y-47000D03*
X86250Y-47000D03*
X60250Y-46500D03*
X67250Y-44500D03*
X92750Y-44500D03*
X54250Y-44500D03*
X80250Y-44500D03*
X99250Y-37500D03*
X86250Y-37500D03*
X73250Y-37500D03*
X96250Y-20000D03*
X57250Y-20000D03*
X70250Y-20000D03*
X83250Y-20000D03*
X73250Y-24500D03*
X86250Y-24500D03*
X99250Y-24500D03*
X93250Y-32000D03*
X67250Y-32000D03*
X54250Y-32000D03*
X80250Y-32000D03*
X50500Y-46250D03*
X83250Y-37000D03*
X70250Y-37000D03*
X96250Y-37000D03*
X57250Y-45500D03*
X70250Y-45500D03*
X83250Y-45500D03*
X96250Y-46000D03*
X80250Y-36500D03*
X93250Y-36500D03*
X67250Y-36500D03*
X51250Y-32000D03*
X67250Y-23500D03*
X93250Y-23500D03*
X80250Y-23500D03*
X51250Y-19000D03*
X83250Y-11000D03*
X70250Y-11000D03*
X95750Y-11000D03*
X98500Y-11500D03*
X73250Y-11500D03*
X86250Y-11500D03*
X67250Y-10500D03*
X80250Y-10500D03*
X92750Y-10500D03*
X80250Y-19000D03*
X54250Y-19000D03*
X67250Y-19000D03*
X93250Y-19000D03*
X99250Y-21000D03*
X86250Y-21000D03*
X60250Y-21000D03*
X73250Y-21000D03*
X52500Y-21500D03*
X35500Y-45750D03*
X36250Y-33000D03*
X38500Y-46500D03*
X35500Y-21500D03*
X47000Y-43000D03*
X46500Y-19250D03*
X45500Y-26750D03*
X46500Y-25750D03*
X46750Y-34750D03*
X45250Y-13000D03*
X44500Y-48750D03*
X44500Y-46750D03*
X45500Y-52750D03*
X37250Y-17000D03*
X41500Y-47250D03*
X96250Y-52250D03*
X96250Y-54250D03*
X95500Y-52750D03*
X95500Y-54250D03*
X94250Y-51250D03*
X104750Y-47000D03*
X94750Y-54250D03*
X100750Y-41250D03*
X99250Y-42750D03*
X41000Y-47500D03*
X83250Y-54250D03*
X83250Y-52250D03*
X82500Y-52750D03*
X82500Y-54250D03*
X81250Y-51250D03*
X91750Y-47750D03*
X81750Y-54250D03*
X86250Y-43250D03*
X87750Y-41750D03*
X40500Y-47750D03*
X37000Y-28000D03*
X70250Y-52750D03*
X70250Y-54250D03*
X68250Y-50500D03*
X69500Y-54250D03*
X69500Y-52750D03*
X68750Y-54250D03*
X78750Y-47750D03*
X72750Y-43000D03*
X74750Y-41000D03*
X37000Y-29750D03*
X40000Y-48000D03*
X57250Y-54250D03*
X57250Y-52250D03*
X55250Y-51250D03*
X56500Y-52750D03*
X55250Y-50000D03*
X56500Y-54250D03*
X55750Y-54250D03*
X65750Y-47750D03*
X61750Y-41000D03*
X59750Y-43000D03*
X47250Y-34250D03*
X47500Y-44250D03*
X44250Y-26250D03*
X42500Y-25750D03*
X48000Y-40750D03*
X47500Y-41250D03*
X49750Y-69250D03*
X51000Y-57500D03*
X50000Y-69750D03*
X51250Y-58250D03*
X50500Y-58500D03*
X40500Y-16750D03*
X47500Y-40250D03*
X49500Y-70000D03*
G54D25*
X61500Y-61750D02*
X61000Y-61250D01*
X60250Y-60500D02*
X60250Y-60500D01*
X60250Y-67250D02*
X66750Y-67250D01*
X66750Y-67250D02*
X71750Y-67250D01*
X53750Y-37000D02*
X51750Y-35000D01*
X47500Y-33750D02*
X47250Y-33500D01*
X53750Y-37500D02*
X53750Y-37000D01*
X61000Y-61250D02*
X61000Y-61250D01*
X61500Y-63750D02*
X61500Y-62500D01*
X60250Y-60500D02*
X61000Y-61250D01*
X60250Y-56750D02*
X73250Y-56750D01*
X47250Y-33500D02*
X47000Y-33250D01*
X85750Y-67250D02*
X92000Y-67250D01*
X71750Y-67250D02*
X79750Y-67250D01*
X61500Y-62500D02*
X61500Y-61750D01*
X60250Y-56750D02*
X54250Y-56750D01*
X86250Y-56750D02*
X99250Y-56750D01*
X85750Y-67250D02*
X79750Y-67250D01*
X47000Y-33250D02*
X46250Y-33250D01*
X73250Y-56750D02*
X86250Y-56750D01*
X60250Y-67250D02*
X53750Y-67250D01*
X54750Y-67750D02*
X67750Y-67750D01*
X100500Y-60500D02*
X100500Y-59500D01*
X50750Y-38250D02*
X50750Y-29500D01*
X51500Y-38250D02*
X52000Y-38250D01*
X100500Y-61250D02*
X100500Y-60500D01*
X87250Y-60500D02*
X74250Y-60500D01*
X93250Y-67750D02*
X98250Y-67750D01*
X87250Y-60500D02*
X87500Y-60500D01*
X50750Y-17250D02*
X50500Y-17000D01*
X56750Y-42000D02*
X55500Y-42000D01*
X100500Y-60500D02*
X87250Y-60500D01*
X80750Y-67750D02*
X93250Y-67750D01*
X99500Y-66500D02*
X99500Y-65500D01*
X52000Y-38250D02*
X53250Y-39500D01*
X67750Y-67750D02*
X80750Y-67750D01*
X50750Y-29500D02*
X50750Y-17250D01*
X74250Y-60500D02*
X61250Y-60500D01*
X53500Y-42000D02*
X53250Y-42000D01*
X62750Y-44000D02*
X57250Y-44000D01*
X51500Y-38250D02*
X50750Y-38250D01*
X55500Y-42000D02*
X53500Y-42000D01*
X98250Y-67750D02*
X99500Y-66500D01*
X81750Y-70500D02*
X94250Y-70500D01*
X101250Y-69750D02*
X101250Y-69250D01*
X101250Y-69750D02*
X100500Y-70500D01*
X101250Y-61250D02*
X101250Y-60000D01*
X100000Y-60000D02*
X88500Y-60000D01*
X55250Y-54500D02*
X55250Y-52500D01*
X75250Y-60000D02*
X88250Y-60000D01*
X68750Y-70500D02*
X55750Y-70500D01*
X68750Y-70500D02*
X81750Y-70500D01*
X54750Y-44000D02*
X50250Y-44000D01*
X100500Y-70500D02*
X94250Y-70500D01*
X50250Y-30750D02*
X50250Y-31000D01*
X50250Y-36000D02*
X50250Y-44000D01*
X47250Y-17750D02*
X47500Y-17500D01*
X43500Y-23000D02*
X44250Y-23000D01*
X50250Y-30500D02*
X50250Y-18000D01*
X50250Y-31000D02*
X50250Y-36000D01*
X55250Y-65250D02*
X55250Y-61250D01*
X55500Y-54750D02*
X55250Y-54500D01*
X62250Y-60000D02*
X75250Y-60000D01*
X50250Y-31000D02*
X50250Y-30500D01*
X47250Y-20000D02*
X47250Y-17750D01*
X55250Y-52000D02*
X54750Y-51500D01*
X55250Y-52500D02*
X55250Y-52000D01*
X54750Y-51500D02*
X54750Y-50250D01*
X88250Y-60000D02*
X88500Y-60000D01*
X44250Y-23000D02*
X47250Y-20000D01*
X101750Y-46500D02*
X100250Y-45000D01*
X52750Y-38250D02*
X52750Y-37500D01*
X39250Y-13750D02*
X38500Y-13000D01*
X40000Y-21500D02*
X39750Y-21250D01*
X39750Y-21250D02*
X39750Y-15500D01*
X39250Y-15000D02*
X39250Y-13750D01*
X51500Y-36250D02*
X51250Y-36250D01*
X92750Y-45000D02*
X70000Y-45000D01*
X57250Y-45000D02*
X53250Y-45000D01*
X39750Y-15500D02*
X39250Y-15000D01*
X52750Y-37500D02*
X51500Y-36250D01*
X100250Y-45000D02*
X92750Y-45000D01*
X70000Y-45000D02*
X57250Y-45000D01*
X101250Y-48250D02*
X101250Y-48500D01*
X101750Y-49000D02*
X102750Y-49000D01*
X101250Y-48500D02*
X101750Y-49000D01*
X97750Y-52500D02*
X102750Y-52500D01*
X103250Y-52000D02*
X103250Y-50750D01*
X102750Y-52500D02*
X103250Y-52000D01*
X97500Y-52250D02*
X97750Y-52500D01*
X95250Y-51000D02*
X95750Y-51500D01*
X95750Y-51500D02*
X102000Y-51500D01*
X102000Y-51500D02*
X102250Y-51250D01*
X102250Y-51250D02*
X102250Y-50750D01*
X101250Y-50500D02*
X101250Y-50750D01*
X101750Y-50000D02*
X101250Y-50500D01*
X105250Y-49500D02*
X104750Y-50000D01*
X105250Y-48250D02*
X105250Y-49000D01*
X104750Y-50000D02*
X101750Y-50000D01*
X105250Y-49000D02*
X105250Y-49500D01*
X102000Y-41250D02*
X100750Y-42500D01*
X96000Y-50750D02*
X98250Y-50750D01*
X95750Y-50500D02*
X96000Y-50750D01*
X62750Y-46000D02*
X56750Y-46000D01*
X39750Y-22000D02*
X39500Y-21750D01*
X71500Y-46000D02*
X76250Y-46000D01*
X39500Y-16000D02*
X38500Y-15000D01*
X39500Y-21750D02*
X39500Y-16000D01*
X71500Y-46000D02*
X62750Y-46000D01*
X76250Y-46000D02*
X85000Y-46000D01*
X53500Y-46000D02*
X53250Y-46000D01*
X88750Y-46000D02*
X85000Y-46000D01*
X56750Y-46000D02*
X53500Y-46000D01*
X88750Y-49000D02*
X89750Y-49000D01*
X88250Y-48500D02*
X88750Y-49000D01*
X88250Y-48250D02*
X88250Y-48500D01*
X84750Y-52500D02*
X89750Y-52500D01*
X84500Y-52250D02*
X84750Y-52500D01*
X89750Y-52500D02*
X90250Y-52000D01*
X90250Y-52000D02*
X90250Y-50750D01*
X82250Y-51000D02*
X82750Y-51500D01*
X89000Y-51500D02*
X89250Y-51250D01*
X89250Y-51250D02*
X89250Y-50750D01*
X82750Y-51500D02*
X89000Y-51500D01*
X92250Y-49500D02*
X91750Y-50000D01*
X88750Y-50000D02*
X88250Y-50500D01*
X88250Y-50500D02*
X88250Y-50750D01*
X91750Y-50000D02*
X88750Y-50000D01*
X92250Y-48250D02*
X92250Y-49500D01*
X89000Y-41750D02*
X87750Y-43000D01*
X82750Y-50500D02*
X83000Y-50750D01*
X83000Y-50750D02*
X85250Y-50750D01*
X39250Y-22000D02*
X39250Y-17750D01*
X39250Y-22500D02*
X39250Y-22000D01*
X58500Y-47000D02*
X56750Y-47000D01*
X39250Y-17750D02*
X38500Y-17000D01*
X68250Y-47000D02*
X58500Y-47000D01*
X68250Y-47000D02*
X74000Y-47000D01*
X75750Y-47000D02*
X74000Y-47000D01*
X56750Y-47000D02*
X53250Y-47000D01*
X75250Y-48250D02*
X76000Y-49000D01*
X76000Y-49000D02*
X76750Y-49000D01*
X71500Y-52000D02*
X71750Y-52250D01*
X76500Y-52250D02*
X77250Y-51500D01*
X71750Y-52250D02*
X76500Y-52250D01*
X77250Y-51500D02*
X77250Y-50750D01*
X76000Y-51500D02*
X69750Y-51500D01*
X76250Y-51250D02*
X76000Y-51500D01*
X76250Y-50750D02*
X76250Y-51250D01*
X69750Y-51500D02*
X69250Y-51000D01*
X79250Y-48750D02*
X79250Y-49500D01*
X79250Y-49500D02*
X78750Y-50000D01*
X78750Y-50000D02*
X75750Y-50000D01*
X79250Y-48250D02*
X79250Y-48750D01*
X75250Y-50500D02*
X75250Y-50750D01*
X75750Y-50000D02*
X75250Y-50500D01*
X76000Y-41000D02*
X74750Y-42250D01*
X70000Y-50750D02*
X72250Y-50750D01*
X69750Y-50500D02*
X70000Y-50750D01*
X63250Y-49000D02*
X62000Y-49000D01*
X53000Y-49000D02*
X51500Y-49000D01*
X62000Y-49000D02*
X53000Y-49000D01*
X51500Y-49000D02*
X51000Y-48500D01*
X58750Y-52500D02*
X63750Y-52500D01*
X63750Y-52500D02*
X64250Y-52000D01*
X58500Y-52250D02*
X58750Y-52500D01*
X64250Y-52000D02*
X64250Y-50750D01*
X63000Y-51500D02*
X63250Y-51250D01*
X63250Y-51250D02*
X63250Y-50750D01*
X56750Y-51500D02*
X63000Y-51500D01*
X56250Y-51000D02*
X56750Y-51500D01*
X62250Y-50500D02*
X62250Y-50750D01*
X66250Y-48250D02*
X66250Y-48750D01*
X66250Y-49500D02*
X65750Y-50000D01*
X66250Y-48750D02*
X66250Y-49500D01*
X62750Y-50000D02*
X62250Y-50500D01*
X65750Y-50000D02*
X62750Y-50000D01*
X62750Y-41000D02*
X61750Y-42000D01*
X56750Y-50500D02*
X57000Y-50750D01*
X57000Y-50750D02*
X59250Y-50750D01*
G54D26*
X52500Y-63750D02*
X54500Y-63750D01*
X43750Y-18000D02*
X45000Y-19250D01*
X51750Y-64500D02*
X52500Y-63750D01*
X43500Y-18000D02*
X43750Y-18000D01*
X56000Y-63750D02*
X60000Y-63750D01*
X90750Y-64750D02*
X92000Y-63500D01*
X44500Y-34000D02*
X44000Y-34000D01*
X51750Y-66250D02*
X51750Y-64500D01*
X90750Y-66250D02*
X90750Y-64750D01*
X62500Y-66250D02*
X64750Y-66250D01*
X60000Y-63750D02*
X62500Y-66250D01*
X106000Y-62000D02*
X106750Y-62750D01*
X102000Y-62750D02*
X102000Y-62000D01*
X92000Y-63500D02*
X102000Y-63500D01*
G54D25*
X85750Y-33500D02*
X86250Y-34000D01*
X52000Y-33500D02*
X59750Y-33500D01*
X85750Y-33500D02*
X98750Y-33500D01*
X59750Y-33500D02*
X72750Y-33500D01*
X59750Y-33500D02*
X60250Y-34000D01*
X98750Y-33500D02*
X99250Y-34000D01*
X72750Y-33500D02*
X73250Y-34000D01*
X72750Y-33500D02*
X85750Y-33500D01*
X57250Y-27000D02*
X57250Y-25750D01*
X52000Y-28500D02*
X55750Y-28500D01*
X57250Y-24500D02*
X57750Y-24000D01*
X83250Y-24000D02*
X96250Y-24000D01*
X57250Y-24500D02*
X57250Y-25750D01*
X57750Y-24000D02*
X70250Y-24000D01*
X55750Y-28500D02*
X57250Y-27000D01*
X83250Y-24000D02*
X70250Y-24000D01*
X56750Y-32500D02*
X57250Y-33000D01*
X69750Y-32500D02*
X56750Y-32500D01*
X82750Y-32500D02*
X69750Y-32500D01*
X96250Y-33000D02*
X95750Y-32500D01*
X95750Y-32500D02*
X82750Y-32500D01*
X82750Y-32500D02*
X83250Y-33000D01*
X69750Y-32500D02*
X70250Y-33000D01*
X52000Y-32500D02*
X56750Y-32500D01*
X62500Y-34500D02*
X62750Y-34500D01*
X88750Y-34500D02*
X101750Y-34500D01*
X76250Y-35250D02*
X76250Y-35000D01*
X89250Y-35250D02*
X89250Y-35000D01*
X62750Y-34500D02*
X63250Y-35000D01*
X101750Y-34500D02*
X102250Y-35000D01*
X52500Y-34500D02*
X62500Y-34500D01*
X63250Y-35000D02*
X63250Y-35250D01*
X75750Y-34500D02*
X88750Y-34500D01*
X62750Y-34500D02*
X75750Y-34500D01*
X76250Y-35000D02*
X75750Y-34500D01*
X89250Y-35000D02*
X88750Y-34500D01*
X102250Y-35000D02*
X102250Y-35250D01*
X85750Y-46500D02*
X86250Y-47000D01*
X85750Y-46500D02*
X98750Y-46500D01*
X59750Y-46500D02*
X72750Y-46500D01*
X98750Y-46500D02*
X99250Y-47000D01*
X72750Y-46500D02*
X73250Y-46500D01*
X59750Y-46500D02*
X60250Y-46500D01*
X73250Y-46500D02*
X85750Y-46500D01*
X52000Y-46500D02*
X59750Y-46500D01*
X53750Y-44500D02*
X54250Y-44500D01*
X66750Y-44500D02*
X67250Y-44500D01*
X80250Y-44500D02*
X92750Y-44500D01*
X52000Y-44500D02*
X53750Y-44500D01*
X53750Y-44500D02*
X66750Y-44500D01*
X67250Y-44500D02*
X79750Y-44500D01*
X79750Y-44500D02*
X80250Y-44500D01*
X60250Y-38000D02*
X60750Y-37500D01*
X60750Y-37500D02*
X73250Y-37500D01*
X60250Y-38000D02*
X60250Y-38750D01*
X86250Y-37500D02*
X99250Y-37500D01*
X60250Y-38750D02*
X60250Y-39750D01*
X57500Y-42500D02*
X52000Y-42500D01*
X73250Y-37500D02*
X86250Y-37500D01*
X60250Y-39750D02*
X57500Y-42500D01*
X57250Y-20000D02*
X56750Y-19500D01*
X56750Y-19500D02*
X52000Y-19500D01*
X70250Y-20000D02*
X69750Y-19500D01*
X82750Y-19500D02*
X95750Y-19500D01*
X69750Y-19500D02*
X56750Y-19500D01*
X83250Y-20000D02*
X82750Y-19500D01*
X82750Y-19500D02*
X69750Y-19500D01*
X95750Y-19500D02*
X96250Y-20000D01*
X63250Y-25500D02*
X63250Y-25750D01*
X76250Y-25000D02*
X89250Y-25000D01*
X89250Y-25000D02*
X89250Y-25750D01*
X63750Y-25000D02*
X63250Y-25500D01*
X102000Y-25000D02*
X102250Y-25250D01*
X76250Y-25750D02*
X76250Y-25000D01*
X61000Y-30500D02*
X63250Y-28250D01*
X63250Y-28250D02*
X63250Y-25750D01*
X52000Y-30500D02*
X61000Y-30500D01*
X102250Y-25250D02*
X102250Y-25750D01*
X76250Y-25000D02*
X63750Y-25000D01*
X89250Y-25000D02*
X102000Y-25000D01*
X58250Y-29500D02*
X60250Y-27500D01*
X52000Y-29500D02*
X58250Y-29500D01*
X73250Y-24500D02*
X86250Y-24500D01*
X99250Y-24500D02*
X86250Y-24500D01*
X60750Y-24500D02*
X60250Y-25000D01*
X60250Y-27500D02*
X60250Y-25750D01*
X60250Y-25000D02*
X60250Y-25750D01*
X73250Y-24500D02*
X60750Y-24500D01*
X66750Y-31500D02*
X67250Y-32000D01*
X52000Y-31500D02*
X53750Y-31500D01*
X66500Y-31500D02*
X66750Y-31500D01*
X79750Y-31500D02*
X92750Y-31500D01*
X53750Y-31500D02*
X66250Y-31500D01*
X66750Y-31500D02*
X79750Y-31500D01*
X66250Y-31500D02*
X66500Y-31500D01*
X79750Y-31500D02*
X80250Y-32000D01*
X53750Y-31500D02*
X54250Y-32000D01*
X92750Y-31500D02*
X93250Y-32000D01*
X51000Y-46750D02*
X50500Y-46250D01*
X79500Y-47500D02*
X88750Y-47500D01*
X78250Y-47250D02*
X79250Y-47250D01*
X52500Y-47500D02*
X51750Y-47500D01*
X92500Y-47500D02*
X101750Y-47500D01*
X51750Y-47500D02*
X51000Y-46750D01*
X91250Y-47250D02*
X92250Y-47250D01*
X76250Y-48000D02*
X76250Y-48250D01*
X78000Y-47500D02*
X78250Y-47250D01*
X65000Y-47500D02*
X65250Y-47250D01*
X62750Y-47500D02*
X63250Y-48000D01*
X65250Y-47250D02*
X66250Y-47250D01*
X88750Y-47500D02*
X89250Y-48000D01*
X88750Y-47500D02*
X91000Y-47500D01*
X75750Y-47500D02*
X78000Y-47500D01*
X101750Y-47500D02*
X102250Y-48000D01*
X52500Y-47500D02*
X62750Y-47500D01*
X63250Y-48000D02*
X63250Y-48250D01*
X89250Y-48000D02*
X89250Y-48250D01*
X92250Y-47250D02*
X92500Y-47500D01*
X91000Y-47500D02*
X91250Y-47250D01*
X79250Y-47250D02*
X79500Y-47500D01*
X62750Y-47500D02*
X65000Y-47500D01*
X66250Y-47250D02*
X66500Y-47500D01*
X75750Y-47500D02*
X76250Y-48000D01*
X66500Y-47500D02*
X75750Y-47500D01*
X102250Y-48000D02*
X102250Y-48250D01*
X96250Y-37000D02*
X83250Y-37000D01*
X52000Y-41500D02*
X55500Y-41500D01*
X83250Y-37000D02*
X70250Y-37000D01*
X57250Y-39750D02*
X57250Y-38750D01*
X55500Y-41500D02*
X57250Y-39750D01*
X70250Y-37000D02*
X58250Y-37000D01*
X57250Y-38000D02*
X57250Y-38750D01*
X58250Y-37000D02*
X57250Y-38000D01*
X102000Y-38000D02*
X89250Y-38000D01*
X76250Y-38750D02*
X76250Y-38000D01*
X61500Y-43500D02*
X52000Y-43500D01*
X63250Y-38500D02*
X63750Y-38000D01*
X63250Y-41750D02*
X61500Y-43500D01*
X63250Y-38750D02*
X63250Y-41750D01*
X89250Y-38000D02*
X76250Y-38000D01*
X89250Y-38750D02*
X89250Y-38000D01*
X102250Y-38250D02*
X102000Y-38000D01*
X63750Y-38000D02*
X76250Y-38000D01*
X63250Y-38750D02*
X63250Y-38500D01*
X102250Y-38250D02*
X102250Y-38750D01*
X70250Y-45500D02*
X82750Y-45500D01*
X69750Y-45500D02*
X70250Y-45500D01*
X83250Y-45500D02*
X95750Y-45500D01*
X56750Y-45500D02*
X69750Y-45500D01*
X56750Y-45500D02*
X57250Y-45500D01*
X95750Y-45500D02*
X96250Y-46000D01*
X82750Y-45500D02*
X83250Y-45500D01*
X52000Y-45500D02*
X56750Y-45500D01*
X54250Y-38750D02*
X54250Y-39750D01*
X54250Y-38000D02*
X53750Y-38000D01*
X67250Y-36500D02*
X80250Y-36500D01*
X54250Y-38000D02*
X55750Y-36500D01*
X54250Y-38000D02*
X54250Y-38750D01*
X54250Y-39750D02*
X53500Y-40500D01*
X53750Y-38000D02*
X51250Y-35500D01*
X51250Y-35500D02*
X51250Y-32000D01*
X55750Y-36500D02*
X67250Y-36500D01*
X80250Y-36500D02*
X93250Y-36500D01*
X53500Y-40500D02*
X52000Y-40500D01*
X54250Y-25750D02*
X54250Y-26750D01*
X51250Y-21000D02*
X51250Y-19000D01*
X54250Y-26750D02*
X53500Y-27500D01*
X54750Y-23500D02*
X67250Y-23500D01*
X80250Y-23500D02*
X67250Y-23500D01*
X53500Y-27500D02*
X52000Y-27500D01*
X54250Y-24000D02*
X53000Y-22750D01*
X53000Y-22750D02*
X51250Y-21000D01*
X80250Y-23500D02*
X93250Y-23500D01*
X54250Y-24000D02*
X54250Y-25750D01*
X54250Y-24000D02*
X54750Y-23500D01*
X64000Y-12000D02*
X63250Y-12750D01*
X75750Y-12000D02*
X64000Y-12000D01*
X63250Y-17250D02*
X63000Y-17500D01*
X76000Y-12000D02*
X76750Y-12000D01*
X89250Y-12000D02*
X102000Y-12000D01*
X102250Y-12250D02*
X102250Y-12750D01*
X76250Y-12750D02*
X76250Y-12000D01*
X89250Y-12000D02*
X89250Y-12750D01*
X76750Y-12000D02*
X77000Y-12000D01*
X102000Y-12000D02*
X102250Y-12250D01*
X76000Y-12000D02*
X75750Y-12000D01*
X77000Y-12000D02*
X89250Y-12000D01*
X63000Y-17500D02*
X53500Y-17500D01*
X75750Y-12000D02*
X76250Y-12000D01*
X76250Y-12000D02*
X77000Y-12000D01*
X53500Y-17500D02*
X52000Y-17500D01*
X63250Y-12750D02*
X63250Y-17250D01*
X57250Y-15000D02*
X56750Y-15500D01*
X52750Y-15500D02*
X52000Y-15500D01*
X95750Y-11000D02*
X83250Y-11000D01*
X70250Y-11000D02*
X58250Y-11000D01*
X57250Y-12750D02*
X57250Y-15000D01*
X58250Y-11000D02*
X57250Y-12000D01*
X70250Y-11000D02*
X83250Y-11000D01*
X57250Y-12000D02*
X57250Y-12750D01*
X56750Y-15500D02*
X52750Y-15500D01*
X60250Y-12250D02*
X60250Y-12750D01*
X61000Y-11500D02*
X73250Y-11500D01*
X86250Y-11500D02*
X98500Y-11500D01*
X61000Y-11500D02*
X60250Y-12250D01*
X59500Y-16500D02*
X53000Y-16500D01*
X53000Y-16500D02*
X52000Y-16500D01*
X60250Y-15750D02*
X59500Y-16500D01*
X73250Y-11500D02*
X86250Y-11500D01*
X60250Y-12750D02*
X60250Y-15750D01*
X92750Y-10500D02*
X80250Y-10500D01*
X54250Y-12250D02*
X54250Y-12750D01*
X67250Y-10500D02*
X56000Y-10500D01*
X67250Y-10500D02*
X80250Y-10500D01*
X54250Y-12750D02*
X54250Y-14000D01*
X52750Y-14500D02*
X52000Y-14500D01*
X53750Y-14500D02*
X52750Y-14500D01*
X54250Y-14000D02*
X53750Y-14500D01*
X56000Y-10500D02*
X54250Y-12250D01*
X66750Y-18500D02*
X79750Y-18500D01*
X53750Y-18500D02*
X52000Y-18500D01*
X79750Y-18500D02*
X80250Y-19000D01*
X66750Y-18500D02*
X67250Y-19000D01*
X93250Y-19000D02*
X92750Y-18500D01*
X92750Y-18500D02*
X79750Y-18500D01*
X54250Y-19000D02*
X53750Y-18500D01*
X53750Y-18500D02*
X66750Y-18500D01*
X53500Y-20500D02*
X52000Y-20500D01*
X60250Y-21000D02*
X59750Y-20500D01*
X99250Y-21000D02*
X98750Y-20500D01*
X72750Y-20500D02*
X85750Y-20500D01*
X72750Y-20500D02*
X73250Y-21000D01*
X59750Y-20500D02*
X72750Y-20500D01*
X59750Y-20500D02*
X53500Y-20500D01*
X85750Y-20500D02*
X86250Y-21000D01*
X98750Y-20500D02*
X85750Y-20500D01*
X89250Y-22000D02*
X89250Y-22250D01*
X76250Y-22250D02*
X76250Y-22000D01*
X101750Y-21500D02*
X102250Y-22000D01*
X62750Y-21500D02*
X52500Y-21500D01*
X75750Y-21500D02*
X62750Y-21500D01*
X63250Y-22250D02*
X63250Y-22000D01*
X102250Y-22000D02*
X102250Y-22250D01*
X88750Y-21500D02*
X89250Y-22000D01*
X76250Y-22000D02*
X75750Y-21500D01*
X75750Y-21500D02*
X88750Y-21500D01*
X63250Y-22000D02*
X62750Y-21500D01*
X88750Y-21500D02*
X101750Y-21500D01*
X38500Y-46500D02*
X36250Y-46500D01*
X36250Y-46500D02*
X35500Y-45750D01*
X36250Y-33000D02*
X36250Y-28500D01*
X35500Y-27750D02*
X35500Y-21500D01*
X36250Y-28500D02*
X35500Y-27750D01*
X46500Y-14250D02*
X46500Y-19250D01*
X45250Y-13000D02*
X46500Y-14250D01*
X47000Y-43000D02*
X46500Y-42500D01*
X46500Y-42500D02*
X46500Y-39750D01*
X46500Y-39750D02*
X47000Y-39250D01*
X45500Y-26750D02*
X46500Y-25750D01*
X47000Y-35000D02*
X46750Y-34750D01*
X47000Y-39250D02*
X47000Y-35000D01*
X47000Y-55500D02*
X47000Y-54750D01*
X44500Y-48750D02*
X44500Y-46750D01*
X47000Y-54750D02*
X45500Y-53250D01*
X45500Y-53250D02*
X45500Y-52750D01*
X35000Y-46750D02*
X35000Y-45500D01*
X35000Y-45500D02*
X35250Y-45250D01*
X35250Y-45250D02*
X35250Y-39250D01*
X41250Y-47250D02*
X41000Y-47000D01*
X38000Y-27250D02*
X37250Y-26500D01*
X37250Y-26500D02*
X37250Y-17000D01*
X41500Y-47250D02*
X41250Y-47250D01*
X38000Y-36500D02*
X38000Y-29750D01*
X35500Y-47250D02*
X35000Y-46750D01*
X38000Y-29750D02*
X38000Y-27250D01*
X35250Y-39250D02*
X38000Y-36500D01*
X39000Y-47250D02*
X35500Y-47250D01*
X39250Y-47000D02*
X39000Y-47250D01*
X41000Y-47000D02*
X39250Y-47000D01*
X96250Y-52250D02*
X96250Y-54250D01*
X95500Y-52750D02*
X95500Y-54250D01*
X94250Y-51250D02*
X94250Y-48250D01*
X95750Y-49500D02*
X94750Y-50500D01*
X104250Y-49500D02*
X95750Y-49500D01*
X94750Y-54250D02*
X94750Y-50500D01*
X104750Y-47000D02*
X104750Y-49000D01*
X104750Y-49000D02*
X104250Y-49500D01*
X100750Y-41250D02*
X99250Y-42750D01*
X35000Y-44500D02*
X35000Y-42000D01*
X35250Y-38750D02*
X37750Y-36250D01*
X35000Y-39000D02*
X35250Y-38750D01*
X35000Y-40750D02*
X35000Y-42000D01*
X39250Y-47500D02*
X35250Y-47500D01*
X40750Y-47500D02*
X40500Y-47250D01*
X37750Y-27750D02*
X36750Y-26750D01*
X37750Y-31500D02*
X37750Y-27750D01*
X41000Y-47500D02*
X40750Y-47500D01*
X36750Y-26750D02*
X36750Y-16750D01*
X36750Y-16750D02*
X37500Y-16000D01*
X37500Y-16000D02*
X38500Y-16000D01*
X40500Y-47250D02*
X39500Y-47250D01*
X39500Y-47250D02*
X39250Y-47500D01*
X35250Y-47500D02*
X34750Y-47000D01*
X37750Y-31500D02*
X37750Y-34500D01*
X37750Y-36250D02*
X37750Y-34500D01*
X35000Y-40750D02*
X35000Y-39000D01*
X34750Y-45750D02*
X34750Y-45250D01*
X34750Y-47000D02*
X34750Y-45750D01*
X34750Y-45250D02*
X35000Y-45000D01*
X35000Y-45000D02*
X35000Y-44500D01*
X83250Y-54250D02*
X83250Y-52250D01*
X81250Y-51250D02*
X81250Y-48250D01*
X82500Y-54250D02*
X82500Y-52750D01*
X81750Y-54250D02*
X81750Y-52500D01*
X82750Y-49500D02*
X81750Y-50500D01*
X81750Y-50500D02*
X81750Y-52500D01*
X91750Y-47750D02*
X91750Y-49000D01*
X91750Y-49000D02*
X91250Y-49500D01*
X91250Y-49500D02*
X82750Y-49500D01*
X86250Y-43250D02*
X87750Y-41750D01*
X37500Y-28500D02*
X37000Y-28000D01*
X40500Y-47750D02*
X40500Y-47750D01*
X37500Y-29500D02*
X37500Y-31500D01*
X39500Y-47750D02*
X35000Y-47750D01*
X34750Y-40750D02*
X34750Y-38750D01*
X37500Y-29500D02*
X37500Y-28500D01*
X34750Y-40750D02*
X34750Y-42000D01*
X34750Y-38750D02*
X35000Y-38500D01*
X40250Y-47500D02*
X40000Y-47500D01*
X35000Y-47750D02*
X34500Y-47250D01*
X40000Y-47500D02*
X39750Y-47500D01*
X34750Y-44750D02*
X34750Y-42000D01*
X37500Y-31500D02*
X37500Y-34500D01*
X37500Y-36000D02*
X37500Y-34500D01*
X34500Y-47250D02*
X34500Y-45000D01*
X40500Y-47750D02*
X40250Y-47500D01*
X39750Y-47500D02*
X39500Y-47750D01*
X34500Y-45000D02*
X34750Y-44750D01*
X35000Y-38500D02*
X37500Y-36000D01*
X70250Y-52750D02*
X70250Y-54250D01*
X69500Y-54250D02*
X69500Y-52750D01*
X68250Y-50500D02*
X68250Y-48250D01*
X78750Y-49500D02*
X78750Y-49250D01*
X78500Y-49500D02*
X69750Y-49500D01*
X78750Y-47750D02*
X78750Y-48000D01*
X69750Y-49500D02*
X68750Y-50500D01*
X78750Y-48000D02*
X78750Y-49500D01*
X78750Y-49250D02*
X78500Y-49500D01*
X68750Y-50500D02*
X68750Y-54250D01*
X74750Y-41000D02*
X74250Y-41500D01*
X74250Y-41500D02*
X72750Y-43000D01*
X37250Y-30000D02*
X37000Y-29750D01*
X34750Y-48000D02*
X40000Y-48000D01*
X34750Y-38250D02*
X37250Y-35750D01*
X34500Y-38500D02*
X34750Y-38250D01*
X37250Y-30250D02*
X37250Y-31500D01*
X37250Y-30250D02*
X37250Y-30000D01*
X37250Y-31500D02*
X37250Y-34500D01*
X37250Y-35750D02*
X37250Y-34500D01*
X34500Y-40750D02*
X34500Y-38500D01*
X34250Y-47500D02*
X34250Y-44750D01*
X34750Y-48000D02*
X34250Y-47500D01*
X34500Y-44500D02*
X34500Y-43750D01*
X34250Y-44750D02*
X34500Y-44500D01*
X34500Y-40750D02*
X34500Y-43750D01*
X57250Y-52250D02*
X57250Y-54250D01*
X55250Y-51250D02*
X55250Y-50000D01*
X56500Y-52750D02*
X56500Y-54250D01*
X65750Y-47750D02*
X65750Y-48750D01*
X65750Y-49000D02*
X65250Y-49500D01*
X56750Y-49500D02*
X55750Y-50500D01*
X55750Y-50500D02*
X55750Y-54250D01*
X65750Y-48750D02*
X65750Y-49000D01*
X65250Y-49500D02*
X56750Y-49500D01*
X61750Y-41000D02*
X59750Y-43000D01*
X43000Y-26250D02*
X42500Y-25750D01*
X47750Y-34750D02*
X47250Y-34250D01*
X46750Y-40000D02*
X47750Y-39000D01*
X46750Y-41750D02*
X46750Y-40000D01*
X47500Y-42500D02*
X46750Y-41750D01*
X47500Y-44250D02*
X47500Y-42500D01*
X47750Y-39000D02*
X47750Y-34750D01*
X44250Y-26250D02*
X43000Y-26250D01*
X43000Y-26250D02*
X42500Y-25750D01*
G54D26*
X41500Y-39500D02*
X44000Y-39500D01*
X48000Y-40750D02*
X47750Y-40500D01*
X50000Y-69750D02*
X50000Y-69500D01*
X40500Y-40500D02*
X41500Y-39500D01*
X44500Y-42000D02*
X45000Y-41500D01*
X51000Y-57500D02*
X51250Y-57750D01*
X44000Y-39500D02*
X45000Y-40500D01*
X47500Y-40250D02*
X47500Y-41250D01*
X52750Y-69250D02*
X52750Y-69750D01*
X50000Y-69500D02*
X49750Y-69250D01*
X40500Y-16750D02*
X40500Y-12250D01*
X50250Y-70000D02*
X50000Y-69750D01*
X38500Y-40500D02*
X40500Y-40500D01*
X43000Y-42000D02*
X44500Y-42000D01*
X45000Y-40500D02*
X45000Y-41500D01*
X51250Y-57750D02*
X51250Y-58250D01*
X49500Y-70000D02*
X49750Y-70250D01*
X52750Y-69750D02*
X52500Y-70000D01*
X52500Y-70000D02*
X50250Y-70000D01*
G54D10*
G36*
X102450Y-63479D02*
X101979Y-63950D01*
X91729Y-63950D01*
X91200Y-64479D01*
X91200Y-65271D01*
X91525Y-65596D01*
X91439Y-65632D01*
X91285Y-65786D01*
X91251Y-65865D01*
X91132Y-65700D01*
X90946Y-65585D01*
X90887Y-65568D01*
X90800Y-65615D01*
X90800Y-66150D01*
X90800Y-66200D01*
X90800Y-66300D01*
X90800Y-66350D01*
X90800Y-66885D01*
X90887Y-66932D01*
X90946Y-66915D01*
X91132Y-66800D01*
X91251Y-66634D01*
X91285Y-66714D01*
X91439Y-66868D01*
X91573Y-66924D01*
X91549Y-66960D01*
X90700Y-66960D01*
X90700Y-66885D01*
X90700Y-66300D01*
X90700Y-66200D01*
X90700Y-65615D01*
X90613Y-65568D01*
X90554Y-65585D01*
X90368Y-65700D01*
X90240Y-65877D01*
X90190Y-66090D01*
X90190Y-66200D01*
X90700Y-66200D01*
X90700Y-66300D01*
X90190Y-66300D01*
X90190Y-66410D01*
X90240Y-66623D01*
X90368Y-66800D01*
X90554Y-66915D01*
X90613Y-66932D01*
X90700Y-66885D01*
X90700Y-66960D01*
X85750Y-66960D01*
X80061Y-66960D01*
X79996Y-66895D01*
X80061Y-66868D01*
X80215Y-66714D01*
X80250Y-66629D01*
X80285Y-66714D01*
X80439Y-66868D01*
X80641Y-66952D01*
X80859Y-66952D01*
X81061Y-66868D01*
X81215Y-66714D01*
X81250Y-66629D01*
X81285Y-66714D01*
X81439Y-66868D01*
X81641Y-66952D01*
X81859Y-66952D01*
X82061Y-66868D01*
X82215Y-66714D01*
X82250Y-66629D01*
X82285Y-66714D01*
X82439Y-66868D01*
X82641Y-66952D01*
X82859Y-66952D01*
X83061Y-66868D01*
X83215Y-66714D01*
X83250Y-66629D01*
X83285Y-66714D01*
X83439Y-66868D01*
X83641Y-66952D01*
X83859Y-66952D01*
X84061Y-66868D01*
X84191Y-66738D01*
X84191Y-66749D01*
X84229Y-66841D01*
X84299Y-66911D01*
X84390Y-66949D01*
X84489Y-66949D01*
X85109Y-66949D01*
X85201Y-66911D01*
X85271Y-66841D01*
X85309Y-66750D01*
X85309Y-66651D01*
X85309Y-65751D01*
X85271Y-65659D01*
X85201Y-65589D01*
X85110Y-65551D01*
X85011Y-65551D01*
X84391Y-65551D01*
X84299Y-65589D01*
X84229Y-65659D01*
X84191Y-65750D01*
X84191Y-65762D01*
X84061Y-65632D01*
X83859Y-65548D01*
X83641Y-65548D01*
X83439Y-65632D01*
X83285Y-65786D01*
X83250Y-65870D01*
X83215Y-65786D01*
X83061Y-65632D01*
X82859Y-65548D01*
X82641Y-65548D01*
X82439Y-65632D01*
X82285Y-65786D01*
X82250Y-65870D01*
X82215Y-65786D01*
X82061Y-65632D01*
X81859Y-65548D01*
X81641Y-65548D01*
X81439Y-65632D01*
X81285Y-65786D01*
X81250Y-65870D01*
X81215Y-65786D01*
X81061Y-65632D01*
X80859Y-65548D01*
X80641Y-65548D01*
X80439Y-65632D01*
X80285Y-65786D01*
X80250Y-65870D01*
X80215Y-65786D01*
X80061Y-65632D01*
X79859Y-65548D01*
X79641Y-65548D01*
X79439Y-65632D01*
X79285Y-65786D01*
X79250Y-65870D01*
X79215Y-65786D01*
X79061Y-65632D01*
X78859Y-65548D01*
X78641Y-65548D01*
X78439Y-65632D01*
X78285Y-65786D01*
X78251Y-65865D01*
X78132Y-65700D01*
X77946Y-65585D01*
X77887Y-65568D01*
X77800Y-65615D01*
X77800Y-66150D01*
X77800Y-66200D01*
X77800Y-66300D01*
X77800Y-66350D01*
X77800Y-66885D01*
X77887Y-66932D01*
X77946Y-66915D01*
X78132Y-66800D01*
X78251Y-66634D01*
X78285Y-66714D01*
X78439Y-66868D01*
X78641Y-66952D01*
X78859Y-66952D01*
X79061Y-66868D01*
X79215Y-66714D01*
X79250Y-66629D01*
X79285Y-66714D01*
X79439Y-66868D01*
X79503Y-66895D01*
X79439Y-66960D01*
X77700Y-66960D01*
X77700Y-66885D01*
X77700Y-66300D01*
X77700Y-66200D01*
X77700Y-65615D01*
X77613Y-65568D01*
X77554Y-65585D01*
X77368Y-65700D01*
X77240Y-65877D01*
X77190Y-66090D01*
X77190Y-66200D01*
X77700Y-66200D01*
X77700Y-66300D01*
X77190Y-66300D01*
X77190Y-66410D01*
X77240Y-66623D01*
X77368Y-66800D01*
X77554Y-66915D01*
X77613Y-66932D01*
X77700Y-66885D01*
X77700Y-66960D01*
X71750Y-66960D01*
X67061Y-66960D01*
X66996Y-66895D01*
X67061Y-66868D01*
X67215Y-66714D01*
X67250Y-66629D01*
X67285Y-66714D01*
X67439Y-66868D01*
X67641Y-66952D01*
X67859Y-66952D01*
X68061Y-66868D01*
X68215Y-66714D01*
X68250Y-66629D01*
X68285Y-66714D01*
X68439Y-66868D01*
X68641Y-66952D01*
X68859Y-66952D01*
X69061Y-66868D01*
X69215Y-66714D01*
X69250Y-66629D01*
X69285Y-66714D01*
X69439Y-66868D01*
X69641Y-66952D01*
X69859Y-66952D01*
X70061Y-66868D01*
X70215Y-66714D01*
X70250Y-66629D01*
X70285Y-66714D01*
X70439Y-66868D01*
X70641Y-66952D01*
X70859Y-66952D01*
X71061Y-66868D01*
X71191Y-66738D01*
X71191Y-66749D01*
X71229Y-66841D01*
X71299Y-66911D01*
X71390Y-66949D01*
X71489Y-66949D01*
X72109Y-66949D01*
X72201Y-66911D01*
X72271Y-66841D01*
X72309Y-66750D01*
X72309Y-66651D01*
X72309Y-65751D01*
X72271Y-65659D01*
X72201Y-65589D01*
X72110Y-65551D01*
X72011Y-65551D01*
X71391Y-65551D01*
X71299Y-65589D01*
X71229Y-65659D01*
X71191Y-65750D01*
X71191Y-65762D01*
X71061Y-65632D01*
X70859Y-65548D01*
X70641Y-65548D01*
X70439Y-65632D01*
X70285Y-65786D01*
X70250Y-65870D01*
X70215Y-65786D01*
X70061Y-65632D01*
X69859Y-65548D01*
X69641Y-65548D01*
X69439Y-65632D01*
X69285Y-65786D01*
X69250Y-65870D01*
X69215Y-65786D01*
X69061Y-65632D01*
X68859Y-65548D01*
X68641Y-65548D01*
X68439Y-65632D01*
X68285Y-65786D01*
X68250Y-65870D01*
X68215Y-65786D01*
X68061Y-65632D01*
X67859Y-65548D01*
X67641Y-65548D01*
X67439Y-65632D01*
X67285Y-65786D01*
X67250Y-65870D01*
X67215Y-65786D01*
X67061Y-65632D01*
X66859Y-65548D01*
X66641Y-65548D01*
X66439Y-65632D01*
X66285Y-65786D01*
X66250Y-65870D01*
X66215Y-65786D01*
X66061Y-65632D01*
X65859Y-65548D01*
X65641Y-65548D01*
X65439Y-65632D01*
X65285Y-65786D01*
X65251Y-65865D01*
X65132Y-65700D01*
X64946Y-65585D01*
X64887Y-65568D01*
X64800Y-65615D01*
X64800Y-66150D01*
X64800Y-66200D01*
X64800Y-66300D01*
X64800Y-66350D01*
X64800Y-66885D01*
X64887Y-66932D01*
X64946Y-66915D01*
X65132Y-66800D01*
X65251Y-66634D01*
X65285Y-66714D01*
X65439Y-66868D01*
X65641Y-66952D01*
X65859Y-66952D01*
X66061Y-66868D01*
X66215Y-66714D01*
X66250Y-66629D01*
X66285Y-66714D01*
X66439Y-66868D01*
X66503Y-66895D01*
X66439Y-66960D01*
X64700Y-66960D01*
X64700Y-66885D01*
X64700Y-66300D01*
X64700Y-66200D01*
X64700Y-65615D01*
X64613Y-65568D01*
X64554Y-65585D01*
X64368Y-65700D01*
X64240Y-65877D01*
X64190Y-66090D01*
X64190Y-66200D01*
X64700Y-66200D01*
X64700Y-66300D01*
X64190Y-66300D01*
X64190Y-66410D01*
X64240Y-66623D01*
X64368Y-66800D01*
X64554Y-66915D01*
X64613Y-66932D01*
X64700Y-66885D01*
X64700Y-66960D01*
X60561Y-66960D01*
X60491Y-66890D01*
X60335Y-66825D01*
X60166Y-66825D01*
X60010Y-66889D01*
X59939Y-66960D01*
X54061Y-66960D01*
X53996Y-66895D01*
X54061Y-66868D01*
X54215Y-66714D01*
X54250Y-66629D01*
X54285Y-66714D01*
X54439Y-66868D01*
X54641Y-66952D01*
X54859Y-66952D01*
X55061Y-66868D01*
X55215Y-66714D01*
X55250Y-66629D01*
X55285Y-66714D01*
X55439Y-66868D01*
X55641Y-66952D01*
X55859Y-66952D01*
X56061Y-66868D01*
X56215Y-66714D01*
X56250Y-66629D01*
X56285Y-66714D01*
X56439Y-66868D01*
X56641Y-66952D01*
X56859Y-66952D01*
X57061Y-66868D01*
X57215Y-66714D01*
X57250Y-66629D01*
X57285Y-66714D01*
X57439Y-66868D01*
X57641Y-66952D01*
X57859Y-66952D01*
X58061Y-66868D01*
X58191Y-66738D01*
X58191Y-66749D01*
X58229Y-66841D01*
X58299Y-66911D01*
X58390Y-66949D01*
X58489Y-66949D01*
X59109Y-66949D01*
X59201Y-66911D01*
X59271Y-66841D01*
X59309Y-66750D01*
X59309Y-66651D01*
X59309Y-65751D01*
X59271Y-65659D01*
X59201Y-65589D01*
X59110Y-65551D01*
X59011Y-65551D01*
X58391Y-65551D01*
X58299Y-65589D01*
X58229Y-65659D01*
X58191Y-65750D01*
X58191Y-65762D01*
X58061Y-65632D01*
X57859Y-65548D01*
X57641Y-65548D01*
X57439Y-65632D01*
X57285Y-65786D01*
X57250Y-65870D01*
X57215Y-65786D01*
X57061Y-65632D01*
X56859Y-65548D01*
X56641Y-65548D01*
X56439Y-65632D01*
X56285Y-65786D01*
X56250Y-65870D01*
X56215Y-65786D01*
X56061Y-65632D01*
X55859Y-65548D01*
X55641Y-65548D01*
X55490Y-65610D01*
X55610Y-65491D01*
X55675Y-65335D01*
X55675Y-65300D01*
X60021Y-65300D01*
X60300Y-65021D01*
X60300Y-64479D01*
X60021Y-64200D01*
X55771Y-64200D01*
X55550Y-63979D01*
X55550Y-63021D01*
X56021Y-62550D01*
X59729Y-62550D01*
X61118Y-63939D01*
X61139Y-63990D01*
X61259Y-64110D01*
X61310Y-64131D01*
X62479Y-65300D01*
X87271Y-65300D01*
X90271Y-62300D01*
X99271Y-62300D01*
X100021Y-61550D01*
X100199Y-61550D01*
X100259Y-61610D01*
X100415Y-61675D01*
X100584Y-61675D01*
X100740Y-61611D01*
X100801Y-61550D01*
X100949Y-61550D01*
X101009Y-61610D01*
X101165Y-61675D01*
X101334Y-61675D01*
X101490Y-61611D01*
X101551Y-61550D01*
X101979Y-61550D01*
X102450Y-62021D01*
X102450Y-63479D01*
X102450Y-63479D01*
G37*
G54D27*
X102450Y-63479D02*
X101979Y-63950D01*
X91729Y-63950D01*
X91200Y-64479D01*
X91200Y-65271D01*
X91525Y-65596D01*
X91439Y-65632D01*
X91285Y-65786D01*
X91251Y-65865D01*
X91132Y-65700D01*
X90946Y-65585D01*
X90887Y-65568D01*
X90800Y-65615D01*
X90800Y-66150D01*
X90800Y-66200D01*
X90800Y-66300D01*
X90800Y-66350D01*
X90800Y-66885D01*
X90887Y-66932D01*
X90946Y-66915D01*
X91132Y-66800D01*
X91251Y-66634D01*
X91285Y-66714D01*
X91439Y-66868D01*
X91573Y-66924D01*
X91549Y-66960D01*
X90700Y-66960D01*
X90700Y-66885D01*
X90700Y-66300D01*
X90700Y-66200D01*
X90700Y-65615D01*
X90613Y-65568D01*
X90554Y-65585D01*
X90368Y-65700D01*
X90240Y-65877D01*
X90190Y-66090D01*
X90190Y-66200D01*
X90700Y-66200D01*
X90700Y-66300D01*
X90190Y-66300D01*
X90190Y-66410D01*
X90240Y-66623D01*
X90368Y-66800D01*
X90554Y-66915D01*
X90613Y-66932D01*
X90700Y-66885D01*
X90700Y-66960D01*
X85750Y-66960D01*
X80061Y-66960D01*
X79996Y-66895D01*
X80061Y-66868D01*
X80215Y-66714D01*
X80250Y-66629D01*
X80285Y-66714D01*
X80439Y-66868D01*
X80641Y-66952D01*
X80859Y-66952D01*
X81061Y-66868D01*
X81215Y-66714D01*
X81250Y-66629D01*
X81285Y-66714D01*
X81439Y-66868D01*
X81641Y-66952D01*
X81859Y-66952D01*
X82061Y-66868D01*
X82215Y-66714D01*
X82250Y-66629D01*
X82285Y-66714D01*
X82439Y-66868D01*
X82641Y-66952D01*
X82859Y-66952D01*
X83061Y-66868D01*
X83215Y-66714D01*
X83250Y-66629D01*
X83285Y-66714D01*
X83439Y-66868D01*
X83641Y-66952D01*
X83859Y-66952D01*
X84061Y-66868D01*
X84191Y-66738D01*
X84191Y-66749D01*
X84229Y-66841D01*
X84299Y-66911D01*
X84390Y-66949D01*
X84489Y-66949D01*
X85109Y-66949D01*
X85201Y-66911D01*
X85271Y-66841D01*
X85309Y-66750D01*
X85309Y-66651D01*
X85309Y-65751D01*
X85271Y-65659D01*
X85201Y-65589D01*
X85110Y-65551D01*
X85011Y-65551D01*
X84391Y-65551D01*
X84299Y-65589D01*
X84229Y-65659D01*
X84191Y-65750D01*
X84191Y-65762D01*
X84061Y-65632D01*
X83859Y-65548D01*
X83641Y-65548D01*
X83439Y-65632D01*
X83285Y-65786D01*
X83250Y-65870D01*
X83215Y-65786D01*
X83061Y-65632D01*
X82859Y-65548D01*
X82641Y-65548D01*
X82439Y-65632D01*
X82285Y-65786D01*
X82250Y-65870D01*
X82215Y-65786D01*
X82061Y-65632D01*
X81859Y-65548D01*
X81641Y-65548D01*
X81439Y-65632D01*
X81285Y-65786D01*
X81250Y-65870D01*
X81215Y-65786D01*
X81061Y-65632D01*
X80859Y-65548D01*
X80641Y-65548D01*
X80439Y-65632D01*
X80285Y-65786D01*
X80250Y-65870D01*
X80215Y-65786D01*
X80061Y-65632D01*
X79859Y-65548D01*
X79641Y-65548D01*
X79439Y-65632D01*
X79285Y-65786D01*
X79250Y-65870D01*
X79215Y-65786D01*
X79061Y-65632D01*
X78859Y-65548D01*
X78641Y-65548D01*
X78439Y-65632D01*
X78285Y-65786D01*
X78251Y-65865D01*
X78132Y-65700D01*
X77946Y-65585D01*
X77887Y-65568D01*
X77800Y-65615D01*
X77800Y-66150D01*
X77800Y-66200D01*
X77800Y-66300D01*
X77800Y-66350D01*
X77800Y-66885D01*
X77887Y-66932D01*
X77946Y-66915D01*
X78132Y-66800D01*
X78251Y-66634D01*
X78285Y-66714D01*
X78439Y-66868D01*
X78641Y-66952D01*
X78859Y-66952D01*
X79061Y-66868D01*
X79215Y-66714D01*
X79250Y-66629D01*
X79285Y-66714D01*
X79439Y-66868D01*
X79503Y-66895D01*
X79439Y-66960D01*
X77700Y-66960D01*
X77700Y-66885D01*
X77700Y-66300D01*
X77700Y-66200D01*
X77700Y-65615D01*
X77613Y-65568D01*
X77554Y-65585D01*
X77368Y-65700D01*
X77240Y-65877D01*
X77190Y-66090D01*
X77190Y-66200D01*
X77700Y-66200D01*
X77700Y-66300D01*
X77190Y-66300D01*
X77190Y-66410D01*
X77240Y-66623D01*
X77368Y-66800D01*
X77554Y-66915D01*
X77613Y-66932D01*
X77700Y-66885D01*
X77700Y-66960D01*
X71750Y-66960D01*
X67061Y-66960D01*
X66996Y-66895D01*
X67061Y-66868D01*
X67215Y-66714D01*
X67250Y-66629D01*
X67285Y-66714D01*
X67439Y-66868D01*
X67641Y-66952D01*
X67859Y-66952D01*
X68061Y-66868D01*
X68215Y-66714D01*
X68250Y-66629D01*
X68285Y-66714D01*
X68439Y-66868D01*
X68641Y-66952D01*
X68859Y-66952D01*
X69061Y-66868D01*
X69215Y-66714D01*
X69250Y-66629D01*
X69285Y-66714D01*
X69439Y-66868D01*
X69641Y-66952D01*
X69859Y-66952D01*
X70061Y-66868D01*
X70215Y-66714D01*
X70250Y-66629D01*
X70285Y-66714D01*
X70439Y-66868D01*
X70641Y-66952D01*
X70859Y-66952D01*
X71061Y-66868D01*
X71191Y-66738D01*
X71191Y-66749D01*
X71229Y-66841D01*
X71299Y-66911D01*
X71390Y-66949D01*
X71489Y-66949D01*
X72109Y-66949D01*
X72201Y-66911D01*
X72271Y-66841D01*
X72309Y-66750D01*
X72309Y-66651D01*
X72309Y-65751D01*
X72271Y-65659D01*
X72201Y-65589D01*
X72110Y-65551D01*
X72011Y-65551D01*
X71391Y-65551D01*
X71299Y-65589D01*
X71229Y-65659D01*
X71191Y-65750D01*
X71191Y-65762D01*
X71061Y-65632D01*
X70859Y-65548D01*
X70641Y-65548D01*
X70439Y-65632D01*
X70285Y-65786D01*
X70250Y-65870D01*
X70215Y-65786D01*
X70061Y-65632D01*
X69859Y-65548D01*
X69641Y-65548D01*
X69439Y-65632D01*
X69285Y-65786D01*
X69250Y-65870D01*
X69215Y-65786D01*
X69061Y-65632D01*
X68859Y-65548D01*
X68641Y-65548D01*
X68439Y-65632D01*
X68285Y-65786D01*
X68250Y-65870D01*
X68215Y-65786D01*
X68061Y-65632D01*
X67859Y-65548D01*
X67641Y-65548D01*
X67439Y-65632D01*
X67285Y-65786D01*
X67250Y-65870D01*
X67215Y-65786D01*
X67061Y-65632D01*
X66859Y-65548D01*
X66641Y-65548D01*
X66439Y-65632D01*
X66285Y-65786D01*
X66250Y-65870D01*
X66215Y-65786D01*
X66061Y-65632D01*
X65859Y-65548D01*
X65641Y-65548D01*
X65439Y-65632D01*
X65285Y-65786D01*
X65251Y-65865D01*
X65132Y-65700D01*
X64946Y-65585D01*
X64887Y-65568D01*
X64800Y-65615D01*
X64800Y-66150D01*
X64800Y-66200D01*
X64800Y-66300D01*
X64800Y-66350D01*
X64800Y-66885D01*
X64887Y-66932D01*
X64946Y-66915D01*
X65132Y-66800D01*
X65251Y-66634D01*
X65285Y-66714D01*
X65439Y-66868D01*
X65641Y-66952D01*
X65859Y-66952D01*
X66061Y-66868D01*
X66215Y-66714D01*
X66250Y-66629D01*
X66285Y-66714D01*
X66439Y-66868D01*
X66503Y-66895D01*
X66439Y-66960D01*
X64700Y-66960D01*
X64700Y-66885D01*
X64700Y-66300D01*
X64700Y-66200D01*
X64700Y-65615D01*
X64613Y-65568D01*
X64554Y-65585D01*
X64368Y-65700D01*
X64240Y-65877D01*
X64190Y-66090D01*
X64190Y-66200D01*
X64700Y-66200D01*
X64700Y-66300D01*
X64190Y-66300D01*
X64190Y-66410D01*
X64240Y-66623D01*
X64368Y-66800D01*
X64554Y-66915D01*
X64613Y-66932D01*
X64700Y-66885D01*
X64700Y-66960D01*
X60561Y-66960D01*
X60491Y-66890D01*
X60335Y-66825D01*
X60166Y-66825D01*
X60010Y-66889D01*
X59939Y-66960D01*
X54061Y-66960D01*
X53996Y-66895D01*
X54061Y-66868D01*
X54215Y-66714D01*
X54250Y-66629D01*
X54285Y-66714D01*
X54439Y-66868D01*
X54641Y-66952D01*
X54859Y-66952D01*
X55061Y-66868D01*
X55215Y-66714D01*
X55250Y-66629D01*
X55285Y-66714D01*
X55439Y-66868D01*
X55641Y-66952D01*
X55859Y-66952D01*
X56061Y-66868D01*
X56215Y-66714D01*
X56250Y-66629D01*
X56285Y-66714D01*
X56439Y-66868D01*
X56641Y-66952D01*
X56859Y-66952D01*
X57061Y-66868D01*
X57215Y-66714D01*
X57250Y-66629D01*
X57285Y-66714D01*
X57439Y-66868D01*
X57641Y-66952D01*
X57859Y-66952D01*
X58061Y-66868D01*
X58191Y-66738D01*
X58191Y-66749D01*
X58229Y-66841D01*
X58299Y-66911D01*
X58390Y-66949D01*
X58489Y-66949D01*
X59109Y-66949D01*
X59201Y-66911D01*
X59271Y-66841D01*
X59309Y-66750D01*
X59309Y-66651D01*
X59309Y-65751D01*
X59271Y-65659D01*
X59201Y-65589D01*
X59110Y-65551D01*
X59011Y-65551D01*
X58391Y-65551D01*
X58299Y-65589D01*
X58229Y-65659D01*
X58191Y-65750D01*
X58191Y-65762D01*
X58061Y-65632D01*
X57859Y-65548D01*
X57641Y-65548D01*
X57439Y-65632D01*
X57285Y-65786D01*
X57250Y-65870D01*
X57215Y-65786D01*
X57061Y-65632D01*
X56859Y-65548D01*
X56641Y-65548D01*
X56439Y-65632D01*
X56285Y-65786D01*
X56250Y-65870D01*
X56215Y-65786D01*
X56061Y-65632D01*
X55859Y-65548D01*
X55641Y-65548D01*
X55490Y-65610D01*
X55610Y-65491D01*
X55675Y-65335D01*
X55675Y-65300D01*
X60021Y-65300D01*
X60300Y-65021D01*
X60300Y-64479D01*
X60021Y-64200D01*
X55771Y-64200D01*
X55550Y-63979D01*
X55550Y-63021D01*
X56021Y-62550D01*
X59729Y-62550D01*
X61118Y-63939D01*
X61139Y-63990D01*
X61259Y-64110D01*
X61310Y-64131D01*
X62479Y-65300D01*
X87271Y-65300D01*
X90271Y-62300D01*
X99271Y-62300D01*
X100021Y-61550D01*
X100199Y-61550D01*
X100259Y-61610D01*
X100415Y-61675D01*
X100584Y-61675D01*
X100740Y-61611D01*
X100801Y-61550D01*
X100949Y-61550D01*
X101009Y-61610D01*
X101165Y-61675D01*
X101334Y-61675D01*
X101490Y-61611D01*
X101551Y-61550D01*
X101979Y-61550D01*
X102450Y-62021D01*
X102450Y-63479D01*
G54D10*
G36*
X107200Y-63729D02*
X106729Y-64200D01*
X106021Y-64200D01*
X105550Y-63729D01*
X105550Y-57479D01*
X104809Y-56738D01*
X104809Y-55750D01*
X104809Y-55651D01*
X104809Y-54751D01*
X104771Y-54659D01*
X104701Y-54589D01*
X104610Y-54551D01*
X104511Y-54551D01*
X103891Y-54551D01*
X103799Y-54589D01*
X103729Y-54659D01*
X103691Y-54750D01*
X103691Y-54762D01*
X103561Y-54632D01*
X103359Y-54548D01*
X103141Y-54548D01*
X102939Y-54632D01*
X102785Y-54786D01*
X102750Y-54870D01*
X102715Y-54786D01*
X102561Y-54632D01*
X102359Y-54548D01*
X102141Y-54548D01*
X101939Y-54632D01*
X101785Y-54786D01*
X101750Y-54870D01*
X101715Y-54786D01*
X101561Y-54632D01*
X101359Y-54548D01*
X101141Y-54548D01*
X100939Y-54632D01*
X100785Y-54786D01*
X100750Y-54870D01*
X100715Y-54786D01*
X100561Y-54632D01*
X100359Y-54548D01*
X100141Y-54548D01*
X99939Y-54632D01*
X99785Y-54786D01*
X99750Y-54870D01*
X99715Y-54786D01*
X99561Y-54632D01*
X99359Y-54548D01*
X99141Y-54548D01*
X98939Y-54632D01*
X98785Y-54786D01*
X98750Y-54870D01*
X98715Y-54786D01*
X98561Y-54632D01*
X98359Y-54548D01*
X98141Y-54548D01*
X97939Y-54632D01*
X97785Y-54786D01*
X97751Y-54865D01*
X97632Y-54700D01*
X97446Y-54585D01*
X97387Y-54568D01*
X97300Y-54615D01*
X97300Y-55150D01*
X97300Y-55200D01*
X97300Y-55300D01*
X97300Y-55350D01*
X97300Y-55885D01*
X97387Y-55932D01*
X97446Y-55915D01*
X97632Y-55800D01*
X97751Y-55634D01*
X97785Y-55714D01*
X97939Y-55868D01*
X98141Y-55952D01*
X98359Y-55952D01*
X98561Y-55868D01*
X98715Y-55714D01*
X98750Y-55629D01*
X98785Y-55714D01*
X98939Y-55868D01*
X99141Y-55952D01*
X99359Y-55952D01*
X99561Y-55868D01*
X99715Y-55714D01*
X99750Y-55629D01*
X99785Y-55714D01*
X99939Y-55868D01*
X100141Y-55952D01*
X100359Y-55952D01*
X100561Y-55868D01*
X100715Y-55714D01*
X100750Y-55629D01*
X100785Y-55714D01*
X100939Y-55868D01*
X101141Y-55952D01*
X101359Y-55952D01*
X101561Y-55868D01*
X101715Y-55714D01*
X101750Y-55629D01*
X101785Y-55714D01*
X101939Y-55868D01*
X102141Y-55952D01*
X102359Y-55952D01*
X102561Y-55868D01*
X102715Y-55714D01*
X102750Y-55629D01*
X102785Y-55714D01*
X102939Y-55868D01*
X103141Y-55952D01*
X103359Y-55952D01*
X103561Y-55868D01*
X103691Y-55738D01*
X103691Y-55749D01*
X103729Y-55841D01*
X103799Y-55911D01*
X103890Y-55949D01*
X103989Y-55949D01*
X104609Y-55949D01*
X104701Y-55911D01*
X104771Y-55841D01*
X104809Y-55750D01*
X104809Y-56738D01*
X104521Y-56450D01*
X99551Y-56450D01*
X99491Y-56390D01*
X99335Y-56325D01*
X99166Y-56325D01*
X99010Y-56389D01*
X98949Y-56450D01*
X97200Y-56450D01*
X97200Y-55885D01*
X97200Y-55300D01*
X97200Y-55200D01*
X97200Y-54615D01*
X97113Y-54568D01*
X97054Y-54585D01*
X96868Y-54700D01*
X96740Y-54877D01*
X96690Y-55090D01*
X96690Y-55200D01*
X97200Y-55200D01*
X97200Y-55300D01*
X96690Y-55300D01*
X96690Y-55410D01*
X96740Y-55623D01*
X96868Y-55800D01*
X97054Y-55915D01*
X97113Y-55932D01*
X97200Y-55885D01*
X97200Y-56450D01*
X91809Y-56450D01*
X91809Y-55750D01*
X91809Y-55651D01*
X91809Y-54751D01*
X91771Y-54659D01*
X91701Y-54589D01*
X91610Y-54551D01*
X91511Y-54551D01*
X90891Y-54551D01*
X90799Y-54589D01*
X90729Y-54659D01*
X90691Y-54750D01*
X90691Y-54762D01*
X90561Y-54632D01*
X90359Y-54548D01*
X90141Y-54548D01*
X89939Y-54632D01*
X89785Y-54786D01*
X89750Y-54870D01*
X89715Y-54786D01*
X89561Y-54632D01*
X89359Y-54548D01*
X89141Y-54548D01*
X88939Y-54632D01*
X88785Y-54786D01*
X88750Y-54870D01*
X88715Y-54786D01*
X88561Y-54632D01*
X88359Y-54548D01*
X88141Y-54548D01*
X87939Y-54632D01*
X87785Y-54786D01*
X87750Y-54870D01*
X87715Y-54786D01*
X87561Y-54632D01*
X87359Y-54548D01*
X87141Y-54548D01*
X86939Y-54632D01*
X86785Y-54786D01*
X86750Y-54870D01*
X86715Y-54786D01*
X86561Y-54632D01*
X86359Y-54548D01*
X86141Y-54548D01*
X85939Y-54632D01*
X85785Y-54786D01*
X85750Y-54870D01*
X85715Y-54786D01*
X85561Y-54632D01*
X85359Y-54548D01*
X85141Y-54548D01*
X84939Y-54632D01*
X84785Y-54786D01*
X84751Y-54865D01*
X84632Y-54700D01*
X84446Y-54585D01*
X84387Y-54568D01*
X84300Y-54615D01*
X84300Y-55150D01*
X84300Y-55200D01*
X84300Y-55300D01*
X84300Y-55350D01*
X84300Y-55885D01*
X84387Y-55932D01*
X84446Y-55915D01*
X84632Y-55800D01*
X84751Y-55634D01*
X84785Y-55714D01*
X84939Y-55868D01*
X85141Y-55952D01*
X85359Y-55952D01*
X85561Y-55868D01*
X85715Y-55714D01*
X85750Y-55629D01*
X85785Y-55714D01*
X85939Y-55868D01*
X86141Y-55952D01*
X86359Y-55952D01*
X86561Y-55868D01*
X86715Y-55714D01*
X86750Y-55629D01*
X86785Y-55714D01*
X86939Y-55868D01*
X87141Y-55952D01*
X87359Y-55952D01*
X87561Y-55868D01*
X87715Y-55714D01*
X87750Y-55629D01*
X87785Y-55714D01*
X87939Y-55868D01*
X88141Y-55952D01*
X88359Y-55952D01*
X88561Y-55868D01*
X88715Y-55714D01*
X88750Y-55629D01*
X88785Y-55714D01*
X88939Y-55868D01*
X89141Y-55952D01*
X89359Y-55952D01*
X89561Y-55868D01*
X89715Y-55714D01*
X89750Y-55629D01*
X89785Y-55714D01*
X89939Y-55868D01*
X90141Y-55952D01*
X90359Y-55952D01*
X90561Y-55868D01*
X90691Y-55738D01*
X90691Y-55749D01*
X90729Y-55841D01*
X90799Y-55911D01*
X90890Y-55949D01*
X90989Y-55949D01*
X91609Y-55949D01*
X91701Y-55911D01*
X91771Y-55841D01*
X91809Y-55750D01*
X91809Y-56450D01*
X86551Y-56450D01*
X86491Y-56390D01*
X86335Y-56325D01*
X86166Y-56325D01*
X86010Y-56389D01*
X85949Y-56450D01*
X84200Y-56450D01*
X84200Y-55885D01*
X84200Y-55300D01*
X84200Y-55200D01*
X84200Y-54615D01*
X84113Y-54568D01*
X84054Y-54585D01*
X83868Y-54700D01*
X83740Y-54877D01*
X83690Y-55090D01*
X83690Y-55200D01*
X84200Y-55200D01*
X84200Y-55300D01*
X83690Y-55300D01*
X83690Y-55410D01*
X83740Y-55623D01*
X83868Y-55800D01*
X84054Y-55915D01*
X84113Y-55932D01*
X84200Y-55885D01*
X84200Y-56450D01*
X78809Y-56450D01*
X78809Y-55750D01*
X78809Y-55651D01*
X78809Y-54751D01*
X78771Y-54659D01*
X78701Y-54589D01*
X78610Y-54551D01*
X78511Y-54551D01*
X77891Y-54551D01*
X77799Y-54589D01*
X77729Y-54659D01*
X77691Y-54750D01*
X77691Y-54762D01*
X77561Y-54632D01*
X77359Y-54548D01*
X77141Y-54548D01*
X76939Y-54632D01*
X76785Y-54786D01*
X76750Y-54870D01*
X76715Y-54786D01*
X76561Y-54632D01*
X76359Y-54548D01*
X76141Y-54548D01*
X75939Y-54632D01*
X75785Y-54786D01*
X75750Y-54870D01*
X75715Y-54786D01*
X75561Y-54632D01*
X75359Y-54548D01*
X75141Y-54548D01*
X74939Y-54632D01*
X74785Y-54786D01*
X74750Y-54870D01*
X74715Y-54786D01*
X74561Y-54632D01*
X74359Y-54548D01*
X74141Y-54548D01*
X73939Y-54632D01*
X73785Y-54786D01*
X73750Y-54870D01*
X73715Y-54786D01*
X73561Y-54632D01*
X73359Y-54548D01*
X73141Y-54548D01*
X72939Y-54632D01*
X72785Y-54786D01*
X72750Y-54870D01*
X72715Y-54786D01*
X72561Y-54632D01*
X72359Y-54548D01*
X72141Y-54548D01*
X71939Y-54632D01*
X71785Y-54786D01*
X71751Y-54865D01*
X71632Y-54700D01*
X71446Y-54585D01*
X71387Y-54568D01*
X71300Y-54615D01*
X71300Y-55150D01*
X71300Y-55200D01*
X71300Y-55300D01*
X71300Y-55350D01*
X71300Y-55885D01*
X71387Y-55932D01*
X71446Y-55915D01*
X71632Y-55800D01*
X71751Y-55634D01*
X71785Y-55714D01*
X71939Y-55868D01*
X72141Y-55952D01*
X72359Y-55952D01*
X72561Y-55868D01*
X72715Y-55714D01*
X72750Y-55629D01*
X72785Y-55714D01*
X72939Y-55868D01*
X73141Y-55952D01*
X73359Y-55952D01*
X73561Y-55868D01*
X73715Y-55714D01*
X73750Y-55629D01*
X73785Y-55714D01*
X73939Y-55868D01*
X74141Y-55952D01*
X74359Y-55952D01*
X74561Y-55868D01*
X74715Y-55714D01*
X74750Y-55629D01*
X74785Y-55714D01*
X74939Y-55868D01*
X75141Y-55952D01*
X75359Y-55952D01*
X75561Y-55868D01*
X75715Y-55714D01*
X75750Y-55629D01*
X75785Y-55714D01*
X75939Y-55868D01*
X76141Y-55952D01*
X76359Y-55952D01*
X76561Y-55868D01*
X76715Y-55714D01*
X76750Y-55629D01*
X76785Y-55714D01*
X76939Y-55868D01*
X77141Y-55952D01*
X77359Y-55952D01*
X77561Y-55868D01*
X77691Y-55738D01*
X77691Y-55749D01*
X77729Y-55841D01*
X77799Y-55911D01*
X77890Y-55949D01*
X77989Y-55949D01*
X78609Y-55949D01*
X78701Y-55911D01*
X78771Y-55841D01*
X78809Y-55750D01*
X78809Y-56450D01*
X73551Y-56450D01*
X73491Y-56390D01*
X73335Y-56325D01*
X73166Y-56325D01*
X73010Y-56389D01*
X72949Y-56450D01*
X71200Y-56450D01*
X71200Y-55885D01*
X71200Y-55300D01*
X71200Y-55200D01*
X71200Y-54615D01*
X71113Y-54568D01*
X71054Y-54585D01*
X70868Y-54700D01*
X70740Y-54877D01*
X70690Y-55090D01*
X70690Y-55200D01*
X71200Y-55200D01*
X71200Y-55300D01*
X70690Y-55300D01*
X70690Y-55410D01*
X70740Y-55623D01*
X70868Y-55800D01*
X71054Y-55915D01*
X71113Y-55932D01*
X71200Y-55885D01*
X71200Y-56450D01*
X65809Y-56450D01*
X65809Y-55750D01*
X65809Y-55651D01*
X65809Y-54751D01*
X65771Y-54659D01*
X65701Y-54589D01*
X65610Y-54551D01*
X65511Y-54551D01*
X64891Y-54551D01*
X64799Y-54589D01*
X64729Y-54659D01*
X64691Y-54750D01*
X64691Y-54762D01*
X64561Y-54632D01*
X64359Y-54548D01*
X64141Y-54548D01*
X63939Y-54632D01*
X63785Y-54786D01*
X63750Y-54870D01*
X63715Y-54786D01*
X63561Y-54632D01*
X63359Y-54548D01*
X63141Y-54548D01*
X62939Y-54632D01*
X62785Y-54786D01*
X62750Y-54870D01*
X62715Y-54786D01*
X62561Y-54632D01*
X62359Y-54548D01*
X62141Y-54548D01*
X61939Y-54632D01*
X61785Y-54786D01*
X61750Y-54870D01*
X61715Y-54786D01*
X61561Y-54632D01*
X61359Y-54548D01*
X61141Y-54548D01*
X60939Y-54632D01*
X60785Y-54786D01*
X60750Y-54870D01*
X60715Y-54786D01*
X60561Y-54632D01*
X60359Y-54548D01*
X60141Y-54548D01*
X59939Y-54632D01*
X59785Y-54786D01*
X59750Y-54870D01*
X59715Y-54786D01*
X59561Y-54632D01*
X59359Y-54548D01*
X59141Y-54548D01*
X58939Y-54632D01*
X58785Y-54786D01*
X58751Y-54865D01*
X58632Y-54700D01*
X58446Y-54585D01*
X58387Y-54568D01*
X58300Y-54615D01*
X58300Y-55150D01*
X58300Y-55200D01*
X58300Y-55300D01*
X58300Y-55350D01*
X58300Y-55885D01*
X58387Y-55932D01*
X58446Y-55915D01*
X58632Y-55800D01*
X58751Y-55634D01*
X58785Y-55714D01*
X58939Y-55868D01*
X59141Y-55952D01*
X59359Y-55952D01*
X59561Y-55868D01*
X59715Y-55714D01*
X59750Y-55629D01*
X59785Y-55714D01*
X59939Y-55868D01*
X60141Y-55952D01*
X60359Y-55952D01*
X60561Y-55868D01*
X60715Y-55714D01*
X60750Y-55629D01*
X60785Y-55714D01*
X60939Y-55868D01*
X61141Y-55952D01*
X61359Y-55952D01*
X61561Y-55868D01*
X61715Y-55714D01*
X61750Y-55629D01*
X61785Y-55714D01*
X61939Y-55868D01*
X62141Y-55952D01*
X62359Y-55952D01*
X62561Y-55868D01*
X62715Y-55714D01*
X62750Y-55629D01*
X62785Y-55714D01*
X62939Y-55868D01*
X63141Y-55952D01*
X63359Y-55952D01*
X63561Y-55868D01*
X63715Y-55714D01*
X63750Y-55629D01*
X63785Y-55714D01*
X63939Y-55868D01*
X64141Y-55952D01*
X64359Y-55952D01*
X64561Y-55868D01*
X64691Y-55738D01*
X64691Y-55749D01*
X64729Y-55841D01*
X64799Y-55911D01*
X64890Y-55949D01*
X64989Y-55949D01*
X65609Y-55949D01*
X65701Y-55911D01*
X65771Y-55841D01*
X65809Y-55750D01*
X65809Y-56450D01*
X60551Y-56450D01*
X60491Y-56390D01*
X60335Y-56325D01*
X60166Y-56325D01*
X60010Y-56389D01*
X59949Y-56450D01*
X58200Y-56450D01*
X58200Y-55885D01*
X58200Y-55300D01*
X58200Y-55200D01*
X58200Y-54615D01*
X58113Y-54568D01*
X58054Y-54585D01*
X57868Y-54700D01*
X57740Y-54877D01*
X57690Y-55090D01*
X57690Y-55200D01*
X58200Y-55200D01*
X58200Y-55300D01*
X57690Y-55300D01*
X57690Y-55410D01*
X57740Y-55623D01*
X57868Y-55800D01*
X58054Y-55915D01*
X58113Y-55932D01*
X58200Y-55885D01*
X58200Y-56450D01*
X54551Y-56450D01*
X54491Y-56390D01*
X54335Y-56325D01*
X54166Y-56325D01*
X54010Y-56389D01*
X53949Y-56450D01*
X50229Y-56450D01*
X49450Y-57229D01*
X49450Y-59021D01*
X50479Y-60050D01*
X51479Y-60050D01*
X51950Y-60521D01*
X51950Y-62021D01*
X52479Y-62550D01*
X54479Y-62550D01*
X54950Y-63021D01*
X54950Y-63979D01*
X54729Y-64200D01*
X52479Y-64200D01*
X52200Y-64479D01*
X52200Y-65021D01*
X52478Y-65300D01*
X54825Y-65300D01*
X54825Y-65334D01*
X54889Y-65490D01*
X55009Y-65610D01*
X54859Y-65548D01*
X54641Y-65548D01*
X54439Y-65632D01*
X54285Y-65786D01*
X54250Y-65870D01*
X54215Y-65786D01*
X54061Y-65632D01*
X53859Y-65548D01*
X53641Y-65548D01*
X53439Y-65632D01*
X53285Y-65786D01*
X53250Y-65870D01*
X53215Y-65786D01*
X53061Y-65632D01*
X52859Y-65548D01*
X52641Y-65548D01*
X52439Y-65632D01*
X52285Y-65786D01*
X52251Y-65865D01*
X52132Y-65700D01*
X51946Y-65585D01*
X51887Y-65568D01*
X51800Y-65615D01*
X51800Y-66150D01*
X51800Y-66200D01*
X51800Y-66300D01*
X51800Y-66350D01*
X51800Y-66885D01*
X51887Y-66932D01*
X51946Y-66915D01*
X52132Y-66800D01*
X52251Y-66634D01*
X52285Y-66714D01*
X52439Y-66868D01*
X52641Y-66952D01*
X52859Y-66952D01*
X53061Y-66868D01*
X53215Y-66714D01*
X53250Y-66629D01*
X53285Y-66714D01*
X53439Y-66868D01*
X53503Y-66895D01*
X53390Y-67009D01*
X53325Y-67165D01*
X53325Y-67334D01*
X53372Y-67450D01*
X51700Y-67450D01*
X51700Y-66885D01*
X51700Y-66300D01*
X51700Y-66200D01*
X51700Y-65615D01*
X51613Y-65568D01*
X51554Y-65585D01*
X51368Y-65700D01*
X51240Y-65877D01*
X51190Y-66090D01*
X51190Y-66200D01*
X51700Y-66200D01*
X51700Y-66300D01*
X51190Y-66300D01*
X51190Y-66410D01*
X51240Y-66623D01*
X51368Y-66800D01*
X51554Y-66915D01*
X51613Y-66932D01*
X51700Y-66885D01*
X51700Y-67450D01*
X49979Y-67450D01*
X48525Y-68904D01*
X48525Y-64105D01*
X48525Y-63896D01*
X48525Y-61105D01*
X48525Y-60896D01*
X48445Y-60703D01*
X48298Y-60555D01*
X48164Y-60499D01*
X48297Y-60445D01*
X48445Y-60298D01*
X48525Y-60105D01*
X48525Y-59896D01*
X48525Y-57105D01*
X48525Y-56896D01*
X48445Y-56703D01*
X48298Y-56555D01*
X48105Y-56475D01*
X47896Y-56475D01*
X47703Y-56555D01*
X47555Y-56702D01*
X47525Y-56774D01*
X47525Y-55605D01*
X47525Y-55396D01*
X47445Y-55203D01*
X47298Y-55055D01*
X47290Y-55051D01*
X47290Y-54750D01*
X47268Y-54639D01*
X47205Y-54545D01*
X46519Y-53859D01*
X46519Y-49574D01*
X46508Y-49370D01*
X46452Y-49233D01*
X46361Y-49210D01*
X46290Y-49281D01*
X46290Y-49139D01*
X46267Y-49048D01*
X46074Y-48981D01*
X45870Y-48992D01*
X45733Y-49048D01*
X45710Y-49139D01*
X46000Y-49429D01*
X46290Y-49139D01*
X46290Y-49281D01*
X46071Y-49500D01*
X46361Y-49790D01*
X46452Y-49767D01*
X46519Y-49574D01*
X46519Y-53859D01*
X46290Y-53630D01*
X46290Y-49861D01*
X46000Y-49571D01*
X45929Y-49642D01*
X45929Y-49500D01*
X45639Y-49210D01*
X45548Y-49233D01*
X45525Y-49299D01*
X45525Y-43605D01*
X45525Y-43396D01*
X45525Y-41605D01*
X45525Y-41396D01*
X45445Y-41203D01*
X45310Y-41067D01*
X45310Y-40500D01*
X45286Y-40382D01*
X45286Y-40381D01*
X45219Y-40281D01*
X44219Y-39281D01*
X44119Y-39214D01*
X44000Y-39190D01*
X41500Y-39190D01*
X41381Y-39214D01*
X41281Y-39281D01*
X40611Y-39951D01*
X40151Y-39951D01*
X40059Y-39989D01*
X39989Y-40059D01*
X39951Y-40150D01*
X39951Y-40190D01*
X38932Y-40190D01*
X38798Y-40055D01*
X38605Y-39975D01*
X38396Y-39975D01*
X38203Y-40055D01*
X38055Y-40202D01*
X37975Y-40395D01*
X37975Y-40604D01*
X38055Y-40797D01*
X38202Y-40945D01*
X38276Y-40975D01*
X38274Y-40976D01*
X38175Y-40976D01*
X38084Y-41014D01*
X38014Y-41084D01*
X37976Y-41176D01*
X37975Y-41388D01*
X38037Y-41450D01*
X38400Y-41450D01*
X38450Y-41450D01*
X38550Y-41450D01*
X38600Y-41450D01*
X38963Y-41450D01*
X39025Y-41388D01*
X39024Y-41176D01*
X38986Y-41084D01*
X38916Y-41014D01*
X38825Y-40976D01*
X38726Y-40976D01*
X38722Y-40975D01*
X38797Y-40945D01*
X38932Y-40810D01*
X39951Y-40810D01*
X39951Y-40849D01*
X39989Y-40941D01*
X40059Y-41011D01*
X40150Y-41049D01*
X40212Y-41049D01*
X40192Y-41122D01*
X40500Y-41429D01*
X40808Y-41122D01*
X40787Y-41049D01*
X40849Y-41049D01*
X40941Y-41011D01*
X41011Y-40941D01*
X41049Y-40850D01*
X41049Y-40751D01*
X41049Y-40389D01*
X41628Y-39810D01*
X43872Y-39810D01*
X44690Y-40628D01*
X44690Y-41067D01*
X44555Y-41202D01*
X44475Y-41395D01*
X44475Y-41587D01*
X44372Y-41690D01*
X43593Y-41690D01*
X43593Y-41091D01*
X43582Y-40856D01*
X43513Y-40690D01*
X43414Y-40657D01*
X43343Y-40728D01*
X43343Y-40586D01*
X43310Y-40487D01*
X43091Y-40407D01*
X42856Y-40418D01*
X42690Y-40487D01*
X42657Y-40586D01*
X43000Y-40929D01*
X43343Y-40586D01*
X43343Y-40728D01*
X43071Y-41000D01*
X43414Y-41343D01*
X43513Y-41310D01*
X43593Y-41091D01*
X43593Y-41690D01*
X43519Y-41690D01*
X43508Y-41661D01*
X43339Y-41492D01*
X43319Y-41484D01*
X43343Y-41414D01*
X43000Y-41071D01*
X42929Y-41142D01*
X42929Y-41000D01*
X42586Y-40657D01*
X42487Y-40690D01*
X42407Y-40909D01*
X42418Y-41144D01*
X42487Y-41310D01*
X42586Y-41343D01*
X42929Y-41000D01*
X42929Y-41142D01*
X42657Y-41414D01*
X42680Y-41484D01*
X42661Y-41492D01*
X42492Y-41661D01*
X42401Y-41881D01*
X42401Y-42119D01*
X42492Y-42339D01*
X42567Y-42414D01*
X42509Y-42439D01*
X42439Y-42509D01*
X42401Y-42600D01*
X42401Y-42699D01*
X42401Y-43399D01*
X42439Y-43491D01*
X42509Y-43561D01*
X42600Y-43599D01*
X42699Y-43599D01*
X43399Y-43599D01*
X43491Y-43561D01*
X43561Y-43491D01*
X43599Y-43400D01*
X43599Y-43301D01*
X43599Y-42601D01*
X43561Y-42509D01*
X43491Y-42439D01*
X43432Y-42414D01*
X43508Y-42339D01*
X43519Y-42310D01*
X44500Y-42310D01*
X44618Y-42286D01*
X44619Y-42286D01*
X44719Y-42219D01*
X44913Y-42025D01*
X45104Y-42025D01*
X45297Y-41945D01*
X45445Y-41798D01*
X45525Y-41605D01*
X45525Y-43396D01*
X45445Y-43203D01*
X45298Y-43055D01*
X45105Y-42975D01*
X44896Y-42975D01*
X44703Y-43055D01*
X44555Y-43202D01*
X44475Y-43395D01*
X44475Y-43604D01*
X44555Y-43797D01*
X44702Y-43945D01*
X44895Y-44025D01*
X45104Y-44025D01*
X45297Y-43945D01*
X45445Y-43798D01*
X45525Y-43605D01*
X45525Y-49299D01*
X45481Y-49426D01*
X45492Y-49630D01*
X45548Y-49767D01*
X45639Y-49790D01*
X45929Y-49500D01*
X45929Y-49642D01*
X45710Y-49861D01*
X45733Y-49952D01*
X45926Y-50019D01*
X46130Y-50008D01*
X46267Y-49952D01*
X46290Y-49861D01*
X46290Y-53630D01*
X45790Y-53130D01*
X45790Y-53061D01*
X45860Y-52991D01*
X45925Y-52835D01*
X45925Y-52666D01*
X45861Y-52510D01*
X45741Y-52390D01*
X45585Y-52325D01*
X45416Y-52325D01*
X45260Y-52389D01*
X45140Y-52509D01*
X45075Y-52665D01*
X45075Y-52834D01*
X45139Y-52990D01*
X45210Y-53061D01*
X45210Y-53250D01*
X45232Y-53361D01*
X45295Y-53455D01*
X46710Y-54870D01*
X46710Y-55052D01*
X46703Y-55055D01*
X46555Y-55202D01*
X46475Y-55395D01*
X46475Y-55604D01*
X46555Y-55797D01*
X46702Y-55945D01*
X46895Y-56025D01*
X47104Y-56025D01*
X47297Y-55945D01*
X47445Y-55798D01*
X47525Y-55605D01*
X47525Y-56774D01*
X47475Y-56895D01*
X47475Y-57104D01*
X47555Y-57297D01*
X47702Y-57445D01*
X47895Y-57525D01*
X48104Y-57525D01*
X48297Y-57445D01*
X48445Y-57298D01*
X48525Y-57105D01*
X48525Y-59896D01*
X48445Y-59703D01*
X48298Y-59555D01*
X48105Y-59475D01*
X47896Y-59475D01*
X47703Y-59555D01*
X47555Y-59702D01*
X47499Y-59835D01*
X47445Y-59703D01*
X47298Y-59555D01*
X47105Y-59475D01*
X46896Y-59475D01*
X46703Y-59555D01*
X46555Y-59702D01*
X46475Y-59895D01*
X46475Y-60104D01*
X46555Y-60297D01*
X46702Y-60445D01*
X46895Y-60525D01*
X47104Y-60525D01*
X47297Y-60445D01*
X47445Y-60298D01*
X47500Y-60164D01*
X47555Y-60297D01*
X47702Y-60445D01*
X47835Y-60500D01*
X47703Y-60555D01*
X47555Y-60702D01*
X47475Y-60895D01*
X47475Y-61104D01*
X47555Y-61297D01*
X47702Y-61445D01*
X47895Y-61525D01*
X48104Y-61525D01*
X48297Y-61445D01*
X48445Y-61298D01*
X48525Y-61105D01*
X48525Y-63896D01*
X48445Y-63703D01*
X48298Y-63555D01*
X48105Y-63475D01*
X47896Y-63475D01*
X47703Y-63555D01*
X47555Y-63702D01*
X47475Y-63895D01*
X47475Y-64025D01*
X47445Y-63953D01*
X47298Y-63805D01*
X47105Y-63725D01*
X46896Y-63725D01*
X46703Y-63805D01*
X46555Y-63952D01*
X46475Y-64145D01*
X46475Y-64354D01*
X46555Y-64547D01*
X46702Y-64695D01*
X46895Y-64775D01*
X47104Y-64775D01*
X47297Y-64695D01*
X47445Y-64548D01*
X47525Y-64355D01*
X47525Y-64224D01*
X47555Y-64297D01*
X47702Y-64445D01*
X47895Y-64525D01*
X48104Y-64525D01*
X48297Y-64445D01*
X48445Y-64298D01*
X48525Y-64105D01*
X48525Y-68904D01*
X47979Y-69450D01*
X47525Y-69450D01*
X47525Y-65605D01*
X47525Y-65396D01*
X47445Y-65203D01*
X47298Y-65055D01*
X47105Y-64975D01*
X46896Y-64975D01*
X46703Y-65055D01*
X46555Y-65202D01*
X46475Y-65395D01*
X46475Y-65604D01*
X46555Y-65797D01*
X46702Y-65945D01*
X46895Y-66025D01*
X47104Y-66025D01*
X47297Y-65945D01*
X47445Y-65798D01*
X47525Y-65605D01*
X47525Y-69450D01*
X44925Y-69450D01*
X44925Y-48835D01*
X44925Y-48666D01*
X44861Y-48510D01*
X44790Y-48439D01*
X44790Y-47061D01*
X44860Y-46991D01*
X44925Y-46835D01*
X44925Y-46666D01*
X44861Y-46510D01*
X44741Y-46390D01*
X44585Y-46325D01*
X44416Y-46325D01*
X44260Y-46389D01*
X44140Y-46509D01*
X44075Y-46665D01*
X44075Y-46834D01*
X44139Y-46990D01*
X44210Y-47061D01*
X44210Y-48439D01*
X44140Y-48509D01*
X44075Y-48665D01*
X44075Y-48834D01*
X44139Y-48990D01*
X44259Y-49110D01*
X44415Y-49175D01*
X44584Y-49175D01*
X44740Y-49111D01*
X44860Y-48991D01*
X44925Y-48835D01*
X44925Y-69450D01*
X44525Y-69450D01*
X44525Y-64355D01*
X44525Y-64146D01*
X44525Y-60105D01*
X44525Y-59896D01*
X44525Y-55605D01*
X44525Y-55396D01*
X44445Y-55203D01*
X44298Y-55055D01*
X44105Y-54975D01*
X43896Y-54975D01*
X43703Y-55055D01*
X43555Y-55202D01*
X43525Y-55274D01*
X43525Y-49605D01*
X43525Y-49396D01*
X43445Y-49203D01*
X43298Y-49055D01*
X43105Y-48975D01*
X42896Y-48975D01*
X42703Y-49055D01*
X42555Y-49202D01*
X42475Y-49395D01*
X42475Y-49604D01*
X42555Y-49797D01*
X42702Y-49945D01*
X42895Y-50025D01*
X43104Y-50025D01*
X43297Y-49945D01*
X43445Y-49798D01*
X43525Y-49605D01*
X43525Y-55274D01*
X43475Y-55395D01*
X43475Y-55604D01*
X43555Y-55797D01*
X43702Y-55945D01*
X43895Y-56025D01*
X44104Y-56025D01*
X44297Y-55945D01*
X44445Y-55798D01*
X44525Y-55605D01*
X44525Y-59896D01*
X44445Y-59703D01*
X44298Y-59555D01*
X44105Y-59475D01*
X43896Y-59475D01*
X43703Y-59555D01*
X43555Y-59702D01*
X43475Y-59895D01*
X43475Y-60104D01*
X43555Y-60297D01*
X43702Y-60445D01*
X43895Y-60525D01*
X44104Y-60525D01*
X44297Y-60445D01*
X44445Y-60298D01*
X44525Y-60105D01*
X44525Y-64146D01*
X44445Y-63953D01*
X44298Y-63805D01*
X44105Y-63725D01*
X43896Y-63725D01*
X43703Y-63805D01*
X43555Y-63952D01*
X43475Y-64145D01*
X43475Y-64354D01*
X43555Y-64547D01*
X43702Y-64695D01*
X43895Y-64775D01*
X44104Y-64775D01*
X44297Y-64695D01*
X44445Y-64548D01*
X44525Y-64355D01*
X44525Y-69450D01*
X44519Y-69450D01*
X44519Y-65574D01*
X44508Y-65370D01*
X44452Y-65233D01*
X44361Y-65210D01*
X44290Y-65281D01*
X44290Y-65139D01*
X44267Y-65048D01*
X44074Y-64981D01*
X43870Y-64992D01*
X43733Y-65048D01*
X43710Y-65139D01*
X44000Y-65429D01*
X44290Y-65139D01*
X44290Y-65281D01*
X44071Y-65500D01*
X44361Y-65790D01*
X44452Y-65767D01*
X44519Y-65574D01*
X44519Y-69450D01*
X44290Y-69450D01*
X44290Y-65861D01*
X44000Y-65571D01*
X43929Y-65642D01*
X43929Y-65500D01*
X43639Y-65210D01*
X43548Y-65233D01*
X43481Y-65426D01*
X43492Y-65630D01*
X43548Y-65767D01*
X43639Y-65790D01*
X43929Y-65500D01*
X43929Y-65642D01*
X43710Y-65861D01*
X43733Y-65952D01*
X43926Y-66019D01*
X44130Y-66008D01*
X44267Y-65952D01*
X44290Y-65861D01*
X44290Y-69450D01*
X42974Y-69450D01*
X42974Y-68130D01*
X42974Y-67870D01*
X42974Y-62630D01*
X42974Y-62370D01*
X42974Y-57130D01*
X42974Y-56870D01*
X42874Y-56630D01*
X42691Y-56446D01*
X42450Y-56346D01*
X42190Y-56346D01*
X41950Y-56446D01*
X41766Y-56629D01*
X41713Y-56756D01*
X41692Y-56704D01*
X41596Y-56675D01*
X41525Y-56746D01*
X41525Y-56604D01*
X41496Y-56508D01*
X41335Y-56450D01*
X41335Y-51492D01*
X41335Y-51259D01*
X41335Y-49742D01*
X41335Y-49509D01*
X41246Y-49294D01*
X41082Y-49129D01*
X40867Y-49040D01*
X40634Y-49040D01*
X40419Y-49129D01*
X40254Y-49293D01*
X40165Y-49508D01*
X40165Y-49741D01*
X40254Y-49956D01*
X40418Y-50121D01*
X40633Y-50210D01*
X40866Y-50210D01*
X41081Y-50121D01*
X41246Y-49957D01*
X41335Y-49742D01*
X41335Y-51259D01*
X41246Y-51044D01*
X41082Y-50879D01*
X40867Y-50790D01*
X40634Y-50790D01*
X40419Y-50879D01*
X40254Y-51043D01*
X40165Y-51258D01*
X40165Y-51491D01*
X40254Y-51706D01*
X40418Y-51871D01*
X40633Y-51960D01*
X40866Y-51960D01*
X41081Y-51871D01*
X41246Y-51707D01*
X41335Y-51492D01*
X41335Y-56450D01*
X41284Y-56432D01*
X41061Y-56444D01*
X40904Y-56508D01*
X40875Y-56604D01*
X41200Y-56929D01*
X41525Y-56604D01*
X41525Y-56746D01*
X41271Y-57000D01*
X41596Y-57325D01*
X41692Y-57296D01*
X41711Y-57240D01*
X41766Y-57370D01*
X41949Y-57554D01*
X42190Y-57654D01*
X42450Y-57654D01*
X42690Y-57554D01*
X42874Y-57371D01*
X42974Y-57130D01*
X42974Y-62370D01*
X42874Y-62130D01*
X42691Y-61946D01*
X42450Y-61846D01*
X42190Y-61846D01*
X41950Y-61946D01*
X41766Y-62129D01*
X41713Y-62256D01*
X41692Y-62204D01*
X41596Y-62175D01*
X41525Y-62246D01*
X41525Y-62104D01*
X41525Y-57396D01*
X41200Y-57071D01*
X41129Y-57142D01*
X41129Y-57000D01*
X40804Y-56675D01*
X40708Y-56704D01*
X40632Y-56916D01*
X40644Y-57139D01*
X40708Y-57296D01*
X40804Y-57325D01*
X41129Y-57000D01*
X41129Y-57142D01*
X40875Y-57396D01*
X40904Y-57492D01*
X41116Y-57568D01*
X41339Y-57556D01*
X41496Y-57492D01*
X41525Y-57396D01*
X41525Y-62104D01*
X41496Y-62008D01*
X41284Y-61932D01*
X41061Y-61944D01*
X40904Y-62008D01*
X40875Y-62104D01*
X41200Y-62429D01*
X41525Y-62104D01*
X41525Y-62246D01*
X41271Y-62500D01*
X41596Y-62825D01*
X41692Y-62796D01*
X41711Y-62740D01*
X41766Y-62870D01*
X41949Y-63054D01*
X42190Y-63154D01*
X42450Y-63154D01*
X42690Y-63054D01*
X42874Y-62871D01*
X42974Y-62630D01*
X42974Y-67870D01*
X42874Y-67630D01*
X42691Y-67446D01*
X42450Y-67346D01*
X42190Y-67346D01*
X41950Y-67446D01*
X41766Y-67629D01*
X41713Y-67756D01*
X41692Y-67704D01*
X41596Y-67675D01*
X41525Y-67746D01*
X41525Y-67604D01*
X41525Y-62896D01*
X41200Y-62571D01*
X41129Y-62642D01*
X41129Y-62500D01*
X40804Y-62175D01*
X40708Y-62204D01*
X40632Y-62416D01*
X40644Y-62639D01*
X40708Y-62796D01*
X40804Y-62825D01*
X41129Y-62500D01*
X41129Y-62642D01*
X40875Y-62896D01*
X40904Y-62992D01*
X41116Y-63068D01*
X41339Y-63056D01*
X41496Y-62992D01*
X41525Y-62896D01*
X41525Y-67604D01*
X41496Y-67508D01*
X41284Y-67432D01*
X41061Y-67444D01*
X40904Y-67508D01*
X40875Y-67604D01*
X41200Y-67929D01*
X41525Y-67604D01*
X41525Y-67746D01*
X41271Y-68000D01*
X41596Y-68325D01*
X41692Y-68296D01*
X41711Y-68240D01*
X41766Y-68370D01*
X41949Y-68554D01*
X42190Y-68654D01*
X42450Y-68654D01*
X42690Y-68554D01*
X42874Y-68371D01*
X42974Y-68130D01*
X42974Y-69450D01*
X41525Y-69450D01*
X41525Y-68396D01*
X41200Y-68071D01*
X41129Y-68142D01*
X41129Y-68000D01*
X40804Y-67675D01*
X40708Y-67704D01*
X40632Y-67916D01*
X40644Y-68139D01*
X40708Y-68296D01*
X40804Y-68325D01*
X41129Y-68000D01*
X41129Y-68142D01*
X40875Y-68396D01*
X40904Y-68492D01*
X41116Y-68568D01*
X41339Y-68556D01*
X41496Y-68492D01*
X41525Y-68396D01*
X41525Y-69450D01*
X40575Y-69450D01*
X40575Y-68115D01*
X40575Y-67886D01*
X40575Y-62615D01*
X40575Y-62386D01*
X40575Y-57115D01*
X40575Y-56886D01*
X40488Y-56675D01*
X40326Y-56513D01*
X40115Y-56425D01*
X39886Y-56425D01*
X39675Y-56512D01*
X39513Y-56674D01*
X39425Y-56885D01*
X39425Y-57114D01*
X39512Y-57325D01*
X39674Y-57487D01*
X39885Y-57575D01*
X40114Y-57575D01*
X40325Y-57488D01*
X40487Y-57326D01*
X40575Y-57115D01*
X40575Y-62386D01*
X40488Y-62175D01*
X40326Y-62013D01*
X40115Y-61925D01*
X39886Y-61925D01*
X39675Y-62012D01*
X39513Y-62174D01*
X39425Y-62385D01*
X39425Y-62614D01*
X39512Y-62825D01*
X39674Y-62987D01*
X39885Y-63075D01*
X40114Y-63075D01*
X40325Y-62988D01*
X40487Y-62826D01*
X40575Y-62615D01*
X40575Y-67886D01*
X40488Y-67675D01*
X40326Y-67513D01*
X40115Y-67425D01*
X39886Y-67425D01*
X39675Y-67512D01*
X39513Y-67674D01*
X39425Y-67885D01*
X39425Y-68114D01*
X39512Y-68325D01*
X39674Y-68487D01*
X39885Y-68575D01*
X40114Y-68575D01*
X40325Y-68488D01*
X40487Y-68326D01*
X40575Y-68115D01*
X40575Y-69450D01*
X39375Y-69450D01*
X39375Y-68115D01*
X39375Y-67886D01*
X39375Y-62615D01*
X39375Y-62386D01*
X39375Y-57115D01*
X39375Y-56886D01*
X39288Y-56675D01*
X39126Y-56513D01*
X38915Y-56425D01*
X38835Y-56425D01*
X38835Y-51492D01*
X38835Y-51259D01*
X38835Y-49742D01*
X38835Y-49509D01*
X38746Y-49294D01*
X38582Y-49129D01*
X38367Y-49040D01*
X38134Y-49040D01*
X37919Y-49129D01*
X37754Y-49293D01*
X37665Y-49508D01*
X37665Y-49741D01*
X37754Y-49956D01*
X37918Y-50121D01*
X38133Y-50210D01*
X38366Y-50210D01*
X38581Y-50121D01*
X38746Y-49957D01*
X38835Y-49742D01*
X38835Y-51259D01*
X38746Y-51044D01*
X38582Y-50879D01*
X38367Y-50790D01*
X38134Y-50790D01*
X37919Y-50879D01*
X37754Y-51043D01*
X37665Y-51258D01*
X37665Y-51491D01*
X37754Y-51706D01*
X37918Y-51871D01*
X38133Y-51960D01*
X38366Y-51960D01*
X38581Y-51871D01*
X38746Y-51707D01*
X38835Y-51492D01*
X38835Y-56425D01*
X38686Y-56425D01*
X38475Y-56512D01*
X38313Y-56674D01*
X38282Y-56746D01*
X38234Y-56630D01*
X38051Y-56446D01*
X37810Y-56346D01*
X37550Y-56346D01*
X37310Y-56446D01*
X37126Y-56629D01*
X37026Y-56870D01*
X37026Y-57130D01*
X37126Y-57370D01*
X37309Y-57554D01*
X37550Y-57654D01*
X37810Y-57654D01*
X38050Y-57554D01*
X38234Y-57371D01*
X38282Y-57253D01*
X38312Y-57325D01*
X38474Y-57487D01*
X38685Y-57575D01*
X38914Y-57575D01*
X39125Y-57488D01*
X39287Y-57326D01*
X39375Y-57115D01*
X39375Y-62386D01*
X39288Y-62175D01*
X39126Y-62013D01*
X38915Y-61925D01*
X38686Y-61925D01*
X38475Y-62012D01*
X38313Y-62174D01*
X38282Y-62246D01*
X38234Y-62130D01*
X38051Y-61946D01*
X37810Y-61846D01*
X37550Y-61846D01*
X37310Y-61946D01*
X37126Y-62129D01*
X37026Y-62370D01*
X37026Y-62630D01*
X37126Y-62870D01*
X37309Y-63054D01*
X37550Y-63154D01*
X37810Y-63154D01*
X38050Y-63054D01*
X38234Y-62871D01*
X38282Y-62753D01*
X38312Y-62825D01*
X38474Y-62987D01*
X38685Y-63075D01*
X38914Y-63075D01*
X39125Y-62988D01*
X39287Y-62826D01*
X39375Y-62615D01*
X39375Y-67886D01*
X39288Y-67675D01*
X39126Y-67513D01*
X38915Y-67425D01*
X38686Y-67425D01*
X38475Y-67512D01*
X38313Y-67674D01*
X38282Y-67746D01*
X38234Y-67630D01*
X38051Y-67446D01*
X37810Y-67346D01*
X37550Y-67346D01*
X37310Y-67446D01*
X37126Y-67629D01*
X37026Y-67870D01*
X37026Y-68130D01*
X37126Y-68370D01*
X37309Y-68554D01*
X37550Y-68654D01*
X37810Y-68654D01*
X38050Y-68554D01*
X38234Y-68371D01*
X38282Y-68253D01*
X38312Y-68325D01*
X38474Y-68487D01*
X38685Y-68575D01*
X38914Y-68575D01*
X39125Y-68488D01*
X39287Y-68326D01*
X39375Y-68115D01*
X39375Y-69450D01*
X36521Y-69450D01*
X35550Y-68479D01*
X35550Y-48290D01*
X39689Y-48290D01*
X39759Y-48360D01*
X39915Y-48425D01*
X40084Y-48425D01*
X40240Y-48361D01*
X40360Y-48241D01*
X40391Y-48165D01*
X40415Y-48175D01*
X40584Y-48175D01*
X40740Y-48111D01*
X40860Y-47991D01*
X40891Y-47915D01*
X40915Y-47925D01*
X41084Y-47925D01*
X41240Y-47861D01*
X41360Y-47741D01*
X41391Y-47665D01*
X41415Y-47675D01*
X41584Y-47675D01*
X41740Y-47611D01*
X41860Y-47491D01*
X41925Y-47335D01*
X41925Y-47166D01*
X41861Y-47010D01*
X41741Y-46890D01*
X41585Y-46825D01*
X41416Y-46825D01*
X41287Y-46877D01*
X41205Y-46795D01*
X41111Y-46732D01*
X41049Y-46719D01*
X41049Y-44850D01*
X41049Y-44751D01*
X41049Y-44151D01*
X41043Y-44136D01*
X41043Y-43579D01*
X41043Y-41579D01*
X41032Y-41366D01*
X40972Y-41219D01*
X40878Y-41192D01*
X40571Y-41500D01*
X40878Y-41808D01*
X40972Y-41781D01*
X41043Y-41579D01*
X41043Y-43579D01*
X41032Y-43366D01*
X40972Y-43219D01*
X40878Y-43192D01*
X40808Y-43262D01*
X40808Y-43122D01*
X40808Y-41878D01*
X40500Y-41571D01*
X40429Y-41641D01*
X40429Y-41500D01*
X40122Y-41192D01*
X40028Y-41219D01*
X39957Y-41421D01*
X39968Y-41634D01*
X40028Y-41781D01*
X40122Y-41808D01*
X40429Y-41500D01*
X40429Y-41641D01*
X40192Y-41878D01*
X40219Y-41972D01*
X40421Y-42043D01*
X40634Y-42032D01*
X40781Y-41972D01*
X40808Y-41878D01*
X40808Y-43122D01*
X40781Y-43028D01*
X40579Y-42957D01*
X40366Y-42968D01*
X40219Y-43028D01*
X40192Y-43122D01*
X40500Y-43429D01*
X40808Y-43122D01*
X40808Y-43262D01*
X40571Y-43500D01*
X40878Y-43808D01*
X40972Y-43781D01*
X41043Y-43579D01*
X41043Y-44136D01*
X41011Y-44059D01*
X40941Y-43989D01*
X40850Y-43951D01*
X40787Y-43951D01*
X40808Y-43878D01*
X40500Y-43571D01*
X40429Y-43641D01*
X40429Y-43500D01*
X40122Y-43192D01*
X40028Y-43219D01*
X39957Y-43421D01*
X39968Y-43634D01*
X40028Y-43781D01*
X40122Y-43808D01*
X40429Y-43500D01*
X40429Y-43641D01*
X40192Y-43878D01*
X40212Y-43951D01*
X40151Y-43951D01*
X40059Y-43989D01*
X39989Y-44059D01*
X39951Y-44150D01*
X39951Y-44249D01*
X39951Y-44849D01*
X39989Y-44941D01*
X40059Y-45011D01*
X40150Y-45049D01*
X40249Y-45049D01*
X40849Y-45049D01*
X40941Y-45011D01*
X41011Y-44941D01*
X41049Y-44850D01*
X41049Y-46719D01*
X41000Y-46710D01*
X39250Y-46710D01*
X39139Y-46732D01*
X39045Y-46795D01*
X39025Y-46815D01*
X39025Y-44605D01*
X39025Y-44396D01*
X38945Y-44203D01*
X38798Y-44055D01*
X38723Y-44024D01*
X38726Y-44024D01*
X38825Y-44024D01*
X38916Y-43986D01*
X38986Y-43916D01*
X39024Y-43824D01*
X39025Y-43612D01*
X39025Y-43388D01*
X39025Y-41612D01*
X38963Y-41550D01*
X38550Y-41550D01*
X38550Y-41963D01*
X38612Y-42025D01*
X38726Y-42024D01*
X38825Y-42024D01*
X38916Y-41986D01*
X38986Y-41916D01*
X39024Y-41824D01*
X39025Y-41612D01*
X39025Y-43388D01*
X39024Y-43176D01*
X38986Y-43084D01*
X38916Y-43014D01*
X38825Y-42976D01*
X38726Y-42976D01*
X38612Y-42975D01*
X38550Y-43037D01*
X38550Y-43450D01*
X38963Y-43450D01*
X39025Y-43388D01*
X39025Y-43612D01*
X38963Y-43550D01*
X38600Y-43550D01*
X38550Y-43550D01*
X38450Y-43550D01*
X38450Y-43450D01*
X38450Y-43037D01*
X38450Y-41963D01*
X38450Y-41550D01*
X38037Y-41550D01*
X37975Y-41612D01*
X37976Y-41824D01*
X38014Y-41916D01*
X38084Y-41986D01*
X38175Y-42024D01*
X38274Y-42024D01*
X38388Y-42025D01*
X38450Y-41963D01*
X38450Y-43037D01*
X38388Y-42975D01*
X38274Y-42976D01*
X38175Y-42976D01*
X38084Y-43014D01*
X38014Y-43084D01*
X37976Y-43176D01*
X37975Y-43388D01*
X38037Y-43450D01*
X38450Y-43450D01*
X38450Y-43550D01*
X38400Y-43550D01*
X38037Y-43550D01*
X37975Y-43612D01*
X37976Y-43824D01*
X38014Y-43916D01*
X38084Y-43986D01*
X38175Y-44024D01*
X38274Y-44024D01*
X38203Y-44055D01*
X38055Y-44202D01*
X37975Y-44395D01*
X37975Y-44604D01*
X38055Y-44797D01*
X38202Y-44945D01*
X38395Y-45025D01*
X38604Y-45025D01*
X38797Y-44945D01*
X38945Y-44798D01*
X39025Y-44605D01*
X39025Y-46815D01*
X38880Y-46960D01*
X35620Y-46960D01*
X35550Y-46890D01*
X35550Y-46210D01*
X36044Y-46705D01*
X36045Y-46705D01*
X36139Y-46768D01*
X36250Y-46790D01*
X38189Y-46790D01*
X38259Y-46860D01*
X38415Y-46925D01*
X38584Y-46925D01*
X38740Y-46861D01*
X38860Y-46741D01*
X38925Y-46585D01*
X38925Y-46416D01*
X38861Y-46260D01*
X38741Y-46140D01*
X38585Y-46075D01*
X38416Y-46075D01*
X38260Y-46139D01*
X38189Y-46210D01*
X36370Y-46210D01*
X35925Y-45764D01*
X35925Y-45666D01*
X35861Y-45510D01*
X35741Y-45390D01*
X35585Y-45325D01*
X35550Y-45325D01*
X35550Y-39771D01*
X38550Y-36771D01*
X38550Y-26521D01*
X40550Y-24521D01*
X40550Y-19521D01*
X42521Y-17550D01*
X43212Y-17550D01*
X43192Y-17622D01*
X43500Y-17929D01*
X43808Y-17622D01*
X43787Y-17550D01*
X44479Y-17550D01*
X45700Y-18771D01*
X45700Y-19729D01*
X43852Y-21576D01*
X43811Y-21535D01*
X43726Y-21500D01*
X43811Y-21465D01*
X43965Y-21311D01*
X44049Y-21109D01*
X44049Y-20891D01*
X44049Y-19109D01*
X44049Y-18891D01*
X44043Y-18876D01*
X44043Y-18079D01*
X44032Y-17866D01*
X43972Y-17719D01*
X43878Y-17692D01*
X43571Y-18000D01*
X43878Y-18308D01*
X43972Y-18281D01*
X44043Y-18079D01*
X44043Y-18876D01*
X43965Y-18689D01*
X43811Y-18535D01*
X43719Y-18497D01*
X43781Y-18472D01*
X43808Y-18378D01*
X43500Y-18071D01*
X43429Y-18141D01*
X43429Y-18000D01*
X43122Y-17692D01*
X43028Y-17719D01*
X42957Y-17921D01*
X42968Y-18134D01*
X43028Y-18281D01*
X43122Y-18308D01*
X43429Y-18000D01*
X43429Y-18141D01*
X43192Y-18378D01*
X43219Y-18472D01*
X43284Y-18495D01*
X43189Y-18535D01*
X43035Y-18689D01*
X42951Y-18891D01*
X42951Y-19109D01*
X43035Y-19311D01*
X43189Y-19465D01*
X43280Y-19502D01*
X43219Y-19528D01*
X43192Y-19622D01*
X43500Y-19929D01*
X43808Y-19622D01*
X43781Y-19528D01*
X43715Y-19504D01*
X43811Y-19465D01*
X43965Y-19311D01*
X44049Y-19109D01*
X44049Y-20891D01*
X44043Y-20876D01*
X44043Y-20079D01*
X44032Y-19866D01*
X43972Y-19719D01*
X43878Y-19692D01*
X43571Y-20000D01*
X43878Y-20308D01*
X43972Y-20281D01*
X44043Y-20079D01*
X44043Y-20876D01*
X43965Y-20689D01*
X43811Y-20535D01*
X43719Y-20497D01*
X43781Y-20472D01*
X43808Y-20378D01*
X43500Y-20071D01*
X43429Y-20141D01*
X43429Y-20000D01*
X43122Y-19692D01*
X43028Y-19719D01*
X42957Y-19921D01*
X42968Y-20134D01*
X43028Y-20281D01*
X43122Y-20308D01*
X43429Y-20000D01*
X43429Y-20141D01*
X43192Y-20378D01*
X43219Y-20472D01*
X43284Y-20495D01*
X43189Y-20535D01*
X43035Y-20689D01*
X42951Y-20891D01*
X42951Y-21109D01*
X43035Y-21311D01*
X43189Y-21465D01*
X43273Y-21500D01*
X43189Y-21535D01*
X43035Y-21689D01*
X42951Y-21891D01*
X42951Y-22109D01*
X43035Y-22311D01*
X43076Y-22352D01*
X42450Y-22979D01*
X42450Y-25325D01*
X42416Y-25325D01*
X42260Y-25389D01*
X42140Y-25509D01*
X42075Y-25665D01*
X42075Y-25834D01*
X42139Y-25990D01*
X42259Y-26110D01*
X42415Y-26175D01*
X42450Y-26175D01*
X42450Y-27021D01*
X44950Y-29521D01*
X44950Y-37521D01*
X46634Y-39205D01*
X46295Y-39545D01*
X46232Y-39639D01*
X46210Y-39750D01*
X46210Y-42500D01*
X46232Y-42611D01*
X46295Y-42705D01*
X46575Y-42985D01*
X46575Y-43084D01*
X46639Y-43240D01*
X46700Y-43301D01*
X46700Y-52021D01*
X49729Y-55050D01*
X55199Y-55050D01*
X55259Y-55110D01*
X55415Y-55175D01*
X55584Y-55175D01*
X55740Y-55111D01*
X55801Y-55050D01*
X57271Y-55050D01*
X58021Y-54300D01*
X68325Y-54300D01*
X68325Y-54334D01*
X68389Y-54490D01*
X68509Y-54610D01*
X68665Y-54675D01*
X68834Y-54675D01*
X68990Y-54611D01*
X69110Y-54491D01*
X69124Y-54455D01*
X69139Y-54490D01*
X69259Y-54610D01*
X69415Y-54675D01*
X69584Y-54675D01*
X69740Y-54611D01*
X69860Y-54491D01*
X69874Y-54455D01*
X69889Y-54490D01*
X70009Y-54610D01*
X70165Y-54675D01*
X70334Y-54675D01*
X70490Y-54611D01*
X70610Y-54491D01*
X70675Y-54335D01*
X70675Y-54300D01*
X81325Y-54300D01*
X81325Y-54334D01*
X81389Y-54490D01*
X81509Y-54610D01*
X81665Y-54675D01*
X81834Y-54675D01*
X81990Y-54611D01*
X82110Y-54491D01*
X82124Y-54455D01*
X82139Y-54490D01*
X82259Y-54610D01*
X82415Y-54675D01*
X82584Y-54675D01*
X82740Y-54611D01*
X82860Y-54491D01*
X82874Y-54455D01*
X82889Y-54490D01*
X83009Y-54610D01*
X83165Y-54675D01*
X83334Y-54675D01*
X83490Y-54611D01*
X83610Y-54491D01*
X83675Y-54335D01*
X83675Y-54300D01*
X94325Y-54300D01*
X94325Y-54334D01*
X94389Y-54490D01*
X94509Y-54610D01*
X94665Y-54675D01*
X94834Y-54675D01*
X94990Y-54611D01*
X95110Y-54491D01*
X95124Y-54455D01*
X95139Y-54490D01*
X95259Y-54610D01*
X95415Y-54675D01*
X95584Y-54675D01*
X95740Y-54611D01*
X95860Y-54491D01*
X95874Y-54455D01*
X95889Y-54490D01*
X96009Y-54610D01*
X96165Y-54675D01*
X96334Y-54675D01*
X96490Y-54611D01*
X96610Y-54491D01*
X96675Y-54335D01*
X96675Y-54300D01*
X104729Y-54300D01*
X107200Y-56771D01*
X107200Y-63729D01*
X107200Y-63729D01*
G37*
G54D27*
X107200Y-63729D02*
X106729Y-64200D01*
X106021Y-64200D01*
X105550Y-63729D01*
X105550Y-57479D01*
X104809Y-56738D01*
X104809Y-55750D01*
X104809Y-55651D01*
X104809Y-54751D01*
X104771Y-54659D01*
X104701Y-54589D01*
X104610Y-54551D01*
X104511Y-54551D01*
X103891Y-54551D01*
X103799Y-54589D01*
X103729Y-54659D01*
X103691Y-54750D01*
X103691Y-54762D01*
X103561Y-54632D01*
X103359Y-54548D01*
X103141Y-54548D01*
X102939Y-54632D01*
X102785Y-54786D01*
X102750Y-54870D01*
X102715Y-54786D01*
X102561Y-54632D01*
X102359Y-54548D01*
X102141Y-54548D01*
X101939Y-54632D01*
X101785Y-54786D01*
X101750Y-54870D01*
X101715Y-54786D01*
X101561Y-54632D01*
X101359Y-54548D01*
X101141Y-54548D01*
X100939Y-54632D01*
X100785Y-54786D01*
X100750Y-54870D01*
X100715Y-54786D01*
X100561Y-54632D01*
X100359Y-54548D01*
X100141Y-54548D01*
X99939Y-54632D01*
X99785Y-54786D01*
X99750Y-54870D01*
X99715Y-54786D01*
X99561Y-54632D01*
X99359Y-54548D01*
X99141Y-54548D01*
X98939Y-54632D01*
X98785Y-54786D01*
X98750Y-54870D01*
X98715Y-54786D01*
X98561Y-54632D01*
X98359Y-54548D01*
X98141Y-54548D01*
X97939Y-54632D01*
X97785Y-54786D01*
X97751Y-54865D01*
X97632Y-54700D01*
X97446Y-54585D01*
X97387Y-54568D01*
X97300Y-54615D01*
X97300Y-55150D01*
X97300Y-55200D01*
X97300Y-55300D01*
X97300Y-55350D01*
X97300Y-55885D01*
X97387Y-55932D01*
X97446Y-55915D01*
X97632Y-55800D01*
X97751Y-55634D01*
X97785Y-55714D01*
X97939Y-55868D01*
X98141Y-55952D01*
X98359Y-55952D01*
X98561Y-55868D01*
X98715Y-55714D01*
X98750Y-55629D01*
X98785Y-55714D01*
X98939Y-55868D01*
X99141Y-55952D01*
X99359Y-55952D01*
X99561Y-55868D01*
X99715Y-55714D01*
X99750Y-55629D01*
X99785Y-55714D01*
X99939Y-55868D01*
X100141Y-55952D01*
X100359Y-55952D01*
X100561Y-55868D01*
X100715Y-55714D01*
X100750Y-55629D01*
X100785Y-55714D01*
X100939Y-55868D01*
X101141Y-55952D01*
X101359Y-55952D01*
X101561Y-55868D01*
X101715Y-55714D01*
X101750Y-55629D01*
X101785Y-55714D01*
X101939Y-55868D01*
X102141Y-55952D01*
X102359Y-55952D01*
X102561Y-55868D01*
X102715Y-55714D01*
X102750Y-55629D01*
X102785Y-55714D01*
X102939Y-55868D01*
X103141Y-55952D01*
X103359Y-55952D01*
X103561Y-55868D01*
X103691Y-55738D01*
X103691Y-55749D01*
X103729Y-55841D01*
X103799Y-55911D01*
X103890Y-55949D01*
X103989Y-55949D01*
X104609Y-55949D01*
X104701Y-55911D01*
X104771Y-55841D01*
X104809Y-55750D01*
X104809Y-56738D01*
X104521Y-56450D01*
X99551Y-56450D01*
X99491Y-56390D01*
X99335Y-56325D01*
X99166Y-56325D01*
X99010Y-56389D01*
X98949Y-56450D01*
X97200Y-56450D01*
X97200Y-55885D01*
X97200Y-55300D01*
X97200Y-55200D01*
X97200Y-54615D01*
X97113Y-54568D01*
X97054Y-54585D01*
X96868Y-54700D01*
X96740Y-54877D01*
X96690Y-55090D01*
X96690Y-55200D01*
X97200Y-55200D01*
X97200Y-55300D01*
X96690Y-55300D01*
X96690Y-55410D01*
X96740Y-55623D01*
X96868Y-55800D01*
X97054Y-55915D01*
X97113Y-55932D01*
X97200Y-55885D01*
X97200Y-56450D01*
X91809Y-56450D01*
X91809Y-55750D01*
X91809Y-55651D01*
X91809Y-54751D01*
X91771Y-54659D01*
X91701Y-54589D01*
X91610Y-54551D01*
X91511Y-54551D01*
X90891Y-54551D01*
X90799Y-54589D01*
X90729Y-54659D01*
X90691Y-54750D01*
X90691Y-54762D01*
X90561Y-54632D01*
X90359Y-54548D01*
X90141Y-54548D01*
X89939Y-54632D01*
X89785Y-54786D01*
X89750Y-54870D01*
X89715Y-54786D01*
X89561Y-54632D01*
X89359Y-54548D01*
X89141Y-54548D01*
X88939Y-54632D01*
X88785Y-54786D01*
X88750Y-54870D01*
X88715Y-54786D01*
X88561Y-54632D01*
X88359Y-54548D01*
X88141Y-54548D01*
X87939Y-54632D01*
X87785Y-54786D01*
X87750Y-54870D01*
X87715Y-54786D01*
X87561Y-54632D01*
X87359Y-54548D01*
X87141Y-54548D01*
X86939Y-54632D01*
X86785Y-54786D01*
X86750Y-54870D01*
X86715Y-54786D01*
X86561Y-54632D01*
X86359Y-54548D01*
X86141Y-54548D01*
X85939Y-54632D01*
X85785Y-54786D01*
X85750Y-54870D01*
X85715Y-54786D01*
X85561Y-54632D01*
X85359Y-54548D01*
X85141Y-54548D01*
X84939Y-54632D01*
X84785Y-54786D01*
X84751Y-54865D01*
X84632Y-54700D01*
X84446Y-54585D01*
X84387Y-54568D01*
X84300Y-54615D01*
X84300Y-55150D01*
X84300Y-55200D01*
X84300Y-55300D01*
X84300Y-55350D01*
X84300Y-55885D01*
X84387Y-55932D01*
X84446Y-55915D01*
X84632Y-55800D01*
X84751Y-55634D01*
X84785Y-55714D01*
X84939Y-55868D01*
X85141Y-55952D01*
X85359Y-55952D01*
X85561Y-55868D01*
X85715Y-55714D01*
X85750Y-55629D01*
X85785Y-55714D01*
X85939Y-55868D01*
X86141Y-55952D01*
X86359Y-55952D01*
X86561Y-55868D01*
X86715Y-55714D01*
X86750Y-55629D01*
X86785Y-55714D01*
X86939Y-55868D01*
X87141Y-55952D01*
X87359Y-55952D01*
X87561Y-55868D01*
X87715Y-55714D01*
X87750Y-55629D01*
X87785Y-55714D01*
X87939Y-55868D01*
X88141Y-55952D01*
X88359Y-55952D01*
X88561Y-55868D01*
X88715Y-55714D01*
X88750Y-55629D01*
X88785Y-55714D01*
X88939Y-55868D01*
X89141Y-55952D01*
X89359Y-55952D01*
X89561Y-55868D01*
X89715Y-55714D01*
X89750Y-55629D01*
X89785Y-55714D01*
X89939Y-55868D01*
X90141Y-55952D01*
X90359Y-55952D01*
X90561Y-55868D01*
X90691Y-55738D01*
X90691Y-55749D01*
X90729Y-55841D01*
X90799Y-55911D01*
X90890Y-55949D01*
X90989Y-55949D01*
X91609Y-55949D01*
X91701Y-55911D01*
X91771Y-55841D01*
X91809Y-55750D01*
X91809Y-56450D01*
X86551Y-56450D01*
X86491Y-56390D01*
X86335Y-56325D01*
X86166Y-56325D01*
X86010Y-56389D01*
X85949Y-56450D01*
X84200Y-56450D01*
X84200Y-55885D01*
X84200Y-55300D01*
X84200Y-55200D01*
X84200Y-54615D01*
X84113Y-54568D01*
X84054Y-54585D01*
X83868Y-54700D01*
X83740Y-54877D01*
X83690Y-55090D01*
X83690Y-55200D01*
X84200Y-55200D01*
X84200Y-55300D01*
X83690Y-55300D01*
X83690Y-55410D01*
X83740Y-55623D01*
X83868Y-55800D01*
X84054Y-55915D01*
X84113Y-55932D01*
X84200Y-55885D01*
X84200Y-56450D01*
X78809Y-56450D01*
X78809Y-55750D01*
X78809Y-55651D01*
X78809Y-54751D01*
X78771Y-54659D01*
X78701Y-54589D01*
X78610Y-54551D01*
X78511Y-54551D01*
X77891Y-54551D01*
X77799Y-54589D01*
X77729Y-54659D01*
X77691Y-54750D01*
X77691Y-54762D01*
X77561Y-54632D01*
X77359Y-54548D01*
X77141Y-54548D01*
X76939Y-54632D01*
X76785Y-54786D01*
X76750Y-54870D01*
X76715Y-54786D01*
X76561Y-54632D01*
X76359Y-54548D01*
X76141Y-54548D01*
X75939Y-54632D01*
X75785Y-54786D01*
X75750Y-54870D01*
X75715Y-54786D01*
X75561Y-54632D01*
X75359Y-54548D01*
X75141Y-54548D01*
X74939Y-54632D01*
X74785Y-54786D01*
X74750Y-54870D01*
X74715Y-54786D01*
X74561Y-54632D01*
X74359Y-54548D01*
X74141Y-54548D01*
X73939Y-54632D01*
X73785Y-54786D01*
X73750Y-54870D01*
X73715Y-54786D01*
X73561Y-54632D01*
X73359Y-54548D01*
X73141Y-54548D01*
X72939Y-54632D01*
X72785Y-54786D01*
X72750Y-54870D01*
X72715Y-54786D01*
X72561Y-54632D01*
X72359Y-54548D01*
X72141Y-54548D01*
X71939Y-54632D01*
X71785Y-54786D01*
X71751Y-54865D01*
X71632Y-54700D01*
X71446Y-54585D01*
X71387Y-54568D01*
X71300Y-54615D01*
X71300Y-55150D01*
X71300Y-55200D01*
X71300Y-55300D01*
X71300Y-55350D01*
X71300Y-55885D01*
X71387Y-55932D01*
X71446Y-55915D01*
X71632Y-55800D01*
X71751Y-55634D01*
X71785Y-55714D01*
X71939Y-55868D01*
X72141Y-55952D01*
X72359Y-55952D01*
X72561Y-55868D01*
X72715Y-55714D01*
X72750Y-55629D01*
X72785Y-55714D01*
X72939Y-55868D01*
X73141Y-55952D01*
X73359Y-55952D01*
X73561Y-55868D01*
X73715Y-55714D01*
X73750Y-55629D01*
X73785Y-55714D01*
X73939Y-55868D01*
X74141Y-55952D01*
X74359Y-55952D01*
X74561Y-55868D01*
X74715Y-55714D01*
X74750Y-55629D01*
X74785Y-55714D01*
X74939Y-55868D01*
X75141Y-55952D01*
X75359Y-55952D01*
X75561Y-55868D01*
X75715Y-55714D01*
X75750Y-55629D01*
X75785Y-55714D01*
X75939Y-55868D01*
X76141Y-55952D01*
X76359Y-55952D01*
X76561Y-55868D01*
X76715Y-55714D01*
X76750Y-55629D01*
X76785Y-55714D01*
X76939Y-55868D01*
X77141Y-55952D01*
X77359Y-55952D01*
X77561Y-55868D01*
X77691Y-55738D01*
X77691Y-55749D01*
X77729Y-55841D01*
X77799Y-55911D01*
X77890Y-55949D01*
X77989Y-55949D01*
X78609Y-55949D01*
X78701Y-55911D01*
X78771Y-55841D01*
X78809Y-55750D01*
X78809Y-56450D01*
X73551Y-56450D01*
X73491Y-56390D01*
X73335Y-56325D01*
X73166Y-56325D01*
X73010Y-56389D01*
X72949Y-56450D01*
X71200Y-56450D01*
X71200Y-55885D01*
X71200Y-55300D01*
X71200Y-55200D01*
X71200Y-54615D01*
X71113Y-54568D01*
X71054Y-54585D01*
X70868Y-54700D01*
X70740Y-54877D01*
X70690Y-55090D01*
X70690Y-55200D01*
X71200Y-55200D01*
X71200Y-55300D01*
X70690Y-55300D01*
X70690Y-55410D01*
X70740Y-55623D01*
X70868Y-55800D01*
X71054Y-55915D01*
X71113Y-55932D01*
X71200Y-55885D01*
X71200Y-56450D01*
X65809Y-56450D01*
X65809Y-55750D01*
X65809Y-55651D01*
X65809Y-54751D01*
X65771Y-54659D01*
X65701Y-54589D01*
X65610Y-54551D01*
X65511Y-54551D01*
X64891Y-54551D01*
X64799Y-54589D01*
X64729Y-54659D01*
X64691Y-54750D01*
X64691Y-54762D01*
X64561Y-54632D01*
X64359Y-54548D01*
X64141Y-54548D01*
X63939Y-54632D01*
X63785Y-54786D01*
X63750Y-54870D01*
X63715Y-54786D01*
X63561Y-54632D01*
X63359Y-54548D01*
X63141Y-54548D01*
X62939Y-54632D01*
X62785Y-54786D01*
X62750Y-54870D01*
X62715Y-54786D01*
X62561Y-54632D01*
X62359Y-54548D01*
X62141Y-54548D01*
X61939Y-54632D01*
X61785Y-54786D01*
X61750Y-54870D01*
X61715Y-54786D01*
X61561Y-54632D01*
X61359Y-54548D01*
X61141Y-54548D01*
X60939Y-54632D01*
X60785Y-54786D01*
X60750Y-54870D01*
X60715Y-54786D01*
X60561Y-54632D01*
X60359Y-54548D01*
X60141Y-54548D01*
X59939Y-54632D01*
X59785Y-54786D01*
X59750Y-54870D01*
X59715Y-54786D01*
X59561Y-54632D01*
X59359Y-54548D01*
X59141Y-54548D01*
X58939Y-54632D01*
X58785Y-54786D01*
X58751Y-54865D01*
X58632Y-54700D01*
X58446Y-54585D01*
X58387Y-54568D01*
X58300Y-54615D01*
X58300Y-55150D01*
X58300Y-55200D01*
X58300Y-55300D01*
X58300Y-55350D01*
X58300Y-55885D01*
X58387Y-55932D01*
X58446Y-55915D01*
X58632Y-55800D01*
X58751Y-55634D01*
X58785Y-55714D01*
X58939Y-55868D01*
X59141Y-55952D01*
X59359Y-55952D01*
X59561Y-55868D01*
X59715Y-55714D01*
X59750Y-55629D01*
X59785Y-55714D01*
X59939Y-55868D01*
X60141Y-55952D01*
X60359Y-55952D01*
X60561Y-55868D01*
X60715Y-55714D01*
X60750Y-55629D01*
X60785Y-55714D01*
X60939Y-55868D01*
X61141Y-55952D01*
X61359Y-55952D01*
X61561Y-55868D01*
X61715Y-55714D01*
X61750Y-55629D01*
X61785Y-55714D01*
X61939Y-55868D01*
X62141Y-55952D01*
X62359Y-55952D01*
X62561Y-55868D01*
X62715Y-55714D01*
X62750Y-55629D01*
X62785Y-55714D01*
X62939Y-55868D01*
X63141Y-55952D01*
X63359Y-55952D01*
X63561Y-55868D01*
X63715Y-55714D01*
X63750Y-55629D01*
X63785Y-55714D01*
X63939Y-55868D01*
X64141Y-55952D01*
X64359Y-55952D01*
X64561Y-55868D01*
X64691Y-55738D01*
X64691Y-55749D01*
X64729Y-55841D01*
X64799Y-55911D01*
X64890Y-55949D01*
X64989Y-55949D01*
X65609Y-55949D01*
X65701Y-55911D01*
X65771Y-55841D01*
X65809Y-55750D01*
X65809Y-56450D01*
X60551Y-56450D01*
X60491Y-56390D01*
X60335Y-56325D01*
X60166Y-56325D01*
X60010Y-56389D01*
X59949Y-56450D01*
X58200Y-56450D01*
X58200Y-55885D01*
X58200Y-55300D01*
X58200Y-55200D01*
X58200Y-54615D01*
X58113Y-54568D01*
X58054Y-54585D01*
X57868Y-54700D01*
X57740Y-54877D01*
X57690Y-55090D01*
X57690Y-55200D01*
X58200Y-55200D01*
X58200Y-55300D01*
X57690Y-55300D01*
X57690Y-55410D01*
X57740Y-55623D01*
X57868Y-55800D01*
X58054Y-55915D01*
X58113Y-55932D01*
X58200Y-55885D01*
X58200Y-56450D01*
X54551Y-56450D01*
X54491Y-56390D01*
X54335Y-56325D01*
X54166Y-56325D01*
X54010Y-56389D01*
X53949Y-56450D01*
X50229Y-56450D01*
X49450Y-57229D01*
X49450Y-59021D01*
X50479Y-60050D01*
X51479Y-60050D01*
X51950Y-60521D01*
X51950Y-62021D01*
X52479Y-62550D01*
X54479Y-62550D01*
X54950Y-63021D01*
X54950Y-63979D01*
X54729Y-64200D01*
X52479Y-64200D01*
X52200Y-64479D01*
X52200Y-65021D01*
X52478Y-65300D01*
X54825Y-65300D01*
X54825Y-65334D01*
X54889Y-65490D01*
X55009Y-65610D01*
X54859Y-65548D01*
X54641Y-65548D01*
X54439Y-65632D01*
X54285Y-65786D01*
X54250Y-65870D01*
X54215Y-65786D01*
X54061Y-65632D01*
X53859Y-65548D01*
X53641Y-65548D01*
X53439Y-65632D01*
X53285Y-65786D01*
X53250Y-65870D01*
X53215Y-65786D01*
X53061Y-65632D01*
X52859Y-65548D01*
X52641Y-65548D01*
X52439Y-65632D01*
X52285Y-65786D01*
X52251Y-65865D01*
X52132Y-65700D01*
X51946Y-65585D01*
X51887Y-65568D01*
X51800Y-65615D01*
X51800Y-66150D01*
X51800Y-66200D01*
X51800Y-66300D01*
X51800Y-66350D01*
X51800Y-66885D01*
X51887Y-66932D01*
X51946Y-66915D01*
X52132Y-66800D01*
X52251Y-66634D01*
X52285Y-66714D01*
X52439Y-66868D01*
X52641Y-66952D01*
X52859Y-66952D01*
X53061Y-66868D01*
X53215Y-66714D01*
X53250Y-66629D01*
X53285Y-66714D01*
X53439Y-66868D01*
X53503Y-66895D01*
X53390Y-67009D01*
X53325Y-67165D01*
X53325Y-67334D01*
X53372Y-67450D01*
X51700Y-67450D01*
X51700Y-66885D01*
X51700Y-66300D01*
X51700Y-66200D01*
X51700Y-65615D01*
X51613Y-65568D01*
X51554Y-65585D01*
X51368Y-65700D01*
X51240Y-65877D01*
X51190Y-66090D01*
X51190Y-66200D01*
X51700Y-66200D01*
X51700Y-66300D01*
X51190Y-66300D01*
X51190Y-66410D01*
X51240Y-66623D01*
X51368Y-66800D01*
X51554Y-66915D01*
X51613Y-66932D01*
X51700Y-66885D01*
X51700Y-67450D01*
X49979Y-67450D01*
X48525Y-68904D01*
X48525Y-64105D01*
X48525Y-63896D01*
X48525Y-61105D01*
X48525Y-60896D01*
X48445Y-60703D01*
X48298Y-60555D01*
X48164Y-60499D01*
X48297Y-60445D01*
X48445Y-60298D01*
X48525Y-60105D01*
X48525Y-59896D01*
X48525Y-57105D01*
X48525Y-56896D01*
X48445Y-56703D01*
X48298Y-56555D01*
X48105Y-56475D01*
X47896Y-56475D01*
X47703Y-56555D01*
X47555Y-56702D01*
X47525Y-56774D01*
X47525Y-55605D01*
X47525Y-55396D01*
X47445Y-55203D01*
X47298Y-55055D01*
X47290Y-55051D01*
X47290Y-54750D01*
X47268Y-54639D01*
X47205Y-54545D01*
X46519Y-53859D01*
X46519Y-49574D01*
X46508Y-49370D01*
X46452Y-49233D01*
X46361Y-49210D01*
X46290Y-49281D01*
X46290Y-49139D01*
X46267Y-49048D01*
X46074Y-48981D01*
X45870Y-48992D01*
X45733Y-49048D01*
X45710Y-49139D01*
X46000Y-49429D01*
X46290Y-49139D01*
X46290Y-49281D01*
X46071Y-49500D01*
X46361Y-49790D01*
X46452Y-49767D01*
X46519Y-49574D01*
X46519Y-53859D01*
X46290Y-53630D01*
X46290Y-49861D01*
X46000Y-49571D01*
X45929Y-49642D01*
X45929Y-49500D01*
X45639Y-49210D01*
X45548Y-49233D01*
X45525Y-49299D01*
X45525Y-43605D01*
X45525Y-43396D01*
X45525Y-41605D01*
X45525Y-41396D01*
X45445Y-41203D01*
X45310Y-41067D01*
X45310Y-40500D01*
X45286Y-40382D01*
X45286Y-40381D01*
X45219Y-40281D01*
X44219Y-39281D01*
X44119Y-39214D01*
X44000Y-39190D01*
X41500Y-39190D01*
X41381Y-39214D01*
X41281Y-39281D01*
X40611Y-39951D01*
X40151Y-39951D01*
X40059Y-39989D01*
X39989Y-40059D01*
X39951Y-40150D01*
X39951Y-40190D01*
X38932Y-40190D01*
X38798Y-40055D01*
X38605Y-39975D01*
X38396Y-39975D01*
X38203Y-40055D01*
X38055Y-40202D01*
X37975Y-40395D01*
X37975Y-40604D01*
X38055Y-40797D01*
X38202Y-40945D01*
X38276Y-40975D01*
X38274Y-40976D01*
X38175Y-40976D01*
X38084Y-41014D01*
X38014Y-41084D01*
X37976Y-41176D01*
X37975Y-41388D01*
X38037Y-41450D01*
X38400Y-41450D01*
X38450Y-41450D01*
X38550Y-41450D01*
X38600Y-41450D01*
X38963Y-41450D01*
X39025Y-41388D01*
X39024Y-41176D01*
X38986Y-41084D01*
X38916Y-41014D01*
X38825Y-40976D01*
X38726Y-40976D01*
X38722Y-40975D01*
X38797Y-40945D01*
X38932Y-40810D01*
X39951Y-40810D01*
X39951Y-40849D01*
X39989Y-40941D01*
X40059Y-41011D01*
X40150Y-41049D01*
X40212Y-41049D01*
X40192Y-41122D01*
X40500Y-41429D01*
X40808Y-41122D01*
X40787Y-41049D01*
X40849Y-41049D01*
X40941Y-41011D01*
X41011Y-40941D01*
X41049Y-40850D01*
X41049Y-40751D01*
X41049Y-40389D01*
X41628Y-39810D01*
X43872Y-39810D01*
X44690Y-40628D01*
X44690Y-41067D01*
X44555Y-41202D01*
X44475Y-41395D01*
X44475Y-41587D01*
X44372Y-41690D01*
X43593Y-41690D01*
X43593Y-41091D01*
X43582Y-40856D01*
X43513Y-40690D01*
X43414Y-40657D01*
X43343Y-40728D01*
X43343Y-40586D01*
X43310Y-40487D01*
X43091Y-40407D01*
X42856Y-40418D01*
X42690Y-40487D01*
X42657Y-40586D01*
X43000Y-40929D01*
X43343Y-40586D01*
X43343Y-40728D01*
X43071Y-41000D01*
X43414Y-41343D01*
X43513Y-41310D01*
X43593Y-41091D01*
X43593Y-41690D01*
X43519Y-41690D01*
X43508Y-41661D01*
X43339Y-41492D01*
X43319Y-41484D01*
X43343Y-41414D01*
X43000Y-41071D01*
X42929Y-41142D01*
X42929Y-41000D01*
X42586Y-40657D01*
X42487Y-40690D01*
X42407Y-40909D01*
X42418Y-41144D01*
X42487Y-41310D01*
X42586Y-41343D01*
X42929Y-41000D01*
X42929Y-41142D01*
X42657Y-41414D01*
X42680Y-41484D01*
X42661Y-41492D01*
X42492Y-41661D01*
X42401Y-41881D01*
X42401Y-42119D01*
X42492Y-42339D01*
X42567Y-42414D01*
X42509Y-42439D01*
X42439Y-42509D01*
X42401Y-42600D01*
X42401Y-42699D01*
X42401Y-43399D01*
X42439Y-43491D01*
X42509Y-43561D01*
X42600Y-43599D01*
X42699Y-43599D01*
X43399Y-43599D01*
X43491Y-43561D01*
X43561Y-43491D01*
X43599Y-43400D01*
X43599Y-43301D01*
X43599Y-42601D01*
X43561Y-42509D01*
X43491Y-42439D01*
X43432Y-42414D01*
X43508Y-42339D01*
X43519Y-42310D01*
X44500Y-42310D01*
X44618Y-42286D01*
X44619Y-42286D01*
X44719Y-42219D01*
X44913Y-42025D01*
X45104Y-42025D01*
X45297Y-41945D01*
X45445Y-41798D01*
X45525Y-41605D01*
X45525Y-43396D01*
X45445Y-43203D01*
X45298Y-43055D01*
X45105Y-42975D01*
X44896Y-42975D01*
X44703Y-43055D01*
X44555Y-43202D01*
X44475Y-43395D01*
X44475Y-43604D01*
X44555Y-43797D01*
X44702Y-43945D01*
X44895Y-44025D01*
X45104Y-44025D01*
X45297Y-43945D01*
X45445Y-43798D01*
X45525Y-43605D01*
X45525Y-49299D01*
X45481Y-49426D01*
X45492Y-49630D01*
X45548Y-49767D01*
X45639Y-49790D01*
X45929Y-49500D01*
X45929Y-49642D01*
X45710Y-49861D01*
X45733Y-49952D01*
X45926Y-50019D01*
X46130Y-50008D01*
X46267Y-49952D01*
X46290Y-49861D01*
X46290Y-53630D01*
X45790Y-53130D01*
X45790Y-53061D01*
X45860Y-52991D01*
X45925Y-52835D01*
X45925Y-52666D01*
X45861Y-52510D01*
X45741Y-52390D01*
X45585Y-52325D01*
X45416Y-52325D01*
X45260Y-52389D01*
X45140Y-52509D01*
X45075Y-52665D01*
X45075Y-52834D01*
X45139Y-52990D01*
X45210Y-53061D01*
X45210Y-53250D01*
X45232Y-53361D01*
X45295Y-53455D01*
X46710Y-54870D01*
X46710Y-55052D01*
X46703Y-55055D01*
X46555Y-55202D01*
X46475Y-55395D01*
X46475Y-55604D01*
X46555Y-55797D01*
X46702Y-55945D01*
X46895Y-56025D01*
X47104Y-56025D01*
X47297Y-55945D01*
X47445Y-55798D01*
X47525Y-55605D01*
X47525Y-56774D01*
X47475Y-56895D01*
X47475Y-57104D01*
X47555Y-57297D01*
X47702Y-57445D01*
X47895Y-57525D01*
X48104Y-57525D01*
X48297Y-57445D01*
X48445Y-57298D01*
X48525Y-57105D01*
X48525Y-59896D01*
X48445Y-59703D01*
X48298Y-59555D01*
X48105Y-59475D01*
X47896Y-59475D01*
X47703Y-59555D01*
X47555Y-59702D01*
X47499Y-59835D01*
X47445Y-59703D01*
X47298Y-59555D01*
X47105Y-59475D01*
X46896Y-59475D01*
X46703Y-59555D01*
X46555Y-59702D01*
X46475Y-59895D01*
X46475Y-60104D01*
X46555Y-60297D01*
X46702Y-60445D01*
X46895Y-60525D01*
X47104Y-60525D01*
X47297Y-60445D01*
X47445Y-60298D01*
X47500Y-60164D01*
X47555Y-60297D01*
X47702Y-60445D01*
X47835Y-60500D01*
X47703Y-60555D01*
X47555Y-60702D01*
X47475Y-60895D01*
X47475Y-61104D01*
X47555Y-61297D01*
X47702Y-61445D01*
X47895Y-61525D01*
X48104Y-61525D01*
X48297Y-61445D01*
X48445Y-61298D01*
X48525Y-61105D01*
X48525Y-63896D01*
X48445Y-63703D01*
X48298Y-63555D01*
X48105Y-63475D01*
X47896Y-63475D01*
X47703Y-63555D01*
X47555Y-63702D01*
X47475Y-63895D01*
X47475Y-64025D01*
X47445Y-63953D01*
X47298Y-63805D01*
X47105Y-63725D01*
X46896Y-63725D01*
X46703Y-63805D01*
X46555Y-63952D01*
X46475Y-64145D01*
X46475Y-64354D01*
X46555Y-64547D01*
X46702Y-64695D01*
X46895Y-64775D01*
X47104Y-64775D01*
X47297Y-64695D01*
X47445Y-64548D01*
X47525Y-64355D01*
X47525Y-64224D01*
X47555Y-64297D01*
X47702Y-64445D01*
X47895Y-64525D01*
X48104Y-64525D01*
X48297Y-64445D01*
X48445Y-64298D01*
X48525Y-64105D01*
X48525Y-68904D01*
X47979Y-69450D01*
X47525Y-69450D01*
X47525Y-65605D01*
X47525Y-65396D01*
X47445Y-65203D01*
X47298Y-65055D01*
X47105Y-64975D01*
X46896Y-64975D01*
X46703Y-65055D01*
X46555Y-65202D01*
X46475Y-65395D01*
X46475Y-65604D01*
X46555Y-65797D01*
X46702Y-65945D01*
X46895Y-66025D01*
X47104Y-66025D01*
X47297Y-65945D01*
X47445Y-65798D01*
X47525Y-65605D01*
X47525Y-69450D01*
X44925Y-69450D01*
X44925Y-48835D01*
X44925Y-48666D01*
X44861Y-48510D01*
X44790Y-48439D01*
X44790Y-47061D01*
X44860Y-46991D01*
X44925Y-46835D01*
X44925Y-46666D01*
X44861Y-46510D01*
X44741Y-46390D01*
X44585Y-46325D01*
X44416Y-46325D01*
X44260Y-46389D01*
X44140Y-46509D01*
X44075Y-46665D01*
X44075Y-46834D01*
X44139Y-46990D01*
X44210Y-47061D01*
X44210Y-48439D01*
X44140Y-48509D01*
X44075Y-48665D01*
X44075Y-48834D01*
X44139Y-48990D01*
X44259Y-49110D01*
X44415Y-49175D01*
X44584Y-49175D01*
X44740Y-49111D01*
X44860Y-48991D01*
X44925Y-48835D01*
X44925Y-69450D01*
X44525Y-69450D01*
X44525Y-64355D01*
X44525Y-64146D01*
X44525Y-60105D01*
X44525Y-59896D01*
X44525Y-55605D01*
X44525Y-55396D01*
X44445Y-55203D01*
X44298Y-55055D01*
X44105Y-54975D01*
X43896Y-54975D01*
X43703Y-55055D01*
X43555Y-55202D01*
X43525Y-55274D01*
X43525Y-49605D01*
X43525Y-49396D01*
X43445Y-49203D01*
X43298Y-49055D01*
X43105Y-48975D01*
X42896Y-48975D01*
X42703Y-49055D01*
X42555Y-49202D01*
X42475Y-49395D01*
X42475Y-49604D01*
X42555Y-49797D01*
X42702Y-49945D01*
X42895Y-50025D01*
X43104Y-50025D01*
X43297Y-49945D01*
X43445Y-49798D01*
X43525Y-49605D01*
X43525Y-55274D01*
X43475Y-55395D01*
X43475Y-55604D01*
X43555Y-55797D01*
X43702Y-55945D01*
X43895Y-56025D01*
X44104Y-56025D01*
X44297Y-55945D01*
X44445Y-55798D01*
X44525Y-55605D01*
X44525Y-59896D01*
X44445Y-59703D01*
X44298Y-59555D01*
X44105Y-59475D01*
X43896Y-59475D01*
X43703Y-59555D01*
X43555Y-59702D01*
X43475Y-59895D01*
X43475Y-60104D01*
X43555Y-60297D01*
X43702Y-60445D01*
X43895Y-60525D01*
X44104Y-60525D01*
X44297Y-60445D01*
X44445Y-60298D01*
X44525Y-60105D01*
X44525Y-64146D01*
X44445Y-63953D01*
X44298Y-63805D01*
X44105Y-63725D01*
X43896Y-63725D01*
X43703Y-63805D01*
X43555Y-63952D01*
X43475Y-64145D01*
X43475Y-64354D01*
X43555Y-64547D01*
X43702Y-64695D01*
X43895Y-64775D01*
X44104Y-64775D01*
X44297Y-64695D01*
X44445Y-64548D01*
X44525Y-64355D01*
X44525Y-69450D01*
X44519Y-69450D01*
X44519Y-65574D01*
X44508Y-65370D01*
X44452Y-65233D01*
X44361Y-65210D01*
X44290Y-65281D01*
X44290Y-65139D01*
X44267Y-65048D01*
X44074Y-64981D01*
X43870Y-64992D01*
X43733Y-65048D01*
X43710Y-65139D01*
X44000Y-65429D01*
X44290Y-65139D01*
X44290Y-65281D01*
X44071Y-65500D01*
X44361Y-65790D01*
X44452Y-65767D01*
X44519Y-65574D01*
X44519Y-69450D01*
X44290Y-69450D01*
X44290Y-65861D01*
X44000Y-65571D01*
X43929Y-65642D01*
X43929Y-65500D01*
X43639Y-65210D01*
X43548Y-65233D01*
X43481Y-65426D01*
X43492Y-65630D01*
X43548Y-65767D01*
X43639Y-65790D01*
X43929Y-65500D01*
X43929Y-65642D01*
X43710Y-65861D01*
X43733Y-65952D01*
X43926Y-66019D01*
X44130Y-66008D01*
X44267Y-65952D01*
X44290Y-65861D01*
X44290Y-69450D01*
X42974Y-69450D01*
X42974Y-68130D01*
X42974Y-67870D01*
X42974Y-62630D01*
X42974Y-62370D01*
X42974Y-57130D01*
X42974Y-56870D01*
X42874Y-56630D01*
X42691Y-56446D01*
X42450Y-56346D01*
X42190Y-56346D01*
X41950Y-56446D01*
X41766Y-56629D01*
X41713Y-56756D01*
X41692Y-56704D01*
X41596Y-56675D01*
X41525Y-56746D01*
X41525Y-56604D01*
X41496Y-56508D01*
X41335Y-56450D01*
X41335Y-51492D01*
X41335Y-51259D01*
X41335Y-49742D01*
X41335Y-49509D01*
X41246Y-49294D01*
X41082Y-49129D01*
X40867Y-49040D01*
X40634Y-49040D01*
X40419Y-49129D01*
X40254Y-49293D01*
X40165Y-49508D01*
X40165Y-49741D01*
X40254Y-49956D01*
X40418Y-50121D01*
X40633Y-50210D01*
X40866Y-50210D01*
X41081Y-50121D01*
X41246Y-49957D01*
X41335Y-49742D01*
X41335Y-51259D01*
X41246Y-51044D01*
X41082Y-50879D01*
X40867Y-50790D01*
X40634Y-50790D01*
X40419Y-50879D01*
X40254Y-51043D01*
X40165Y-51258D01*
X40165Y-51491D01*
X40254Y-51706D01*
X40418Y-51871D01*
X40633Y-51960D01*
X40866Y-51960D01*
X41081Y-51871D01*
X41246Y-51707D01*
X41335Y-51492D01*
X41335Y-56450D01*
X41284Y-56432D01*
X41061Y-56444D01*
X40904Y-56508D01*
X40875Y-56604D01*
X41200Y-56929D01*
X41525Y-56604D01*
X41525Y-56746D01*
X41271Y-57000D01*
X41596Y-57325D01*
X41692Y-57296D01*
X41711Y-57240D01*
X41766Y-57370D01*
X41949Y-57554D01*
X42190Y-57654D01*
X42450Y-57654D01*
X42690Y-57554D01*
X42874Y-57371D01*
X42974Y-57130D01*
X42974Y-62370D01*
X42874Y-62130D01*
X42691Y-61946D01*
X42450Y-61846D01*
X42190Y-61846D01*
X41950Y-61946D01*
X41766Y-62129D01*
X41713Y-62256D01*
X41692Y-62204D01*
X41596Y-62175D01*
X41525Y-62246D01*
X41525Y-62104D01*
X41525Y-57396D01*
X41200Y-57071D01*
X41129Y-57142D01*
X41129Y-57000D01*
X40804Y-56675D01*
X40708Y-56704D01*
X40632Y-56916D01*
X40644Y-57139D01*
X40708Y-57296D01*
X40804Y-57325D01*
X41129Y-57000D01*
X41129Y-57142D01*
X40875Y-57396D01*
X40904Y-57492D01*
X41116Y-57568D01*
X41339Y-57556D01*
X41496Y-57492D01*
X41525Y-57396D01*
X41525Y-62104D01*
X41496Y-62008D01*
X41284Y-61932D01*
X41061Y-61944D01*
X40904Y-62008D01*
X40875Y-62104D01*
X41200Y-62429D01*
X41525Y-62104D01*
X41525Y-62246D01*
X41271Y-62500D01*
X41596Y-62825D01*
X41692Y-62796D01*
X41711Y-62740D01*
X41766Y-62870D01*
X41949Y-63054D01*
X42190Y-63154D01*
X42450Y-63154D01*
X42690Y-63054D01*
X42874Y-62871D01*
X42974Y-62630D01*
X42974Y-67870D01*
X42874Y-67630D01*
X42691Y-67446D01*
X42450Y-67346D01*
X42190Y-67346D01*
X41950Y-67446D01*
X41766Y-67629D01*
X41713Y-67756D01*
X41692Y-67704D01*
X41596Y-67675D01*
X41525Y-67746D01*
X41525Y-67604D01*
X41525Y-62896D01*
X41200Y-62571D01*
X41129Y-62642D01*
X41129Y-62500D01*
X40804Y-62175D01*
X40708Y-62204D01*
X40632Y-62416D01*
X40644Y-62639D01*
X40708Y-62796D01*
X40804Y-62825D01*
X41129Y-62500D01*
X41129Y-62642D01*
X40875Y-62896D01*
X40904Y-62992D01*
X41116Y-63068D01*
X41339Y-63056D01*
X41496Y-62992D01*
X41525Y-62896D01*
X41525Y-67604D01*
X41496Y-67508D01*
X41284Y-67432D01*
X41061Y-67444D01*
X40904Y-67508D01*
X40875Y-67604D01*
X41200Y-67929D01*
X41525Y-67604D01*
X41525Y-67746D01*
X41271Y-68000D01*
X41596Y-68325D01*
X41692Y-68296D01*
X41711Y-68240D01*
X41766Y-68370D01*
X41949Y-68554D01*
X42190Y-68654D01*
X42450Y-68654D01*
X42690Y-68554D01*
X42874Y-68371D01*
X42974Y-68130D01*
X42974Y-69450D01*
X41525Y-69450D01*
X41525Y-68396D01*
X41200Y-68071D01*
X41129Y-68142D01*
X41129Y-68000D01*
X40804Y-67675D01*
X40708Y-67704D01*
X40632Y-67916D01*
X40644Y-68139D01*
X40708Y-68296D01*
X40804Y-68325D01*
X41129Y-68000D01*
X41129Y-68142D01*
X40875Y-68396D01*
X40904Y-68492D01*
X41116Y-68568D01*
X41339Y-68556D01*
X41496Y-68492D01*
X41525Y-68396D01*
X41525Y-69450D01*
X40575Y-69450D01*
X40575Y-68115D01*
X40575Y-67886D01*
X40575Y-62615D01*
X40575Y-62386D01*
X40575Y-57115D01*
X40575Y-56886D01*
X40488Y-56675D01*
X40326Y-56513D01*
X40115Y-56425D01*
X39886Y-56425D01*
X39675Y-56512D01*
X39513Y-56674D01*
X39425Y-56885D01*
X39425Y-57114D01*
X39512Y-57325D01*
X39674Y-57487D01*
X39885Y-57575D01*
X40114Y-57575D01*
X40325Y-57488D01*
X40487Y-57326D01*
X40575Y-57115D01*
X40575Y-62386D01*
X40488Y-62175D01*
X40326Y-62013D01*
X40115Y-61925D01*
X39886Y-61925D01*
X39675Y-62012D01*
X39513Y-62174D01*
X39425Y-62385D01*
X39425Y-62614D01*
X39512Y-62825D01*
X39674Y-62987D01*
X39885Y-63075D01*
X40114Y-63075D01*
X40325Y-62988D01*
X40487Y-62826D01*
X40575Y-62615D01*
X40575Y-67886D01*
X40488Y-67675D01*
X40326Y-67513D01*
X40115Y-67425D01*
X39886Y-67425D01*
X39675Y-67512D01*
X39513Y-67674D01*
X39425Y-67885D01*
X39425Y-68114D01*
X39512Y-68325D01*
X39674Y-68487D01*
X39885Y-68575D01*
X40114Y-68575D01*
X40325Y-68488D01*
X40487Y-68326D01*
X40575Y-68115D01*
X40575Y-69450D01*
X39375Y-69450D01*
X39375Y-68115D01*
X39375Y-67886D01*
X39375Y-62615D01*
X39375Y-62386D01*
X39375Y-57115D01*
X39375Y-56886D01*
X39288Y-56675D01*
X39126Y-56513D01*
X38915Y-56425D01*
X38835Y-56425D01*
X38835Y-51492D01*
X38835Y-51259D01*
X38835Y-49742D01*
X38835Y-49509D01*
X38746Y-49294D01*
X38582Y-49129D01*
X38367Y-49040D01*
X38134Y-49040D01*
X37919Y-49129D01*
X37754Y-49293D01*
X37665Y-49508D01*
X37665Y-49741D01*
X37754Y-49956D01*
X37918Y-50121D01*
X38133Y-50210D01*
X38366Y-50210D01*
X38581Y-50121D01*
X38746Y-49957D01*
X38835Y-49742D01*
X38835Y-51259D01*
X38746Y-51044D01*
X38582Y-50879D01*
X38367Y-50790D01*
X38134Y-50790D01*
X37919Y-50879D01*
X37754Y-51043D01*
X37665Y-51258D01*
X37665Y-51491D01*
X37754Y-51706D01*
X37918Y-51871D01*
X38133Y-51960D01*
X38366Y-51960D01*
X38581Y-51871D01*
X38746Y-51707D01*
X38835Y-51492D01*
X38835Y-56425D01*
X38686Y-56425D01*
X38475Y-56512D01*
X38313Y-56674D01*
X38282Y-56746D01*
X38234Y-56630D01*
X38051Y-56446D01*
X37810Y-56346D01*
X37550Y-56346D01*
X37310Y-56446D01*
X37126Y-56629D01*
X37026Y-56870D01*
X37026Y-57130D01*
X37126Y-57370D01*
X37309Y-57554D01*
X37550Y-57654D01*
X37810Y-57654D01*
X38050Y-57554D01*
X38234Y-57371D01*
X38282Y-57253D01*
X38312Y-57325D01*
X38474Y-57487D01*
X38685Y-57575D01*
X38914Y-57575D01*
X39125Y-57488D01*
X39287Y-57326D01*
X39375Y-57115D01*
X39375Y-62386D01*
X39288Y-62175D01*
X39126Y-62013D01*
X38915Y-61925D01*
X38686Y-61925D01*
X38475Y-62012D01*
X38313Y-62174D01*
X38282Y-62246D01*
X38234Y-62130D01*
X38051Y-61946D01*
X37810Y-61846D01*
X37550Y-61846D01*
X37310Y-61946D01*
X37126Y-62129D01*
X37026Y-62370D01*
X37026Y-62630D01*
X37126Y-62870D01*
X37309Y-63054D01*
X37550Y-63154D01*
X37810Y-63154D01*
X38050Y-63054D01*
X38234Y-62871D01*
X38282Y-62753D01*
X38312Y-62825D01*
X38474Y-62987D01*
X38685Y-63075D01*
X38914Y-63075D01*
X39125Y-62988D01*
X39287Y-62826D01*
X39375Y-62615D01*
X39375Y-67886D01*
X39288Y-67675D01*
X39126Y-67513D01*
X38915Y-67425D01*
X38686Y-67425D01*
X38475Y-67512D01*
X38313Y-67674D01*
X38282Y-67746D01*
X38234Y-67630D01*
X38051Y-67446D01*
X37810Y-67346D01*
X37550Y-67346D01*
X37310Y-67446D01*
X37126Y-67629D01*
X37026Y-67870D01*
X37026Y-68130D01*
X37126Y-68370D01*
X37309Y-68554D01*
X37550Y-68654D01*
X37810Y-68654D01*
X38050Y-68554D01*
X38234Y-68371D01*
X38282Y-68253D01*
X38312Y-68325D01*
X38474Y-68487D01*
X38685Y-68575D01*
X38914Y-68575D01*
X39125Y-68488D01*
X39287Y-68326D01*
X39375Y-68115D01*
X39375Y-69450D01*
X36521Y-69450D01*
X35550Y-68479D01*
X35550Y-48290D01*
X39689Y-48290D01*
X39759Y-48360D01*
X39915Y-48425D01*
X40084Y-48425D01*
X40240Y-48361D01*
X40360Y-48241D01*
X40391Y-48165D01*
X40415Y-48175D01*
X40584Y-48175D01*
X40740Y-48111D01*
X40860Y-47991D01*
X40891Y-47915D01*
X40915Y-47925D01*
X41084Y-47925D01*
X41240Y-47861D01*
X41360Y-47741D01*
X41391Y-47665D01*
X41415Y-47675D01*
X41584Y-47675D01*
X41740Y-47611D01*
X41860Y-47491D01*
X41925Y-47335D01*
X41925Y-47166D01*
X41861Y-47010D01*
X41741Y-46890D01*
X41585Y-46825D01*
X41416Y-46825D01*
X41287Y-46877D01*
X41205Y-46795D01*
X41111Y-46732D01*
X41049Y-46719D01*
X41049Y-44850D01*
X41049Y-44751D01*
X41049Y-44151D01*
X41043Y-44136D01*
X41043Y-43579D01*
X41043Y-41579D01*
X41032Y-41366D01*
X40972Y-41219D01*
X40878Y-41192D01*
X40571Y-41500D01*
X40878Y-41808D01*
X40972Y-41781D01*
X41043Y-41579D01*
X41043Y-43579D01*
X41032Y-43366D01*
X40972Y-43219D01*
X40878Y-43192D01*
X40808Y-43262D01*
X40808Y-43122D01*
X40808Y-41878D01*
X40500Y-41571D01*
X40429Y-41641D01*
X40429Y-41500D01*
X40122Y-41192D01*
X40028Y-41219D01*
X39957Y-41421D01*
X39968Y-41634D01*
X40028Y-41781D01*
X40122Y-41808D01*
X40429Y-41500D01*
X40429Y-41641D01*
X40192Y-41878D01*
X40219Y-41972D01*
X40421Y-42043D01*
X40634Y-42032D01*
X40781Y-41972D01*
X40808Y-41878D01*
X40808Y-43122D01*
X40781Y-43028D01*
X40579Y-42957D01*
X40366Y-42968D01*
X40219Y-43028D01*
X40192Y-43122D01*
X40500Y-43429D01*
X40808Y-43122D01*
X40808Y-43262D01*
X40571Y-43500D01*
X40878Y-43808D01*
X40972Y-43781D01*
X41043Y-43579D01*
X41043Y-44136D01*
X41011Y-44059D01*
X40941Y-43989D01*
X40850Y-43951D01*
X40787Y-43951D01*
X40808Y-43878D01*
X40500Y-43571D01*
X40429Y-43641D01*
X40429Y-43500D01*
X40122Y-43192D01*
X40028Y-43219D01*
X39957Y-43421D01*
X39968Y-43634D01*
X40028Y-43781D01*
X40122Y-43808D01*
X40429Y-43500D01*
X40429Y-43641D01*
X40192Y-43878D01*
X40212Y-43951D01*
X40151Y-43951D01*
X40059Y-43989D01*
X39989Y-44059D01*
X39951Y-44150D01*
X39951Y-44249D01*
X39951Y-44849D01*
X39989Y-44941D01*
X40059Y-45011D01*
X40150Y-45049D01*
X40249Y-45049D01*
X40849Y-45049D01*
X40941Y-45011D01*
X41011Y-44941D01*
X41049Y-44850D01*
X41049Y-46719D01*
X41000Y-46710D01*
X39250Y-46710D01*
X39139Y-46732D01*
X39045Y-46795D01*
X39025Y-46815D01*
X39025Y-44605D01*
X39025Y-44396D01*
X38945Y-44203D01*
X38798Y-44055D01*
X38723Y-44024D01*
X38726Y-44024D01*
X38825Y-44024D01*
X38916Y-43986D01*
X38986Y-43916D01*
X39024Y-43824D01*
X39025Y-43612D01*
X39025Y-43388D01*
X39025Y-41612D01*
X38963Y-41550D01*
X38550Y-41550D01*
X38550Y-41963D01*
X38612Y-42025D01*
X38726Y-42024D01*
X38825Y-42024D01*
X38916Y-41986D01*
X38986Y-41916D01*
X39024Y-41824D01*
X39025Y-41612D01*
X39025Y-43388D01*
X39024Y-43176D01*
X38986Y-43084D01*
X38916Y-43014D01*
X38825Y-42976D01*
X38726Y-42976D01*
X38612Y-42975D01*
X38550Y-43037D01*
X38550Y-43450D01*
X38963Y-43450D01*
X39025Y-43388D01*
X39025Y-43612D01*
X38963Y-43550D01*
X38600Y-43550D01*
X38550Y-43550D01*
X38450Y-43550D01*
X38450Y-43450D01*
X38450Y-43037D01*
X38450Y-41963D01*
X38450Y-41550D01*
X38037Y-41550D01*
X37975Y-41612D01*
X37976Y-41824D01*
X38014Y-41916D01*
X38084Y-41986D01*
X38175Y-42024D01*
X38274Y-42024D01*
X38388Y-42025D01*
X38450Y-41963D01*
X38450Y-43037D01*
X38388Y-42975D01*
X38274Y-42976D01*
X38175Y-42976D01*
X38084Y-43014D01*
X38014Y-43084D01*
X37976Y-43176D01*
X37975Y-43388D01*
X38037Y-43450D01*
X38450Y-43450D01*
X38450Y-43550D01*
X38400Y-43550D01*
X38037Y-43550D01*
X37975Y-43612D01*
X37976Y-43824D01*
X38014Y-43916D01*
X38084Y-43986D01*
X38175Y-44024D01*
X38274Y-44024D01*
X38203Y-44055D01*
X38055Y-44202D01*
X37975Y-44395D01*
X37975Y-44604D01*
X38055Y-44797D01*
X38202Y-44945D01*
X38395Y-45025D01*
X38604Y-45025D01*
X38797Y-44945D01*
X38945Y-44798D01*
X39025Y-44605D01*
X39025Y-46815D01*
X38880Y-46960D01*
X35620Y-46960D01*
X35550Y-46890D01*
X35550Y-46210D01*
X36044Y-46705D01*
X36045Y-46705D01*
X36139Y-46768D01*
X36250Y-46790D01*
X38189Y-46790D01*
X38259Y-46860D01*
X38415Y-46925D01*
X38584Y-46925D01*
X38740Y-46861D01*
X38860Y-46741D01*
X38925Y-46585D01*
X38925Y-46416D01*
X38861Y-46260D01*
X38741Y-46140D01*
X38585Y-46075D01*
X38416Y-46075D01*
X38260Y-46139D01*
X38189Y-46210D01*
X36370Y-46210D01*
X35925Y-45764D01*
X35925Y-45666D01*
X35861Y-45510D01*
X35741Y-45390D01*
X35585Y-45325D01*
X35550Y-45325D01*
X35550Y-39771D01*
X38550Y-36771D01*
X38550Y-26521D01*
X40550Y-24521D01*
X40550Y-19521D01*
X42521Y-17550D01*
X43212Y-17550D01*
X43192Y-17622D01*
X43500Y-17929D01*
X43808Y-17622D01*
X43787Y-17550D01*
X44479Y-17550D01*
X45700Y-18771D01*
X45700Y-19729D01*
X43852Y-21576D01*
X43811Y-21535D01*
X43726Y-21500D01*
X43811Y-21465D01*
X43965Y-21311D01*
X44049Y-21109D01*
X44049Y-20891D01*
X44049Y-19109D01*
X44049Y-18891D01*
X44043Y-18876D01*
X44043Y-18079D01*
X44032Y-17866D01*
X43972Y-17719D01*
X43878Y-17692D01*
X43571Y-18000D01*
X43878Y-18308D01*
X43972Y-18281D01*
X44043Y-18079D01*
X44043Y-18876D01*
X43965Y-18689D01*
X43811Y-18535D01*
X43719Y-18497D01*
X43781Y-18472D01*
X43808Y-18378D01*
X43500Y-18071D01*
X43429Y-18141D01*
X43429Y-18000D01*
X43122Y-17692D01*
X43028Y-17719D01*
X42957Y-17921D01*
X42968Y-18134D01*
X43028Y-18281D01*
X43122Y-18308D01*
X43429Y-18000D01*
X43429Y-18141D01*
X43192Y-18378D01*
X43219Y-18472D01*
X43284Y-18495D01*
X43189Y-18535D01*
X43035Y-18689D01*
X42951Y-18891D01*
X42951Y-19109D01*
X43035Y-19311D01*
X43189Y-19465D01*
X43280Y-19502D01*
X43219Y-19528D01*
X43192Y-19622D01*
X43500Y-19929D01*
X43808Y-19622D01*
X43781Y-19528D01*
X43715Y-19504D01*
X43811Y-19465D01*
X43965Y-19311D01*
X44049Y-19109D01*
X44049Y-20891D01*
X44043Y-20876D01*
X44043Y-20079D01*
X44032Y-19866D01*
X43972Y-19719D01*
X43878Y-19692D01*
X43571Y-20000D01*
X43878Y-20308D01*
X43972Y-20281D01*
X44043Y-20079D01*
X44043Y-20876D01*
X43965Y-20689D01*
X43811Y-20535D01*
X43719Y-20497D01*
X43781Y-20472D01*
X43808Y-20378D01*
X43500Y-20071D01*
X43429Y-20141D01*
X43429Y-20000D01*
X43122Y-19692D01*
X43028Y-19719D01*
X42957Y-19921D01*
X42968Y-20134D01*
X43028Y-20281D01*
X43122Y-20308D01*
X43429Y-20000D01*
X43429Y-20141D01*
X43192Y-20378D01*
X43219Y-20472D01*
X43284Y-20495D01*
X43189Y-20535D01*
X43035Y-20689D01*
X42951Y-20891D01*
X42951Y-21109D01*
X43035Y-21311D01*
X43189Y-21465D01*
X43273Y-21500D01*
X43189Y-21535D01*
X43035Y-21689D01*
X42951Y-21891D01*
X42951Y-22109D01*
X43035Y-22311D01*
X43076Y-22352D01*
X42450Y-22979D01*
X42450Y-25325D01*
X42416Y-25325D01*
X42260Y-25389D01*
X42140Y-25509D01*
X42075Y-25665D01*
X42075Y-25834D01*
X42139Y-25990D01*
X42259Y-26110D01*
X42415Y-26175D01*
X42450Y-26175D01*
X42450Y-27021D01*
X44950Y-29521D01*
X44950Y-37521D01*
X46634Y-39205D01*
X46295Y-39545D01*
X46232Y-39639D01*
X46210Y-39750D01*
X46210Y-42500D01*
X46232Y-42611D01*
X46295Y-42705D01*
X46575Y-42985D01*
X46575Y-43084D01*
X46639Y-43240D01*
X46700Y-43301D01*
X46700Y-52021D01*
X49729Y-55050D01*
X55199Y-55050D01*
X55259Y-55110D01*
X55415Y-55175D01*
X55584Y-55175D01*
X55740Y-55111D01*
X55801Y-55050D01*
X57271Y-55050D01*
X58021Y-54300D01*
X68325Y-54300D01*
X68325Y-54334D01*
X68389Y-54490D01*
X68509Y-54610D01*
X68665Y-54675D01*
X68834Y-54675D01*
X68990Y-54611D01*
X69110Y-54491D01*
X69124Y-54455D01*
X69139Y-54490D01*
X69259Y-54610D01*
X69415Y-54675D01*
X69584Y-54675D01*
X69740Y-54611D01*
X69860Y-54491D01*
X69874Y-54455D01*
X69889Y-54490D01*
X70009Y-54610D01*
X70165Y-54675D01*
X70334Y-54675D01*
X70490Y-54611D01*
X70610Y-54491D01*
X70675Y-54335D01*
X70675Y-54300D01*
X81325Y-54300D01*
X81325Y-54334D01*
X81389Y-54490D01*
X81509Y-54610D01*
X81665Y-54675D01*
X81834Y-54675D01*
X81990Y-54611D01*
X82110Y-54491D01*
X82124Y-54455D01*
X82139Y-54490D01*
X82259Y-54610D01*
X82415Y-54675D01*
X82584Y-54675D01*
X82740Y-54611D01*
X82860Y-54491D01*
X82874Y-54455D01*
X82889Y-54490D01*
X83009Y-54610D01*
X83165Y-54675D01*
X83334Y-54675D01*
X83490Y-54611D01*
X83610Y-54491D01*
X83675Y-54335D01*
X83675Y-54300D01*
X94325Y-54300D01*
X94325Y-54334D01*
X94389Y-54490D01*
X94509Y-54610D01*
X94665Y-54675D01*
X94834Y-54675D01*
X94990Y-54611D01*
X95110Y-54491D01*
X95124Y-54455D01*
X95139Y-54490D01*
X95259Y-54610D01*
X95415Y-54675D01*
X95584Y-54675D01*
X95740Y-54611D01*
X95860Y-54491D01*
X95874Y-54455D01*
X95889Y-54490D01*
X96009Y-54610D01*
X96165Y-54675D01*
X96334Y-54675D01*
X96490Y-54611D01*
X96610Y-54491D01*
X96675Y-54335D01*
X96675Y-54300D01*
X104729Y-54300D01*
X107200Y-56771D01*
X107200Y-63729D01*
G54D10*
G36*
X105200Y-64229D02*
X104810Y-64619D01*
X104810Y-58410D01*
X104810Y-58300D01*
X104810Y-58200D01*
X104810Y-58090D01*
X104760Y-57877D01*
X104632Y-57700D01*
X104446Y-57585D01*
X104387Y-57568D01*
X104300Y-57615D01*
X104300Y-58200D01*
X104810Y-58200D01*
X104810Y-58300D01*
X104300Y-58300D01*
X104300Y-58885D01*
X104387Y-58932D01*
X104446Y-58915D01*
X104632Y-58800D01*
X104760Y-58623D01*
X104810Y-58410D01*
X104810Y-64619D01*
X104200Y-65229D01*
X104200Y-58885D01*
X104200Y-58350D01*
X104200Y-58300D01*
X104200Y-58200D01*
X104200Y-58150D01*
X104200Y-57615D01*
X104113Y-57568D01*
X104054Y-57585D01*
X103868Y-57700D01*
X103748Y-57865D01*
X103715Y-57786D01*
X103561Y-57632D01*
X103359Y-57548D01*
X103141Y-57548D01*
X102939Y-57632D01*
X102785Y-57786D01*
X102750Y-57870D01*
X102715Y-57786D01*
X102561Y-57632D01*
X102359Y-57548D01*
X102141Y-57548D01*
X101939Y-57632D01*
X101785Y-57786D01*
X101750Y-57870D01*
X101715Y-57786D01*
X101561Y-57632D01*
X101359Y-57548D01*
X101141Y-57548D01*
X100939Y-57632D01*
X100785Y-57786D01*
X100750Y-57870D01*
X100715Y-57786D01*
X100561Y-57632D01*
X100359Y-57548D01*
X100141Y-57548D01*
X99939Y-57632D01*
X99785Y-57786D01*
X99750Y-57870D01*
X99715Y-57786D01*
X99561Y-57632D01*
X99359Y-57548D01*
X99141Y-57548D01*
X98939Y-57632D01*
X98785Y-57786D01*
X98751Y-57865D01*
X98632Y-57700D01*
X98446Y-57585D01*
X98387Y-57568D01*
X98300Y-57615D01*
X98300Y-58150D01*
X98300Y-58200D01*
X98300Y-58300D01*
X98300Y-58350D01*
X98300Y-58885D01*
X98387Y-58932D01*
X98446Y-58915D01*
X98632Y-58800D01*
X98751Y-58634D01*
X98785Y-58714D01*
X98939Y-58868D01*
X99141Y-58952D01*
X99359Y-58952D01*
X99561Y-58868D01*
X99715Y-58714D01*
X99750Y-58629D01*
X99785Y-58714D01*
X99939Y-58868D01*
X100141Y-58952D01*
X100359Y-58952D01*
X100561Y-58868D01*
X100715Y-58714D01*
X100750Y-58629D01*
X100785Y-58714D01*
X100939Y-58868D01*
X101141Y-58952D01*
X101359Y-58952D01*
X101561Y-58868D01*
X101715Y-58714D01*
X101750Y-58629D01*
X101785Y-58714D01*
X101939Y-58868D01*
X102141Y-58952D01*
X102359Y-58952D01*
X102561Y-58868D01*
X102715Y-58714D01*
X102750Y-58629D01*
X102785Y-58714D01*
X102939Y-58868D01*
X103141Y-58952D01*
X103359Y-58952D01*
X103561Y-58868D01*
X103715Y-58714D01*
X103748Y-58634D01*
X103868Y-58800D01*
X104054Y-58915D01*
X104113Y-58932D01*
X104200Y-58885D01*
X104200Y-65229D01*
X99479Y-69950D01*
X98729Y-69950D01*
X98469Y-70210D01*
X98310Y-70210D01*
X98310Y-69410D01*
X98310Y-69300D01*
X98310Y-69200D01*
X98310Y-69090D01*
X98260Y-68877D01*
X98132Y-68700D01*
X97946Y-68585D01*
X97887Y-68568D01*
X97800Y-68615D01*
X97800Y-69200D01*
X98310Y-69200D01*
X98310Y-69300D01*
X97800Y-69300D01*
X97800Y-69885D01*
X97887Y-69932D01*
X97946Y-69915D01*
X98132Y-69800D01*
X98260Y-69623D01*
X98310Y-69410D01*
X98310Y-70210D01*
X97700Y-70210D01*
X97700Y-69885D01*
X97700Y-69350D01*
X97700Y-69300D01*
X97700Y-69200D01*
X97700Y-69150D01*
X97700Y-68615D01*
X97613Y-68568D01*
X97554Y-68585D01*
X97368Y-68700D01*
X97248Y-68865D01*
X97215Y-68786D01*
X97061Y-68632D01*
X96859Y-68548D01*
X96641Y-68548D01*
X96439Y-68632D01*
X96285Y-68786D01*
X96250Y-68870D01*
X96215Y-68786D01*
X96061Y-68632D01*
X95859Y-68548D01*
X95641Y-68548D01*
X95439Y-68632D01*
X95285Y-68786D01*
X95250Y-68870D01*
X95215Y-68786D01*
X95061Y-68632D01*
X94859Y-68548D01*
X94641Y-68548D01*
X94439Y-68632D01*
X94285Y-68786D01*
X94250Y-68870D01*
X94215Y-68786D01*
X94061Y-68632D01*
X93859Y-68548D01*
X93641Y-68548D01*
X93439Y-68632D01*
X93285Y-68786D01*
X93250Y-68870D01*
X93215Y-68786D01*
X93061Y-68632D01*
X92859Y-68548D01*
X92641Y-68548D01*
X92439Y-68632D01*
X92285Y-68786D01*
X92251Y-68865D01*
X92132Y-68700D01*
X91946Y-68585D01*
X91887Y-68568D01*
X91800Y-68615D01*
X91800Y-69150D01*
X91800Y-69200D01*
X91800Y-69300D01*
X91800Y-69350D01*
X91800Y-69885D01*
X91887Y-69932D01*
X91946Y-69915D01*
X92132Y-69800D01*
X92251Y-69634D01*
X92285Y-69714D01*
X92439Y-69868D01*
X92641Y-69952D01*
X92859Y-69952D01*
X93061Y-69868D01*
X93215Y-69714D01*
X93250Y-69629D01*
X93285Y-69714D01*
X93439Y-69868D01*
X93641Y-69952D01*
X93859Y-69952D01*
X94061Y-69868D01*
X94215Y-69714D01*
X94250Y-69629D01*
X94285Y-69714D01*
X94439Y-69868D01*
X94641Y-69952D01*
X94859Y-69952D01*
X95061Y-69868D01*
X95215Y-69714D01*
X95250Y-69629D01*
X95285Y-69714D01*
X95439Y-69868D01*
X95641Y-69952D01*
X95859Y-69952D01*
X96061Y-69868D01*
X96215Y-69714D01*
X96250Y-69629D01*
X96285Y-69714D01*
X96439Y-69868D01*
X96641Y-69952D01*
X96859Y-69952D01*
X97061Y-69868D01*
X97215Y-69714D01*
X97248Y-69634D01*
X97368Y-69800D01*
X97554Y-69915D01*
X97613Y-69932D01*
X97700Y-69885D01*
X97700Y-70210D01*
X94561Y-70210D01*
X94491Y-70140D01*
X94335Y-70075D01*
X94166Y-70075D01*
X94010Y-70139D01*
X93939Y-70210D01*
X91700Y-70210D01*
X91700Y-69885D01*
X91700Y-69350D01*
X91700Y-69300D01*
X91700Y-69200D01*
X91700Y-69150D01*
X91700Y-68615D01*
X91613Y-68568D01*
X91554Y-68585D01*
X91368Y-68700D01*
X91248Y-68865D01*
X91215Y-68786D01*
X91061Y-68632D01*
X90859Y-68548D01*
X90641Y-68548D01*
X90439Y-68632D01*
X90285Y-68786D01*
X90201Y-68988D01*
X90201Y-69206D01*
X90201Y-69512D01*
X90285Y-69714D01*
X90439Y-69868D01*
X90641Y-69952D01*
X90859Y-69952D01*
X91061Y-69868D01*
X91215Y-69714D01*
X91248Y-69634D01*
X91368Y-69800D01*
X91554Y-69915D01*
X91613Y-69932D01*
X91700Y-69885D01*
X91700Y-70210D01*
X85310Y-70210D01*
X85310Y-69410D01*
X85310Y-69300D01*
X85310Y-69200D01*
X85310Y-69090D01*
X85260Y-68877D01*
X85132Y-68700D01*
X84946Y-68585D01*
X84887Y-68568D01*
X84800Y-68615D01*
X84800Y-69200D01*
X85310Y-69200D01*
X85310Y-69300D01*
X84800Y-69300D01*
X84800Y-69885D01*
X84887Y-69932D01*
X84946Y-69915D01*
X85132Y-69800D01*
X85260Y-69623D01*
X85310Y-69410D01*
X85310Y-70210D01*
X84700Y-70210D01*
X84700Y-69885D01*
X84700Y-69350D01*
X84700Y-69300D01*
X84700Y-69200D01*
X84700Y-69150D01*
X84700Y-68615D01*
X84613Y-68568D01*
X84554Y-68585D01*
X84368Y-68700D01*
X84248Y-68865D01*
X84215Y-68786D01*
X84061Y-68632D01*
X83859Y-68548D01*
X83641Y-68548D01*
X83439Y-68632D01*
X83285Y-68786D01*
X83250Y-68870D01*
X83215Y-68786D01*
X83061Y-68632D01*
X82859Y-68548D01*
X82641Y-68548D01*
X82439Y-68632D01*
X82285Y-68786D01*
X82250Y-68870D01*
X82215Y-68786D01*
X82061Y-68632D01*
X81859Y-68548D01*
X81641Y-68548D01*
X81439Y-68632D01*
X81285Y-68786D01*
X81250Y-68870D01*
X81215Y-68786D01*
X81061Y-68632D01*
X80859Y-68548D01*
X80641Y-68548D01*
X80439Y-68632D01*
X80285Y-68786D01*
X80250Y-68870D01*
X80215Y-68786D01*
X80061Y-68632D01*
X79859Y-68548D01*
X79641Y-68548D01*
X79439Y-68632D01*
X79285Y-68786D01*
X79251Y-68865D01*
X79132Y-68700D01*
X78946Y-68585D01*
X78887Y-68568D01*
X78800Y-68615D01*
X78800Y-69150D01*
X78800Y-69200D01*
X78800Y-69300D01*
X78800Y-69350D01*
X78800Y-69885D01*
X78887Y-69932D01*
X78946Y-69915D01*
X79132Y-69800D01*
X79251Y-69634D01*
X79285Y-69714D01*
X79439Y-69868D01*
X79641Y-69952D01*
X79859Y-69952D01*
X80061Y-69868D01*
X80215Y-69714D01*
X80250Y-69629D01*
X80285Y-69714D01*
X80439Y-69868D01*
X80641Y-69952D01*
X80859Y-69952D01*
X81061Y-69868D01*
X81215Y-69714D01*
X81250Y-69629D01*
X81285Y-69714D01*
X81439Y-69868D01*
X81641Y-69952D01*
X81859Y-69952D01*
X82061Y-69868D01*
X82215Y-69714D01*
X82250Y-69629D01*
X82285Y-69714D01*
X82439Y-69868D01*
X82641Y-69952D01*
X82859Y-69952D01*
X83061Y-69868D01*
X83215Y-69714D01*
X83250Y-69629D01*
X83285Y-69714D01*
X83439Y-69868D01*
X83641Y-69952D01*
X83859Y-69952D01*
X84061Y-69868D01*
X84215Y-69714D01*
X84248Y-69634D01*
X84368Y-69800D01*
X84554Y-69915D01*
X84613Y-69932D01*
X84700Y-69885D01*
X84700Y-70210D01*
X82061Y-70210D01*
X81991Y-70140D01*
X81835Y-70075D01*
X81666Y-70075D01*
X81510Y-70139D01*
X81439Y-70210D01*
X78700Y-70210D01*
X78700Y-69885D01*
X78700Y-69350D01*
X78700Y-69300D01*
X78700Y-69200D01*
X78700Y-69150D01*
X78700Y-68615D01*
X78613Y-68568D01*
X78554Y-68585D01*
X78368Y-68700D01*
X78248Y-68865D01*
X78215Y-68786D01*
X78061Y-68632D01*
X77859Y-68548D01*
X77641Y-68548D01*
X77439Y-68632D01*
X77285Y-68786D01*
X77201Y-68988D01*
X77201Y-69206D01*
X77201Y-69512D01*
X77285Y-69714D01*
X77439Y-69868D01*
X77641Y-69952D01*
X77859Y-69952D01*
X78061Y-69868D01*
X78215Y-69714D01*
X78248Y-69634D01*
X78368Y-69800D01*
X78554Y-69915D01*
X78613Y-69932D01*
X78700Y-69885D01*
X78700Y-70210D01*
X72310Y-70210D01*
X72310Y-69410D01*
X72310Y-69300D01*
X72310Y-69200D01*
X72310Y-69090D01*
X72260Y-68877D01*
X72132Y-68700D01*
X71946Y-68585D01*
X71887Y-68568D01*
X71800Y-68615D01*
X71800Y-69200D01*
X72310Y-69200D01*
X72310Y-69300D01*
X71800Y-69300D01*
X71800Y-69885D01*
X71887Y-69932D01*
X71946Y-69915D01*
X72132Y-69800D01*
X72260Y-69623D01*
X72310Y-69410D01*
X72310Y-70210D01*
X71700Y-70210D01*
X71700Y-69885D01*
X71700Y-69350D01*
X71700Y-69300D01*
X71700Y-69200D01*
X71700Y-69150D01*
X71700Y-68615D01*
X71613Y-68568D01*
X71554Y-68585D01*
X71368Y-68700D01*
X71248Y-68865D01*
X71215Y-68786D01*
X71061Y-68632D01*
X70859Y-68548D01*
X70641Y-68548D01*
X70439Y-68632D01*
X70285Y-68786D01*
X70250Y-68870D01*
X70215Y-68786D01*
X70061Y-68632D01*
X69859Y-68548D01*
X69641Y-68548D01*
X69439Y-68632D01*
X69285Y-68786D01*
X69250Y-68870D01*
X69215Y-68786D01*
X69061Y-68632D01*
X68859Y-68548D01*
X68641Y-68548D01*
X68439Y-68632D01*
X68285Y-68786D01*
X68250Y-68870D01*
X68215Y-68786D01*
X68061Y-68632D01*
X67859Y-68548D01*
X67641Y-68548D01*
X67439Y-68632D01*
X67285Y-68786D01*
X67250Y-68870D01*
X67215Y-68786D01*
X67061Y-68632D01*
X66859Y-68548D01*
X66641Y-68548D01*
X66439Y-68632D01*
X66285Y-68786D01*
X66251Y-68865D01*
X66132Y-68700D01*
X65946Y-68585D01*
X65887Y-68568D01*
X65800Y-68615D01*
X65800Y-69150D01*
X65800Y-69200D01*
X65800Y-69300D01*
X65800Y-69350D01*
X65800Y-69885D01*
X65887Y-69932D01*
X65946Y-69915D01*
X66132Y-69800D01*
X66251Y-69634D01*
X66285Y-69714D01*
X66439Y-69868D01*
X66641Y-69952D01*
X66859Y-69952D01*
X67061Y-69868D01*
X67215Y-69714D01*
X67250Y-69629D01*
X67285Y-69714D01*
X67439Y-69868D01*
X67641Y-69952D01*
X67859Y-69952D01*
X68061Y-69868D01*
X68215Y-69714D01*
X68250Y-69629D01*
X68285Y-69714D01*
X68439Y-69868D01*
X68641Y-69952D01*
X68859Y-69952D01*
X69061Y-69868D01*
X69215Y-69714D01*
X69250Y-69629D01*
X69285Y-69714D01*
X69439Y-69868D01*
X69641Y-69952D01*
X69859Y-69952D01*
X70061Y-69868D01*
X70215Y-69714D01*
X70250Y-69629D01*
X70285Y-69714D01*
X70439Y-69868D01*
X70641Y-69952D01*
X70859Y-69952D01*
X71061Y-69868D01*
X71215Y-69714D01*
X71248Y-69634D01*
X71368Y-69800D01*
X71554Y-69915D01*
X71613Y-69932D01*
X71700Y-69885D01*
X71700Y-70210D01*
X69061Y-70210D01*
X68991Y-70140D01*
X68835Y-70075D01*
X68666Y-70075D01*
X68510Y-70139D01*
X68439Y-70210D01*
X65700Y-70210D01*
X65700Y-69885D01*
X65700Y-69350D01*
X65700Y-69300D01*
X65700Y-69200D01*
X65700Y-69150D01*
X65700Y-68615D01*
X65613Y-68568D01*
X65554Y-68585D01*
X65368Y-68700D01*
X65248Y-68865D01*
X65215Y-68786D01*
X65061Y-68632D01*
X64859Y-68548D01*
X64641Y-68548D01*
X64439Y-68632D01*
X64285Y-68786D01*
X64201Y-68988D01*
X64201Y-69206D01*
X64201Y-69512D01*
X64285Y-69714D01*
X64439Y-69868D01*
X64641Y-69952D01*
X64859Y-69952D01*
X65061Y-69868D01*
X65215Y-69714D01*
X65248Y-69634D01*
X65368Y-69800D01*
X65554Y-69915D01*
X65613Y-69932D01*
X65700Y-69885D01*
X65700Y-70210D01*
X59310Y-70210D01*
X59310Y-69410D01*
X59310Y-69300D01*
X59310Y-69200D01*
X59310Y-69090D01*
X59260Y-68877D01*
X59132Y-68700D01*
X58946Y-68585D01*
X58887Y-68568D01*
X58800Y-68615D01*
X58800Y-69200D01*
X59310Y-69200D01*
X59310Y-69300D01*
X58800Y-69300D01*
X58800Y-69885D01*
X58887Y-69932D01*
X58946Y-69915D01*
X59132Y-69800D01*
X59260Y-69623D01*
X59310Y-69410D01*
X59310Y-70210D01*
X58700Y-70210D01*
X58700Y-69885D01*
X58700Y-69350D01*
X58700Y-69300D01*
X58700Y-69200D01*
X58700Y-69150D01*
X58700Y-68615D01*
X58613Y-68568D01*
X58554Y-68585D01*
X58368Y-68700D01*
X58248Y-68865D01*
X58215Y-68786D01*
X58061Y-68632D01*
X57859Y-68548D01*
X57641Y-68548D01*
X57439Y-68632D01*
X57285Y-68786D01*
X57250Y-68870D01*
X57215Y-68786D01*
X57061Y-68632D01*
X56859Y-68548D01*
X56641Y-68548D01*
X56439Y-68632D01*
X56285Y-68786D01*
X56250Y-68870D01*
X56215Y-68786D01*
X56061Y-68632D01*
X55859Y-68548D01*
X55641Y-68548D01*
X55439Y-68632D01*
X55285Y-68786D01*
X55250Y-68870D01*
X55215Y-68786D01*
X55061Y-68632D01*
X54859Y-68548D01*
X54641Y-68548D01*
X54439Y-68632D01*
X54285Y-68786D01*
X54250Y-68870D01*
X54215Y-68786D01*
X54061Y-68632D01*
X53859Y-68548D01*
X53641Y-68548D01*
X53439Y-68632D01*
X53285Y-68786D01*
X53251Y-68865D01*
X53132Y-68700D01*
X52946Y-68585D01*
X52887Y-68568D01*
X52800Y-68615D01*
X52800Y-69150D01*
X52800Y-69200D01*
X52800Y-69300D01*
X52800Y-69350D01*
X52800Y-69885D01*
X52887Y-69932D01*
X52946Y-69915D01*
X53132Y-69800D01*
X53251Y-69634D01*
X53285Y-69714D01*
X53439Y-69868D01*
X53641Y-69952D01*
X53859Y-69952D01*
X54061Y-69868D01*
X54215Y-69714D01*
X54250Y-69629D01*
X54285Y-69714D01*
X54439Y-69868D01*
X54641Y-69952D01*
X54859Y-69952D01*
X55061Y-69868D01*
X55215Y-69714D01*
X55250Y-69629D01*
X55285Y-69714D01*
X55439Y-69868D01*
X55641Y-69952D01*
X55859Y-69952D01*
X56061Y-69868D01*
X56215Y-69714D01*
X56250Y-69629D01*
X56285Y-69714D01*
X56439Y-69868D01*
X56641Y-69952D01*
X56859Y-69952D01*
X57061Y-69868D01*
X57215Y-69714D01*
X57250Y-69629D01*
X57285Y-69714D01*
X57439Y-69868D01*
X57641Y-69952D01*
X57859Y-69952D01*
X58061Y-69868D01*
X58215Y-69714D01*
X58248Y-69634D01*
X58368Y-69800D01*
X58554Y-69915D01*
X58613Y-69932D01*
X58700Y-69885D01*
X58700Y-70210D01*
X56061Y-70210D01*
X55991Y-70140D01*
X55835Y-70075D01*
X55666Y-70075D01*
X55510Y-70139D01*
X55390Y-70259D01*
X55325Y-70415D01*
X55325Y-70450D01*
X52700Y-70450D01*
X52700Y-69885D01*
X52700Y-69350D01*
X52700Y-69300D01*
X52700Y-69200D01*
X52700Y-69150D01*
X52700Y-68615D01*
X52613Y-68568D01*
X52554Y-68585D01*
X52368Y-68700D01*
X52248Y-68865D01*
X52215Y-68786D01*
X52061Y-68632D01*
X51859Y-68548D01*
X51641Y-68548D01*
X51439Y-68632D01*
X51285Y-68786D01*
X51201Y-68988D01*
X51201Y-69206D01*
X51201Y-69512D01*
X51285Y-69714D01*
X51439Y-69868D01*
X51641Y-69952D01*
X51859Y-69952D01*
X52061Y-69868D01*
X52215Y-69714D01*
X52248Y-69634D01*
X52368Y-69800D01*
X52554Y-69915D01*
X52613Y-69932D01*
X52700Y-69885D01*
X52700Y-70450D01*
X49521Y-70450D01*
X49050Y-69979D01*
X49050Y-69271D01*
X50271Y-68050D01*
X54449Y-68050D01*
X54509Y-68110D01*
X54665Y-68175D01*
X54834Y-68175D01*
X54990Y-68111D01*
X55051Y-68050D01*
X67449Y-68050D01*
X67509Y-68110D01*
X67665Y-68175D01*
X67834Y-68175D01*
X67990Y-68111D01*
X68051Y-68050D01*
X80449Y-68050D01*
X80509Y-68110D01*
X80665Y-68175D01*
X80834Y-68175D01*
X80990Y-68111D01*
X81051Y-68050D01*
X92949Y-68050D01*
X93009Y-68110D01*
X93165Y-68175D01*
X93334Y-68175D01*
X93490Y-68111D01*
X93551Y-68050D01*
X98521Y-68050D01*
X102800Y-63771D01*
X102800Y-59979D01*
X102271Y-59450D01*
X100925Y-59450D01*
X100925Y-59416D01*
X100861Y-59260D01*
X100741Y-59140D01*
X100585Y-59075D01*
X100416Y-59075D01*
X100260Y-59139D01*
X100140Y-59259D01*
X100075Y-59415D01*
X100075Y-59450D01*
X98200Y-59450D01*
X98200Y-58885D01*
X98200Y-58350D01*
X98200Y-58300D01*
X98200Y-58200D01*
X98200Y-58150D01*
X98200Y-57615D01*
X98113Y-57568D01*
X98054Y-57585D01*
X97868Y-57700D01*
X97748Y-57865D01*
X97715Y-57786D01*
X97561Y-57632D01*
X97359Y-57548D01*
X97141Y-57548D01*
X96939Y-57632D01*
X96785Y-57786D01*
X96701Y-57988D01*
X96701Y-58206D01*
X96701Y-58512D01*
X96785Y-58714D01*
X96939Y-58868D01*
X97141Y-58952D01*
X97359Y-58952D01*
X97561Y-58868D01*
X97715Y-58714D01*
X97748Y-58634D01*
X97868Y-58800D01*
X98054Y-58915D01*
X98113Y-58932D01*
X98200Y-58885D01*
X98200Y-59450D01*
X91810Y-59450D01*
X91810Y-58410D01*
X91810Y-58300D01*
X91810Y-58200D01*
X91810Y-58090D01*
X91760Y-57877D01*
X91632Y-57700D01*
X91446Y-57585D01*
X91387Y-57568D01*
X91300Y-57615D01*
X91300Y-58200D01*
X91810Y-58200D01*
X91810Y-58300D01*
X91300Y-58300D01*
X91300Y-58885D01*
X91387Y-58932D01*
X91446Y-58915D01*
X91632Y-58800D01*
X91760Y-58623D01*
X91810Y-58410D01*
X91810Y-59450D01*
X91200Y-59450D01*
X91200Y-58885D01*
X91200Y-58350D01*
X91200Y-58300D01*
X91200Y-58200D01*
X91200Y-58150D01*
X91200Y-57615D01*
X91113Y-57568D01*
X91054Y-57585D01*
X90868Y-57700D01*
X90748Y-57865D01*
X90715Y-57786D01*
X90561Y-57632D01*
X90359Y-57548D01*
X90141Y-57548D01*
X89939Y-57632D01*
X89785Y-57786D01*
X89750Y-57870D01*
X89715Y-57786D01*
X89561Y-57632D01*
X89359Y-57548D01*
X89141Y-57548D01*
X88939Y-57632D01*
X88785Y-57786D01*
X88750Y-57870D01*
X88715Y-57786D01*
X88561Y-57632D01*
X88359Y-57548D01*
X88141Y-57548D01*
X87939Y-57632D01*
X87785Y-57786D01*
X87750Y-57870D01*
X87715Y-57786D01*
X87561Y-57632D01*
X87359Y-57548D01*
X87141Y-57548D01*
X86939Y-57632D01*
X86785Y-57786D01*
X86750Y-57870D01*
X86715Y-57786D01*
X86561Y-57632D01*
X86359Y-57548D01*
X86141Y-57548D01*
X85939Y-57632D01*
X85785Y-57786D01*
X85751Y-57865D01*
X85632Y-57700D01*
X85446Y-57585D01*
X85387Y-57568D01*
X85300Y-57615D01*
X85300Y-58150D01*
X85300Y-58200D01*
X85300Y-58300D01*
X85300Y-58350D01*
X85300Y-58885D01*
X85387Y-58932D01*
X85446Y-58915D01*
X85632Y-58800D01*
X85751Y-58634D01*
X85785Y-58714D01*
X85939Y-58868D01*
X86141Y-58952D01*
X86359Y-58952D01*
X86561Y-58868D01*
X86715Y-58714D01*
X86750Y-58629D01*
X86785Y-58714D01*
X86939Y-58868D01*
X87141Y-58952D01*
X87359Y-58952D01*
X87561Y-58868D01*
X87715Y-58714D01*
X87750Y-58629D01*
X87785Y-58714D01*
X87939Y-58868D01*
X88141Y-58952D01*
X88359Y-58952D01*
X88561Y-58868D01*
X88715Y-58714D01*
X88750Y-58629D01*
X88785Y-58714D01*
X88939Y-58868D01*
X89141Y-58952D01*
X89359Y-58952D01*
X89561Y-58868D01*
X89715Y-58714D01*
X89750Y-58629D01*
X89785Y-58714D01*
X89939Y-58868D01*
X90141Y-58952D01*
X90359Y-58952D01*
X90561Y-58868D01*
X90715Y-58714D01*
X90748Y-58634D01*
X90868Y-58800D01*
X91054Y-58915D01*
X91113Y-58932D01*
X91200Y-58885D01*
X91200Y-59450D01*
X85200Y-59450D01*
X85200Y-58885D01*
X85200Y-58350D01*
X85200Y-58300D01*
X85200Y-58200D01*
X85200Y-58150D01*
X85200Y-57615D01*
X85113Y-57568D01*
X85054Y-57585D01*
X84868Y-57700D01*
X84748Y-57865D01*
X84715Y-57786D01*
X84561Y-57632D01*
X84359Y-57548D01*
X84141Y-57548D01*
X83939Y-57632D01*
X83785Y-57786D01*
X83701Y-57988D01*
X83701Y-58206D01*
X83701Y-58512D01*
X83785Y-58714D01*
X83939Y-58868D01*
X84141Y-58952D01*
X84359Y-58952D01*
X84561Y-58868D01*
X84715Y-58714D01*
X84748Y-58634D01*
X84868Y-58800D01*
X85054Y-58915D01*
X85113Y-58932D01*
X85200Y-58885D01*
X85200Y-59450D01*
X78810Y-59450D01*
X78810Y-58410D01*
X78810Y-58300D01*
X78810Y-58200D01*
X78810Y-58090D01*
X78760Y-57877D01*
X78632Y-57700D01*
X78446Y-57585D01*
X78387Y-57568D01*
X78300Y-57615D01*
X78300Y-58200D01*
X78810Y-58200D01*
X78810Y-58300D01*
X78300Y-58300D01*
X78300Y-58885D01*
X78387Y-58932D01*
X78446Y-58915D01*
X78632Y-58800D01*
X78760Y-58623D01*
X78810Y-58410D01*
X78810Y-59450D01*
X78200Y-59450D01*
X78200Y-58885D01*
X78200Y-58350D01*
X78200Y-58300D01*
X78200Y-58200D01*
X78200Y-58150D01*
X78200Y-57615D01*
X78113Y-57568D01*
X78054Y-57585D01*
X77868Y-57700D01*
X77748Y-57865D01*
X77715Y-57786D01*
X77561Y-57632D01*
X77359Y-57548D01*
X77141Y-57548D01*
X76939Y-57632D01*
X76785Y-57786D01*
X76750Y-57870D01*
X76715Y-57786D01*
X76561Y-57632D01*
X76359Y-57548D01*
X76141Y-57548D01*
X75939Y-57632D01*
X75785Y-57786D01*
X75750Y-57870D01*
X75715Y-57786D01*
X75561Y-57632D01*
X75359Y-57548D01*
X75141Y-57548D01*
X74939Y-57632D01*
X74785Y-57786D01*
X74750Y-57870D01*
X74715Y-57786D01*
X74561Y-57632D01*
X74359Y-57548D01*
X74141Y-57548D01*
X73939Y-57632D01*
X73785Y-57786D01*
X73750Y-57870D01*
X73715Y-57786D01*
X73561Y-57632D01*
X73359Y-57548D01*
X73141Y-57548D01*
X72939Y-57632D01*
X72785Y-57786D01*
X72751Y-57865D01*
X72632Y-57700D01*
X72446Y-57585D01*
X72387Y-57568D01*
X72300Y-57615D01*
X72300Y-58150D01*
X72300Y-58200D01*
X72300Y-58300D01*
X72300Y-58350D01*
X72300Y-58885D01*
X72387Y-58932D01*
X72446Y-58915D01*
X72632Y-58800D01*
X72751Y-58634D01*
X72785Y-58714D01*
X72939Y-58868D01*
X73141Y-58952D01*
X73359Y-58952D01*
X73561Y-58868D01*
X73715Y-58714D01*
X73750Y-58629D01*
X73785Y-58714D01*
X73939Y-58868D01*
X74141Y-58952D01*
X74359Y-58952D01*
X74561Y-58868D01*
X74715Y-58714D01*
X74750Y-58629D01*
X74785Y-58714D01*
X74939Y-58868D01*
X75141Y-58952D01*
X75359Y-58952D01*
X75561Y-58868D01*
X75715Y-58714D01*
X75750Y-58629D01*
X75785Y-58714D01*
X75939Y-58868D01*
X76141Y-58952D01*
X76359Y-58952D01*
X76561Y-58868D01*
X76715Y-58714D01*
X76750Y-58629D01*
X76785Y-58714D01*
X76939Y-58868D01*
X77141Y-58952D01*
X77359Y-58952D01*
X77561Y-58868D01*
X77715Y-58714D01*
X77748Y-58634D01*
X77868Y-58800D01*
X78054Y-58915D01*
X78113Y-58932D01*
X78200Y-58885D01*
X78200Y-59450D01*
X72200Y-59450D01*
X72200Y-58885D01*
X72200Y-58350D01*
X72200Y-58300D01*
X72200Y-58200D01*
X72200Y-58150D01*
X72200Y-57615D01*
X72113Y-57568D01*
X72054Y-57585D01*
X71868Y-57700D01*
X71748Y-57865D01*
X71715Y-57786D01*
X71561Y-57632D01*
X71359Y-57548D01*
X71141Y-57548D01*
X70939Y-57632D01*
X70785Y-57786D01*
X70701Y-57988D01*
X70701Y-58206D01*
X70701Y-58512D01*
X70785Y-58714D01*
X70939Y-58868D01*
X71141Y-58952D01*
X71359Y-58952D01*
X71561Y-58868D01*
X71715Y-58714D01*
X71748Y-58634D01*
X71868Y-58800D01*
X72054Y-58915D01*
X72113Y-58932D01*
X72200Y-58885D01*
X72200Y-59450D01*
X65810Y-59450D01*
X65810Y-58410D01*
X65810Y-58300D01*
X65810Y-58200D01*
X65810Y-58090D01*
X65760Y-57877D01*
X65632Y-57700D01*
X65446Y-57585D01*
X65387Y-57568D01*
X65300Y-57615D01*
X65300Y-58200D01*
X65810Y-58200D01*
X65810Y-58300D01*
X65300Y-58300D01*
X65300Y-58885D01*
X65387Y-58932D01*
X65446Y-58915D01*
X65632Y-58800D01*
X65760Y-58623D01*
X65810Y-58410D01*
X65810Y-59450D01*
X65200Y-59450D01*
X65200Y-58885D01*
X65200Y-58350D01*
X65200Y-58300D01*
X65200Y-58200D01*
X65200Y-58150D01*
X65200Y-57615D01*
X65113Y-57568D01*
X65054Y-57585D01*
X64868Y-57700D01*
X64748Y-57865D01*
X64715Y-57786D01*
X64561Y-57632D01*
X64359Y-57548D01*
X64141Y-57548D01*
X63939Y-57632D01*
X63785Y-57786D01*
X63750Y-57870D01*
X63715Y-57786D01*
X63561Y-57632D01*
X63359Y-57548D01*
X63141Y-57548D01*
X62939Y-57632D01*
X62785Y-57786D01*
X62750Y-57870D01*
X62715Y-57786D01*
X62561Y-57632D01*
X62359Y-57548D01*
X62141Y-57548D01*
X61939Y-57632D01*
X61785Y-57786D01*
X61750Y-57870D01*
X61715Y-57786D01*
X61561Y-57632D01*
X61359Y-57548D01*
X61141Y-57548D01*
X60939Y-57632D01*
X60785Y-57786D01*
X60750Y-57870D01*
X60715Y-57786D01*
X60561Y-57632D01*
X60359Y-57548D01*
X60141Y-57548D01*
X59939Y-57632D01*
X59785Y-57786D01*
X59751Y-57865D01*
X59632Y-57700D01*
X59446Y-57585D01*
X59387Y-57568D01*
X59300Y-57615D01*
X59300Y-58150D01*
X59300Y-58200D01*
X59300Y-58300D01*
X59300Y-58350D01*
X59300Y-58885D01*
X59387Y-58932D01*
X59446Y-58915D01*
X59632Y-58800D01*
X59751Y-58634D01*
X59785Y-58714D01*
X59939Y-58868D01*
X60141Y-58952D01*
X60359Y-58952D01*
X60561Y-58868D01*
X60715Y-58714D01*
X60750Y-58629D01*
X60785Y-58714D01*
X60939Y-58868D01*
X61141Y-58952D01*
X61359Y-58952D01*
X61561Y-58868D01*
X61715Y-58714D01*
X61750Y-58629D01*
X61785Y-58714D01*
X61939Y-58868D01*
X62141Y-58952D01*
X62359Y-58952D01*
X62561Y-58868D01*
X62715Y-58714D01*
X62750Y-58629D01*
X62785Y-58714D01*
X62939Y-58868D01*
X63141Y-58952D01*
X63359Y-58952D01*
X63561Y-58868D01*
X63715Y-58714D01*
X63750Y-58629D01*
X63785Y-58714D01*
X63939Y-58868D01*
X64141Y-58952D01*
X64359Y-58952D01*
X64561Y-58868D01*
X64715Y-58714D01*
X64748Y-58634D01*
X64868Y-58800D01*
X65054Y-58915D01*
X65113Y-58932D01*
X65200Y-58885D01*
X65200Y-59450D01*
X59200Y-59450D01*
X59200Y-58885D01*
X59200Y-58350D01*
X59200Y-58300D01*
X59200Y-58200D01*
X59200Y-58150D01*
X59200Y-57615D01*
X59113Y-57568D01*
X59054Y-57585D01*
X58868Y-57700D01*
X58748Y-57865D01*
X58715Y-57786D01*
X58561Y-57632D01*
X58359Y-57548D01*
X58141Y-57548D01*
X57939Y-57632D01*
X57785Y-57786D01*
X57701Y-57988D01*
X57701Y-58206D01*
X57701Y-58512D01*
X57785Y-58714D01*
X57939Y-58868D01*
X58141Y-58952D01*
X58359Y-58952D01*
X58561Y-58868D01*
X58715Y-58714D01*
X58748Y-58634D01*
X58868Y-58800D01*
X59054Y-58915D01*
X59113Y-58932D01*
X59200Y-58885D01*
X59200Y-59450D01*
X50771Y-59450D01*
X50050Y-58729D01*
X50050Y-57771D01*
X50771Y-57050D01*
X53949Y-57050D01*
X54009Y-57110D01*
X54165Y-57175D01*
X54334Y-57175D01*
X54490Y-57111D01*
X54551Y-57050D01*
X59949Y-57050D01*
X60009Y-57110D01*
X60165Y-57175D01*
X60334Y-57175D01*
X60490Y-57111D01*
X60551Y-57050D01*
X72949Y-57050D01*
X73009Y-57110D01*
X73165Y-57175D01*
X73334Y-57175D01*
X73490Y-57111D01*
X73551Y-57050D01*
X85949Y-57050D01*
X86009Y-57110D01*
X86165Y-57175D01*
X86334Y-57175D01*
X86490Y-57111D01*
X86551Y-57050D01*
X98949Y-57050D01*
X99009Y-57110D01*
X99165Y-57175D01*
X99334Y-57175D01*
X99490Y-57111D01*
X99551Y-57050D01*
X104479Y-57050D01*
X105200Y-57771D01*
X105200Y-64229D01*
X105200Y-64229D01*
G37*
G54D27*
X105200Y-64229D02*
X104810Y-64619D01*
X104810Y-58410D01*
X104810Y-58300D01*
X104810Y-58200D01*
X104810Y-58090D01*
X104760Y-57877D01*
X104632Y-57700D01*
X104446Y-57585D01*
X104387Y-57568D01*
X104300Y-57615D01*
X104300Y-58200D01*
X104810Y-58200D01*
X104810Y-58300D01*
X104300Y-58300D01*
X104300Y-58885D01*
X104387Y-58932D01*
X104446Y-58915D01*
X104632Y-58800D01*
X104760Y-58623D01*
X104810Y-58410D01*
X104810Y-64619D01*
X104200Y-65229D01*
X104200Y-58885D01*
X104200Y-58350D01*
X104200Y-58300D01*
X104200Y-58200D01*
X104200Y-58150D01*
X104200Y-57615D01*
X104113Y-57568D01*
X104054Y-57585D01*
X103868Y-57700D01*
X103748Y-57865D01*
X103715Y-57786D01*
X103561Y-57632D01*
X103359Y-57548D01*
X103141Y-57548D01*
X102939Y-57632D01*
X102785Y-57786D01*
X102750Y-57870D01*
X102715Y-57786D01*
X102561Y-57632D01*
X102359Y-57548D01*
X102141Y-57548D01*
X101939Y-57632D01*
X101785Y-57786D01*
X101750Y-57870D01*
X101715Y-57786D01*
X101561Y-57632D01*
X101359Y-57548D01*
X101141Y-57548D01*
X100939Y-57632D01*
X100785Y-57786D01*
X100750Y-57870D01*
X100715Y-57786D01*
X100561Y-57632D01*
X100359Y-57548D01*
X100141Y-57548D01*
X99939Y-57632D01*
X99785Y-57786D01*
X99750Y-57870D01*
X99715Y-57786D01*
X99561Y-57632D01*
X99359Y-57548D01*
X99141Y-57548D01*
X98939Y-57632D01*
X98785Y-57786D01*
X98751Y-57865D01*
X98632Y-57700D01*
X98446Y-57585D01*
X98387Y-57568D01*
X98300Y-57615D01*
X98300Y-58150D01*
X98300Y-58200D01*
X98300Y-58300D01*
X98300Y-58350D01*
X98300Y-58885D01*
X98387Y-58932D01*
X98446Y-58915D01*
X98632Y-58800D01*
X98751Y-58634D01*
X98785Y-58714D01*
X98939Y-58868D01*
X99141Y-58952D01*
X99359Y-58952D01*
X99561Y-58868D01*
X99715Y-58714D01*
X99750Y-58629D01*
X99785Y-58714D01*
X99939Y-58868D01*
X100141Y-58952D01*
X100359Y-58952D01*
X100561Y-58868D01*
X100715Y-58714D01*
X100750Y-58629D01*
X100785Y-58714D01*
X100939Y-58868D01*
X101141Y-58952D01*
X101359Y-58952D01*
X101561Y-58868D01*
X101715Y-58714D01*
X101750Y-58629D01*
X101785Y-58714D01*
X101939Y-58868D01*
X102141Y-58952D01*
X102359Y-58952D01*
X102561Y-58868D01*
X102715Y-58714D01*
X102750Y-58629D01*
X102785Y-58714D01*
X102939Y-58868D01*
X103141Y-58952D01*
X103359Y-58952D01*
X103561Y-58868D01*
X103715Y-58714D01*
X103748Y-58634D01*
X103868Y-58800D01*
X104054Y-58915D01*
X104113Y-58932D01*
X104200Y-58885D01*
X104200Y-65229D01*
X99479Y-69950D01*
X98729Y-69950D01*
X98469Y-70210D01*
X98310Y-70210D01*
X98310Y-69410D01*
X98310Y-69300D01*
X98310Y-69200D01*
X98310Y-69090D01*
X98260Y-68877D01*
X98132Y-68700D01*
X97946Y-68585D01*
X97887Y-68568D01*
X97800Y-68615D01*
X97800Y-69200D01*
X98310Y-69200D01*
X98310Y-69300D01*
X97800Y-69300D01*
X97800Y-69885D01*
X97887Y-69932D01*
X97946Y-69915D01*
X98132Y-69800D01*
X98260Y-69623D01*
X98310Y-69410D01*
X98310Y-70210D01*
X97700Y-70210D01*
X97700Y-69885D01*
X97700Y-69350D01*
X97700Y-69300D01*
X97700Y-69200D01*
X97700Y-69150D01*
X97700Y-68615D01*
X97613Y-68568D01*
X97554Y-68585D01*
X97368Y-68700D01*
X97248Y-68865D01*
X97215Y-68786D01*
X97061Y-68632D01*
X96859Y-68548D01*
X96641Y-68548D01*
X96439Y-68632D01*
X96285Y-68786D01*
X96250Y-68870D01*
X96215Y-68786D01*
X96061Y-68632D01*
X95859Y-68548D01*
X95641Y-68548D01*
X95439Y-68632D01*
X95285Y-68786D01*
X95250Y-68870D01*
X95215Y-68786D01*
X95061Y-68632D01*
X94859Y-68548D01*
X94641Y-68548D01*
X94439Y-68632D01*
X94285Y-68786D01*
X94250Y-68870D01*
X94215Y-68786D01*
X94061Y-68632D01*
X93859Y-68548D01*
X93641Y-68548D01*
X93439Y-68632D01*
X93285Y-68786D01*
X93250Y-68870D01*
X93215Y-68786D01*
X93061Y-68632D01*
X92859Y-68548D01*
X92641Y-68548D01*
X92439Y-68632D01*
X92285Y-68786D01*
X92251Y-68865D01*
X92132Y-68700D01*
X91946Y-68585D01*
X91887Y-68568D01*
X91800Y-68615D01*
X91800Y-69150D01*
X91800Y-69200D01*
X91800Y-69300D01*
X91800Y-69350D01*
X91800Y-69885D01*
X91887Y-69932D01*
X91946Y-69915D01*
X92132Y-69800D01*
X92251Y-69634D01*
X92285Y-69714D01*
X92439Y-69868D01*
X92641Y-69952D01*
X92859Y-69952D01*
X93061Y-69868D01*
X93215Y-69714D01*
X93250Y-69629D01*
X93285Y-69714D01*
X93439Y-69868D01*
X93641Y-69952D01*
X93859Y-69952D01*
X94061Y-69868D01*
X94215Y-69714D01*
X94250Y-69629D01*
X94285Y-69714D01*
X94439Y-69868D01*
X94641Y-69952D01*
X94859Y-69952D01*
X95061Y-69868D01*
X95215Y-69714D01*
X95250Y-69629D01*
X95285Y-69714D01*
X95439Y-69868D01*
X95641Y-69952D01*
X95859Y-69952D01*
X96061Y-69868D01*
X96215Y-69714D01*
X96250Y-69629D01*
X96285Y-69714D01*
X96439Y-69868D01*
X96641Y-69952D01*
X96859Y-69952D01*
X97061Y-69868D01*
X97215Y-69714D01*
X97248Y-69634D01*
X97368Y-69800D01*
X97554Y-69915D01*
X97613Y-69932D01*
X97700Y-69885D01*
X97700Y-70210D01*
X94561Y-70210D01*
X94491Y-70140D01*
X94335Y-70075D01*
X94166Y-70075D01*
X94010Y-70139D01*
X93939Y-70210D01*
X91700Y-70210D01*
X91700Y-69885D01*
X91700Y-69350D01*
X91700Y-69300D01*
X91700Y-69200D01*
X91700Y-69150D01*
X91700Y-68615D01*
X91613Y-68568D01*
X91554Y-68585D01*
X91368Y-68700D01*
X91248Y-68865D01*
X91215Y-68786D01*
X91061Y-68632D01*
X90859Y-68548D01*
X90641Y-68548D01*
X90439Y-68632D01*
X90285Y-68786D01*
X90201Y-68988D01*
X90201Y-69206D01*
X90201Y-69512D01*
X90285Y-69714D01*
X90439Y-69868D01*
X90641Y-69952D01*
X90859Y-69952D01*
X91061Y-69868D01*
X91215Y-69714D01*
X91248Y-69634D01*
X91368Y-69800D01*
X91554Y-69915D01*
X91613Y-69932D01*
X91700Y-69885D01*
X91700Y-70210D01*
X85310Y-70210D01*
X85310Y-69410D01*
X85310Y-69300D01*
X85310Y-69200D01*
X85310Y-69090D01*
X85260Y-68877D01*
X85132Y-68700D01*
X84946Y-68585D01*
X84887Y-68568D01*
X84800Y-68615D01*
X84800Y-69200D01*
X85310Y-69200D01*
X85310Y-69300D01*
X84800Y-69300D01*
X84800Y-69885D01*
X84887Y-69932D01*
X84946Y-69915D01*
X85132Y-69800D01*
X85260Y-69623D01*
X85310Y-69410D01*
X85310Y-70210D01*
X84700Y-70210D01*
X84700Y-69885D01*
X84700Y-69350D01*
X84700Y-69300D01*
X84700Y-69200D01*
X84700Y-69150D01*
X84700Y-68615D01*
X84613Y-68568D01*
X84554Y-68585D01*
X84368Y-68700D01*
X84248Y-68865D01*
X84215Y-68786D01*
X84061Y-68632D01*
X83859Y-68548D01*
X83641Y-68548D01*
X83439Y-68632D01*
X83285Y-68786D01*
X83250Y-68870D01*
X83215Y-68786D01*
X83061Y-68632D01*
X82859Y-68548D01*
X82641Y-68548D01*
X82439Y-68632D01*
X82285Y-68786D01*
X82250Y-68870D01*
X82215Y-68786D01*
X82061Y-68632D01*
X81859Y-68548D01*
X81641Y-68548D01*
X81439Y-68632D01*
X81285Y-68786D01*
X81250Y-68870D01*
X81215Y-68786D01*
X81061Y-68632D01*
X80859Y-68548D01*
X80641Y-68548D01*
X80439Y-68632D01*
X80285Y-68786D01*
X80250Y-68870D01*
X80215Y-68786D01*
X80061Y-68632D01*
X79859Y-68548D01*
X79641Y-68548D01*
X79439Y-68632D01*
X79285Y-68786D01*
X79251Y-68865D01*
X79132Y-68700D01*
X78946Y-68585D01*
X78887Y-68568D01*
X78800Y-68615D01*
X78800Y-69150D01*
X78800Y-69200D01*
X78800Y-69300D01*
X78800Y-69350D01*
X78800Y-69885D01*
X78887Y-69932D01*
X78946Y-69915D01*
X79132Y-69800D01*
X79251Y-69634D01*
X79285Y-69714D01*
X79439Y-69868D01*
X79641Y-69952D01*
X79859Y-69952D01*
X80061Y-69868D01*
X80215Y-69714D01*
X80250Y-69629D01*
X80285Y-69714D01*
X80439Y-69868D01*
X80641Y-69952D01*
X80859Y-69952D01*
X81061Y-69868D01*
X81215Y-69714D01*
X81250Y-69629D01*
X81285Y-69714D01*
X81439Y-69868D01*
X81641Y-69952D01*
X81859Y-69952D01*
X82061Y-69868D01*
X82215Y-69714D01*
X82250Y-69629D01*
X82285Y-69714D01*
X82439Y-69868D01*
X82641Y-69952D01*
X82859Y-69952D01*
X83061Y-69868D01*
X83215Y-69714D01*
X83250Y-69629D01*
X83285Y-69714D01*
X83439Y-69868D01*
X83641Y-69952D01*
X83859Y-69952D01*
X84061Y-69868D01*
X84215Y-69714D01*
X84248Y-69634D01*
X84368Y-69800D01*
X84554Y-69915D01*
X84613Y-69932D01*
X84700Y-69885D01*
X84700Y-70210D01*
X82061Y-70210D01*
X81991Y-70140D01*
X81835Y-70075D01*
X81666Y-70075D01*
X81510Y-70139D01*
X81439Y-70210D01*
X78700Y-70210D01*
X78700Y-69885D01*
X78700Y-69350D01*
X78700Y-69300D01*
X78700Y-69200D01*
X78700Y-69150D01*
X78700Y-68615D01*
X78613Y-68568D01*
X78554Y-68585D01*
X78368Y-68700D01*
X78248Y-68865D01*
X78215Y-68786D01*
X78061Y-68632D01*
X77859Y-68548D01*
X77641Y-68548D01*
X77439Y-68632D01*
X77285Y-68786D01*
X77201Y-68988D01*
X77201Y-69206D01*
X77201Y-69512D01*
X77285Y-69714D01*
X77439Y-69868D01*
X77641Y-69952D01*
X77859Y-69952D01*
X78061Y-69868D01*
X78215Y-69714D01*
X78248Y-69634D01*
X78368Y-69800D01*
X78554Y-69915D01*
X78613Y-69932D01*
X78700Y-69885D01*
X78700Y-70210D01*
X72310Y-70210D01*
X72310Y-69410D01*
X72310Y-69300D01*
X72310Y-69200D01*
X72310Y-69090D01*
X72260Y-68877D01*
X72132Y-68700D01*
X71946Y-68585D01*
X71887Y-68568D01*
X71800Y-68615D01*
X71800Y-69200D01*
X72310Y-69200D01*
X72310Y-69300D01*
X71800Y-69300D01*
X71800Y-69885D01*
X71887Y-69932D01*
X71946Y-69915D01*
X72132Y-69800D01*
X72260Y-69623D01*
X72310Y-69410D01*
X72310Y-70210D01*
X71700Y-70210D01*
X71700Y-69885D01*
X71700Y-69350D01*
X71700Y-69300D01*
X71700Y-69200D01*
X71700Y-69150D01*
X71700Y-68615D01*
X71613Y-68568D01*
X71554Y-68585D01*
X71368Y-68700D01*
X71248Y-68865D01*
X71215Y-68786D01*
X71061Y-68632D01*
X70859Y-68548D01*
X70641Y-68548D01*
X70439Y-68632D01*
X70285Y-68786D01*
X70250Y-68870D01*
X70215Y-68786D01*
X70061Y-68632D01*
X69859Y-68548D01*
X69641Y-68548D01*
X69439Y-68632D01*
X69285Y-68786D01*
X69250Y-68870D01*
X69215Y-68786D01*
X69061Y-68632D01*
X68859Y-68548D01*
X68641Y-68548D01*
X68439Y-68632D01*
X68285Y-68786D01*
X68250Y-68870D01*
X68215Y-68786D01*
X68061Y-68632D01*
X67859Y-68548D01*
X67641Y-68548D01*
X67439Y-68632D01*
X67285Y-68786D01*
X67250Y-68870D01*
X67215Y-68786D01*
X67061Y-68632D01*
X66859Y-68548D01*
X66641Y-68548D01*
X66439Y-68632D01*
X66285Y-68786D01*
X66251Y-68865D01*
X66132Y-68700D01*
X65946Y-68585D01*
X65887Y-68568D01*
X65800Y-68615D01*
X65800Y-69150D01*
X65800Y-69200D01*
X65800Y-69300D01*
X65800Y-69350D01*
X65800Y-69885D01*
X65887Y-69932D01*
X65946Y-69915D01*
X66132Y-69800D01*
X66251Y-69634D01*
X66285Y-69714D01*
X66439Y-69868D01*
X66641Y-69952D01*
X66859Y-69952D01*
X67061Y-69868D01*
X67215Y-69714D01*
X67250Y-69629D01*
X67285Y-69714D01*
X67439Y-69868D01*
X67641Y-69952D01*
X67859Y-69952D01*
X68061Y-69868D01*
X68215Y-69714D01*
X68250Y-69629D01*
X68285Y-69714D01*
X68439Y-69868D01*
X68641Y-69952D01*
X68859Y-69952D01*
X69061Y-69868D01*
X69215Y-69714D01*
X69250Y-69629D01*
X69285Y-69714D01*
X69439Y-69868D01*
X69641Y-69952D01*
X69859Y-69952D01*
X70061Y-69868D01*
X70215Y-69714D01*
X70250Y-69629D01*
X70285Y-69714D01*
X70439Y-69868D01*
X70641Y-69952D01*
X70859Y-69952D01*
X71061Y-69868D01*
X71215Y-69714D01*
X71248Y-69634D01*
X71368Y-69800D01*
X71554Y-69915D01*
X71613Y-69932D01*
X71700Y-69885D01*
X71700Y-70210D01*
X69061Y-70210D01*
X68991Y-70140D01*
X68835Y-70075D01*
X68666Y-70075D01*
X68510Y-70139D01*
X68439Y-70210D01*
X65700Y-70210D01*
X65700Y-69885D01*
X65700Y-69350D01*
X65700Y-69300D01*
X65700Y-69200D01*
X65700Y-69150D01*
X65700Y-68615D01*
X65613Y-68568D01*
X65554Y-68585D01*
X65368Y-68700D01*
X65248Y-68865D01*
X65215Y-68786D01*
X65061Y-68632D01*
X64859Y-68548D01*
X64641Y-68548D01*
X64439Y-68632D01*
X64285Y-68786D01*
X64201Y-68988D01*
X64201Y-69206D01*
X64201Y-69512D01*
X64285Y-69714D01*
X64439Y-69868D01*
X64641Y-69952D01*
X64859Y-69952D01*
X65061Y-69868D01*
X65215Y-69714D01*
X65248Y-69634D01*
X65368Y-69800D01*
X65554Y-69915D01*
X65613Y-69932D01*
X65700Y-69885D01*
X65700Y-70210D01*
X59310Y-70210D01*
X59310Y-69410D01*
X59310Y-69300D01*
X59310Y-69200D01*
X59310Y-69090D01*
X59260Y-68877D01*
X59132Y-68700D01*
X58946Y-68585D01*
X58887Y-68568D01*
X58800Y-68615D01*
X58800Y-69200D01*
X59310Y-69200D01*
X59310Y-69300D01*
X58800Y-69300D01*
X58800Y-69885D01*
X58887Y-69932D01*
X58946Y-69915D01*
X59132Y-69800D01*
X59260Y-69623D01*
X59310Y-69410D01*
X59310Y-70210D01*
X58700Y-70210D01*
X58700Y-69885D01*
X58700Y-69350D01*
X58700Y-69300D01*
X58700Y-69200D01*
X58700Y-69150D01*
X58700Y-68615D01*
X58613Y-68568D01*
X58554Y-68585D01*
X58368Y-68700D01*
X58248Y-68865D01*
X58215Y-68786D01*
X58061Y-68632D01*
X57859Y-68548D01*
X57641Y-68548D01*
X57439Y-68632D01*
X57285Y-68786D01*
X57250Y-68870D01*
X57215Y-68786D01*
X57061Y-68632D01*
X56859Y-68548D01*
X56641Y-68548D01*
X56439Y-68632D01*
X56285Y-68786D01*
X56250Y-68870D01*
X56215Y-68786D01*
X56061Y-68632D01*
X55859Y-68548D01*
X55641Y-68548D01*
X55439Y-68632D01*
X55285Y-68786D01*
X55250Y-68870D01*
X55215Y-68786D01*
X55061Y-68632D01*
X54859Y-68548D01*
X54641Y-68548D01*
X54439Y-68632D01*
X54285Y-68786D01*
X54250Y-68870D01*
X54215Y-68786D01*
X54061Y-68632D01*
X53859Y-68548D01*
X53641Y-68548D01*
X53439Y-68632D01*
X53285Y-68786D01*
X53251Y-68865D01*
X53132Y-68700D01*
X52946Y-68585D01*
X52887Y-68568D01*
X52800Y-68615D01*
X52800Y-69150D01*
X52800Y-69200D01*
X52800Y-69300D01*
X52800Y-69350D01*
X52800Y-69885D01*
X52887Y-69932D01*
X52946Y-69915D01*
X53132Y-69800D01*
X53251Y-69634D01*
X53285Y-69714D01*
X53439Y-69868D01*
X53641Y-69952D01*
X53859Y-69952D01*
X54061Y-69868D01*
X54215Y-69714D01*
X54250Y-69629D01*
X54285Y-69714D01*
X54439Y-69868D01*
X54641Y-69952D01*
X54859Y-69952D01*
X55061Y-69868D01*
X55215Y-69714D01*
X55250Y-69629D01*
X55285Y-69714D01*
X55439Y-69868D01*
X55641Y-69952D01*
X55859Y-69952D01*
X56061Y-69868D01*
X56215Y-69714D01*
X56250Y-69629D01*
X56285Y-69714D01*
X56439Y-69868D01*
X56641Y-69952D01*
X56859Y-69952D01*
X57061Y-69868D01*
X57215Y-69714D01*
X57250Y-69629D01*
X57285Y-69714D01*
X57439Y-69868D01*
X57641Y-69952D01*
X57859Y-69952D01*
X58061Y-69868D01*
X58215Y-69714D01*
X58248Y-69634D01*
X58368Y-69800D01*
X58554Y-69915D01*
X58613Y-69932D01*
X58700Y-69885D01*
X58700Y-70210D01*
X56061Y-70210D01*
X55991Y-70140D01*
X55835Y-70075D01*
X55666Y-70075D01*
X55510Y-70139D01*
X55390Y-70259D01*
X55325Y-70415D01*
X55325Y-70450D01*
X52700Y-70450D01*
X52700Y-69885D01*
X52700Y-69350D01*
X52700Y-69300D01*
X52700Y-69200D01*
X52700Y-69150D01*
X52700Y-68615D01*
X52613Y-68568D01*
X52554Y-68585D01*
X52368Y-68700D01*
X52248Y-68865D01*
X52215Y-68786D01*
X52061Y-68632D01*
X51859Y-68548D01*
X51641Y-68548D01*
X51439Y-68632D01*
X51285Y-68786D01*
X51201Y-68988D01*
X51201Y-69206D01*
X51201Y-69512D01*
X51285Y-69714D01*
X51439Y-69868D01*
X51641Y-69952D01*
X51859Y-69952D01*
X52061Y-69868D01*
X52215Y-69714D01*
X52248Y-69634D01*
X52368Y-69800D01*
X52554Y-69915D01*
X52613Y-69932D01*
X52700Y-69885D01*
X52700Y-70450D01*
X49521Y-70450D01*
X49050Y-69979D01*
X49050Y-69271D01*
X50271Y-68050D01*
X54449Y-68050D01*
X54509Y-68110D01*
X54665Y-68175D01*
X54834Y-68175D01*
X54990Y-68111D01*
X55051Y-68050D01*
X67449Y-68050D01*
X67509Y-68110D01*
X67665Y-68175D01*
X67834Y-68175D01*
X67990Y-68111D01*
X68051Y-68050D01*
X80449Y-68050D01*
X80509Y-68110D01*
X80665Y-68175D01*
X80834Y-68175D01*
X80990Y-68111D01*
X81051Y-68050D01*
X92949Y-68050D01*
X93009Y-68110D01*
X93165Y-68175D01*
X93334Y-68175D01*
X93490Y-68111D01*
X93551Y-68050D01*
X98521Y-68050D01*
X102800Y-63771D01*
X102800Y-59979D01*
X102271Y-59450D01*
X100925Y-59450D01*
X100925Y-59416D01*
X100861Y-59260D01*
X100741Y-59140D01*
X100585Y-59075D01*
X100416Y-59075D01*
X100260Y-59139D01*
X100140Y-59259D01*
X100075Y-59415D01*
X100075Y-59450D01*
X98200Y-59450D01*
X98200Y-58885D01*
X98200Y-58350D01*
X98200Y-58300D01*
X98200Y-58200D01*
X98200Y-58150D01*
X98200Y-57615D01*
X98113Y-57568D01*
X98054Y-57585D01*
X97868Y-57700D01*
X97748Y-57865D01*
X97715Y-57786D01*
X97561Y-57632D01*
X97359Y-57548D01*
X97141Y-57548D01*
X96939Y-57632D01*
X96785Y-57786D01*
X96701Y-57988D01*
X96701Y-58206D01*
X96701Y-58512D01*
X96785Y-58714D01*
X96939Y-58868D01*
X97141Y-58952D01*
X97359Y-58952D01*
X97561Y-58868D01*
X97715Y-58714D01*
X97748Y-58634D01*
X97868Y-58800D01*
X98054Y-58915D01*
X98113Y-58932D01*
X98200Y-58885D01*
X98200Y-59450D01*
X91810Y-59450D01*
X91810Y-58410D01*
X91810Y-58300D01*
X91810Y-58200D01*
X91810Y-58090D01*
X91760Y-57877D01*
X91632Y-57700D01*
X91446Y-57585D01*
X91387Y-57568D01*
X91300Y-57615D01*
X91300Y-58200D01*
X91810Y-58200D01*
X91810Y-58300D01*
X91300Y-58300D01*
X91300Y-58885D01*
X91387Y-58932D01*
X91446Y-58915D01*
X91632Y-58800D01*
X91760Y-58623D01*
X91810Y-58410D01*
X91810Y-59450D01*
X91200Y-59450D01*
X91200Y-58885D01*
X91200Y-58350D01*
X91200Y-58300D01*
X91200Y-58200D01*
X91200Y-58150D01*
X91200Y-57615D01*
X91113Y-57568D01*
X91054Y-57585D01*
X90868Y-57700D01*
X90748Y-57865D01*
X90715Y-57786D01*
X90561Y-57632D01*
X90359Y-57548D01*
X90141Y-57548D01*
X89939Y-57632D01*
X89785Y-57786D01*
X89750Y-57870D01*
X89715Y-57786D01*
X89561Y-57632D01*
X89359Y-57548D01*
X89141Y-57548D01*
X88939Y-57632D01*
X88785Y-57786D01*
X88750Y-57870D01*
X88715Y-57786D01*
X88561Y-57632D01*
X88359Y-57548D01*
X88141Y-57548D01*
X87939Y-57632D01*
X87785Y-57786D01*
X87750Y-57870D01*
X87715Y-57786D01*
X87561Y-57632D01*
X87359Y-57548D01*
X87141Y-57548D01*
X86939Y-57632D01*
X86785Y-57786D01*
X86750Y-57870D01*
X86715Y-57786D01*
X86561Y-57632D01*
X86359Y-57548D01*
X86141Y-57548D01*
X85939Y-57632D01*
X85785Y-57786D01*
X85751Y-57865D01*
X85632Y-57700D01*
X85446Y-57585D01*
X85387Y-57568D01*
X85300Y-57615D01*
X85300Y-58150D01*
X85300Y-58200D01*
X85300Y-58300D01*
X85300Y-58350D01*
X85300Y-58885D01*
X85387Y-58932D01*
X85446Y-58915D01*
X85632Y-58800D01*
X85751Y-58634D01*
X85785Y-58714D01*
X85939Y-58868D01*
X86141Y-58952D01*
X86359Y-58952D01*
X86561Y-58868D01*
X86715Y-58714D01*
X86750Y-58629D01*
X86785Y-58714D01*
X86939Y-58868D01*
X87141Y-58952D01*
X87359Y-58952D01*
X87561Y-58868D01*
X87715Y-58714D01*
X87750Y-58629D01*
X87785Y-58714D01*
X87939Y-58868D01*
X88141Y-58952D01*
X88359Y-58952D01*
X88561Y-58868D01*
X88715Y-58714D01*
X88750Y-58629D01*
X88785Y-58714D01*
X88939Y-58868D01*
X89141Y-58952D01*
X89359Y-58952D01*
X89561Y-58868D01*
X89715Y-58714D01*
X89750Y-58629D01*
X89785Y-58714D01*
X89939Y-58868D01*
X90141Y-58952D01*
X90359Y-58952D01*
X90561Y-58868D01*
X90715Y-58714D01*
X90748Y-58634D01*
X90868Y-58800D01*
X91054Y-58915D01*
X91113Y-58932D01*
X91200Y-58885D01*
X91200Y-59450D01*
X85200Y-59450D01*
X85200Y-58885D01*
X85200Y-58350D01*
X85200Y-58300D01*
X85200Y-58200D01*
X85200Y-58150D01*
X85200Y-57615D01*
X85113Y-57568D01*
X85054Y-57585D01*
X84868Y-57700D01*
X84748Y-57865D01*
X84715Y-57786D01*
X84561Y-57632D01*
X84359Y-57548D01*
X84141Y-57548D01*
X83939Y-57632D01*
X83785Y-57786D01*
X83701Y-57988D01*
X83701Y-58206D01*
X83701Y-58512D01*
X83785Y-58714D01*
X83939Y-58868D01*
X84141Y-58952D01*
X84359Y-58952D01*
X84561Y-58868D01*
X84715Y-58714D01*
X84748Y-58634D01*
X84868Y-58800D01*
X85054Y-58915D01*
X85113Y-58932D01*
X85200Y-58885D01*
X85200Y-59450D01*
X78810Y-59450D01*
X78810Y-58410D01*
X78810Y-58300D01*
X78810Y-58200D01*
X78810Y-58090D01*
X78760Y-57877D01*
X78632Y-57700D01*
X78446Y-57585D01*
X78387Y-57568D01*
X78300Y-57615D01*
X78300Y-58200D01*
X78810Y-58200D01*
X78810Y-58300D01*
X78300Y-58300D01*
X78300Y-58885D01*
X78387Y-58932D01*
X78446Y-58915D01*
X78632Y-58800D01*
X78760Y-58623D01*
X78810Y-58410D01*
X78810Y-59450D01*
X78200Y-59450D01*
X78200Y-58885D01*
X78200Y-58350D01*
X78200Y-58300D01*
X78200Y-58200D01*
X78200Y-58150D01*
X78200Y-57615D01*
X78113Y-57568D01*
X78054Y-57585D01*
X77868Y-57700D01*
X77748Y-57865D01*
X77715Y-57786D01*
X77561Y-57632D01*
X77359Y-57548D01*
X77141Y-57548D01*
X76939Y-57632D01*
X76785Y-57786D01*
X76750Y-57870D01*
X76715Y-57786D01*
X76561Y-57632D01*
X76359Y-57548D01*
X76141Y-57548D01*
X75939Y-57632D01*
X75785Y-57786D01*
X75750Y-57870D01*
X75715Y-57786D01*
X75561Y-57632D01*
X75359Y-57548D01*
X75141Y-57548D01*
X74939Y-57632D01*
X74785Y-57786D01*
X74750Y-57870D01*
X74715Y-57786D01*
X74561Y-57632D01*
X74359Y-57548D01*
X74141Y-57548D01*
X73939Y-57632D01*
X73785Y-57786D01*
X73750Y-57870D01*
X73715Y-57786D01*
X73561Y-57632D01*
X73359Y-57548D01*
X73141Y-57548D01*
X72939Y-57632D01*
X72785Y-57786D01*
X72751Y-57865D01*
X72632Y-57700D01*
X72446Y-57585D01*
X72387Y-57568D01*
X72300Y-57615D01*
X72300Y-58150D01*
X72300Y-58200D01*
X72300Y-58300D01*
X72300Y-58350D01*
X72300Y-58885D01*
X72387Y-58932D01*
X72446Y-58915D01*
X72632Y-58800D01*
X72751Y-58634D01*
X72785Y-58714D01*
X72939Y-58868D01*
X73141Y-58952D01*
X73359Y-58952D01*
X73561Y-58868D01*
X73715Y-58714D01*
X73750Y-58629D01*
X73785Y-58714D01*
X73939Y-58868D01*
X74141Y-58952D01*
X74359Y-58952D01*
X74561Y-58868D01*
X74715Y-58714D01*
X74750Y-58629D01*
X74785Y-58714D01*
X74939Y-58868D01*
X75141Y-58952D01*
X75359Y-58952D01*
X75561Y-58868D01*
X75715Y-58714D01*
X75750Y-58629D01*
X75785Y-58714D01*
X75939Y-58868D01*
X76141Y-58952D01*
X76359Y-58952D01*
X76561Y-58868D01*
X76715Y-58714D01*
X76750Y-58629D01*
X76785Y-58714D01*
X76939Y-58868D01*
X77141Y-58952D01*
X77359Y-58952D01*
X77561Y-58868D01*
X77715Y-58714D01*
X77748Y-58634D01*
X77868Y-58800D01*
X78054Y-58915D01*
X78113Y-58932D01*
X78200Y-58885D01*
X78200Y-59450D01*
X72200Y-59450D01*
X72200Y-58885D01*
X72200Y-58350D01*
X72200Y-58300D01*
X72200Y-58200D01*
X72200Y-58150D01*
X72200Y-57615D01*
X72113Y-57568D01*
X72054Y-57585D01*
X71868Y-57700D01*
X71748Y-57865D01*
X71715Y-57786D01*
X71561Y-57632D01*
X71359Y-57548D01*
X71141Y-57548D01*
X70939Y-57632D01*
X70785Y-57786D01*
X70701Y-57988D01*
X70701Y-58206D01*
X70701Y-58512D01*
X70785Y-58714D01*
X70939Y-58868D01*
X71141Y-58952D01*
X71359Y-58952D01*
X71561Y-58868D01*
X71715Y-58714D01*
X71748Y-58634D01*
X71868Y-58800D01*
X72054Y-58915D01*
X72113Y-58932D01*
X72200Y-58885D01*
X72200Y-59450D01*
X65810Y-59450D01*
X65810Y-58410D01*
X65810Y-58300D01*
X65810Y-58200D01*
X65810Y-58090D01*
X65760Y-57877D01*
X65632Y-57700D01*
X65446Y-57585D01*
X65387Y-57568D01*
X65300Y-57615D01*
X65300Y-58200D01*
X65810Y-58200D01*
X65810Y-58300D01*
X65300Y-58300D01*
X65300Y-58885D01*
X65387Y-58932D01*
X65446Y-58915D01*
X65632Y-58800D01*
X65760Y-58623D01*
X65810Y-58410D01*
X65810Y-59450D01*
X65200Y-59450D01*
X65200Y-58885D01*
X65200Y-58350D01*
X65200Y-58300D01*
X65200Y-58200D01*
X65200Y-58150D01*
X65200Y-57615D01*
X65113Y-57568D01*
X65054Y-57585D01*
X64868Y-57700D01*
X64748Y-57865D01*
X64715Y-57786D01*
X64561Y-57632D01*
X64359Y-57548D01*
X64141Y-57548D01*
X63939Y-57632D01*
X63785Y-57786D01*
X63750Y-57870D01*
X63715Y-57786D01*
X63561Y-57632D01*
X63359Y-57548D01*
X63141Y-57548D01*
X62939Y-57632D01*
X62785Y-57786D01*
X62750Y-57870D01*
X62715Y-57786D01*
X62561Y-57632D01*
X62359Y-57548D01*
X62141Y-57548D01*
X61939Y-57632D01*
X61785Y-57786D01*
X61750Y-57870D01*
X61715Y-57786D01*
X61561Y-57632D01*
X61359Y-57548D01*
X61141Y-57548D01*
X60939Y-57632D01*
X60785Y-57786D01*
X60750Y-57870D01*
X60715Y-57786D01*
X60561Y-57632D01*
X60359Y-57548D01*
X60141Y-57548D01*
X59939Y-57632D01*
X59785Y-57786D01*
X59751Y-57865D01*
X59632Y-57700D01*
X59446Y-57585D01*
X59387Y-57568D01*
X59300Y-57615D01*
X59300Y-58150D01*
X59300Y-58200D01*
X59300Y-58300D01*
X59300Y-58350D01*
X59300Y-58885D01*
X59387Y-58932D01*
X59446Y-58915D01*
X59632Y-58800D01*
X59751Y-58634D01*
X59785Y-58714D01*
X59939Y-58868D01*
X60141Y-58952D01*
X60359Y-58952D01*
X60561Y-58868D01*
X60715Y-58714D01*
X60750Y-58629D01*
X60785Y-58714D01*
X60939Y-58868D01*
X61141Y-58952D01*
X61359Y-58952D01*
X61561Y-58868D01*
X61715Y-58714D01*
X61750Y-58629D01*
X61785Y-58714D01*
X61939Y-58868D01*
X62141Y-58952D01*
X62359Y-58952D01*
X62561Y-58868D01*
X62715Y-58714D01*
X62750Y-58629D01*
X62785Y-58714D01*
X62939Y-58868D01*
X63141Y-58952D01*
X63359Y-58952D01*
X63561Y-58868D01*
X63715Y-58714D01*
X63750Y-58629D01*
X63785Y-58714D01*
X63939Y-58868D01*
X64141Y-58952D01*
X64359Y-58952D01*
X64561Y-58868D01*
X64715Y-58714D01*
X64748Y-58634D01*
X64868Y-58800D01*
X65054Y-58915D01*
X65113Y-58932D01*
X65200Y-58885D01*
X65200Y-59450D01*
X59200Y-59450D01*
X59200Y-58885D01*
X59200Y-58350D01*
X59200Y-58300D01*
X59200Y-58200D01*
X59200Y-58150D01*
X59200Y-57615D01*
X59113Y-57568D01*
X59054Y-57585D01*
X58868Y-57700D01*
X58748Y-57865D01*
X58715Y-57786D01*
X58561Y-57632D01*
X58359Y-57548D01*
X58141Y-57548D01*
X57939Y-57632D01*
X57785Y-57786D01*
X57701Y-57988D01*
X57701Y-58206D01*
X57701Y-58512D01*
X57785Y-58714D01*
X57939Y-58868D01*
X58141Y-58952D01*
X58359Y-58952D01*
X58561Y-58868D01*
X58715Y-58714D01*
X58748Y-58634D01*
X58868Y-58800D01*
X59054Y-58915D01*
X59113Y-58932D01*
X59200Y-58885D01*
X59200Y-59450D01*
X50771Y-59450D01*
X50050Y-58729D01*
X50050Y-57771D01*
X50771Y-57050D01*
X53949Y-57050D01*
X54009Y-57110D01*
X54165Y-57175D01*
X54334Y-57175D01*
X54490Y-57111D01*
X54551Y-57050D01*
X59949Y-57050D01*
X60009Y-57110D01*
X60165Y-57175D01*
X60334Y-57175D01*
X60490Y-57111D01*
X60551Y-57050D01*
X72949Y-57050D01*
X73009Y-57110D01*
X73165Y-57175D01*
X73334Y-57175D01*
X73490Y-57111D01*
X73551Y-57050D01*
X85949Y-57050D01*
X86009Y-57110D01*
X86165Y-57175D01*
X86334Y-57175D01*
X86490Y-57111D01*
X86551Y-57050D01*
X98949Y-57050D01*
X99009Y-57110D01*
X99165Y-57175D01*
X99334Y-57175D01*
X99490Y-57111D01*
X99551Y-57050D01*
X104479Y-57050D01*
X105200Y-57771D01*
X105200Y-64229D01*
G54D10*
G36*
X49950Y-46479D02*
X49702Y-46726D01*
X49702Y-45609D01*
X49702Y-45391D01*
X49618Y-45189D01*
X49464Y-45035D01*
X49379Y-45000D01*
X49464Y-44965D01*
X49618Y-44811D01*
X49702Y-44609D01*
X49702Y-44391D01*
X49618Y-44189D01*
X49464Y-44035D01*
X49379Y-44000D01*
X49464Y-43965D01*
X49618Y-43811D01*
X49702Y-43609D01*
X49702Y-43391D01*
X49618Y-43189D01*
X49464Y-43035D01*
X49379Y-43000D01*
X49464Y-42965D01*
X49618Y-42811D01*
X49702Y-42609D01*
X49702Y-42391D01*
X49618Y-42189D01*
X49464Y-42035D01*
X49379Y-42000D01*
X49464Y-41965D01*
X49618Y-41811D01*
X49702Y-41609D01*
X49702Y-41391D01*
X49702Y-39609D01*
X49702Y-39391D01*
X49702Y-32609D01*
X49702Y-32391D01*
X49618Y-32189D01*
X49464Y-32035D01*
X49379Y-32000D01*
X49464Y-31965D01*
X49618Y-31811D01*
X49702Y-31609D01*
X49702Y-31391D01*
X49618Y-31189D01*
X49464Y-31035D01*
X49379Y-31000D01*
X49464Y-30965D01*
X49618Y-30811D01*
X49702Y-30609D01*
X49702Y-30391D01*
X49618Y-30189D01*
X49464Y-30035D01*
X49379Y-30000D01*
X49464Y-29965D01*
X49618Y-29811D01*
X49702Y-29609D01*
X49702Y-29391D01*
X49618Y-29189D01*
X49464Y-29035D01*
X49379Y-29000D01*
X49464Y-28965D01*
X49618Y-28811D01*
X49702Y-28609D01*
X49702Y-28391D01*
X49702Y-26609D01*
X49702Y-26391D01*
X49702Y-19609D01*
X49702Y-19391D01*
X49618Y-19189D01*
X49464Y-19035D01*
X49379Y-19000D01*
X49464Y-18965D01*
X49618Y-18811D01*
X49702Y-18609D01*
X49702Y-18391D01*
X49618Y-18189D01*
X49464Y-18035D01*
X49379Y-18000D01*
X49464Y-17965D01*
X49618Y-17811D01*
X49702Y-17609D01*
X49702Y-17391D01*
X49618Y-17189D01*
X49464Y-17035D01*
X49379Y-17000D01*
X49464Y-16965D01*
X49618Y-16811D01*
X49702Y-16609D01*
X49702Y-16391D01*
X49618Y-16189D01*
X49464Y-16035D01*
X49379Y-16000D01*
X49464Y-15965D01*
X49618Y-15811D01*
X49702Y-15609D01*
X49702Y-15391D01*
X49702Y-13609D01*
X49702Y-13391D01*
X49618Y-13189D01*
X49464Y-13035D01*
X49262Y-12951D01*
X49044Y-12951D01*
X48738Y-12951D01*
X48536Y-13035D01*
X48382Y-13189D01*
X48298Y-13391D01*
X48298Y-13609D01*
X48382Y-13811D01*
X48536Y-13965D01*
X48615Y-13998D01*
X48450Y-14118D01*
X48335Y-14304D01*
X48318Y-14363D01*
X48365Y-14450D01*
X48900Y-14450D01*
X48950Y-14450D01*
X49050Y-14450D01*
X49100Y-14450D01*
X49635Y-14450D01*
X49682Y-14363D01*
X49665Y-14304D01*
X49550Y-14118D01*
X49384Y-13998D01*
X49464Y-13965D01*
X49618Y-13811D01*
X49702Y-13609D01*
X49702Y-15391D01*
X49618Y-15189D01*
X49464Y-15035D01*
X49384Y-15001D01*
X49550Y-14882D01*
X49665Y-14696D01*
X49682Y-14637D01*
X49635Y-14550D01*
X49100Y-14550D01*
X49050Y-14550D01*
X48950Y-14550D01*
X48900Y-14550D01*
X48365Y-14550D01*
X48318Y-14637D01*
X48335Y-14696D01*
X48450Y-14882D01*
X48615Y-15001D01*
X48536Y-15035D01*
X48382Y-15189D01*
X48298Y-15391D01*
X48298Y-15609D01*
X48382Y-15811D01*
X48536Y-15965D01*
X48620Y-16000D01*
X48536Y-16035D01*
X48382Y-16189D01*
X48298Y-16391D01*
X48298Y-16609D01*
X48382Y-16811D01*
X48536Y-16965D01*
X48620Y-17000D01*
X48536Y-17035D01*
X48382Y-17189D01*
X48298Y-17391D01*
X48298Y-17609D01*
X48382Y-17811D01*
X48536Y-17965D01*
X48620Y-18000D01*
X48536Y-18035D01*
X48382Y-18189D01*
X48298Y-18391D01*
X48298Y-18609D01*
X48382Y-18811D01*
X48536Y-18965D01*
X48620Y-19000D01*
X48536Y-19035D01*
X48382Y-19189D01*
X48298Y-19391D01*
X48298Y-19609D01*
X48382Y-19811D01*
X48536Y-19965D01*
X48615Y-19998D01*
X48450Y-20118D01*
X48335Y-20304D01*
X48318Y-20363D01*
X48365Y-20450D01*
X48900Y-20450D01*
X48950Y-20450D01*
X49050Y-20450D01*
X49100Y-20450D01*
X49635Y-20450D01*
X49682Y-20363D01*
X49665Y-20304D01*
X49550Y-20118D01*
X49384Y-19998D01*
X49464Y-19965D01*
X49618Y-19811D01*
X49702Y-19609D01*
X49702Y-26391D01*
X49682Y-26342D01*
X49682Y-20637D01*
X49635Y-20550D01*
X49050Y-20550D01*
X49050Y-21060D01*
X49160Y-21060D01*
X49373Y-21010D01*
X49550Y-20882D01*
X49665Y-20696D01*
X49682Y-20637D01*
X49682Y-26342D01*
X49618Y-26189D01*
X49464Y-26035D01*
X49262Y-25951D01*
X49044Y-25951D01*
X48950Y-25951D01*
X48950Y-21060D01*
X48950Y-20550D01*
X48365Y-20550D01*
X48318Y-20637D01*
X48335Y-20696D01*
X48450Y-20882D01*
X48627Y-21010D01*
X48840Y-21060D01*
X48950Y-21060D01*
X48950Y-25951D01*
X48738Y-25951D01*
X48536Y-26035D01*
X48382Y-26189D01*
X48298Y-26391D01*
X48298Y-26609D01*
X48382Y-26811D01*
X48536Y-26965D01*
X48615Y-26998D01*
X48450Y-27118D01*
X48335Y-27304D01*
X48318Y-27363D01*
X48365Y-27450D01*
X48900Y-27450D01*
X48950Y-27450D01*
X49050Y-27450D01*
X49100Y-27450D01*
X49635Y-27450D01*
X49682Y-27363D01*
X49665Y-27304D01*
X49550Y-27118D01*
X49384Y-26998D01*
X49464Y-26965D01*
X49618Y-26811D01*
X49702Y-26609D01*
X49702Y-28391D01*
X49618Y-28189D01*
X49464Y-28035D01*
X49384Y-28001D01*
X49550Y-27882D01*
X49665Y-27696D01*
X49682Y-27637D01*
X49635Y-27550D01*
X49100Y-27550D01*
X49050Y-27550D01*
X48950Y-27550D01*
X48900Y-27550D01*
X48365Y-27550D01*
X48318Y-27637D01*
X48335Y-27696D01*
X48450Y-27882D01*
X48615Y-28001D01*
X48536Y-28035D01*
X48382Y-28189D01*
X48298Y-28391D01*
X48298Y-28609D01*
X48382Y-28811D01*
X48536Y-28965D01*
X48620Y-29000D01*
X48536Y-29035D01*
X48382Y-29189D01*
X48298Y-29391D01*
X48298Y-29609D01*
X48382Y-29811D01*
X48536Y-29965D01*
X48620Y-30000D01*
X48536Y-30035D01*
X48382Y-30189D01*
X48298Y-30391D01*
X48298Y-30609D01*
X48382Y-30811D01*
X48536Y-30965D01*
X48620Y-31000D01*
X48536Y-31035D01*
X48382Y-31189D01*
X48298Y-31391D01*
X48298Y-31609D01*
X48382Y-31811D01*
X48536Y-31965D01*
X48620Y-32000D01*
X48536Y-32035D01*
X48382Y-32189D01*
X48298Y-32391D01*
X48298Y-32609D01*
X48382Y-32811D01*
X48536Y-32965D01*
X48615Y-32998D01*
X48450Y-33118D01*
X48335Y-33304D01*
X48318Y-33363D01*
X48365Y-33450D01*
X48900Y-33450D01*
X48950Y-33450D01*
X49050Y-33450D01*
X49100Y-33450D01*
X49635Y-33450D01*
X49682Y-33363D01*
X49665Y-33304D01*
X49550Y-33118D01*
X49384Y-32998D01*
X49464Y-32965D01*
X49618Y-32811D01*
X49702Y-32609D01*
X49702Y-39391D01*
X49682Y-39342D01*
X49682Y-33637D01*
X49635Y-33550D01*
X49050Y-33550D01*
X49050Y-34060D01*
X49160Y-34060D01*
X49373Y-34010D01*
X49550Y-33882D01*
X49665Y-33696D01*
X49682Y-33637D01*
X49682Y-39342D01*
X49618Y-39189D01*
X49464Y-39035D01*
X49262Y-38951D01*
X49044Y-38951D01*
X48950Y-38951D01*
X48950Y-34060D01*
X48950Y-33550D01*
X48365Y-33550D01*
X48318Y-33637D01*
X48335Y-33696D01*
X48450Y-33882D01*
X48627Y-34010D01*
X48840Y-34060D01*
X48950Y-34060D01*
X48950Y-38951D01*
X48738Y-38951D01*
X48536Y-39035D01*
X48382Y-39189D01*
X48298Y-39391D01*
X48298Y-39609D01*
X48382Y-39811D01*
X48536Y-39965D01*
X48615Y-39998D01*
X48450Y-40118D01*
X48335Y-40304D01*
X48318Y-40363D01*
X48365Y-40450D01*
X48900Y-40450D01*
X48950Y-40450D01*
X49050Y-40450D01*
X49100Y-40450D01*
X49635Y-40450D01*
X49682Y-40363D01*
X49665Y-40304D01*
X49550Y-40118D01*
X49384Y-39998D01*
X49464Y-39965D01*
X49618Y-39811D01*
X49702Y-39609D01*
X49702Y-41391D01*
X49618Y-41189D01*
X49464Y-41035D01*
X49384Y-41001D01*
X49550Y-40882D01*
X49665Y-40696D01*
X49682Y-40637D01*
X49635Y-40550D01*
X49100Y-40550D01*
X49050Y-40550D01*
X48950Y-40550D01*
X48900Y-40550D01*
X48365Y-40550D01*
X48318Y-40637D01*
X48335Y-40696D01*
X48450Y-40882D01*
X48615Y-41001D01*
X48536Y-41035D01*
X48382Y-41189D01*
X48298Y-41391D01*
X48298Y-41609D01*
X48382Y-41811D01*
X48536Y-41965D01*
X48620Y-42000D01*
X48536Y-42035D01*
X48382Y-42189D01*
X48298Y-42391D01*
X48298Y-42609D01*
X48382Y-42811D01*
X48536Y-42965D01*
X48620Y-43000D01*
X48536Y-43035D01*
X48382Y-43189D01*
X48298Y-43391D01*
X48298Y-43609D01*
X48382Y-43811D01*
X48536Y-43965D01*
X48620Y-44000D01*
X48536Y-44035D01*
X48382Y-44189D01*
X48298Y-44391D01*
X48298Y-44609D01*
X48382Y-44811D01*
X48536Y-44965D01*
X48620Y-45000D01*
X48536Y-45035D01*
X48382Y-45189D01*
X48298Y-45391D01*
X48298Y-45609D01*
X48382Y-45811D01*
X48536Y-45965D01*
X48615Y-45998D01*
X48450Y-46118D01*
X48335Y-46304D01*
X48318Y-46363D01*
X48365Y-46450D01*
X48900Y-46450D01*
X48950Y-46450D01*
X49050Y-46450D01*
X49100Y-46450D01*
X49635Y-46450D01*
X49682Y-46363D01*
X49665Y-46304D01*
X49550Y-46118D01*
X49384Y-45998D01*
X49464Y-45965D01*
X49618Y-45811D01*
X49702Y-45609D01*
X49702Y-46726D01*
X49554Y-46874D01*
X49665Y-46696D01*
X49682Y-46637D01*
X49635Y-46550D01*
X49050Y-46550D01*
X49050Y-47060D01*
X49160Y-47060D01*
X49373Y-47010D01*
X49539Y-46889D01*
X49229Y-47200D01*
X48771Y-47200D01*
X48460Y-46889D01*
X48627Y-47010D01*
X48840Y-47060D01*
X48950Y-47060D01*
X48950Y-46550D01*
X48365Y-46550D01*
X48318Y-46637D01*
X48335Y-46696D01*
X48445Y-46874D01*
X48050Y-46479D01*
X48050Y-41729D01*
X47771Y-41450D01*
X47271Y-41450D01*
X47050Y-41229D01*
X47050Y-40271D01*
X47271Y-40050D01*
X47771Y-40050D01*
X48050Y-39771D01*
X48050Y-13229D01*
X47271Y-12450D01*
X43826Y-12450D01*
X43965Y-12311D01*
X44049Y-12109D01*
X44049Y-11891D01*
X43965Y-11689D01*
X43811Y-11535D01*
X43726Y-11500D01*
X43811Y-11465D01*
X43965Y-11311D01*
X44049Y-11109D01*
X44049Y-10891D01*
X44043Y-10876D01*
X44043Y-10079D01*
X44032Y-09866D01*
X43972Y-09719D01*
X43878Y-09692D01*
X43808Y-09762D01*
X43808Y-09622D01*
X43781Y-09528D01*
X43579Y-09457D01*
X43366Y-09468D01*
X43219Y-09528D01*
X43192Y-09622D01*
X43500Y-09929D01*
X43808Y-09622D01*
X43808Y-09762D01*
X43571Y-10000D01*
X43878Y-10308D01*
X43972Y-10281D01*
X44043Y-10079D01*
X44043Y-10876D01*
X43965Y-10689D01*
X43811Y-10535D01*
X43719Y-10497D01*
X43781Y-10472D01*
X43808Y-10378D01*
X43500Y-10071D01*
X43429Y-10141D01*
X43429Y-10000D01*
X43122Y-09692D01*
X43028Y-09719D01*
X42957Y-09921D01*
X42968Y-10134D01*
X43028Y-10281D01*
X43122Y-10308D01*
X43429Y-10000D01*
X43429Y-10141D01*
X43192Y-10378D01*
X43219Y-10472D01*
X43284Y-10495D01*
X43189Y-10535D01*
X43035Y-10689D01*
X42951Y-10891D01*
X42951Y-11109D01*
X43035Y-11311D01*
X43189Y-11465D01*
X43273Y-11500D01*
X43189Y-11535D01*
X43035Y-11689D01*
X42951Y-11891D01*
X42951Y-12109D01*
X43035Y-12311D01*
X43174Y-12450D01*
X39049Y-12450D01*
X39049Y-11109D01*
X39049Y-10891D01*
X38965Y-10689D01*
X38811Y-10535D01*
X38726Y-10500D01*
X38811Y-10465D01*
X38965Y-10311D01*
X39049Y-10109D01*
X39049Y-09891D01*
X38965Y-09689D01*
X38811Y-09535D01*
X38609Y-09451D01*
X38391Y-09451D01*
X38189Y-09535D01*
X38035Y-09689D01*
X37951Y-09891D01*
X37951Y-10109D01*
X38035Y-10311D01*
X38189Y-10465D01*
X38273Y-10500D01*
X38189Y-10535D01*
X38035Y-10689D01*
X37951Y-10891D01*
X37951Y-11109D01*
X38035Y-11311D01*
X38189Y-11465D01*
X38280Y-11502D01*
X38219Y-11528D01*
X38192Y-11622D01*
X38500Y-11929D01*
X38808Y-11622D01*
X38781Y-11528D01*
X38715Y-11504D01*
X38811Y-11465D01*
X38965Y-11311D01*
X39049Y-11109D01*
X39049Y-12450D01*
X39043Y-12450D01*
X39043Y-12079D01*
X39032Y-11866D01*
X38972Y-11719D01*
X38878Y-11692D01*
X38571Y-12000D01*
X38878Y-12308D01*
X38972Y-12281D01*
X39043Y-12079D01*
X39043Y-12450D01*
X38787Y-12450D01*
X38808Y-12378D01*
X38500Y-12071D01*
X38429Y-12141D01*
X38429Y-12000D01*
X38122Y-11692D01*
X38028Y-11719D01*
X37957Y-11921D01*
X37968Y-12134D01*
X38028Y-12281D01*
X38122Y-12308D01*
X38429Y-12000D01*
X38429Y-12141D01*
X38192Y-12378D01*
X38212Y-12450D01*
X37771Y-12450D01*
X37300Y-11979D01*
X37300Y-09271D01*
X38021Y-08550D01*
X46479Y-08550D01*
X49950Y-12021D01*
X49950Y-17699D01*
X49890Y-17759D01*
X49825Y-17915D01*
X49825Y-18084D01*
X49889Y-18240D01*
X49950Y-18301D01*
X49950Y-30199D01*
X49890Y-30259D01*
X49825Y-30415D01*
X49825Y-30584D01*
X49889Y-30740D01*
X49950Y-30801D01*
X49950Y-43699D01*
X49890Y-43759D01*
X49825Y-43915D01*
X49825Y-44084D01*
X49889Y-44240D01*
X49950Y-44301D01*
X49950Y-46479D01*
X49950Y-46479D01*
G37*
G54D27*
X49950Y-46479D02*
X49702Y-46726D01*
X49702Y-45609D01*
X49702Y-45391D01*
X49618Y-45189D01*
X49464Y-45035D01*
X49379Y-45000D01*
X49464Y-44965D01*
X49618Y-44811D01*
X49702Y-44609D01*
X49702Y-44391D01*
X49618Y-44189D01*
X49464Y-44035D01*
X49379Y-44000D01*
X49464Y-43965D01*
X49618Y-43811D01*
X49702Y-43609D01*
X49702Y-43391D01*
X49618Y-43189D01*
X49464Y-43035D01*
X49379Y-43000D01*
X49464Y-42965D01*
X49618Y-42811D01*
X49702Y-42609D01*
X49702Y-42391D01*
X49618Y-42189D01*
X49464Y-42035D01*
X49379Y-42000D01*
X49464Y-41965D01*
X49618Y-41811D01*
X49702Y-41609D01*
X49702Y-41391D01*
X49702Y-39609D01*
X49702Y-39391D01*
X49702Y-32609D01*
X49702Y-32391D01*
X49618Y-32189D01*
X49464Y-32035D01*
X49379Y-32000D01*
X49464Y-31965D01*
X49618Y-31811D01*
X49702Y-31609D01*
X49702Y-31391D01*
X49618Y-31189D01*
X49464Y-31035D01*
X49379Y-31000D01*
X49464Y-30965D01*
X49618Y-30811D01*
X49702Y-30609D01*
X49702Y-30391D01*
X49618Y-30189D01*
X49464Y-30035D01*
X49379Y-30000D01*
X49464Y-29965D01*
X49618Y-29811D01*
X49702Y-29609D01*
X49702Y-29391D01*
X49618Y-29189D01*
X49464Y-29035D01*
X49379Y-29000D01*
X49464Y-28965D01*
X49618Y-28811D01*
X49702Y-28609D01*
X49702Y-28391D01*
X49702Y-26609D01*
X49702Y-26391D01*
X49702Y-19609D01*
X49702Y-19391D01*
X49618Y-19189D01*
X49464Y-19035D01*
X49379Y-19000D01*
X49464Y-18965D01*
X49618Y-18811D01*
X49702Y-18609D01*
X49702Y-18391D01*
X49618Y-18189D01*
X49464Y-18035D01*
X49379Y-18000D01*
X49464Y-17965D01*
X49618Y-17811D01*
X49702Y-17609D01*
X49702Y-17391D01*
X49618Y-17189D01*
X49464Y-17035D01*
X49379Y-17000D01*
X49464Y-16965D01*
X49618Y-16811D01*
X49702Y-16609D01*
X49702Y-16391D01*
X49618Y-16189D01*
X49464Y-16035D01*
X49379Y-16000D01*
X49464Y-15965D01*
X49618Y-15811D01*
X49702Y-15609D01*
X49702Y-15391D01*
X49702Y-13609D01*
X49702Y-13391D01*
X49618Y-13189D01*
X49464Y-13035D01*
X49262Y-12951D01*
X49044Y-12951D01*
X48738Y-12951D01*
X48536Y-13035D01*
X48382Y-13189D01*
X48298Y-13391D01*
X48298Y-13609D01*
X48382Y-13811D01*
X48536Y-13965D01*
X48615Y-13998D01*
X48450Y-14118D01*
X48335Y-14304D01*
X48318Y-14363D01*
X48365Y-14450D01*
X48900Y-14450D01*
X48950Y-14450D01*
X49050Y-14450D01*
X49100Y-14450D01*
X49635Y-14450D01*
X49682Y-14363D01*
X49665Y-14304D01*
X49550Y-14118D01*
X49384Y-13998D01*
X49464Y-13965D01*
X49618Y-13811D01*
X49702Y-13609D01*
X49702Y-15391D01*
X49618Y-15189D01*
X49464Y-15035D01*
X49384Y-15001D01*
X49550Y-14882D01*
X49665Y-14696D01*
X49682Y-14637D01*
X49635Y-14550D01*
X49100Y-14550D01*
X49050Y-14550D01*
X48950Y-14550D01*
X48900Y-14550D01*
X48365Y-14550D01*
X48318Y-14637D01*
X48335Y-14696D01*
X48450Y-14882D01*
X48615Y-15001D01*
X48536Y-15035D01*
X48382Y-15189D01*
X48298Y-15391D01*
X48298Y-15609D01*
X48382Y-15811D01*
X48536Y-15965D01*
X48620Y-16000D01*
X48536Y-16035D01*
X48382Y-16189D01*
X48298Y-16391D01*
X48298Y-16609D01*
X48382Y-16811D01*
X48536Y-16965D01*
X48620Y-17000D01*
X48536Y-17035D01*
X48382Y-17189D01*
X48298Y-17391D01*
X48298Y-17609D01*
X48382Y-17811D01*
X48536Y-17965D01*
X48620Y-18000D01*
X48536Y-18035D01*
X48382Y-18189D01*
X48298Y-18391D01*
X48298Y-18609D01*
X48382Y-18811D01*
X48536Y-18965D01*
X48620Y-19000D01*
X48536Y-19035D01*
X48382Y-19189D01*
X48298Y-19391D01*
X48298Y-19609D01*
X48382Y-19811D01*
X48536Y-19965D01*
X48615Y-19998D01*
X48450Y-20118D01*
X48335Y-20304D01*
X48318Y-20363D01*
X48365Y-20450D01*
X48900Y-20450D01*
X48950Y-20450D01*
X49050Y-20450D01*
X49100Y-20450D01*
X49635Y-20450D01*
X49682Y-20363D01*
X49665Y-20304D01*
X49550Y-20118D01*
X49384Y-19998D01*
X49464Y-19965D01*
X49618Y-19811D01*
X49702Y-19609D01*
X49702Y-26391D01*
X49682Y-26342D01*
X49682Y-20637D01*
X49635Y-20550D01*
X49050Y-20550D01*
X49050Y-21060D01*
X49160Y-21060D01*
X49373Y-21010D01*
X49550Y-20882D01*
X49665Y-20696D01*
X49682Y-20637D01*
X49682Y-26342D01*
X49618Y-26189D01*
X49464Y-26035D01*
X49262Y-25951D01*
X49044Y-25951D01*
X48950Y-25951D01*
X48950Y-21060D01*
X48950Y-20550D01*
X48365Y-20550D01*
X48318Y-20637D01*
X48335Y-20696D01*
X48450Y-20882D01*
X48627Y-21010D01*
X48840Y-21060D01*
X48950Y-21060D01*
X48950Y-25951D01*
X48738Y-25951D01*
X48536Y-26035D01*
X48382Y-26189D01*
X48298Y-26391D01*
X48298Y-26609D01*
X48382Y-26811D01*
X48536Y-26965D01*
X48615Y-26998D01*
X48450Y-27118D01*
X48335Y-27304D01*
X48318Y-27363D01*
X48365Y-27450D01*
X48900Y-27450D01*
X48950Y-27450D01*
X49050Y-27450D01*
X49100Y-27450D01*
X49635Y-27450D01*
X49682Y-27363D01*
X49665Y-27304D01*
X49550Y-27118D01*
X49384Y-26998D01*
X49464Y-26965D01*
X49618Y-26811D01*
X49702Y-26609D01*
X49702Y-28391D01*
X49618Y-28189D01*
X49464Y-28035D01*
X49384Y-28001D01*
X49550Y-27882D01*
X49665Y-27696D01*
X49682Y-27637D01*
X49635Y-27550D01*
X49100Y-27550D01*
X49050Y-27550D01*
X48950Y-27550D01*
X48900Y-27550D01*
X48365Y-27550D01*
X48318Y-27637D01*
X48335Y-27696D01*
X48450Y-27882D01*
X48615Y-28001D01*
X48536Y-28035D01*
X48382Y-28189D01*
X48298Y-28391D01*
X48298Y-28609D01*
X48382Y-28811D01*
X48536Y-28965D01*
X48620Y-29000D01*
X48536Y-29035D01*
X48382Y-29189D01*
X48298Y-29391D01*
X48298Y-29609D01*
X48382Y-29811D01*
X48536Y-29965D01*
X48620Y-30000D01*
X48536Y-30035D01*
X48382Y-30189D01*
X48298Y-30391D01*
X48298Y-30609D01*
X48382Y-30811D01*
X48536Y-30965D01*
X48620Y-31000D01*
X48536Y-31035D01*
X48382Y-31189D01*
X48298Y-31391D01*
X48298Y-31609D01*
X48382Y-31811D01*
X48536Y-31965D01*
X48620Y-32000D01*
X48536Y-32035D01*
X48382Y-32189D01*
X48298Y-32391D01*
X48298Y-32609D01*
X48382Y-32811D01*
X48536Y-32965D01*
X48615Y-32998D01*
X48450Y-33118D01*
X48335Y-33304D01*
X48318Y-33363D01*
X48365Y-33450D01*
X48900Y-33450D01*
X48950Y-33450D01*
X49050Y-33450D01*
X49100Y-33450D01*
X49635Y-33450D01*
X49682Y-33363D01*
X49665Y-33304D01*
X49550Y-33118D01*
X49384Y-32998D01*
X49464Y-32965D01*
X49618Y-32811D01*
X49702Y-32609D01*
X49702Y-39391D01*
X49682Y-39342D01*
X49682Y-33637D01*
X49635Y-33550D01*
X49050Y-33550D01*
X49050Y-34060D01*
X49160Y-34060D01*
X49373Y-34010D01*
X49550Y-33882D01*
X49665Y-33696D01*
X49682Y-33637D01*
X49682Y-39342D01*
X49618Y-39189D01*
X49464Y-39035D01*
X49262Y-38951D01*
X49044Y-38951D01*
X48950Y-38951D01*
X48950Y-34060D01*
X48950Y-33550D01*
X48365Y-33550D01*
X48318Y-33637D01*
X48335Y-33696D01*
X48450Y-33882D01*
X48627Y-34010D01*
X48840Y-34060D01*
X48950Y-34060D01*
X48950Y-38951D01*
X48738Y-38951D01*
X48536Y-39035D01*
X48382Y-39189D01*
X48298Y-39391D01*
X48298Y-39609D01*
X48382Y-39811D01*
X48536Y-39965D01*
X48615Y-39998D01*
X48450Y-40118D01*
X48335Y-40304D01*
X48318Y-40363D01*
X48365Y-40450D01*
X48900Y-40450D01*
X48950Y-40450D01*
X49050Y-40450D01*
X49100Y-40450D01*
X49635Y-40450D01*
X49682Y-40363D01*
X49665Y-40304D01*
X49550Y-40118D01*
X49384Y-39998D01*
X49464Y-39965D01*
X49618Y-39811D01*
X49702Y-39609D01*
X49702Y-41391D01*
X49618Y-41189D01*
X49464Y-41035D01*
X49384Y-41001D01*
X49550Y-40882D01*
X49665Y-40696D01*
X49682Y-40637D01*
X49635Y-40550D01*
X49100Y-40550D01*
X49050Y-40550D01*
X48950Y-40550D01*
X48900Y-40550D01*
X48365Y-40550D01*
X48318Y-40637D01*
X48335Y-40696D01*
X48450Y-40882D01*
X48615Y-41001D01*
X48536Y-41035D01*
X48382Y-41189D01*
X48298Y-41391D01*
X48298Y-41609D01*
X48382Y-41811D01*
X48536Y-41965D01*
X48620Y-42000D01*
X48536Y-42035D01*
X48382Y-42189D01*
X48298Y-42391D01*
X48298Y-42609D01*
X48382Y-42811D01*
X48536Y-42965D01*
X48620Y-43000D01*
X48536Y-43035D01*
X48382Y-43189D01*
X48298Y-43391D01*
X48298Y-43609D01*
X48382Y-43811D01*
X48536Y-43965D01*
X48620Y-44000D01*
X48536Y-44035D01*
X48382Y-44189D01*
X48298Y-44391D01*
X48298Y-44609D01*
X48382Y-44811D01*
X48536Y-44965D01*
X48620Y-45000D01*
X48536Y-45035D01*
X48382Y-45189D01*
X48298Y-45391D01*
X48298Y-45609D01*
X48382Y-45811D01*
X48536Y-45965D01*
X48615Y-45998D01*
X48450Y-46118D01*
X48335Y-46304D01*
X48318Y-46363D01*
X48365Y-46450D01*
X48900Y-46450D01*
X48950Y-46450D01*
X49050Y-46450D01*
X49100Y-46450D01*
X49635Y-46450D01*
X49682Y-46363D01*
X49665Y-46304D01*
X49550Y-46118D01*
X49384Y-45998D01*
X49464Y-45965D01*
X49618Y-45811D01*
X49702Y-45609D01*
X49702Y-46726D01*
X49554Y-46874D01*
X49665Y-46696D01*
X49682Y-46637D01*
X49635Y-46550D01*
X49050Y-46550D01*
X49050Y-47060D01*
X49160Y-47060D01*
X49373Y-47010D01*
X49539Y-46889D01*
X49229Y-47200D01*
X48771Y-47200D01*
X48460Y-46889D01*
X48627Y-47010D01*
X48840Y-47060D01*
X48950Y-47060D01*
X48950Y-46550D01*
X48365Y-46550D01*
X48318Y-46637D01*
X48335Y-46696D01*
X48445Y-46874D01*
X48050Y-46479D01*
X48050Y-41729D01*
X47771Y-41450D01*
X47271Y-41450D01*
X47050Y-41229D01*
X47050Y-40271D01*
X47271Y-40050D01*
X47771Y-40050D01*
X48050Y-39771D01*
X48050Y-13229D01*
X47271Y-12450D01*
X43826Y-12450D01*
X43965Y-12311D01*
X44049Y-12109D01*
X44049Y-11891D01*
X43965Y-11689D01*
X43811Y-11535D01*
X43726Y-11500D01*
X43811Y-11465D01*
X43965Y-11311D01*
X44049Y-11109D01*
X44049Y-10891D01*
X44043Y-10876D01*
X44043Y-10079D01*
X44032Y-09866D01*
X43972Y-09719D01*
X43878Y-09692D01*
X43808Y-09762D01*
X43808Y-09622D01*
X43781Y-09528D01*
X43579Y-09457D01*
X43366Y-09468D01*
X43219Y-09528D01*
X43192Y-09622D01*
X43500Y-09929D01*
X43808Y-09622D01*
X43808Y-09762D01*
X43571Y-10000D01*
X43878Y-10308D01*
X43972Y-10281D01*
X44043Y-10079D01*
X44043Y-10876D01*
X43965Y-10689D01*
X43811Y-10535D01*
X43719Y-10497D01*
X43781Y-10472D01*
X43808Y-10378D01*
X43500Y-10071D01*
X43429Y-10141D01*
X43429Y-10000D01*
X43122Y-09692D01*
X43028Y-09719D01*
X42957Y-09921D01*
X42968Y-10134D01*
X43028Y-10281D01*
X43122Y-10308D01*
X43429Y-10000D01*
X43429Y-10141D01*
X43192Y-10378D01*
X43219Y-10472D01*
X43284Y-10495D01*
X43189Y-10535D01*
X43035Y-10689D01*
X42951Y-10891D01*
X42951Y-11109D01*
X43035Y-11311D01*
X43189Y-11465D01*
X43273Y-11500D01*
X43189Y-11535D01*
X43035Y-11689D01*
X42951Y-11891D01*
X42951Y-12109D01*
X43035Y-12311D01*
X43174Y-12450D01*
X39049Y-12450D01*
X39049Y-11109D01*
X39049Y-10891D01*
X38965Y-10689D01*
X38811Y-10535D01*
X38726Y-10500D01*
X38811Y-10465D01*
X38965Y-10311D01*
X39049Y-10109D01*
X39049Y-09891D01*
X38965Y-09689D01*
X38811Y-09535D01*
X38609Y-09451D01*
X38391Y-09451D01*
X38189Y-09535D01*
X38035Y-09689D01*
X37951Y-09891D01*
X37951Y-10109D01*
X38035Y-10311D01*
X38189Y-10465D01*
X38273Y-10500D01*
X38189Y-10535D01*
X38035Y-10689D01*
X37951Y-10891D01*
X37951Y-11109D01*
X38035Y-11311D01*
X38189Y-11465D01*
X38280Y-11502D01*
X38219Y-11528D01*
X38192Y-11622D01*
X38500Y-11929D01*
X38808Y-11622D01*
X38781Y-11528D01*
X38715Y-11504D01*
X38811Y-11465D01*
X38965Y-11311D01*
X39049Y-11109D01*
X39049Y-12450D01*
X39043Y-12450D01*
X39043Y-12079D01*
X39032Y-11866D01*
X38972Y-11719D01*
X38878Y-11692D01*
X38571Y-12000D01*
X38878Y-12308D01*
X38972Y-12281D01*
X39043Y-12079D01*
X39043Y-12450D01*
X38787Y-12450D01*
X38808Y-12378D01*
X38500Y-12071D01*
X38429Y-12141D01*
X38429Y-12000D01*
X38122Y-11692D01*
X38028Y-11719D01*
X37957Y-11921D01*
X37968Y-12134D01*
X38028Y-12281D01*
X38122Y-12308D01*
X38429Y-12000D01*
X38429Y-12141D01*
X38192Y-12378D01*
X38212Y-12450D01*
X37771Y-12450D01*
X37300Y-11979D01*
X37300Y-09271D01*
X38021Y-08550D01*
X46479Y-08550D01*
X49950Y-12021D01*
X49950Y-17699D01*
X49890Y-17759D01*
X49825Y-17915D01*
X49825Y-18084D01*
X49889Y-18240D01*
X49950Y-18301D01*
X49950Y-30199D01*
X49890Y-30259D01*
X49825Y-30415D01*
X49825Y-30584D01*
X49889Y-30740D01*
X49950Y-30801D01*
X49950Y-43699D01*
X49890Y-43759D01*
X49825Y-43915D01*
X49825Y-44084D01*
X49889Y-44240D01*
X49950Y-44301D01*
X49950Y-46479D01*
M02*
