G04 (created by PCBNEW-RS274X (2012-01-19 BZR 3256)-stable) date 7/17/2013 11:23:13 AM*
G01*
G70*
G90*
%MOIN*%
G04 Gerber Fmt 3.4, Leading zero omitted, Abs format*
%FSLAX34Y34*%
G04 APERTURE LIST*
%ADD10C,0.006000*%
%ADD11C,0.012000*%
%ADD12C,0.015000*%
%ADD13C,0.008000*%
%ADD14C,0.005000*%
%ADD15C,0.010700*%
%ADD16C,0.011300*%
G04 APERTURE END LIST*
G54D10*
G54D11*
X39129Y-47905D02*
X38929Y-47905D01*
X38929Y-48324D02*
X38929Y-47524D01*
X39215Y-47524D01*
X39443Y-48324D02*
X39443Y-47790D01*
X39443Y-47524D02*
X39414Y-47562D01*
X39443Y-47600D01*
X39471Y-47562D01*
X39443Y-47524D01*
X39443Y-47600D01*
X39815Y-48324D02*
X39757Y-48286D01*
X39729Y-48210D01*
X39729Y-47524D01*
X40129Y-48324D02*
X40071Y-48286D01*
X40043Y-48210D01*
X40043Y-47524D01*
X43415Y-56905D02*
X43615Y-56905D01*
X43701Y-57324D02*
X43415Y-57324D01*
X43415Y-56524D01*
X43701Y-56524D01*
X43958Y-57324D02*
X43958Y-56790D01*
X43958Y-56943D02*
X43986Y-56867D01*
X44015Y-56829D01*
X44072Y-56790D01*
X44129Y-56790D01*
X44586Y-57324D02*
X44586Y-56905D01*
X44557Y-56829D01*
X44500Y-56790D01*
X44386Y-56790D01*
X44329Y-56829D01*
X44586Y-57286D02*
X44529Y-57324D01*
X44386Y-57324D01*
X44329Y-57286D01*
X44300Y-57210D01*
X44300Y-57133D01*
X44329Y-57057D01*
X44386Y-57019D01*
X44529Y-57019D01*
X44586Y-56981D01*
X44843Y-57286D02*
X44900Y-57324D01*
X45015Y-57324D01*
X45072Y-57286D01*
X45100Y-57210D01*
X45100Y-57171D01*
X45072Y-57095D01*
X45015Y-57057D01*
X44929Y-57057D01*
X44872Y-57019D01*
X44843Y-56943D01*
X44843Y-56905D01*
X44872Y-56829D01*
X44929Y-56790D01*
X45015Y-56790D01*
X45072Y-56829D01*
X45586Y-57286D02*
X45529Y-57324D01*
X45415Y-57324D01*
X45358Y-57286D01*
X45329Y-57210D01*
X45329Y-56905D01*
X45358Y-56829D01*
X45415Y-56790D01*
X45529Y-56790D01*
X45586Y-56829D01*
X45615Y-56905D01*
X45615Y-56981D01*
X45329Y-57057D01*
X34572Y-57324D02*
X34572Y-56524D01*
X34715Y-56524D01*
X34800Y-56562D01*
X34858Y-56638D01*
X34886Y-56714D01*
X34915Y-56867D01*
X34915Y-56981D01*
X34886Y-57133D01*
X34858Y-57210D01*
X34800Y-57286D01*
X34715Y-57324D01*
X34572Y-57324D01*
X35172Y-57324D02*
X35172Y-56790D01*
X35172Y-56943D02*
X35200Y-56867D01*
X35229Y-56829D01*
X35286Y-56790D01*
X35343Y-56790D01*
X35800Y-57324D02*
X35800Y-56905D01*
X35771Y-56829D01*
X35714Y-56790D01*
X35600Y-56790D01*
X35543Y-56829D01*
X35800Y-57286D02*
X35743Y-57324D01*
X35600Y-57324D01*
X35543Y-57286D01*
X35514Y-57210D01*
X35514Y-57133D01*
X35543Y-57057D01*
X35600Y-57019D01*
X35743Y-57019D01*
X35800Y-56981D01*
X36029Y-56790D02*
X36143Y-57324D01*
X36257Y-56943D01*
X36372Y-57324D01*
X36486Y-56790D01*
X43429Y-62024D02*
X43543Y-62024D01*
X43601Y-62062D01*
X43658Y-62138D01*
X43686Y-62290D01*
X43686Y-62557D01*
X43658Y-62710D01*
X43601Y-62786D01*
X43543Y-62824D01*
X43429Y-62824D01*
X43372Y-62786D01*
X43315Y-62710D01*
X43286Y-62557D01*
X43286Y-62290D01*
X43315Y-62138D01*
X43372Y-62062D01*
X43429Y-62024D01*
X44144Y-62405D02*
X43944Y-62405D01*
X43944Y-62824D02*
X43944Y-62024D01*
X44230Y-62024D01*
X44658Y-62405D02*
X44458Y-62405D01*
X44458Y-62824D02*
X44458Y-62024D01*
X44744Y-62024D01*
X35628Y-62024D02*
X35742Y-62024D01*
X35800Y-62062D01*
X35857Y-62138D01*
X35885Y-62290D01*
X35885Y-62557D01*
X35857Y-62710D01*
X35800Y-62786D01*
X35742Y-62824D01*
X35628Y-62824D01*
X35571Y-62786D01*
X35514Y-62710D01*
X35485Y-62557D01*
X35485Y-62290D01*
X35514Y-62138D01*
X35571Y-62062D01*
X35628Y-62024D01*
X36143Y-62824D02*
X36143Y-62024D01*
X36486Y-62824D01*
X36486Y-62024D01*
X43429Y-67524D02*
X43543Y-67524D01*
X43601Y-67562D01*
X43658Y-67638D01*
X43686Y-67790D01*
X43686Y-68057D01*
X43658Y-68210D01*
X43601Y-68286D01*
X43543Y-68324D01*
X43429Y-68324D01*
X43372Y-68286D01*
X43315Y-68210D01*
X43286Y-68057D01*
X43286Y-67790D01*
X43315Y-67638D01*
X43372Y-67562D01*
X43429Y-67524D01*
X44144Y-67905D02*
X43944Y-67905D01*
X43944Y-68324D02*
X43944Y-67524D01*
X44230Y-67524D01*
X44658Y-67905D02*
X44458Y-67905D01*
X44458Y-68324D02*
X44458Y-67524D01*
X44744Y-67524D01*
X35628Y-67524D02*
X35742Y-67524D01*
X35800Y-67562D01*
X35857Y-67638D01*
X35885Y-67790D01*
X35885Y-68057D01*
X35857Y-68210D01*
X35800Y-68286D01*
X35742Y-68324D01*
X35628Y-68324D01*
X35571Y-68286D01*
X35514Y-68210D01*
X35485Y-68057D01*
X35485Y-67790D01*
X35514Y-67638D01*
X35571Y-67562D01*
X35628Y-67524D01*
X36143Y-68324D02*
X36143Y-67524D01*
X36486Y-68324D01*
X36486Y-67524D01*
X39000Y-55324D02*
X39000Y-54524D01*
X39200Y-55095D01*
X39400Y-54524D01*
X39400Y-55324D01*
X39772Y-55324D02*
X39714Y-55286D01*
X39686Y-55248D01*
X39657Y-55171D01*
X39657Y-54943D01*
X39686Y-54867D01*
X39714Y-54829D01*
X39772Y-54790D01*
X39857Y-54790D01*
X39914Y-54829D01*
X39943Y-54867D01*
X39972Y-54943D01*
X39972Y-55171D01*
X39943Y-55248D01*
X39914Y-55286D01*
X39857Y-55324D01*
X39772Y-55324D01*
X40486Y-55324D02*
X40486Y-54524D01*
X40486Y-55286D02*
X40429Y-55324D01*
X40315Y-55324D01*
X40257Y-55286D01*
X40229Y-55248D01*
X40200Y-55171D01*
X40200Y-54943D01*
X40229Y-54867D01*
X40257Y-54829D01*
X40315Y-54790D01*
X40429Y-54790D01*
X40486Y-54829D01*
X41000Y-55286D02*
X40943Y-55324D01*
X40829Y-55324D01*
X40772Y-55286D01*
X40743Y-55210D01*
X40743Y-54905D01*
X40772Y-54829D01*
X40829Y-54790D01*
X40943Y-54790D01*
X41000Y-54829D01*
X41029Y-54905D01*
X41029Y-54981D01*
X40743Y-55057D01*
X39658Y-60824D02*
X39458Y-60443D01*
X39315Y-60824D02*
X39315Y-60024D01*
X39543Y-60024D01*
X39601Y-60062D01*
X39629Y-60100D01*
X39658Y-60176D01*
X39658Y-60290D01*
X39629Y-60367D01*
X39601Y-60405D01*
X39543Y-60443D01*
X39315Y-60443D01*
X40143Y-60786D02*
X40086Y-60824D01*
X39972Y-60824D01*
X39915Y-60786D01*
X39886Y-60710D01*
X39886Y-60405D01*
X39915Y-60329D01*
X39972Y-60290D01*
X40086Y-60290D01*
X40143Y-60329D01*
X40172Y-60405D01*
X40172Y-60481D01*
X39886Y-60557D01*
X40686Y-60824D02*
X40686Y-60024D01*
X40686Y-60786D02*
X40629Y-60824D01*
X40515Y-60824D01*
X40457Y-60786D01*
X40429Y-60748D01*
X40400Y-60671D01*
X40400Y-60443D01*
X40429Y-60367D01*
X40457Y-60329D01*
X40515Y-60290D01*
X40629Y-60290D01*
X40686Y-60329D01*
X39186Y-65562D02*
X39129Y-65524D01*
X39043Y-65524D01*
X38958Y-65562D01*
X38900Y-65638D01*
X38872Y-65714D01*
X38843Y-65867D01*
X38843Y-65981D01*
X38872Y-66133D01*
X38900Y-66210D01*
X38958Y-66286D01*
X39043Y-66324D01*
X39100Y-66324D01*
X39186Y-66286D01*
X39215Y-66248D01*
X39215Y-65981D01*
X39100Y-65981D01*
X39472Y-66324D02*
X39472Y-65790D01*
X39472Y-65943D02*
X39500Y-65867D01*
X39529Y-65829D01*
X39586Y-65790D01*
X39643Y-65790D01*
X40071Y-66286D02*
X40014Y-66324D01*
X39900Y-66324D01*
X39843Y-66286D01*
X39814Y-66210D01*
X39814Y-65905D01*
X39843Y-65829D01*
X39900Y-65790D01*
X40014Y-65790D01*
X40071Y-65829D01*
X40100Y-65905D01*
X40100Y-65981D01*
X39814Y-66057D01*
X40585Y-66286D02*
X40528Y-66324D01*
X40414Y-66324D01*
X40357Y-66286D01*
X40328Y-66210D01*
X40328Y-65905D01*
X40357Y-65829D01*
X40414Y-65790D01*
X40528Y-65790D01*
X40585Y-65829D01*
X40614Y-65905D01*
X40614Y-65981D01*
X40328Y-66057D01*
X40871Y-65790D02*
X40871Y-66324D01*
X40871Y-65867D02*
X40899Y-65829D01*
X40957Y-65790D01*
X41042Y-65790D01*
X41099Y-65829D01*
X41128Y-65905D01*
X41128Y-66324D01*
G54D12*
X109400Y-53000D02*
X109382Y-53174D01*
X109332Y-53342D01*
X109249Y-53498D01*
X109138Y-53634D01*
X109003Y-53746D01*
X108848Y-53829D01*
X108680Y-53881D01*
X108506Y-53899D01*
X108332Y-53884D01*
X108163Y-53834D01*
X108008Y-53753D01*
X107871Y-53643D01*
X107758Y-53508D01*
X107673Y-53354D01*
X107620Y-53187D01*
X107601Y-53012D01*
X107615Y-52838D01*
X107664Y-52669D01*
X107744Y-52513D01*
X107853Y-52375D01*
X107987Y-52261D01*
X108140Y-52176D01*
X108307Y-52121D01*
X108482Y-52101D01*
X108656Y-52114D01*
X108825Y-52161D01*
X108982Y-52241D01*
X109120Y-52349D01*
X109235Y-52482D01*
X109322Y-52634D01*
X109377Y-52801D01*
X109399Y-52975D01*
X109400Y-53000D01*
X109400Y-08000D02*
X109382Y-08174D01*
X109332Y-08342D01*
X109249Y-08498D01*
X109138Y-08634D01*
X109003Y-08746D01*
X108848Y-08829D01*
X108680Y-08881D01*
X108506Y-08899D01*
X108332Y-08884D01*
X108163Y-08834D01*
X108008Y-08753D01*
X107871Y-08643D01*
X107758Y-08508D01*
X107673Y-08354D01*
X107620Y-08187D01*
X107601Y-08012D01*
X107615Y-07838D01*
X107664Y-07669D01*
X107744Y-07513D01*
X107853Y-07375D01*
X107987Y-07261D01*
X108140Y-07176D01*
X108307Y-07121D01*
X108482Y-07101D01*
X108656Y-07114D01*
X108825Y-07161D01*
X108982Y-07241D01*
X109120Y-07349D01*
X109235Y-07482D01*
X109322Y-07634D01*
X109377Y-07801D01*
X109399Y-07975D01*
X109400Y-08000D01*
G54D11*
X39000Y-42000D02*
X38000Y-42000D01*
X38000Y-42000D02*
X38000Y-40000D01*
X38000Y-40000D02*
X39000Y-40000D01*
X39000Y-40000D02*
X39000Y-42000D01*
X38000Y-43000D02*
X39000Y-43000D01*
X39000Y-43000D02*
X39000Y-45000D01*
X39000Y-45000D02*
X38000Y-45000D01*
X38000Y-45000D02*
X38000Y-43000D01*
G54D12*
X53450Y-11200D02*
X53450Y-23800D01*
X66050Y-23800D02*
X53450Y-23800D01*
X66050Y-23800D02*
X66050Y-11200D01*
X66050Y-11200D02*
X53450Y-11200D01*
X53450Y-24200D02*
X53450Y-36800D01*
X66050Y-36800D02*
X53450Y-36800D01*
X66050Y-36800D02*
X66050Y-24200D01*
X66050Y-24200D02*
X53450Y-24200D01*
X53450Y-37200D02*
X53450Y-49800D01*
X66050Y-49800D02*
X53450Y-49800D01*
X66050Y-49800D02*
X66050Y-37200D01*
X66050Y-37200D02*
X53450Y-37200D01*
X66450Y-11200D02*
X66450Y-23800D01*
X79050Y-23800D02*
X66450Y-23800D01*
X79050Y-23800D02*
X79050Y-11200D01*
X79050Y-11200D02*
X66450Y-11200D01*
X66450Y-24200D02*
X66450Y-36800D01*
X79050Y-36800D02*
X66450Y-36800D01*
X79050Y-36800D02*
X79050Y-24200D01*
X79050Y-24200D02*
X66450Y-24200D01*
X66450Y-37200D02*
X66450Y-49800D01*
X79050Y-49800D02*
X66450Y-49800D01*
X79050Y-49800D02*
X79050Y-37200D01*
X79050Y-37200D02*
X66450Y-37200D01*
X79450Y-11200D02*
X79450Y-23800D01*
X92050Y-23800D02*
X79450Y-23800D01*
X92050Y-23800D02*
X92050Y-11200D01*
X92050Y-11200D02*
X79450Y-11200D01*
X79450Y-24200D02*
X79450Y-36800D01*
X92050Y-36800D02*
X79450Y-36800D01*
X92050Y-36800D02*
X92050Y-24200D01*
X92050Y-24200D02*
X79450Y-24200D01*
X79450Y-37200D02*
X79450Y-49800D01*
X92050Y-49800D02*
X79450Y-49800D01*
X92050Y-49800D02*
X92050Y-37200D01*
X92050Y-37200D02*
X79450Y-37200D01*
X92450Y-11200D02*
X92450Y-23800D01*
X105050Y-23800D02*
X92450Y-23800D01*
X105050Y-23800D02*
X105050Y-11200D01*
X105050Y-11200D02*
X92450Y-11200D01*
X92450Y-24200D02*
X92450Y-36800D01*
X105050Y-36800D02*
X92450Y-36800D01*
X105050Y-36800D02*
X105050Y-24200D01*
X105050Y-24200D02*
X92450Y-24200D01*
X92450Y-37200D02*
X92450Y-49800D01*
X105050Y-49800D02*
X92450Y-49800D01*
X105050Y-49800D02*
X105050Y-37200D01*
X105050Y-37200D02*
X92450Y-37200D01*
X50000Y-21500D02*
X50000Y-21500D01*
X50000Y-21500D02*
X50000Y-21000D01*
X50000Y-21000D02*
X51000Y-21000D01*
X51000Y-21000D02*
X51000Y-21500D01*
X49500Y-21500D02*
X49500Y-12500D01*
X49500Y-12500D02*
X51500Y-12500D01*
X51500Y-12500D02*
X51500Y-21500D01*
X51500Y-21500D02*
X49500Y-21500D01*
X50000Y-34500D02*
X50000Y-34500D01*
X50000Y-34500D02*
X50000Y-34000D01*
X50000Y-34000D02*
X51000Y-34000D01*
X51000Y-34000D02*
X51000Y-34500D01*
X49500Y-34500D02*
X49500Y-25500D01*
X49500Y-25500D02*
X51500Y-25500D01*
X51500Y-25500D02*
X51500Y-34500D01*
X51500Y-34500D02*
X49500Y-34500D01*
X50000Y-47500D02*
X50000Y-47500D01*
X50000Y-47500D02*
X50000Y-47000D01*
X50000Y-47000D02*
X51000Y-47000D01*
X51000Y-47000D02*
X51000Y-47500D01*
X49500Y-47500D02*
X49500Y-38500D01*
X49500Y-38500D02*
X51500Y-38500D01*
X51500Y-38500D02*
X51500Y-47500D01*
X51500Y-47500D02*
X49500Y-47500D01*
X43750Y-40000D02*
X44000Y-40000D01*
X44000Y-40000D02*
X44000Y-44000D01*
X44000Y-44000D02*
X43750Y-44000D01*
X42250Y-40000D02*
X43750Y-40000D01*
X43750Y-40000D02*
X43750Y-44000D01*
X43750Y-44000D02*
X42250Y-44000D01*
X42250Y-44000D02*
X42250Y-40000D01*
G54D13*
X65250Y-53750D02*
X65250Y-53550D01*
X65250Y-50750D02*
X65250Y-50950D01*
X65250Y-50950D02*
X64850Y-50950D01*
X64850Y-50950D02*
X64850Y-53550D01*
X64850Y-53550D02*
X65650Y-53550D01*
X65650Y-53550D02*
X65650Y-50950D01*
X65650Y-50950D02*
X65250Y-50950D01*
X65050Y-53550D02*
X64850Y-53350D01*
X73250Y-53750D02*
X73250Y-53550D01*
X73250Y-50750D02*
X73250Y-50950D01*
X73250Y-50950D02*
X72850Y-50950D01*
X72850Y-50950D02*
X72850Y-53550D01*
X72850Y-53550D02*
X73650Y-53550D01*
X73650Y-53550D02*
X73650Y-50950D01*
X73650Y-50950D02*
X73250Y-50950D01*
X73050Y-53550D02*
X72850Y-53350D01*
X72250Y-53750D02*
X72250Y-53550D01*
X72250Y-50750D02*
X72250Y-50950D01*
X72250Y-50950D02*
X71850Y-50950D01*
X71850Y-50950D02*
X71850Y-53550D01*
X71850Y-53550D02*
X72650Y-53550D01*
X72650Y-53550D02*
X72650Y-50950D01*
X72650Y-50950D02*
X72250Y-50950D01*
X72050Y-53550D02*
X71850Y-53350D01*
X74250Y-53750D02*
X74250Y-53550D01*
X74250Y-50750D02*
X74250Y-50950D01*
X74250Y-50950D02*
X73850Y-50950D01*
X73850Y-50950D02*
X73850Y-53550D01*
X73850Y-53550D02*
X74650Y-53550D01*
X74650Y-53550D02*
X74650Y-50950D01*
X74650Y-50950D02*
X74250Y-50950D01*
X74050Y-53550D02*
X73850Y-53350D01*
X75250Y-53750D02*
X75250Y-53550D01*
X75250Y-50750D02*
X75250Y-50950D01*
X75250Y-50950D02*
X74850Y-50950D01*
X74850Y-50950D02*
X74850Y-53550D01*
X74850Y-53550D02*
X75650Y-53550D01*
X75650Y-53550D02*
X75650Y-50950D01*
X75650Y-50950D02*
X75250Y-50950D01*
X75050Y-53550D02*
X74850Y-53350D01*
X62250Y-53750D02*
X62250Y-53550D01*
X62250Y-50750D02*
X62250Y-50950D01*
X62250Y-50950D02*
X61850Y-50950D01*
X61850Y-50950D02*
X61850Y-53550D01*
X61850Y-53550D02*
X62650Y-53550D01*
X62650Y-53550D02*
X62650Y-50950D01*
X62650Y-50950D02*
X62250Y-50950D01*
X62050Y-53550D02*
X61850Y-53350D01*
X61250Y-53750D02*
X61250Y-53550D01*
X61250Y-50750D02*
X61250Y-50950D01*
X61250Y-50950D02*
X60850Y-50950D01*
X60850Y-50950D02*
X60850Y-53550D01*
X60850Y-53550D02*
X61650Y-53550D01*
X61650Y-53550D02*
X61650Y-50950D01*
X61650Y-50950D02*
X61250Y-50950D01*
X61050Y-53550D02*
X60850Y-53350D01*
X59250Y-53750D02*
X59250Y-53550D01*
X59250Y-50750D02*
X59250Y-50950D01*
X59250Y-50950D02*
X58850Y-50950D01*
X58850Y-50950D02*
X58850Y-53550D01*
X58850Y-53550D02*
X59650Y-53550D01*
X59650Y-53550D02*
X59650Y-50950D01*
X59650Y-50950D02*
X59250Y-50950D01*
X59050Y-53550D02*
X58850Y-53350D01*
X60250Y-53750D02*
X60250Y-53550D01*
X60250Y-50750D02*
X60250Y-50950D01*
X60250Y-50950D02*
X59850Y-50950D01*
X59850Y-50950D02*
X59850Y-53550D01*
X59850Y-53550D02*
X60650Y-53550D01*
X60650Y-53550D02*
X60650Y-50950D01*
X60650Y-50950D02*
X60250Y-50950D01*
X60050Y-53550D02*
X59850Y-53350D01*
X64250Y-53750D02*
X64250Y-53550D01*
X64250Y-50750D02*
X64250Y-50950D01*
X64250Y-50950D02*
X63850Y-50950D01*
X63850Y-50950D02*
X63850Y-53550D01*
X63850Y-53550D02*
X64650Y-53550D01*
X64650Y-53550D02*
X64650Y-50950D01*
X64650Y-50950D02*
X64250Y-50950D01*
X64050Y-53550D02*
X63850Y-53350D01*
X63250Y-53750D02*
X63250Y-53550D01*
X63250Y-50750D02*
X63250Y-50950D01*
X63250Y-50950D02*
X62850Y-50950D01*
X62850Y-50950D02*
X62850Y-53550D01*
X62850Y-53550D02*
X63650Y-53550D01*
X63650Y-53550D02*
X63650Y-50950D01*
X63650Y-50950D02*
X63250Y-50950D01*
X63050Y-53550D02*
X62850Y-53350D01*
X76250Y-53750D02*
X76250Y-53550D01*
X76250Y-50750D02*
X76250Y-50950D01*
X76250Y-50950D02*
X75850Y-50950D01*
X75850Y-50950D02*
X75850Y-53550D01*
X75850Y-53550D02*
X76650Y-53550D01*
X76650Y-53550D02*
X76650Y-50950D01*
X76650Y-50950D02*
X76250Y-50950D01*
X76050Y-53550D02*
X75850Y-53350D01*
X66250Y-53750D02*
X66250Y-53550D01*
X66250Y-50750D02*
X66250Y-50950D01*
X66250Y-50950D02*
X65850Y-50950D01*
X65850Y-50950D02*
X65850Y-53550D01*
X65850Y-53550D02*
X66650Y-53550D01*
X66650Y-53550D02*
X66650Y-50950D01*
X66650Y-50950D02*
X66250Y-50950D01*
X66050Y-53550D02*
X65850Y-53350D01*
X94750Y-64750D02*
X94750Y-64550D01*
X94750Y-61750D02*
X94750Y-61950D01*
X94750Y-61950D02*
X94350Y-61950D01*
X94350Y-61950D02*
X94350Y-64550D01*
X94350Y-64550D02*
X95150Y-64550D01*
X95150Y-64550D02*
X95150Y-61950D01*
X95150Y-61950D02*
X94750Y-61950D01*
X94550Y-64550D02*
X94350Y-64350D01*
X93750Y-64750D02*
X93750Y-64550D01*
X93750Y-61750D02*
X93750Y-61950D01*
X93750Y-61950D02*
X93350Y-61950D01*
X93350Y-61950D02*
X93350Y-64550D01*
X93350Y-64550D02*
X94150Y-64550D01*
X94150Y-64550D02*
X94150Y-61950D01*
X94150Y-61950D02*
X93750Y-61950D01*
X93550Y-64550D02*
X93350Y-64350D01*
X91750Y-64750D02*
X91750Y-64550D01*
X91750Y-61750D02*
X91750Y-61950D01*
X91750Y-61950D02*
X91350Y-61950D01*
X91350Y-61950D02*
X91350Y-64550D01*
X91350Y-64550D02*
X92150Y-64550D01*
X92150Y-64550D02*
X92150Y-61950D01*
X92150Y-61950D02*
X91750Y-61950D01*
X91550Y-64550D02*
X91350Y-64350D01*
X92750Y-64750D02*
X92750Y-64550D01*
X92750Y-61750D02*
X92750Y-61950D01*
X92750Y-61950D02*
X92350Y-61950D01*
X92350Y-61950D02*
X92350Y-64550D01*
X92350Y-64550D02*
X93150Y-64550D01*
X93150Y-64550D02*
X93150Y-61950D01*
X93150Y-61950D02*
X92750Y-61950D01*
X92550Y-64550D02*
X92350Y-64350D01*
X96750Y-64750D02*
X96750Y-64550D01*
X96750Y-61750D02*
X96750Y-61950D01*
X96750Y-61950D02*
X96350Y-61950D01*
X96350Y-61950D02*
X96350Y-64550D01*
X96350Y-64550D02*
X97150Y-64550D01*
X97150Y-64550D02*
X97150Y-61950D01*
X97150Y-61950D02*
X96750Y-61950D01*
X96550Y-64550D02*
X96350Y-64350D01*
X95750Y-64750D02*
X95750Y-64550D01*
X95750Y-61750D02*
X95750Y-61950D01*
X95750Y-61950D02*
X95350Y-61950D01*
X95350Y-61950D02*
X95350Y-64550D01*
X95350Y-64550D02*
X96150Y-64550D01*
X96150Y-64550D02*
X96150Y-61950D01*
X96150Y-61950D02*
X95750Y-61950D01*
X95550Y-64550D02*
X95350Y-64350D01*
X97750Y-64750D02*
X97750Y-64550D01*
X97750Y-61750D02*
X97750Y-61950D01*
X97750Y-61950D02*
X97350Y-61950D01*
X97350Y-61950D02*
X97350Y-64550D01*
X97350Y-64550D02*
X98150Y-64550D01*
X98150Y-64550D02*
X98150Y-61950D01*
X98150Y-61950D02*
X97750Y-61950D01*
X97550Y-64550D02*
X97350Y-64350D01*
X87250Y-53750D02*
X87250Y-53550D01*
X87250Y-50750D02*
X87250Y-50950D01*
X87250Y-50950D02*
X86850Y-50950D01*
X86850Y-50950D02*
X86850Y-53550D01*
X86850Y-53550D02*
X87650Y-53550D01*
X87650Y-53550D02*
X87650Y-50950D01*
X87650Y-50950D02*
X87250Y-50950D01*
X87050Y-53550D02*
X86850Y-53350D01*
X105250Y-53750D02*
X105250Y-53550D01*
X105250Y-50750D02*
X105250Y-50950D01*
X105250Y-50950D02*
X104850Y-50950D01*
X104850Y-50950D02*
X104850Y-53550D01*
X104850Y-53550D02*
X105650Y-53550D01*
X105650Y-53550D02*
X105650Y-50950D01*
X105650Y-50950D02*
X105250Y-50950D01*
X105050Y-53550D02*
X104850Y-53350D01*
X104250Y-53750D02*
X104250Y-53550D01*
X104250Y-50750D02*
X104250Y-50950D01*
X104250Y-50950D02*
X103850Y-50950D01*
X103850Y-50950D02*
X103850Y-53550D01*
X103850Y-53550D02*
X104650Y-53550D01*
X104650Y-53550D02*
X104650Y-50950D01*
X104650Y-50950D02*
X104250Y-50950D01*
X104050Y-53550D02*
X103850Y-53350D01*
X102250Y-53750D02*
X102250Y-53550D01*
X102250Y-50750D02*
X102250Y-50950D01*
X102250Y-50950D02*
X101850Y-50950D01*
X101850Y-50950D02*
X101850Y-53550D01*
X101850Y-53550D02*
X102650Y-53550D01*
X102650Y-53550D02*
X102650Y-50950D01*
X102650Y-50950D02*
X102250Y-50950D01*
X102050Y-53550D02*
X101850Y-53350D01*
X103250Y-53750D02*
X103250Y-53550D01*
X103250Y-50750D02*
X103250Y-50950D01*
X103250Y-50950D02*
X102850Y-50950D01*
X102850Y-50950D02*
X102850Y-53550D01*
X102850Y-53550D02*
X103650Y-53550D01*
X103650Y-53550D02*
X103650Y-50950D01*
X103650Y-50950D02*
X103250Y-50950D01*
X103050Y-53550D02*
X102850Y-53350D01*
X99250Y-53750D02*
X99250Y-53550D01*
X99250Y-50750D02*
X99250Y-50950D01*
X99250Y-50950D02*
X98850Y-50950D01*
X98850Y-50950D02*
X98850Y-53550D01*
X98850Y-53550D02*
X99650Y-53550D01*
X99650Y-53550D02*
X99650Y-50950D01*
X99650Y-50950D02*
X99250Y-50950D01*
X99050Y-53550D02*
X98850Y-53350D01*
X98250Y-53750D02*
X98250Y-53550D01*
X98250Y-50750D02*
X98250Y-50950D01*
X98250Y-50950D02*
X97850Y-50950D01*
X97850Y-50950D02*
X97850Y-53550D01*
X97850Y-53550D02*
X98650Y-53550D01*
X98650Y-53550D02*
X98650Y-50950D01*
X98650Y-50950D02*
X98250Y-50950D01*
X98050Y-53550D02*
X97850Y-53350D01*
X100250Y-53750D02*
X100250Y-53550D01*
X100250Y-50750D02*
X100250Y-50950D01*
X100250Y-50950D02*
X99850Y-50950D01*
X99850Y-50950D02*
X99850Y-53550D01*
X99850Y-53550D02*
X100650Y-53550D01*
X100650Y-53550D02*
X100650Y-50950D01*
X100650Y-50950D02*
X100250Y-50950D01*
X100050Y-53550D02*
X99850Y-53350D01*
X101250Y-53750D02*
X101250Y-53550D01*
X101250Y-50750D02*
X101250Y-50950D01*
X101250Y-50950D02*
X100850Y-50950D01*
X100850Y-50950D02*
X100850Y-53550D01*
X100850Y-53550D02*
X101650Y-53550D01*
X101650Y-53550D02*
X101650Y-50950D01*
X101650Y-50950D02*
X101250Y-50950D01*
X101050Y-53550D02*
X100850Y-53350D01*
X88250Y-53750D02*
X88250Y-53550D01*
X88250Y-50750D02*
X88250Y-50950D01*
X88250Y-50950D02*
X87850Y-50950D01*
X87850Y-50950D02*
X87850Y-53550D01*
X87850Y-53550D02*
X88650Y-53550D01*
X88650Y-53550D02*
X88650Y-50950D01*
X88650Y-50950D02*
X88250Y-50950D01*
X88050Y-53550D02*
X87850Y-53350D01*
X77250Y-53750D02*
X77250Y-53550D01*
X77250Y-50750D02*
X77250Y-50950D01*
X77250Y-50950D02*
X76850Y-50950D01*
X76850Y-50950D02*
X76850Y-53550D01*
X76850Y-53550D02*
X77650Y-53550D01*
X77650Y-53550D02*
X77650Y-50950D01*
X77650Y-50950D02*
X77250Y-50950D01*
X77050Y-53550D02*
X76850Y-53350D01*
X85250Y-53750D02*
X85250Y-53550D01*
X85250Y-50750D02*
X85250Y-50950D01*
X85250Y-50950D02*
X84850Y-50950D01*
X84850Y-50950D02*
X84850Y-53550D01*
X84850Y-53550D02*
X85650Y-53550D01*
X85650Y-53550D02*
X85650Y-50950D01*
X85650Y-50950D02*
X85250Y-50950D01*
X85050Y-53550D02*
X84850Y-53350D01*
X86250Y-53750D02*
X86250Y-53550D01*
X86250Y-50750D02*
X86250Y-50950D01*
X86250Y-50950D02*
X85850Y-50950D01*
X85850Y-50950D02*
X85850Y-53550D01*
X85850Y-53550D02*
X86650Y-53550D01*
X86650Y-53550D02*
X86650Y-50950D01*
X86650Y-50950D02*
X86250Y-50950D01*
X86050Y-53550D02*
X85850Y-53350D01*
X90250Y-53750D02*
X90250Y-53550D01*
X90250Y-50750D02*
X90250Y-50950D01*
X90250Y-50950D02*
X89850Y-50950D01*
X89850Y-50950D02*
X89850Y-53550D01*
X89850Y-53550D02*
X90650Y-53550D01*
X90650Y-53550D02*
X90650Y-50950D01*
X90650Y-50950D02*
X90250Y-50950D01*
X90050Y-53550D02*
X89850Y-53350D01*
X89250Y-53750D02*
X89250Y-53550D01*
X89250Y-50750D02*
X89250Y-50950D01*
X89250Y-50950D02*
X88850Y-50950D01*
X88850Y-50950D02*
X88850Y-53550D01*
X88850Y-53550D02*
X89650Y-53550D01*
X89650Y-53550D02*
X89650Y-50950D01*
X89650Y-50950D02*
X89250Y-50950D01*
X89050Y-53550D02*
X88850Y-53350D01*
X91250Y-53750D02*
X91250Y-53550D01*
X91250Y-50750D02*
X91250Y-50950D01*
X91250Y-50950D02*
X90850Y-50950D01*
X90850Y-50950D02*
X90850Y-53550D01*
X90850Y-53550D02*
X91650Y-53550D01*
X91650Y-53550D02*
X91650Y-50950D01*
X91650Y-50950D02*
X91250Y-50950D01*
X91050Y-53550D02*
X90850Y-53350D01*
X92250Y-53750D02*
X92250Y-53550D01*
X92250Y-50750D02*
X92250Y-50950D01*
X92250Y-50950D02*
X91850Y-50950D01*
X91850Y-50950D02*
X91850Y-53550D01*
X91850Y-53550D02*
X92650Y-53550D01*
X92650Y-53550D02*
X92650Y-50950D01*
X92650Y-50950D02*
X92250Y-50950D01*
X92050Y-53550D02*
X91850Y-53350D01*
X79250Y-53750D02*
X79250Y-53550D01*
X79250Y-50750D02*
X79250Y-50950D01*
X79250Y-50950D02*
X78850Y-50950D01*
X78850Y-50950D02*
X78850Y-53550D01*
X78850Y-53550D02*
X79650Y-53550D01*
X79650Y-53550D02*
X79650Y-50950D01*
X79650Y-50950D02*
X79250Y-50950D01*
X79050Y-53550D02*
X78850Y-53350D01*
X78250Y-53750D02*
X78250Y-53550D01*
X78250Y-50750D02*
X78250Y-50950D01*
X78250Y-50950D02*
X77850Y-50950D01*
X77850Y-50950D02*
X77850Y-53550D01*
X77850Y-53550D02*
X78650Y-53550D01*
X78650Y-53550D02*
X78650Y-50950D01*
X78650Y-50950D02*
X78250Y-50950D01*
X78050Y-53550D02*
X77850Y-53350D01*
X85750Y-64750D02*
X85750Y-64550D01*
X85750Y-61750D02*
X85750Y-61950D01*
X85750Y-61950D02*
X85350Y-61950D01*
X85350Y-61950D02*
X85350Y-64550D01*
X85350Y-64550D02*
X86150Y-64550D01*
X86150Y-64550D02*
X86150Y-61950D01*
X86150Y-61950D02*
X85750Y-61950D01*
X85550Y-64550D02*
X85350Y-64350D01*
X98750Y-64750D02*
X98750Y-64550D01*
X98750Y-61750D02*
X98750Y-61950D01*
X98750Y-61950D02*
X98350Y-61950D01*
X98350Y-61950D02*
X98350Y-64550D01*
X98350Y-64550D02*
X99150Y-64550D01*
X99150Y-64550D02*
X99150Y-61950D01*
X99150Y-61950D02*
X98750Y-61950D01*
X98550Y-64550D02*
X98350Y-64350D01*
X43000Y-49500D02*
X43200Y-49500D01*
X46000Y-49500D02*
X45800Y-49500D01*
X45800Y-49500D02*
X45800Y-49100D01*
X45800Y-49100D02*
X43200Y-49100D01*
X43200Y-49100D02*
X43200Y-49900D01*
X43200Y-49900D02*
X45800Y-49900D01*
X45800Y-49900D02*
X45800Y-49500D01*
X43200Y-49300D02*
X43400Y-49100D01*
X44000Y-55500D02*
X44200Y-55500D01*
X47000Y-55500D02*
X46800Y-55500D01*
X46800Y-55500D02*
X46800Y-55100D01*
X46800Y-55100D02*
X44200Y-55100D01*
X44200Y-55100D02*
X44200Y-55900D01*
X44200Y-55900D02*
X46800Y-55900D01*
X46800Y-55900D02*
X46800Y-55500D01*
X44200Y-55300D02*
X44400Y-55100D01*
X48000Y-60000D02*
X48000Y-59800D01*
X48000Y-57000D02*
X48000Y-57200D01*
X48000Y-57200D02*
X47600Y-57200D01*
X47600Y-57200D02*
X47600Y-59800D01*
X47600Y-59800D02*
X48400Y-59800D01*
X48400Y-59800D02*
X48400Y-57200D01*
X48400Y-57200D02*
X48000Y-57200D01*
X47800Y-59800D02*
X47600Y-59600D01*
X44000Y-60000D02*
X44200Y-60000D01*
X47000Y-60000D02*
X46800Y-60000D01*
X46800Y-60000D02*
X46800Y-59600D01*
X46800Y-59600D02*
X44200Y-59600D01*
X44200Y-59600D02*
X44200Y-60400D01*
X44200Y-60400D02*
X46800Y-60400D01*
X46800Y-60400D02*
X46800Y-60000D01*
X44200Y-59800D02*
X44400Y-59600D01*
X48000Y-64000D02*
X48000Y-63800D01*
X48000Y-61000D02*
X48000Y-61200D01*
X48000Y-61200D02*
X47600Y-61200D01*
X47600Y-61200D02*
X47600Y-63800D01*
X47600Y-63800D02*
X48400Y-63800D01*
X48400Y-63800D02*
X48400Y-61200D01*
X48400Y-61200D02*
X48000Y-61200D01*
X47800Y-63800D02*
X47600Y-63600D01*
X44000Y-64250D02*
X44200Y-64250D01*
X47000Y-64250D02*
X46800Y-64250D01*
X46800Y-64250D02*
X46800Y-63850D01*
X46800Y-63850D02*
X44200Y-63850D01*
X44200Y-63850D02*
X44200Y-64650D01*
X44200Y-64650D02*
X46800Y-64650D01*
X46800Y-64650D02*
X46800Y-64250D01*
X44200Y-64050D02*
X44400Y-63850D01*
X44000Y-65500D02*
X44200Y-65500D01*
X47000Y-65500D02*
X46800Y-65500D01*
X46800Y-65500D02*
X46800Y-65100D01*
X46800Y-65100D02*
X44200Y-65100D01*
X44200Y-65100D02*
X44200Y-65900D01*
X44200Y-65900D02*
X46800Y-65900D01*
X46800Y-65900D02*
X46800Y-65500D01*
X44200Y-65300D02*
X44400Y-65100D01*
X59750Y-64750D02*
X59750Y-64550D01*
X59750Y-61750D02*
X59750Y-61950D01*
X59750Y-61950D02*
X59350Y-61950D01*
X59350Y-61950D02*
X59350Y-64550D01*
X59350Y-64550D02*
X60150Y-64550D01*
X60150Y-64550D02*
X60150Y-61950D01*
X60150Y-61950D02*
X59750Y-61950D01*
X59550Y-64550D02*
X59350Y-64350D01*
X58750Y-64750D02*
X58750Y-64550D01*
X58750Y-61750D02*
X58750Y-61950D01*
X58750Y-61950D02*
X58350Y-61950D01*
X58350Y-61950D02*
X58350Y-64550D01*
X58350Y-64550D02*
X59150Y-64550D01*
X59150Y-64550D02*
X59150Y-61950D01*
X59150Y-61950D02*
X58750Y-61950D01*
X58550Y-64550D02*
X58350Y-64350D01*
X56750Y-64750D02*
X56750Y-64550D01*
X56750Y-61750D02*
X56750Y-61950D01*
X56750Y-61950D02*
X56350Y-61950D01*
X56350Y-61950D02*
X56350Y-64550D01*
X56350Y-64550D02*
X57150Y-64550D01*
X57150Y-64550D02*
X57150Y-61950D01*
X57150Y-61950D02*
X56750Y-61950D01*
X56550Y-64550D02*
X56350Y-64350D01*
X57750Y-64750D02*
X57750Y-64550D01*
X57750Y-61750D02*
X57750Y-61950D01*
X57750Y-61950D02*
X57350Y-61950D01*
X57350Y-61950D02*
X57350Y-64550D01*
X57350Y-64550D02*
X58150Y-64550D01*
X58150Y-64550D02*
X58150Y-61950D01*
X58150Y-61950D02*
X57750Y-61950D01*
X57550Y-64550D02*
X57350Y-64350D01*
X53750Y-64750D02*
X53750Y-64550D01*
X53750Y-61750D02*
X53750Y-61950D01*
X53750Y-61950D02*
X53350Y-61950D01*
X53350Y-61950D02*
X53350Y-64550D01*
X53350Y-64550D02*
X54150Y-64550D01*
X54150Y-64550D02*
X54150Y-61950D01*
X54150Y-61950D02*
X53750Y-61950D01*
X53550Y-64550D02*
X53350Y-64350D01*
X52750Y-64750D02*
X52750Y-64550D01*
X52750Y-61750D02*
X52750Y-61950D01*
X52750Y-61950D02*
X52350Y-61950D01*
X52350Y-61950D02*
X52350Y-64550D01*
X52350Y-64550D02*
X53150Y-64550D01*
X53150Y-64550D02*
X53150Y-61950D01*
X53150Y-61950D02*
X52750Y-61950D01*
X52550Y-64550D02*
X52350Y-64350D01*
X54750Y-64750D02*
X54750Y-64550D01*
X54750Y-61750D02*
X54750Y-61950D01*
X54750Y-61950D02*
X54350Y-61950D01*
X54350Y-61950D02*
X54350Y-64550D01*
X54350Y-64550D02*
X55150Y-64550D01*
X55150Y-64550D02*
X55150Y-61950D01*
X55150Y-61950D02*
X54750Y-61950D01*
X54550Y-64550D02*
X54350Y-64350D01*
X55750Y-64750D02*
X55750Y-64550D01*
X55750Y-61750D02*
X55750Y-61950D01*
X55750Y-61950D02*
X55350Y-61950D01*
X55350Y-61950D02*
X55350Y-64550D01*
X55350Y-64550D02*
X56150Y-64550D01*
X56150Y-64550D02*
X56150Y-61950D01*
X56150Y-61950D02*
X55750Y-61950D01*
X55550Y-64550D02*
X55350Y-64350D01*
X68750Y-64750D02*
X68750Y-64550D01*
X68750Y-61750D02*
X68750Y-61950D01*
X68750Y-61950D02*
X68350Y-61950D01*
X68350Y-61950D02*
X68350Y-64550D01*
X68350Y-64550D02*
X69150Y-64550D01*
X69150Y-64550D02*
X69150Y-61950D01*
X69150Y-61950D02*
X68750Y-61950D01*
X68550Y-64550D02*
X68350Y-64350D01*
X84750Y-64750D02*
X84750Y-64550D01*
X84750Y-61750D02*
X84750Y-61950D01*
X84750Y-61950D02*
X84350Y-61950D01*
X84350Y-61950D02*
X84350Y-64550D01*
X84350Y-64550D02*
X85150Y-64550D01*
X85150Y-64550D02*
X85150Y-61950D01*
X85150Y-61950D02*
X84750Y-61950D01*
X84550Y-64550D02*
X84350Y-64350D01*
X82750Y-64750D02*
X82750Y-64550D01*
X82750Y-61750D02*
X82750Y-61950D01*
X82750Y-61950D02*
X82350Y-61950D01*
X82350Y-61950D02*
X82350Y-64550D01*
X82350Y-64550D02*
X83150Y-64550D01*
X83150Y-64550D02*
X83150Y-61950D01*
X83150Y-61950D02*
X82750Y-61950D01*
X82550Y-64550D02*
X82350Y-64350D01*
X83750Y-64750D02*
X83750Y-64550D01*
X83750Y-61750D02*
X83750Y-61950D01*
X83750Y-61950D02*
X83350Y-61950D01*
X83350Y-61950D02*
X83350Y-64550D01*
X83350Y-64550D02*
X84150Y-64550D01*
X84150Y-64550D02*
X84150Y-61950D01*
X84150Y-61950D02*
X83750Y-61950D01*
X83550Y-64550D02*
X83350Y-64350D01*
X79750Y-64750D02*
X79750Y-64550D01*
X79750Y-61750D02*
X79750Y-61950D01*
X79750Y-61950D02*
X79350Y-61950D01*
X79350Y-61950D02*
X79350Y-64550D01*
X79350Y-64550D02*
X80150Y-64550D01*
X80150Y-64550D02*
X80150Y-61950D01*
X80150Y-61950D02*
X79750Y-61950D01*
X79550Y-64550D02*
X79350Y-64350D01*
X78750Y-64750D02*
X78750Y-64550D01*
X78750Y-61750D02*
X78750Y-61950D01*
X78750Y-61950D02*
X78350Y-61950D01*
X78350Y-61950D02*
X78350Y-64550D01*
X78350Y-64550D02*
X79150Y-64550D01*
X79150Y-64550D02*
X79150Y-61950D01*
X79150Y-61950D02*
X78750Y-61950D01*
X78550Y-64550D02*
X78350Y-64350D01*
X80750Y-64750D02*
X80750Y-64550D01*
X80750Y-61750D02*
X80750Y-61950D01*
X80750Y-61950D02*
X80350Y-61950D01*
X80350Y-61950D02*
X80350Y-64550D01*
X80350Y-64550D02*
X81150Y-64550D01*
X81150Y-64550D02*
X81150Y-61950D01*
X81150Y-61950D02*
X80750Y-61950D01*
X80550Y-64550D02*
X80350Y-64350D01*
X81750Y-64750D02*
X81750Y-64550D01*
X81750Y-61750D02*
X81750Y-61950D01*
X81750Y-61950D02*
X81350Y-61950D01*
X81350Y-61950D02*
X81350Y-64550D01*
X81350Y-64550D02*
X82150Y-64550D01*
X82150Y-64550D02*
X82150Y-61950D01*
X82150Y-61950D02*
X81750Y-61950D01*
X81550Y-64550D02*
X81350Y-64350D01*
X72750Y-64750D02*
X72750Y-64550D01*
X72750Y-61750D02*
X72750Y-61950D01*
X72750Y-61950D02*
X72350Y-61950D01*
X72350Y-61950D02*
X72350Y-64550D01*
X72350Y-64550D02*
X73150Y-64550D01*
X73150Y-64550D02*
X73150Y-61950D01*
X73150Y-61950D02*
X72750Y-61950D01*
X72550Y-64550D02*
X72350Y-64350D01*
X71750Y-64750D02*
X71750Y-64550D01*
X71750Y-61750D02*
X71750Y-61950D01*
X71750Y-61950D02*
X71350Y-61950D01*
X71350Y-61950D02*
X71350Y-64550D01*
X71350Y-64550D02*
X72150Y-64550D01*
X72150Y-64550D02*
X72150Y-61950D01*
X72150Y-61950D02*
X71750Y-61950D01*
X71550Y-64550D02*
X71350Y-64350D01*
X69750Y-64750D02*
X69750Y-64550D01*
X69750Y-61750D02*
X69750Y-61950D01*
X69750Y-61950D02*
X69350Y-61950D01*
X69350Y-61950D02*
X69350Y-64550D01*
X69350Y-64550D02*
X70150Y-64550D01*
X70150Y-64550D02*
X70150Y-61950D01*
X70150Y-61950D02*
X69750Y-61950D01*
X69550Y-64550D02*
X69350Y-64350D01*
X70750Y-64750D02*
X70750Y-64550D01*
X70750Y-61750D02*
X70750Y-61950D01*
X70750Y-61950D02*
X70350Y-61950D01*
X70350Y-61950D02*
X70350Y-64550D01*
X70350Y-64550D02*
X71150Y-64550D01*
X71150Y-64550D02*
X71150Y-61950D01*
X71150Y-61950D02*
X70750Y-61950D01*
X70550Y-64550D02*
X70350Y-64350D01*
X66750Y-64750D02*
X66750Y-64550D01*
X66750Y-61750D02*
X66750Y-61950D01*
X66750Y-61950D02*
X66350Y-61950D01*
X66350Y-61950D02*
X66350Y-64550D01*
X66350Y-64550D02*
X67150Y-64550D01*
X67150Y-64550D02*
X67150Y-61950D01*
X67150Y-61950D02*
X66750Y-61950D01*
X66550Y-64550D02*
X66350Y-64350D01*
X65750Y-64750D02*
X65750Y-64550D01*
X65750Y-61750D02*
X65750Y-61950D01*
X65750Y-61950D02*
X65350Y-61950D01*
X65350Y-61950D02*
X65350Y-64550D01*
X65350Y-64550D02*
X66150Y-64550D01*
X66150Y-64550D02*
X66150Y-61950D01*
X66150Y-61950D02*
X65750Y-61950D01*
X65550Y-64550D02*
X65350Y-64350D01*
X67750Y-64750D02*
X67750Y-64550D01*
X67750Y-61750D02*
X67750Y-61950D01*
X67750Y-61950D02*
X67350Y-61950D01*
X67350Y-61950D02*
X67350Y-64550D01*
X67350Y-64550D02*
X68150Y-64550D01*
X68150Y-64550D02*
X68150Y-61950D01*
X68150Y-61950D02*
X67750Y-61950D01*
X67550Y-64550D02*
X67350Y-64350D01*
G54D12*
X98750Y-68250D02*
X98750Y-68250D01*
X98750Y-68250D02*
X98250Y-68250D01*
X98250Y-68250D02*
X98250Y-67250D01*
X98250Y-67250D02*
X98750Y-67250D01*
X98750Y-68750D02*
X89750Y-68750D01*
X89750Y-68750D02*
X89750Y-66750D01*
X89750Y-66750D02*
X98750Y-66750D01*
X98750Y-66750D02*
X98750Y-68750D01*
X85750Y-68250D02*
X85750Y-68250D01*
X85750Y-68250D02*
X85250Y-68250D01*
X85250Y-68250D02*
X85250Y-67250D01*
X85250Y-67250D02*
X85750Y-67250D01*
X85750Y-68750D02*
X76750Y-68750D01*
X76750Y-68750D02*
X76750Y-66750D01*
X76750Y-66750D02*
X85750Y-66750D01*
X85750Y-66750D02*
X85750Y-68750D01*
X72750Y-68250D02*
X72750Y-68250D01*
X72750Y-68250D02*
X72250Y-68250D01*
X72250Y-68250D02*
X72250Y-67250D01*
X72250Y-67250D02*
X72750Y-67250D01*
X72750Y-68750D02*
X63750Y-68750D01*
X63750Y-68750D02*
X63750Y-66750D01*
X63750Y-66750D02*
X72750Y-66750D01*
X72750Y-66750D02*
X72750Y-68750D01*
X59750Y-68250D02*
X59750Y-68250D01*
X59750Y-68250D02*
X59250Y-68250D01*
X59250Y-68250D02*
X59250Y-67250D01*
X59250Y-67250D02*
X59750Y-67250D01*
X59750Y-68750D02*
X50750Y-68750D01*
X50750Y-68750D02*
X50750Y-66750D01*
X50750Y-66750D02*
X59750Y-66750D01*
X59750Y-66750D02*
X59750Y-68750D01*
X105250Y-57250D02*
X105250Y-57250D01*
X105250Y-57250D02*
X104750Y-57250D01*
X104750Y-57250D02*
X104750Y-56250D01*
X104750Y-56250D02*
X105250Y-56250D01*
X105250Y-57750D02*
X96250Y-57750D01*
X96250Y-57750D02*
X96250Y-55750D01*
X96250Y-55750D02*
X105250Y-55750D01*
X105250Y-55750D02*
X105250Y-57750D01*
X66250Y-57250D02*
X66250Y-57250D01*
X66250Y-57250D02*
X65750Y-57250D01*
X65750Y-57250D02*
X65750Y-56250D01*
X65750Y-56250D02*
X66250Y-56250D01*
X66250Y-57750D02*
X57250Y-57750D01*
X57250Y-57750D02*
X57250Y-55750D01*
X57250Y-55750D02*
X66250Y-55750D01*
X66250Y-55750D02*
X66250Y-57750D01*
X79250Y-57250D02*
X79250Y-57250D01*
X79250Y-57250D02*
X78750Y-57250D01*
X78750Y-57250D02*
X78750Y-56250D01*
X78750Y-56250D02*
X79250Y-56250D01*
X79250Y-57750D02*
X70250Y-57750D01*
X70250Y-57750D02*
X70250Y-55750D01*
X70250Y-55750D02*
X79250Y-55750D01*
X79250Y-55750D02*
X79250Y-57750D01*
X92250Y-57250D02*
X92250Y-57250D01*
X92250Y-57250D02*
X91750Y-57250D01*
X91750Y-57250D02*
X91750Y-56250D01*
X91750Y-56250D02*
X92250Y-56250D01*
X92250Y-57750D02*
X83250Y-57750D01*
X83250Y-57750D02*
X83250Y-55750D01*
X83250Y-55750D02*
X92250Y-55750D01*
X92250Y-55750D02*
X92250Y-57750D01*
G54D11*
X45400Y-41100D02*
X45400Y-43900D01*
X45400Y-43900D02*
X44600Y-43900D01*
X44600Y-43900D02*
X44600Y-41100D01*
X44600Y-41100D02*
X45400Y-41100D01*
X45200Y-41100D02*
X45400Y-41300D01*
G54D14*
X41750Y-44000D02*
X41726Y-44242D01*
X41655Y-44476D01*
X41541Y-44691D01*
X41386Y-44880D01*
X41198Y-45036D01*
X40984Y-45152D01*
X40751Y-45224D01*
X40508Y-45249D01*
X40266Y-45227D01*
X40032Y-45158D01*
X39816Y-45045D01*
X39626Y-44893D01*
X39469Y-44706D01*
X39352Y-44492D01*
X39278Y-44259D01*
X39251Y-44017D01*
X39271Y-43775D01*
X39338Y-43540D01*
X39450Y-43323D01*
X39601Y-43132D01*
X39787Y-42974D01*
X40000Y-42855D01*
X40232Y-42780D01*
X40474Y-42751D01*
X40717Y-42769D01*
X40952Y-42835D01*
X41169Y-42945D01*
X41362Y-43095D01*
X41521Y-43280D01*
X41641Y-43492D01*
X41718Y-43724D01*
X41749Y-43966D01*
X41750Y-44000D01*
X41750Y-41000D02*
X41726Y-41242D01*
X41655Y-41476D01*
X41541Y-41691D01*
X41386Y-41880D01*
X41198Y-42036D01*
X40984Y-42152D01*
X40751Y-42224D01*
X40508Y-42249D01*
X40266Y-42227D01*
X40032Y-42158D01*
X39816Y-42045D01*
X39626Y-41893D01*
X39469Y-41706D01*
X39352Y-41492D01*
X39278Y-41259D01*
X39251Y-41017D01*
X39271Y-40775D01*
X39338Y-40540D01*
X39450Y-40323D01*
X39601Y-40132D01*
X39787Y-39974D01*
X40000Y-39855D01*
X40232Y-39780D01*
X40474Y-39751D01*
X40717Y-39769D01*
X40952Y-39835D01*
X41169Y-39945D01*
X41362Y-40095D01*
X41521Y-40280D01*
X41641Y-40492D01*
X41718Y-40724D01*
X41749Y-40966D01*
X41750Y-41000D01*
G54D12*
X37680Y-68600D02*
X37680Y-69110D01*
X37680Y-69110D02*
X42320Y-69110D01*
X42320Y-67400D02*
X42320Y-66890D01*
X42320Y-66890D02*
X37680Y-66890D01*
X37680Y-66890D02*
X37680Y-67400D01*
X42320Y-69110D02*
X42320Y-68600D01*
X37680Y-63100D02*
X37680Y-63610D01*
X37680Y-63610D02*
X42320Y-63610D01*
X42320Y-61900D02*
X42320Y-61390D01*
X42320Y-61390D02*
X37680Y-61390D01*
X37680Y-61390D02*
X37680Y-61900D01*
X42320Y-63610D02*
X42320Y-63100D01*
X37680Y-57600D02*
X37680Y-58110D01*
X37680Y-58110D02*
X42320Y-58110D01*
X42320Y-56400D02*
X42320Y-55890D01*
X42320Y-55890D02*
X37680Y-55890D01*
X37680Y-55890D02*
X37680Y-56400D01*
X42320Y-58110D02*
X42320Y-57600D01*
G54D11*
X34500Y-33250D02*
X34500Y-33250D01*
X35500Y-33250D02*
X34500Y-33250D01*
X34500Y-33250D02*
X34500Y-33250D01*
X34500Y-33250D02*
X34500Y-29250D01*
X34500Y-29250D02*
X35500Y-29250D01*
X35500Y-29250D02*
X35500Y-33250D01*
X35500Y-32250D02*
X34500Y-32250D01*
G54D12*
X38500Y-21000D02*
X38500Y-19000D01*
X38500Y-26000D02*
X38500Y-35000D01*
X38500Y-35000D02*
X43500Y-35000D01*
X43500Y-35000D02*
X43500Y-26000D01*
X38500Y-09000D02*
X38500Y-07000D01*
X38500Y-07000D02*
X43500Y-07000D01*
X43500Y-07000D02*
X43500Y-09000D01*
X51900Y-53000D02*
X51882Y-53174D01*
X51832Y-53342D01*
X51749Y-53498D01*
X51638Y-53634D01*
X51503Y-53746D01*
X51348Y-53829D01*
X51180Y-53881D01*
X51006Y-53899D01*
X50832Y-53884D01*
X50663Y-53834D01*
X50508Y-53753D01*
X50371Y-53643D01*
X50258Y-53508D01*
X50173Y-53354D01*
X50120Y-53187D01*
X50101Y-53012D01*
X50115Y-52838D01*
X50164Y-52669D01*
X50244Y-52513D01*
X50353Y-52375D01*
X50487Y-52261D01*
X50640Y-52176D01*
X50807Y-52121D01*
X50982Y-52101D01*
X51156Y-52114D01*
X51325Y-52161D01*
X51482Y-52241D01*
X51620Y-52349D01*
X51735Y-52482D01*
X51822Y-52634D01*
X51877Y-52801D01*
X51899Y-52975D01*
X51900Y-53000D01*
X40014Y-50500D02*
X40004Y-50599D01*
X39975Y-50695D01*
X39928Y-50784D01*
X39864Y-50862D01*
X39787Y-50926D01*
X39699Y-50973D01*
X39603Y-51003D01*
X39503Y-51013D01*
X39404Y-51004D01*
X39308Y-50976D01*
X39219Y-50930D01*
X39141Y-50867D01*
X39076Y-50790D01*
X39028Y-50702D01*
X38998Y-50606D01*
X38987Y-50507D01*
X38995Y-50408D01*
X39023Y-50311D01*
X39068Y-50222D01*
X39131Y-50143D01*
X39207Y-50078D01*
X39295Y-50029D01*
X39390Y-49998D01*
X39490Y-49987D01*
X39589Y-49994D01*
X39685Y-50021D01*
X39775Y-50067D01*
X39854Y-50128D01*
X39920Y-50204D01*
X39969Y-50291D01*
X40001Y-50387D01*
X40013Y-50486D01*
X40014Y-50500D01*
X40750Y-50175D02*
X40750Y-50825D01*
X38250Y-50175D02*
X38250Y-50825D01*
X39000Y-51625D02*
X40000Y-51625D01*
X39000Y-49375D02*
X40000Y-49375D01*
X51900Y-08000D02*
X51882Y-08174D01*
X51832Y-08342D01*
X51749Y-08498D01*
X51638Y-08634D01*
X51503Y-08746D01*
X51348Y-08829D01*
X51180Y-08881D01*
X51006Y-08899D01*
X50832Y-08884D01*
X50663Y-08834D01*
X50508Y-08753D01*
X50371Y-08643D01*
X50258Y-08508D01*
X50173Y-08354D01*
X50120Y-08187D01*
X50101Y-08012D01*
X50115Y-07838D01*
X50164Y-07669D01*
X50244Y-07513D01*
X50353Y-07375D01*
X50487Y-07261D01*
X50640Y-07176D01*
X50807Y-07121D01*
X50982Y-07101D01*
X51156Y-07114D01*
X51325Y-07161D01*
X51482Y-07241D01*
X51620Y-07349D01*
X51735Y-07482D01*
X51822Y-07634D01*
X51877Y-07801D01*
X51899Y-07975D01*
X51900Y-08000D01*
G54D15*
X37775Y-41316D02*
X37094Y-41316D01*
X37094Y-41153D01*
X37127Y-41112D01*
X37159Y-41092D01*
X37224Y-41072D01*
X37321Y-41072D01*
X37386Y-41092D01*
X37418Y-41112D01*
X37451Y-41153D01*
X37451Y-41316D01*
X37159Y-40908D02*
X37127Y-40888D01*
X37094Y-40847D01*
X37094Y-40745D01*
X37127Y-40705D01*
X37159Y-40684D01*
X37224Y-40664D01*
X37289Y-40664D01*
X37386Y-40684D01*
X37775Y-40929D01*
X37775Y-40664D01*
X39775Y-44316D02*
X39094Y-44316D01*
X39094Y-44153D01*
X39127Y-44112D01*
X39159Y-44092D01*
X39224Y-44072D01*
X39321Y-44072D01*
X39386Y-44092D01*
X39418Y-44112D01*
X39451Y-44153D01*
X39451Y-44316D01*
X39775Y-43664D02*
X39775Y-43908D01*
X39775Y-43786D02*
X39094Y-43786D01*
X39191Y-43827D01*
X39256Y-43868D01*
X39289Y-43908D01*
G54D11*
X59008Y-15893D02*
X59008Y-16379D01*
X59036Y-16436D01*
X59065Y-16464D01*
X59122Y-16493D01*
X59236Y-16493D01*
X59294Y-16464D01*
X59322Y-16436D01*
X59351Y-16379D01*
X59351Y-15893D01*
X59951Y-16493D02*
X59608Y-16493D01*
X59780Y-16493D02*
X59780Y-15893D01*
X59723Y-15979D01*
X59665Y-16036D01*
X59608Y-16064D01*
X60494Y-15893D02*
X60208Y-15893D01*
X60179Y-16179D01*
X60208Y-16150D01*
X60265Y-16121D01*
X60408Y-16121D01*
X60465Y-16150D01*
X60494Y-16179D01*
X60522Y-16236D01*
X60522Y-16379D01*
X60494Y-16436D01*
X60465Y-16464D01*
X60408Y-16493D01*
X60265Y-16493D01*
X60208Y-16464D01*
X60179Y-16436D01*
X59008Y-28893D02*
X59008Y-29379D01*
X59036Y-29436D01*
X59065Y-29464D01*
X59122Y-29493D01*
X59236Y-29493D01*
X59294Y-29464D01*
X59322Y-29436D01*
X59351Y-29379D01*
X59351Y-28893D01*
X59951Y-29493D02*
X59608Y-29493D01*
X59780Y-29493D02*
X59780Y-28893D01*
X59723Y-28979D01*
X59665Y-29036D01*
X59608Y-29064D01*
X60465Y-29093D02*
X60465Y-29493D01*
X60322Y-28864D02*
X60179Y-29293D01*
X60551Y-29293D01*
X59008Y-41893D02*
X59008Y-42379D01*
X59036Y-42436D01*
X59065Y-42464D01*
X59122Y-42493D01*
X59236Y-42493D01*
X59294Y-42464D01*
X59322Y-42436D01*
X59351Y-42379D01*
X59351Y-41893D01*
X59951Y-42493D02*
X59608Y-42493D01*
X59780Y-42493D02*
X59780Y-41893D01*
X59723Y-41979D01*
X59665Y-42036D01*
X59608Y-42064D01*
X60151Y-41893D02*
X60522Y-41893D01*
X60322Y-42121D01*
X60408Y-42121D01*
X60465Y-42150D01*
X60494Y-42179D01*
X60522Y-42236D01*
X60522Y-42379D01*
X60494Y-42436D01*
X60465Y-42464D01*
X60408Y-42493D01*
X60236Y-42493D01*
X60179Y-42464D01*
X60151Y-42436D01*
X72008Y-15893D02*
X72008Y-16379D01*
X72036Y-16436D01*
X72065Y-16464D01*
X72122Y-16493D01*
X72236Y-16493D01*
X72294Y-16464D01*
X72322Y-16436D01*
X72351Y-16379D01*
X72351Y-15893D01*
X72951Y-16493D02*
X72608Y-16493D01*
X72780Y-16493D02*
X72780Y-15893D01*
X72723Y-15979D01*
X72665Y-16036D01*
X72608Y-16064D01*
X73179Y-15950D02*
X73208Y-15921D01*
X73265Y-15893D01*
X73408Y-15893D01*
X73465Y-15921D01*
X73494Y-15950D01*
X73522Y-16007D01*
X73522Y-16064D01*
X73494Y-16150D01*
X73151Y-16493D01*
X73522Y-16493D01*
X72008Y-28893D02*
X72008Y-29379D01*
X72036Y-29436D01*
X72065Y-29464D01*
X72122Y-29493D01*
X72236Y-29493D01*
X72294Y-29464D01*
X72322Y-29436D01*
X72351Y-29379D01*
X72351Y-28893D01*
X72951Y-29493D02*
X72608Y-29493D01*
X72780Y-29493D02*
X72780Y-28893D01*
X72723Y-28979D01*
X72665Y-29036D01*
X72608Y-29064D01*
X73522Y-29493D02*
X73179Y-29493D01*
X73351Y-29493D02*
X73351Y-28893D01*
X73294Y-28979D01*
X73236Y-29036D01*
X73179Y-29064D01*
X72008Y-41893D02*
X72008Y-42379D01*
X72036Y-42436D01*
X72065Y-42464D01*
X72122Y-42493D01*
X72236Y-42493D01*
X72294Y-42464D01*
X72322Y-42436D01*
X72351Y-42379D01*
X72351Y-41893D01*
X72951Y-42493D02*
X72608Y-42493D01*
X72780Y-42493D02*
X72780Y-41893D01*
X72723Y-41979D01*
X72665Y-42036D01*
X72608Y-42064D01*
X73322Y-41893D02*
X73379Y-41893D01*
X73436Y-41921D01*
X73465Y-41950D01*
X73494Y-42007D01*
X73522Y-42121D01*
X73522Y-42264D01*
X73494Y-42379D01*
X73465Y-42436D01*
X73436Y-42464D01*
X73379Y-42493D01*
X73322Y-42493D01*
X73265Y-42464D01*
X73236Y-42436D01*
X73208Y-42379D01*
X73179Y-42264D01*
X73179Y-42121D01*
X73208Y-42007D01*
X73236Y-41950D01*
X73265Y-41921D01*
X73322Y-41893D01*
X85293Y-15893D02*
X85293Y-16379D01*
X85321Y-16436D01*
X85350Y-16464D01*
X85407Y-16493D01*
X85521Y-16493D01*
X85579Y-16464D01*
X85607Y-16436D01*
X85636Y-16379D01*
X85636Y-15893D01*
X85950Y-16493D02*
X86065Y-16493D01*
X86122Y-16464D01*
X86150Y-16436D01*
X86208Y-16350D01*
X86236Y-16236D01*
X86236Y-16007D01*
X86208Y-15950D01*
X86179Y-15921D01*
X86122Y-15893D01*
X86008Y-15893D01*
X85950Y-15921D01*
X85922Y-15950D01*
X85893Y-16007D01*
X85893Y-16150D01*
X85922Y-16207D01*
X85950Y-16236D01*
X86008Y-16264D01*
X86122Y-16264D01*
X86179Y-16236D01*
X86208Y-16207D01*
X86236Y-16150D01*
X85293Y-28893D02*
X85293Y-29379D01*
X85321Y-29436D01*
X85350Y-29464D01*
X85407Y-29493D01*
X85521Y-29493D01*
X85579Y-29464D01*
X85607Y-29436D01*
X85636Y-29379D01*
X85636Y-28893D01*
X86008Y-29150D02*
X85950Y-29121D01*
X85922Y-29093D01*
X85893Y-29036D01*
X85893Y-29007D01*
X85922Y-28950D01*
X85950Y-28921D01*
X86008Y-28893D01*
X86122Y-28893D01*
X86179Y-28921D01*
X86208Y-28950D01*
X86236Y-29007D01*
X86236Y-29036D01*
X86208Y-29093D01*
X86179Y-29121D01*
X86122Y-29150D01*
X86008Y-29150D01*
X85950Y-29179D01*
X85922Y-29207D01*
X85893Y-29264D01*
X85893Y-29379D01*
X85922Y-29436D01*
X85950Y-29464D01*
X86008Y-29493D01*
X86122Y-29493D01*
X86179Y-29464D01*
X86208Y-29436D01*
X86236Y-29379D01*
X86236Y-29264D01*
X86208Y-29207D01*
X86179Y-29179D01*
X86122Y-29150D01*
X85293Y-41893D02*
X85293Y-42379D01*
X85321Y-42436D01*
X85350Y-42464D01*
X85407Y-42493D01*
X85521Y-42493D01*
X85579Y-42464D01*
X85607Y-42436D01*
X85636Y-42379D01*
X85636Y-41893D01*
X85865Y-41893D02*
X86265Y-41893D01*
X86008Y-42493D01*
X98293Y-15893D02*
X98293Y-16379D01*
X98321Y-16436D01*
X98350Y-16464D01*
X98407Y-16493D01*
X98521Y-16493D01*
X98579Y-16464D01*
X98607Y-16436D01*
X98636Y-16379D01*
X98636Y-15893D01*
X99179Y-15893D02*
X99065Y-15893D01*
X99008Y-15921D01*
X98979Y-15950D01*
X98922Y-16036D01*
X98893Y-16150D01*
X98893Y-16379D01*
X98922Y-16436D01*
X98950Y-16464D01*
X99008Y-16493D01*
X99122Y-16493D01*
X99179Y-16464D01*
X99208Y-16436D01*
X99236Y-16379D01*
X99236Y-16236D01*
X99208Y-16179D01*
X99179Y-16150D01*
X99122Y-16121D01*
X99008Y-16121D01*
X98950Y-16150D01*
X98922Y-16179D01*
X98893Y-16236D01*
X98293Y-28893D02*
X98293Y-29379D01*
X98321Y-29436D01*
X98350Y-29464D01*
X98407Y-29493D01*
X98521Y-29493D01*
X98579Y-29464D01*
X98607Y-29436D01*
X98636Y-29379D01*
X98636Y-28893D01*
X99208Y-28893D02*
X98922Y-28893D01*
X98893Y-29179D01*
X98922Y-29150D01*
X98979Y-29121D01*
X99122Y-29121D01*
X99179Y-29150D01*
X99208Y-29179D01*
X99236Y-29236D01*
X99236Y-29379D01*
X99208Y-29436D01*
X99179Y-29464D01*
X99122Y-29493D01*
X98979Y-29493D01*
X98922Y-29464D01*
X98893Y-29436D01*
X98293Y-41893D02*
X98293Y-42379D01*
X98321Y-42436D01*
X98350Y-42464D01*
X98407Y-42493D01*
X98521Y-42493D01*
X98579Y-42464D01*
X98607Y-42436D01*
X98636Y-42379D01*
X98636Y-41893D01*
X99179Y-42093D02*
X99179Y-42493D01*
X99036Y-41864D02*
X98893Y-42293D01*
X99265Y-42293D01*
G54D16*
X49643Y-19843D02*
X50129Y-19843D01*
X50186Y-19821D01*
X50214Y-19800D01*
X50243Y-19757D01*
X50243Y-19671D01*
X50214Y-19629D01*
X50186Y-19607D01*
X50129Y-19586D01*
X49643Y-19586D01*
X49643Y-19415D02*
X49643Y-19136D01*
X49871Y-19286D01*
X49871Y-19222D01*
X49900Y-19179D01*
X49929Y-19158D01*
X49986Y-19136D01*
X50129Y-19136D01*
X50186Y-19158D01*
X50214Y-19179D01*
X50243Y-19222D01*
X50243Y-19350D01*
X50214Y-19393D01*
X50186Y-19415D01*
X50643Y-17969D02*
X50643Y-17669D01*
X51243Y-17862D01*
X50843Y-17304D02*
X51243Y-17304D01*
X50614Y-17411D02*
X51043Y-17518D01*
X51043Y-17240D01*
X51243Y-17068D02*
X50643Y-17068D01*
X50929Y-17068D02*
X50929Y-16811D01*
X51243Y-16811D02*
X50643Y-16811D01*
X51186Y-16340D02*
X51214Y-16361D01*
X51243Y-16425D01*
X51243Y-16468D01*
X51214Y-16533D01*
X51157Y-16575D01*
X51100Y-16597D01*
X50986Y-16618D01*
X50900Y-16618D01*
X50786Y-16597D01*
X50729Y-16575D01*
X50671Y-16533D01*
X50643Y-16468D01*
X50643Y-16425D01*
X50671Y-16361D01*
X50700Y-16340D01*
X50643Y-15933D02*
X50643Y-16147D01*
X50929Y-16168D01*
X50900Y-16147D01*
X50871Y-16104D01*
X50871Y-15997D01*
X50900Y-15954D01*
X50929Y-15933D01*
X50986Y-15911D01*
X51129Y-15911D01*
X51186Y-15933D01*
X51214Y-15954D01*
X51243Y-15997D01*
X51243Y-16104D01*
X51214Y-16147D01*
X51186Y-16168D01*
X51243Y-15696D02*
X51243Y-15611D01*
X51214Y-15568D01*
X51186Y-15546D01*
X51100Y-15504D01*
X50986Y-15482D01*
X50757Y-15482D01*
X50700Y-15504D01*
X50671Y-15525D01*
X50643Y-15568D01*
X50643Y-15654D01*
X50671Y-15696D01*
X50700Y-15718D01*
X50757Y-15739D01*
X50900Y-15739D01*
X50957Y-15718D01*
X50986Y-15696D01*
X51014Y-15654D01*
X51014Y-15568D01*
X50986Y-15525D01*
X50957Y-15504D01*
X50900Y-15482D01*
X50643Y-15075D02*
X50643Y-15289D01*
X50929Y-15310D01*
X50900Y-15289D01*
X50871Y-15246D01*
X50871Y-15139D01*
X50900Y-15096D01*
X50929Y-15075D01*
X50986Y-15053D01*
X51129Y-15053D01*
X51186Y-15075D01*
X51214Y-15096D01*
X51243Y-15139D01*
X51243Y-15246D01*
X51214Y-15289D01*
X51186Y-15310D01*
X49643Y-32843D02*
X50129Y-32843D01*
X50186Y-32821D01*
X50214Y-32800D01*
X50243Y-32757D01*
X50243Y-32671D01*
X50214Y-32629D01*
X50186Y-32607D01*
X50129Y-32586D01*
X49643Y-32586D01*
X49700Y-32393D02*
X49671Y-32372D01*
X49643Y-32329D01*
X49643Y-32222D01*
X49671Y-32179D01*
X49700Y-32158D01*
X49757Y-32136D01*
X49814Y-32136D01*
X49900Y-32158D01*
X50243Y-32415D01*
X50243Y-32136D01*
X50643Y-30969D02*
X50643Y-30669D01*
X51243Y-30862D01*
X50843Y-30304D02*
X51243Y-30304D01*
X50614Y-30411D02*
X51043Y-30518D01*
X51043Y-30240D01*
X51243Y-30068D02*
X50643Y-30068D01*
X50929Y-30068D02*
X50929Y-29811D01*
X51243Y-29811D02*
X50643Y-29811D01*
X51186Y-29340D02*
X51214Y-29361D01*
X51243Y-29425D01*
X51243Y-29468D01*
X51214Y-29533D01*
X51157Y-29575D01*
X51100Y-29597D01*
X50986Y-29618D01*
X50900Y-29618D01*
X50786Y-29597D01*
X50729Y-29575D01*
X50671Y-29533D01*
X50643Y-29468D01*
X50643Y-29425D01*
X50671Y-29361D01*
X50700Y-29340D01*
X50643Y-28933D02*
X50643Y-29147D01*
X50929Y-29168D01*
X50900Y-29147D01*
X50871Y-29104D01*
X50871Y-28997D01*
X50900Y-28954D01*
X50929Y-28933D01*
X50986Y-28911D01*
X51129Y-28911D01*
X51186Y-28933D01*
X51214Y-28954D01*
X51243Y-28997D01*
X51243Y-29104D01*
X51214Y-29147D01*
X51186Y-29168D01*
X51243Y-28696D02*
X51243Y-28611D01*
X51214Y-28568D01*
X51186Y-28546D01*
X51100Y-28504D01*
X50986Y-28482D01*
X50757Y-28482D01*
X50700Y-28504D01*
X50671Y-28525D01*
X50643Y-28568D01*
X50643Y-28654D01*
X50671Y-28696D01*
X50700Y-28718D01*
X50757Y-28739D01*
X50900Y-28739D01*
X50957Y-28718D01*
X50986Y-28696D01*
X51014Y-28654D01*
X51014Y-28568D01*
X50986Y-28525D01*
X50957Y-28504D01*
X50900Y-28482D01*
X50643Y-28075D02*
X50643Y-28289D01*
X50929Y-28310D01*
X50900Y-28289D01*
X50871Y-28246D01*
X50871Y-28139D01*
X50900Y-28096D01*
X50929Y-28075D01*
X50986Y-28053D01*
X51129Y-28053D01*
X51186Y-28075D01*
X51214Y-28096D01*
X51243Y-28139D01*
X51243Y-28246D01*
X51214Y-28289D01*
X51186Y-28310D01*
X49643Y-45843D02*
X50129Y-45843D01*
X50186Y-45821D01*
X50214Y-45800D01*
X50243Y-45757D01*
X50243Y-45671D01*
X50214Y-45629D01*
X50186Y-45607D01*
X50129Y-45586D01*
X49643Y-45586D01*
X50243Y-45136D02*
X50243Y-45393D01*
X50243Y-45265D02*
X49643Y-45265D01*
X49729Y-45308D01*
X49786Y-45350D01*
X49814Y-45393D01*
X50643Y-43969D02*
X50643Y-43669D01*
X51243Y-43862D01*
X50843Y-43304D02*
X51243Y-43304D01*
X50614Y-43411D02*
X51043Y-43518D01*
X51043Y-43240D01*
X51243Y-43068D02*
X50643Y-43068D01*
X50929Y-43068D02*
X50929Y-42811D01*
X51243Y-42811D02*
X50643Y-42811D01*
X51186Y-42340D02*
X51214Y-42361D01*
X51243Y-42425D01*
X51243Y-42468D01*
X51214Y-42533D01*
X51157Y-42575D01*
X51100Y-42597D01*
X50986Y-42618D01*
X50900Y-42618D01*
X50786Y-42597D01*
X50729Y-42575D01*
X50671Y-42533D01*
X50643Y-42468D01*
X50643Y-42425D01*
X50671Y-42361D01*
X50700Y-42340D01*
X50643Y-41933D02*
X50643Y-42147D01*
X50929Y-42168D01*
X50900Y-42147D01*
X50871Y-42104D01*
X50871Y-41997D01*
X50900Y-41954D01*
X50929Y-41933D01*
X50986Y-41911D01*
X51129Y-41911D01*
X51186Y-41933D01*
X51214Y-41954D01*
X51243Y-41997D01*
X51243Y-42104D01*
X51214Y-42147D01*
X51186Y-42168D01*
X51243Y-41696D02*
X51243Y-41611D01*
X51214Y-41568D01*
X51186Y-41546D01*
X51100Y-41504D01*
X50986Y-41482D01*
X50757Y-41482D01*
X50700Y-41504D01*
X50671Y-41525D01*
X50643Y-41568D01*
X50643Y-41654D01*
X50671Y-41696D01*
X50700Y-41718D01*
X50757Y-41739D01*
X50900Y-41739D01*
X50957Y-41718D01*
X50986Y-41696D01*
X51014Y-41654D01*
X51014Y-41568D01*
X50986Y-41525D01*
X50957Y-41504D01*
X50900Y-41482D01*
X50643Y-41075D02*
X50643Y-41289D01*
X50929Y-41310D01*
X50900Y-41289D01*
X50871Y-41246D01*
X50871Y-41139D01*
X50900Y-41096D01*
X50929Y-41075D01*
X50986Y-41053D01*
X51129Y-41053D01*
X51186Y-41075D01*
X51214Y-41096D01*
X51243Y-41139D01*
X51243Y-41246D01*
X51214Y-41289D01*
X51186Y-41310D01*
G54D13*
X41393Y-42495D02*
X41879Y-42495D01*
X41936Y-42476D01*
X41964Y-42457D01*
X41993Y-42419D01*
X41993Y-42342D01*
X41964Y-42304D01*
X41936Y-42285D01*
X41879Y-42266D01*
X41393Y-42266D01*
X41993Y-41866D02*
X41993Y-42095D01*
X41993Y-41981D02*
X41393Y-41981D01*
X41479Y-42019D01*
X41536Y-42057D01*
X41564Y-42095D01*
X41393Y-41523D02*
X41393Y-41600D01*
X41421Y-41638D01*
X41450Y-41657D01*
X41536Y-41695D01*
X41650Y-41714D01*
X41879Y-41714D01*
X41936Y-41695D01*
X41964Y-41676D01*
X41993Y-41638D01*
X41993Y-41561D01*
X41964Y-41523D01*
X41936Y-41504D01*
X41879Y-41485D01*
X41736Y-41485D01*
X41679Y-41504D01*
X41650Y-41523D01*
X41621Y-41561D01*
X41621Y-41638D01*
X41650Y-41676D01*
X41679Y-41695D01*
X41736Y-41714D01*
X42545Y-39143D02*
X42812Y-39143D01*
X42640Y-39743D01*
X43021Y-39400D02*
X42983Y-39371D01*
X42964Y-39343D01*
X42945Y-39286D01*
X42945Y-39257D01*
X42964Y-39200D01*
X42983Y-39171D01*
X43021Y-39143D01*
X43098Y-39143D01*
X43136Y-39171D01*
X43155Y-39200D01*
X43174Y-39257D01*
X43174Y-39286D01*
X43155Y-39343D01*
X43136Y-39371D01*
X43098Y-39400D01*
X43021Y-39400D01*
X42983Y-39429D01*
X42964Y-39457D01*
X42945Y-39514D01*
X42945Y-39629D01*
X42964Y-39686D01*
X42983Y-39714D01*
X43021Y-39743D01*
X43098Y-39743D01*
X43136Y-39714D01*
X43155Y-39686D01*
X43174Y-39629D01*
X43174Y-39514D01*
X43155Y-39457D01*
X43136Y-39429D01*
X43098Y-39400D01*
X43421Y-39143D02*
X43460Y-39143D01*
X43498Y-39171D01*
X43517Y-39200D01*
X43536Y-39257D01*
X43555Y-39371D01*
X43555Y-39514D01*
X43536Y-39629D01*
X43517Y-39686D01*
X43498Y-39714D01*
X43460Y-39743D01*
X43421Y-39743D01*
X43383Y-39714D01*
X43364Y-39686D01*
X43345Y-39629D01*
X43326Y-39514D01*
X43326Y-39371D01*
X43345Y-39257D01*
X43364Y-39200D01*
X43383Y-39171D01*
X43421Y-39143D01*
X43917Y-39143D02*
X43726Y-39143D01*
X43707Y-39429D01*
X43726Y-39400D01*
X43764Y-39371D01*
X43860Y-39371D01*
X43898Y-39400D01*
X43917Y-39429D01*
X43936Y-39486D01*
X43936Y-39629D01*
X43917Y-39686D01*
X43898Y-39714D01*
X43860Y-39743D01*
X43764Y-39743D01*
X43726Y-39714D01*
X43707Y-39686D01*
X65156Y-52631D02*
X65523Y-52631D01*
X64946Y-52750D02*
X65339Y-52869D01*
X65339Y-52559D01*
X64973Y-52417D02*
X64973Y-52083D01*
X65523Y-52298D01*
X64973Y-51798D02*
X64973Y-51750D01*
X64999Y-51702D01*
X65025Y-51679D01*
X65077Y-51655D01*
X65182Y-51631D01*
X65313Y-51631D01*
X65418Y-51655D01*
X65470Y-51679D01*
X65496Y-51702D01*
X65523Y-51750D01*
X65523Y-51798D01*
X65496Y-51845D01*
X65470Y-51869D01*
X65418Y-51893D01*
X65313Y-51917D01*
X65182Y-51917D01*
X65077Y-51893D01*
X65025Y-51869D01*
X64999Y-51845D01*
X64973Y-51798D01*
X73156Y-52631D02*
X73523Y-52631D01*
X72946Y-52750D02*
X73339Y-52869D01*
X73339Y-52559D01*
X72973Y-52417D02*
X72973Y-52083D01*
X73523Y-52298D01*
X72973Y-51798D02*
X72973Y-51750D01*
X72999Y-51702D01*
X73025Y-51679D01*
X73077Y-51655D01*
X73182Y-51631D01*
X73313Y-51631D01*
X73418Y-51655D01*
X73470Y-51679D01*
X73496Y-51702D01*
X73523Y-51750D01*
X73523Y-51798D01*
X73496Y-51845D01*
X73470Y-51869D01*
X73418Y-51893D01*
X73313Y-51917D01*
X73182Y-51917D01*
X73077Y-51893D01*
X73025Y-51869D01*
X72999Y-51845D01*
X72973Y-51798D01*
X72156Y-52631D02*
X72523Y-52631D01*
X71946Y-52750D02*
X72339Y-52869D01*
X72339Y-52559D01*
X71973Y-52417D02*
X71973Y-52083D01*
X72523Y-52298D01*
X71973Y-51798D02*
X71973Y-51750D01*
X71999Y-51702D01*
X72025Y-51679D01*
X72077Y-51655D01*
X72182Y-51631D01*
X72313Y-51631D01*
X72418Y-51655D01*
X72470Y-51679D01*
X72496Y-51702D01*
X72523Y-51750D01*
X72523Y-51798D01*
X72496Y-51845D01*
X72470Y-51869D01*
X72418Y-51893D01*
X72313Y-51917D01*
X72182Y-51917D01*
X72077Y-51893D01*
X72025Y-51869D01*
X71999Y-51845D01*
X71973Y-51798D01*
X74156Y-52631D02*
X74523Y-52631D01*
X73946Y-52750D02*
X74339Y-52869D01*
X74339Y-52559D01*
X73973Y-52417D02*
X73973Y-52083D01*
X74523Y-52298D01*
X73973Y-51798D02*
X73973Y-51750D01*
X73999Y-51702D01*
X74025Y-51679D01*
X74077Y-51655D01*
X74182Y-51631D01*
X74313Y-51631D01*
X74418Y-51655D01*
X74470Y-51679D01*
X74496Y-51702D01*
X74523Y-51750D01*
X74523Y-51798D01*
X74496Y-51845D01*
X74470Y-51869D01*
X74418Y-51893D01*
X74313Y-51917D01*
X74182Y-51917D01*
X74077Y-51893D01*
X74025Y-51869D01*
X73999Y-51845D01*
X73973Y-51798D01*
X75156Y-52631D02*
X75523Y-52631D01*
X74946Y-52750D02*
X75339Y-52869D01*
X75339Y-52559D01*
X74973Y-52417D02*
X74973Y-52083D01*
X75523Y-52298D01*
X74973Y-51798D02*
X74973Y-51750D01*
X74999Y-51702D01*
X75025Y-51679D01*
X75077Y-51655D01*
X75182Y-51631D01*
X75313Y-51631D01*
X75418Y-51655D01*
X75470Y-51679D01*
X75496Y-51702D01*
X75523Y-51750D01*
X75523Y-51798D01*
X75496Y-51845D01*
X75470Y-51869D01*
X75418Y-51893D01*
X75313Y-51917D01*
X75182Y-51917D01*
X75077Y-51893D01*
X75025Y-51869D01*
X74999Y-51845D01*
X74973Y-51798D01*
X62156Y-52631D02*
X62523Y-52631D01*
X61946Y-52750D02*
X62339Y-52869D01*
X62339Y-52559D01*
X61973Y-52417D02*
X61973Y-52083D01*
X62523Y-52298D01*
X61973Y-51798D02*
X61973Y-51750D01*
X61999Y-51702D01*
X62025Y-51679D01*
X62077Y-51655D01*
X62182Y-51631D01*
X62313Y-51631D01*
X62418Y-51655D01*
X62470Y-51679D01*
X62496Y-51702D01*
X62523Y-51750D01*
X62523Y-51798D01*
X62496Y-51845D01*
X62470Y-51869D01*
X62418Y-51893D01*
X62313Y-51917D01*
X62182Y-51917D01*
X62077Y-51893D01*
X62025Y-51869D01*
X61999Y-51845D01*
X61973Y-51798D01*
X61156Y-52631D02*
X61523Y-52631D01*
X60946Y-52750D02*
X61339Y-52869D01*
X61339Y-52559D01*
X60973Y-52417D02*
X60973Y-52083D01*
X61523Y-52298D01*
X60973Y-51798D02*
X60973Y-51750D01*
X60999Y-51702D01*
X61025Y-51679D01*
X61077Y-51655D01*
X61182Y-51631D01*
X61313Y-51631D01*
X61418Y-51655D01*
X61470Y-51679D01*
X61496Y-51702D01*
X61523Y-51750D01*
X61523Y-51798D01*
X61496Y-51845D01*
X61470Y-51869D01*
X61418Y-51893D01*
X61313Y-51917D01*
X61182Y-51917D01*
X61077Y-51893D01*
X61025Y-51869D01*
X60999Y-51845D01*
X60973Y-51798D01*
X59156Y-52631D02*
X59523Y-52631D01*
X58946Y-52750D02*
X59339Y-52869D01*
X59339Y-52559D01*
X58973Y-52417D02*
X58973Y-52083D01*
X59523Y-52298D01*
X58973Y-51798D02*
X58973Y-51750D01*
X58999Y-51702D01*
X59025Y-51679D01*
X59077Y-51655D01*
X59182Y-51631D01*
X59313Y-51631D01*
X59418Y-51655D01*
X59470Y-51679D01*
X59496Y-51702D01*
X59523Y-51750D01*
X59523Y-51798D01*
X59496Y-51845D01*
X59470Y-51869D01*
X59418Y-51893D01*
X59313Y-51917D01*
X59182Y-51917D01*
X59077Y-51893D01*
X59025Y-51869D01*
X58999Y-51845D01*
X58973Y-51798D01*
X60156Y-52631D02*
X60523Y-52631D01*
X59946Y-52750D02*
X60339Y-52869D01*
X60339Y-52559D01*
X59973Y-52417D02*
X59973Y-52083D01*
X60523Y-52298D01*
X59973Y-51798D02*
X59973Y-51750D01*
X59999Y-51702D01*
X60025Y-51679D01*
X60077Y-51655D01*
X60182Y-51631D01*
X60313Y-51631D01*
X60418Y-51655D01*
X60470Y-51679D01*
X60496Y-51702D01*
X60523Y-51750D01*
X60523Y-51798D01*
X60496Y-51845D01*
X60470Y-51869D01*
X60418Y-51893D01*
X60313Y-51917D01*
X60182Y-51917D01*
X60077Y-51893D01*
X60025Y-51869D01*
X59999Y-51845D01*
X59973Y-51798D01*
X64156Y-52631D02*
X64523Y-52631D01*
X63946Y-52750D02*
X64339Y-52869D01*
X64339Y-52559D01*
X63973Y-52417D02*
X63973Y-52083D01*
X64523Y-52298D01*
X63973Y-51798D02*
X63973Y-51750D01*
X63999Y-51702D01*
X64025Y-51679D01*
X64077Y-51655D01*
X64182Y-51631D01*
X64313Y-51631D01*
X64418Y-51655D01*
X64470Y-51679D01*
X64496Y-51702D01*
X64523Y-51750D01*
X64523Y-51798D01*
X64496Y-51845D01*
X64470Y-51869D01*
X64418Y-51893D01*
X64313Y-51917D01*
X64182Y-51917D01*
X64077Y-51893D01*
X64025Y-51869D01*
X63999Y-51845D01*
X63973Y-51798D01*
X63156Y-52631D02*
X63523Y-52631D01*
X62946Y-52750D02*
X63339Y-52869D01*
X63339Y-52559D01*
X62973Y-52417D02*
X62973Y-52083D01*
X63523Y-52298D01*
X62973Y-51798D02*
X62973Y-51750D01*
X62999Y-51702D01*
X63025Y-51679D01*
X63077Y-51655D01*
X63182Y-51631D01*
X63313Y-51631D01*
X63418Y-51655D01*
X63470Y-51679D01*
X63496Y-51702D01*
X63523Y-51750D01*
X63523Y-51798D01*
X63496Y-51845D01*
X63470Y-51869D01*
X63418Y-51893D01*
X63313Y-51917D01*
X63182Y-51917D01*
X63077Y-51893D01*
X63025Y-51869D01*
X62999Y-51845D01*
X62973Y-51798D01*
X76156Y-52631D02*
X76523Y-52631D01*
X75946Y-52750D02*
X76339Y-52869D01*
X76339Y-52559D01*
X75973Y-52417D02*
X75973Y-52083D01*
X76523Y-52298D01*
X75973Y-51798D02*
X75973Y-51750D01*
X75999Y-51702D01*
X76025Y-51679D01*
X76077Y-51655D01*
X76182Y-51631D01*
X76313Y-51631D01*
X76418Y-51655D01*
X76470Y-51679D01*
X76496Y-51702D01*
X76523Y-51750D01*
X76523Y-51798D01*
X76496Y-51845D01*
X76470Y-51869D01*
X76418Y-51893D01*
X76313Y-51917D01*
X76182Y-51917D01*
X76077Y-51893D01*
X76025Y-51869D01*
X75999Y-51845D01*
X75973Y-51798D01*
X66156Y-52631D02*
X66523Y-52631D01*
X65946Y-52750D02*
X66339Y-52869D01*
X66339Y-52559D01*
X65973Y-52417D02*
X65973Y-52083D01*
X66523Y-52298D01*
X65973Y-51798D02*
X65973Y-51750D01*
X65999Y-51702D01*
X66025Y-51679D01*
X66077Y-51655D01*
X66182Y-51631D01*
X66313Y-51631D01*
X66418Y-51655D01*
X66470Y-51679D01*
X66496Y-51702D01*
X66523Y-51750D01*
X66523Y-51798D01*
X66496Y-51845D01*
X66470Y-51869D01*
X66418Y-51893D01*
X66313Y-51917D01*
X66182Y-51917D01*
X66077Y-51893D01*
X66025Y-51869D01*
X65999Y-51845D01*
X65973Y-51798D01*
X95023Y-63309D02*
X95023Y-63595D01*
X95023Y-63452D02*
X94473Y-63452D01*
X94551Y-63500D01*
X94604Y-63547D01*
X94630Y-63595D01*
X95023Y-63095D02*
X94473Y-63095D01*
X94813Y-63047D02*
X95023Y-62904D01*
X94656Y-62904D02*
X94865Y-63095D01*
X94023Y-63309D02*
X94023Y-63595D01*
X94023Y-63452D02*
X93473Y-63452D01*
X93551Y-63500D01*
X93604Y-63547D01*
X93630Y-63595D01*
X94023Y-63095D02*
X93473Y-63095D01*
X93813Y-63047D02*
X94023Y-62904D01*
X93656Y-62904D02*
X93865Y-63095D01*
X92023Y-63309D02*
X92023Y-63595D01*
X92023Y-63452D02*
X91473Y-63452D01*
X91551Y-63500D01*
X91604Y-63547D01*
X91630Y-63595D01*
X92023Y-63095D02*
X91473Y-63095D01*
X91813Y-63047D02*
X92023Y-62904D01*
X91656Y-62904D02*
X91865Y-63095D01*
X93023Y-63309D02*
X93023Y-63595D01*
X93023Y-63452D02*
X92473Y-63452D01*
X92551Y-63500D01*
X92604Y-63547D01*
X92630Y-63595D01*
X93023Y-63095D02*
X92473Y-63095D01*
X92813Y-63047D02*
X93023Y-62904D01*
X92656Y-62904D02*
X92865Y-63095D01*
X97023Y-63309D02*
X97023Y-63595D01*
X97023Y-63452D02*
X96473Y-63452D01*
X96551Y-63500D01*
X96604Y-63547D01*
X96630Y-63595D01*
X97023Y-63095D02*
X96473Y-63095D01*
X96813Y-63047D02*
X97023Y-62904D01*
X96656Y-62904D02*
X96865Y-63095D01*
X96023Y-63309D02*
X96023Y-63595D01*
X96023Y-63452D02*
X95473Y-63452D01*
X95551Y-63500D01*
X95604Y-63547D01*
X95630Y-63595D01*
X96023Y-63095D02*
X95473Y-63095D01*
X95813Y-63047D02*
X96023Y-62904D01*
X95656Y-62904D02*
X95865Y-63095D01*
X98023Y-63309D02*
X98023Y-63595D01*
X98023Y-63452D02*
X97473Y-63452D01*
X97551Y-63500D01*
X97604Y-63547D01*
X97630Y-63595D01*
X98023Y-63095D02*
X97473Y-63095D01*
X97813Y-63047D02*
X98023Y-62904D01*
X97656Y-62904D02*
X97865Y-63095D01*
X87156Y-52631D02*
X87523Y-52631D01*
X86946Y-52750D02*
X87339Y-52869D01*
X87339Y-52559D01*
X86973Y-52417D02*
X86973Y-52083D01*
X87523Y-52298D01*
X86973Y-51798D02*
X86973Y-51750D01*
X86999Y-51702D01*
X87025Y-51679D01*
X87077Y-51655D01*
X87182Y-51631D01*
X87313Y-51631D01*
X87418Y-51655D01*
X87470Y-51679D01*
X87496Y-51702D01*
X87523Y-51750D01*
X87523Y-51798D01*
X87496Y-51845D01*
X87470Y-51869D01*
X87418Y-51893D01*
X87313Y-51917D01*
X87182Y-51917D01*
X87077Y-51893D01*
X87025Y-51869D01*
X86999Y-51845D01*
X86973Y-51798D01*
X105156Y-52631D02*
X105523Y-52631D01*
X104946Y-52750D02*
X105339Y-52869D01*
X105339Y-52559D01*
X104973Y-52417D02*
X104973Y-52083D01*
X105523Y-52298D01*
X104973Y-51798D02*
X104973Y-51750D01*
X104999Y-51702D01*
X105025Y-51679D01*
X105077Y-51655D01*
X105182Y-51631D01*
X105313Y-51631D01*
X105418Y-51655D01*
X105470Y-51679D01*
X105496Y-51702D01*
X105523Y-51750D01*
X105523Y-51798D01*
X105496Y-51845D01*
X105470Y-51869D01*
X105418Y-51893D01*
X105313Y-51917D01*
X105182Y-51917D01*
X105077Y-51893D01*
X105025Y-51869D01*
X104999Y-51845D01*
X104973Y-51798D01*
X104156Y-52631D02*
X104523Y-52631D01*
X103946Y-52750D02*
X104339Y-52869D01*
X104339Y-52559D01*
X103973Y-52417D02*
X103973Y-52083D01*
X104523Y-52298D01*
X103973Y-51798D02*
X103973Y-51750D01*
X103999Y-51702D01*
X104025Y-51679D01*
X104077Y-51655D01*
X104182Y-51631D01*
X104313Y-51631D01*
X104418Y-51655D01*
X104470Y-51679D01*
X104496Y-51702D01*
X104523Y-51750D01*
X104523Y-51798D01*
X104496Y-51845D01*
X104470Y-51869D01*
X104418Y-51893D01*
X104313Y-51917D01*
X104182Y-51917D01*
X104077Y-51893D01*
X104025Y-51869D01*
X103999Y-51845D01*
X103973Y-51798D01*
X102156Y-52631D02*
X102523Y-52631D01*
X101946Y-52750D02*
X102339Y-52869D01*
X102339Y-52559D01*
X101973Y-52417D02*
X101973Y-52083D01*
X102523Y-52298D01*
X101973Y-51798D02*
X101973Y-51750D01*
X101999Y-51702D01*
X102025Y-51679D01*
X102077Y-51655D01*
X102182Y-51631D01*
X102313Y-51631D01*
X102418Y-51655D01*
X102470Y-51679D01*
X102496Y-51702D01*
X102523Y-51750D01*
X102523Y-51798D01*
X102496Y-51845D01*
X102470Y-51869D01*
X102418Y-51893D01*
X102313Y-51917D01*
X102182Y-51917D01*
X102077Y-51893D01*
X102025Y-51869D01*
X101999Y-51845D01*
X101973Y-51798D01*
X103156Y-52631D02*
X103523Y-52631D01*
X102946Y-52750D02*
X103339Y-52869D01*
X103339Y-52559D01*
X102973Y-52417D02*
X102973Y-52083D01*
X103523Y-52298D01*
X102973Y-51798D02*
X102973Y-51750D01*
X102999Y-51702D01*
X103025Y-51679D01*
X103077Y-51655D01*
X103182Y-51631D01*
X103313Y-51631D01*
X103418Y-51655D01*
X103470Y-51679D01*
X103496Y-51702D01*
X103523Y-51750D01*
X103523Y-51798D01*
X103496Y-51845D01*
X103470Y-51869D01*
X103418Y-51893D01*
X103313Y-51917D01*
X103182Y-51917D01*
X103077Y-51893D01*
X103025Y-51869D01*
X102999Y-51845D01*
X102973Y-51798D01*
X99156Y-52631D02*
X99523Y-52631D01*
X98946Y-52750D02*
X99339Y-52869D01*
X99339Y-52559D01*
X98973Y-52417D02*
X98973Y-52083D01*
X99523Y-52298D01*
X98973Y-51798D02*
X98973Y-51750D01*
X98999Y-51702D01*
X99025Y-51679D01*
X99077Y-51655D01*
X99182Y-51631D01*
X99313Y-51631D01*
X99418Y-51655D01*
X99470Y-51679D01*
X99496Y-51702D01*
X99523Y-51750D01*
X99523Y-51798D01*
X99496Y-51845D01*
X99470Y-51869D01*
X99418Y-51893D01*
X99313Y-51917D01*
X99182Y-51917D01*
X99077Y-51893D01*
X99025Y-51869D01*
X98999Y-51845D01*
X98973Y-51798D01*
X98156Y-52631D02*
X98523Y-52631D01*
X97946Y-52750D02*
X98339Y-52869D01*
X98339Y-52559D01*
X97973Y-52417D02*
X97973Y-52083D01*
X98523Y-52298D01*
X97973Y-51798D02*
X97973Y-51750D01*
X97999Y-51702D01*
X98025Y-51679D01*
X98077Y-51655D01*
X98182Y-51631D01*
X98313Y-51631D01*
X98418Y-51655D01*
X98470Y-51679D01*
X98496Y-51702D01*
X98523Y-51750D01*
X98523Y-51798D01*
X98496Y-51845D01*
X98470Y-51869D01*
X98418Y-51893D01*
X98313Y-51917D01*
X98182Y-51917D01*
X98077Y-51893D01*
X98025Y-51869D01*
X97999Y-51845D01*
X97973Y-51798D01*
X100156Y-52631D02*
X100523Y-52631D01*
X99946Y-52750D02*
X100339Y-52869D01*
X100339Y-52559D01*
X99973Y-52417D02*
X99973Y-52083D01*
X100523Y-52298D01*
X99973Y-51798D02*
X99973Y-51750D01*
X99999Y-51702D01*
X100025Y-51679D01*
X100077Y-51655D01*
X100182Y-51631D01*
X100313Y-51631D01*
X100418Y-51655D01*
X100470Y-51679D01*
X100496Y-51702D01*
X100523Y-51750D01*
X100523Y-51798D01*
X100496Y-51845D01*
X100470Y-51869D01*
X100418Y-51893D01*
X100313Y-51917D01*
X100182Y-51917D01*
X100077Y-51893D01*
X100025Y-51869D01*
X99999Y-51845D01*
X99973Y-51798D01*
X101156Y-52631D02*
X101523Y-52631D01*
X100946Y-52750D02*
X101339Y-52869D01*
X101339Y-52559D01*
X100973Y-52417D02*
X100973Y-52083D01*
X101523Y-52298D01*
X100973Y-51798D02*
X100973Y-51750D01*
X100999Y-51702D01*
X101025Y-51679D01*
X101077Y-51655D01*
X101182Y-51631D01*
X101313Y-51631D01*
X101418Y-51655D01*
X101470Y-51679D01*
X101496Y-51702D01*
X101523Y-51750D01*
X101523Y-51798D01*
X101496Y-51845D01*
X101470Y-51869D01*
X101418Y-51893D01*
X101313Y-51917D01*
X101182Y-51917D01*
X101077Y-51893D01*
X101025Y-51869D01*
X100999Y-51845D01*
X100973Y-51798D01*
X88156Y-52631D02*
X88523Y-52631D01*
X87946Y-52750D02*
X88339Y-52869D01*
X88339Y-52559D01*
X87973Y-52417D02*
X87973Y-52083D01*
X88523Y-52298D01*
X87973Y-51798D02*
X87973Y-51750D01*
X87999Y-51702D01*
X88025Y-51679D01*
X88077Y-51655D01*
X88182Y-51631D01*
X88313Y-51631D01*
X88418Y-51655D01*
X88470Y-51679D01*
X88496Y-51702D01*
X88523Y-51750D01*
X88523Y-51798D01*
X88496Y-51845D01*
X88470Y-51869D01*
X88418Y-51893D01*
X88313Y-51917D01*
X88182Y-51917D01*
X88077Y-51893D01*
X88025Y-51869D01*
X87999Y-51845D01*
X87973Y-51798D01*
X77156Y-52631D02*
X77523Y-52631D01*
X76946Y-52750D02*
X77339Y-52869D01*
X77339Y-52559D01*
X76973Y-52417D02*
X76973Y-52083D01*
X77523Y-52298D01*
X76973Y-51798D02*
X76973Y-51750D01*
X76999Y-51702D01*
X77025Y-51679D01*
X77077Y-51655D01*
X77182Y-51631D01*
X77313Y-51631D01*
X77418Y-51655D01*
X77470Y-51679D01*
X77496Y-51702D01*
X77523Y-51750D01*
X77523Y-51798D01*
X77496Y-51845D01*
X77470Y-51869D01*
X77418Y-51893D01*
X77313Y-51917D01*
X77182Y-51917D01*
X77077Y-51893D01*
X77025Y-51869D01*
X76999Y-51845D01*
X76973Y-51798D01*
X85156Y-52631D02*
X85523Y-52631D01*
X84946Y-52750D02*
X85339Y-52869D01*
X85339Y-52559D01*
X84973Y-52417D02*
X84973Y-52083D01*
X85523Y-52298D01*
X84973Y-51798D02*
X84973Y-51750D01*
X84999Y-51702D01*
X85025Y-51679D01*
X85077Y-51655D01*
X85182Y-51631D01*
X85313Y-51631D01*
X85418Y-51655D01*
X85470Y-51679D01*
X85496Y-51702D01*
X85523Y-51750D01*
X85523Y-51798D01*
X85496Y-51845D01*
X85470Y-51869D01*
X85418Y-51893D01*
X85313Y-51917D01*
X85182Y-51917D01*
X85077Y-51893D01*
X85025Y-51869D01*
X84999Y-51845D01*
X84973Y-51798D01*
X86156Y-52631D02*
X86523Y-52631D01*
X85946Y-52750D02*
X86339Y-52869D01*
X86339Y-52559D01*
X85973Y-52417D02*
X85973Y-52083D01*
X86523Y-52298D01*
X85973Y-51798D02*
X85973Y-51750D01*
X85999Y-51702D01*
X86025Y-51679D01*
X86077Y-51655D01*
X86182Y-51631D01*
X86313Y-51631D01*
X86418Y-51655D01*
X86470Y-51679D01*
X86496Y-51702D01*
X86523Y-51750D01*
X86523Y-51798D01*
X86496Y-51845D01*
X86470Y-51869D01*
X86418Y-51893D01*
X86313Y-51917D01*
X86182Y-51917D01*
X86077Y-51893D01*
X86025Y-51869D01*
X85999Y-51845D01*
X85973Y-51798D01*
X90156Y-52631D02*
X90523Y-52631D01*
X89946Y-52750D02*
X90339Y-52869D01*
X90339Y-52559D01*
X89973Y-52417D02*
X89973Y-52083D01*
X90523Y-52298D01*
X89973Y-51798D02*
X89973Y-51750D01*
X89999Y-51702D01*
X90025Y-51679D01*
X90077Y-51655D01*
X90182Y-51631D01*
X90313Y-51631D01*
X90418Y-51655D01*
X90470Y-51679D01*
X90496Y-51702D01*
X90523Y-51750D01*
X90523Y-51798D01*
X90496Y-51845D01*
X90470Y-51869D01*
X90418Y-51893D01*
X90313Y-51917D01*
X90182Y-51917D01*
X90077Y-51893D01*
X90025Y-51869D01*
X89999Y-51845D01*
X89973Y-51798D01*
X89156Y-52631D02*
X89523Y-52631D01*
X88946Y-52750D02*
X89339Y-52869D01*
X89339Y-52559D01*
X88973Y-52417D02*
X88973Y-52083D01*
X89523Y-52298D01*
X88973Y-51798D02*
X88973Y-51750D01*
X88999Y-51702D01*
X89025Y-51679D01*
X89077Y-51655D01*
X89182Y-51631D01*
X89313Y-51631D01*
X89418Y-51655D01*
X89470Y-51679D01*
X89496Y-51702D01*
X89523Y-51750D01*
X89523Y-51798D01*
X89496Y-51845D01*
X89470Y-51869D01*
X89418Y-51893D01*
X89313Y-51917D01*
X89182Y-51917D01*
X89077Y-51893D01*
X89025Y-51869D01*
X88999Y-51845D01*
X88973Y-51798D01*
X91156Y-52631D02*
X91523Y-52631D01*
X90946Y-52750D02*
X91339Y-52869D01*
X91339Y-52559D01*
X90973Y-52417D02*
X90973Y-52083D01*
X91523Y-52298D01*
X90973Y-51798D02*
X90973Y-51750D01*
X90999Y-51702D01*
X91025Y-51679D01*
X91077Y-51655D01*
X91182Y-51631D01*
X91313Y-51631D01*
X91418Y-51655D01*
X91470Y-51679D01*
X91496Y-51702D01*
X91523Y-51750D01*
X91523Y-51798D01*
X91496Y-51845D01*
X91470Y-51869D01*
X91418Y-51893D01*
X91313Y-51917D01*
X91182Y-51917D01*
X91077Y-51893D01*
X91025Y-51869D01*
X90999Y-51845D01*
X90973Y-51798D01*
X92156Y-52631D02*
X92523Y-52631D01*
X91946Y-52750D02*
X92339Y-52869D01*
X92339Y-52559D01*
X91973Y-52417D02*
X91973Y-52083D01*
X92523Y-52298D01*
X91973Y-51798D02*
X91973Y-51750D01*
X91999Y-51702D01*
X92025Y-51679D01*
X92077Y-51655D01*
X92182Y-51631D01*
X92313Y-51631D01*
X92418Y-51655D01*
X92470Y-51679D01*
X92496Y-51702D01*
X92523Y-51750D01*
X92523Y-51798D01*
X92496Y-51845D01*
X92470Y-51869D01*
X92418Y-51893D01*
X92313Y-51917D01*
X92182Y-51917D01*
X92077Y-51893D01*
X92025Y-51869D01*
X91999Y-51845D01*
X91973Y-51798D01*
X79156Y-52631D02*
X79523Y-52631D01*
X78946Y-52750D02*
X79339Y-52869D01*
X79339Y-52559D01*
X78973Y-52417D02*
X78973Y-52083D01*
X79523Y-52298D01*
X78973Y-51798D02*
X78973Y-51750D01*
X78999Y-51702D01*
X79025Y-51679D01*
X79077Y-51655D01*
X79182Y-51631D01*
X79313Y-51631D01*
X79418Y-51655D01*
X79470Y-51679D01*
X79496Y-51702D01*
X79523Y-51750D01*
X79523Y-51798D01*
X79496Y-51845D01*
X79470Y-51869D01*
X79418Y-51893D01*
X79313Y-51917D01*
X79182Y-51917D01*
X79077Y-51893D01*
X79025Y-51869D01*
X78999Y-51845D01*
X78973Y-51798D01*
X78156Y-52631D02*
X78523Y-52631D01*
X77946Y-52750D02*
X78339Y-52869D01*
X78339Y-52559D01*
X77973Y-52417D02*
X77973Y-52083D01*
X78523Y-52298D01*
X77973Y-51798D02*
X77973Y-51750D01*
X77999Y-51702D01*
X78025Y-51679D01*
X78077Y-51655D01*
X78182Y-51631D01*
X78313Y-51631D01*
X78418Y-51655D01*
X78470Y-51679D01*
X78496Y-51702D01*
X78523Y-51750D01*
X78523Y-51798D01*
X78496Y-51845D01*
X78470Y-51869D01*
X78418Y-51893D01*
X78313Y-51917D01*
X78182Y-51917D01*
X78077Y-51893D01*
X78025Y-51869D01*
X77999Y-51845D01*
X77973Y-51798D01*
X86023Y-63309D02*
X86023Y-63595D01*
X86023Y-63452D02*
X85473Y-63452D01*
X85551Y-63500D01*
X85604Y-63547D01*
X85630Y-63595D01*
X86023Y-63095D02*
X85473Y-63095D01*
X85813Y-63047D02*
X86023Y-62904D01*
X85656Y-62904D02*
X85865Y-63095D01*
X99023Y-63309D02*
X99023Y-63595D01*
X99023Y-63452D02*
X98473Y-63452D01*
X98551Y-63500D01*
X98604Y-63547D01*
X98630Y-63595D01*
X99023Y-63095D02*
X98473Y-63095D01*
X98813Y-63047D02*
X99023Y-62904D01*
X98656Y-62904D02*
X98865Y-63095D01*
X44441Y-49773D02*
X44155Y-49773D01*
X44298Y-49773D02*
X44298Y-49223D01*
X44250Y-49301D01*
X44203Y-49354D01*
X44155Y-49380D01*
X44655Y-49773D02*
X44655Y-49223D01*
X44703Y-49563D02*
X44846Y-49773D01*
X44846Y-49406D02*
X44655Y-49615D01*
X45441Y-55773D02*
X45155Y-55773D01*
X45298Y-55773D02*
X45298Y-55223D01*
X45250Y-55301D01*
X45203Y-55354D01*
X45155Y-55380D01*
X45655Y-55773D02*
X45655Y-55223D01*
X45703Y-55563D02*
X45846Y-55773D01*
X45846Y-55406D02*
X45655Y-55615D01*
X47906Y-58881D02*
X48273Y-58881D01*
X47696Y-59000D02*
X48089Y-59119D01*
X48089Y-58809D01*
X47723Y-58667D02*
X47723Y-58333D01*
X48273Y-58548D01*
X47723Y-58048D02*
X47723Y-58000D01*
X47749Y-57952D01*
X47775Y-57929D01*
X47827Y-57905D01*
X47932Y-57881D01*
X48063Y-57881D01*
X48168Y-57905D01*
X48220Y-57929D01*
X48246Y-57952D01*
X48273Y-58000D01*
X48273Y-58048D01*
X48246Y-58095D01*
X48220Y-58119D01*
X48168Y-58143D01*
X48063Y-58167D01*
X47932Y-58167D01*
X47827Y-58143D01*
X47775Y-58119D01*
X47749Y-58095D01*
X47723Y-58048D01*
X45441Y-60273D02*
X45155Y-60273D01*
X45298Y-60273D02*
X45298Y-59723D01*
X45250Y-59801D01*
X45203Y-59854D01*
X45155Y-59880D01*
X45655Y-60273D02*
X45655Y-59723D01*
X45703Y-60063D02*
X45846Y-60273D01*
X45846Y-59906D02*
X45655Y-60115D01*
X47906Y-62881D02*
X48273Y-62881D01*
X47696Y-63000D02*
X48089Y-63119D01*
X48089Y-62809D01*
X47723Y-62667D02*
X47723Y-62333D01*
X48273Y-62548D01*
X47723Y-62048D02*
X47723Y-62000D01*
X47749Y-61952D01*
X47775Y-61929D01*
X47827Y-61905D01*
X47932Y-61881D01*
X48063Y-61881D01*
X48168Y-61905D01*
X48220Y-61929D01*
X48246Y-61952D01*
X48273Y-62000D01*
X48273Y-62048D01*
X48246Y-62095D01*
X48220Y-62119D01*
X48168Y-62143D01*
X48063Y-62167D01*
X47932Y-62167D01*
X47827Y-62143D01*
X47775Y-62119D01*
X47749Y-62095D01*
X47723Y-62048D01*
X45441Y-64523D02*
X45155Y-64523D01*
X45298Y-64523D02*
X45298Y-63973D01*
X45250Y-64051D01*
X45203Y-64104D01*
X45155Y-64130D01*
X45655Y-64523D02*
X45655Y-63973D01*
X45703Y-64313D02*
X45846Y-64523D01*
X45846Y-64156D02*
X45655Y-64365D01*
X45441Y-65773D02*
X45155Y-65773D01*
X45298Y-65773D02*
X45298Y-65223D01*
X45250Y-65301D01*
X45203Y-65354D01*
X45155Y-65380D01*
X45655Y-65773D02*
X45655Y-65223D01*
X45703Y-65563D02*
X45846Y-65773D01*
X45846Y-65406D02*
X45655Y-65615D01*
X60023Y-63309D02*
X60023Y-63595D01*
X60023Y-63452D02*
X59473Y-63452D01*
X59551Y-63500D01*
X59604Y-63547D01*
X59630Y-63595D01*
X60023Y-63095D02*
X59473Y-63095D01*
X59813Y-63047D02*
X60023Y-62904D01*
X59656Y-62904D02*
X59865Y-63095D01*
X59023Y-63309D02*
X59023Y-63595D01*
X59023Y-63452D02*
X58473Y-63452D01*
X58551Y-63500D01*
X58604Y-63547D01*
X58630Y-63595D01*
X59023Y-63095D02*
X58473Y-63095D01*
X58813Y-63047D02*
X59023Y-62904D01*
X58656Y-62904D02*
X58865Y-63095D01*
X57023Y-63309D02*
X57023Y-63595D01*
X57023Y-63452D02*
X56473Y-63452D01*
X56551Y-63500D01*
X56604Y-63547D01*
X56630Y-63595D01*
X57023Y-63095D02*
X56473Y-63095D01*
X56813Y-63047D02*
X57023Y-62904D01*
X56656Y-62904D02*
X56865Y-63095D01*
X58023Y-63309D02*
X58023Y-63595D01*
X58023Y-63452D02*
X57473Y-63452D01*
X57551Y-63500D01*
X57604Y-63547D01*
X57630Y-63595D01*
X58023Y-63095D02*
X57473Y-63095D01*
X57813Y-63047D02*
X58023Y-62904D01*
X57656Y-62904D02*
X57865Y-63095D01*
X54023Y-63309D02*
X54023Y-63595D01*
X54023Y-63452D02*
X53473Y-63452D01*
X53551Y-63500D01*
X53604Y-63547D01*
X53630Y-63595D01*
X54023Y-63095D02*
X53473Y-63095D01*
X53813Y-63047D02*
X54023Y-62904D01*
X53656Y-62904D02*
X53865Y-63095D01*
X53023Y-63309D02*
X53023Y-63595D01*
X53023Y-63452D02*
X52473Y-63452D01*
X52551Y-63500D01*
X52604Y-63547D01*
X52630Y-63595D01*
X53023Y-63095D02*
X52473Y-63095D01*
X52813Y-63047D02*
X53023Y-62904D01*
X52656Y-62904D02*
X52865Y-63095D01*
X55023Y-63309D02*
X55023Y-63595D01*
X55023Y-63452D02*
X54473Y-63452D01*
X54551Y-63500D01*
X54604Y-63547D01*
X54630Y-63595D01*
X55023Y-63095D02*
X54473Y-63095D01*
X54813Y-63047D02*
X55023Y-62904D01*
X54656Y-62904D02*
X54865Y-63095D01*
X56023Y-63309D02*
X56023Y-63595D01*
X56023Y-63452D02*
X55473Y-63452D01*
X55551Y-63500D01*
X55604Y-63547D01*
X55630Y-63595D01*
X56023Y-63095D02*
X55473Y-63095D01*
X55813Y-63047D02*
X56023Y-62904D01*
X55656Y-62904D02*
X55865Y-63095D01*
X69023Y-63309D02*
X69023Y-63595D01*
X69023Y-63452D02*
X68473Y-63452D01*
X68551Y-63500D01*
X68604Y-63547D01*
X68630Y-63595D01*
X69023Y-63095D02*
X68473Y-63095D01*
X68813Y-63047D02*
X69023Y-62904D01*
X68656Y-62904D02*
X68865Y-63095D01*
X85023Y-63309D02*
X85023Y-63595D01*
X85023Y-63452D02*
X84473Y-63452D01*
X84551Y-63500D01*
X84604Y-63547D01*
X84630Y-63595D01*
X85023Y-63095D02*
X84473Y-63095D01*
X84813Y-63047D02*
X85023Y-62904D01*
X84656Y-62904D02*
X84865Y-63095D01*
X83023Y-63309D02*
X83023Y-63595D01*
X83023Y-63452D02*
X82473Y-63452D01*
X82551Y-63500D01*
X82604Y-63547D01*
X82630Y-63595D01*
X83023Y-63095D02*
X82473Y-63095D01*
X82813Y-63047D02*
X83023Y-62904D01*
X82656Y-62904D02*
X82865Y-63095D01*
X84023Y-63309D02*
X84023Y-63595D01*
X84023Y-63452D02*
X83473Y-63452D01*
X83551Y-63500D01*
X83604Y-63547D01*
X83630Y-63595D01*
X84023Y-63095D02*
X83473Y-63095D01*
X83813Y-63047D02*
X84023Y-62904D01*
X83656Y-62904D02*
X83865Y-63095D01*
X80023Y-63309D02*
X80023Y-63595D01*
X80023Y-63452D02*
X79473Y-63452D01*
X79551Y-63500D01*
X79604Y-63547D01*
X79630Y-63595D01*
X80023Y-63095D02*
X79473Y-63095D01*
X79813Y-63047D02*
X80023Y-62904D01*
X79656Y-62904D02*
X79865Y-63095D01*
X79023Y-63309D02*
X79023Y-63595D01*
X79023Y-63452D02*
X78473Y-63452D01*
X78551Y-63500D01*
X78604Y-63547D01*
X78630Y-63595D01*
X79023Y-63095D02*
X78473Y-63095D01*
X78813Y-63047D02*
X79023Y-62904D01*
X78656Y-62904D02*
X78865Y-63095D01*
X81023Y-63309D02*
X81023Y-63595D01*
X81023Y-63452D02*
X80473Y-63452D01*
X80551Y-63500D01*
X80604Y-63547D01*
X80630Y-63595D01*
X81023Y-63095D02*
X80473Y-63095D01*
X80813Y-63047D02*
X81023Y-62904D01*
X80656Y-62904D02*
X80865Y-63095D01*
X82023Y-63309D02*
X82023Y-63595D01*
X82023Y-63452D02*
X81473Y-63452D01*
X81551Y-63500D01*
X81604Y-63547D01*
X81630Y-63595D01*
X82023Y-63095D02*
X81473Y-63095D01*
X81813Y-63047D02*
X82023Y-62904D01*
X81656Y-62904D02*
X81865Y-63095D01*
X73023Y-63309D02*
X73023Y-63595D01*
X73023Y-63452D02*
X72473Y-63452D01*
X72551Y-63500D01*
X72604Y-63547D01*
X72630Y-63595D01*
X73023Y-63095D02*
X72473Y-63095D01*
X72813Y-63047D02*
X73023Y-62904D01*
X72656Y-62904D02*
X72865Y-63095D01*
X72023Y-63309D02*
X72023Y-63595D01*
X72023Y-63452D02*
X71473Y-63452D01*
X71551Y-63500D01*
X71604Y-63547D01*
X71630Y-63595D01*
X72023Y-63095D02*
X71473Y-63095D01*
X71813Y-63047D02*
X72023Y-62904D01*
X71656Y-62904D02*
X71865Y-63095D01*
X70023Y-63309D02*
X70023Y-63595D01*
X70023Y-63452D02*
X69473Y-63452D01*
X69551Y-63500D01*
X69604Y-63547D01*
X69630Y-63595D01*
X70023Y-63095D02*
X69473Y-63095D01*
X69813Y-63047D02*
X70023Y-62904D01*
X69656Y-62904D02*
X69865Y-63095D01*
X71023Y-63309D02*
X71023Y-63595D01*
X71023Y-63452D02*
X70473Y-63452D01*
X70551Y-63500D01*
X70604Y-63547D01*
X70630Y-63595D01*
X71023Y-63095D02*
X70473Y-63095D01*
X70813Y-63047D02*
X71023Y-62904D01*
X70656Y-62904D02*
X70865Y-63095D01*
X67023Y-63309D02*
X67023Y-63595D01*
X67023Y-63452D02*
X66473Y-63452D01*
X66551Y-63500D01*
X66604Y-63547D01*
X66630Y-63595D01*
X67023Y-63095D02*
X66473Y-63095D01*
X66813Y-63047D02*
X67023Y-62904D01*
X66656Y-62904D02*
X66865Y-63095D01*
X66023Y-63309D02*
X66023Y-63595D01*
X66023Y-63452D02*
X65473Y-63452D01*
X65551Y-63500D01*
X65604Y-63547D01*
X65630Y-63595D01*
X66023Y-63095D02*
X65473Y-63095D01*
X65813Y-63047D02*
X66023Y-62904D01*
X65656Y-62904D02*
X65865Y-63095D01*
X68023Y-63309D02*
X68023Y-63595D01*
X68023Y-63452D02*
X67473Y-63452D01*
X67551Y-63500D01*
X67604Y-63547D01*
X67630Y-63595D01*
X68023Y-63095D02*
X67473Y-63095D01*
X67813Y-63047D02*
X68023Y-62904D01*
X67656Y-62904D02*
X67865Y-63095D01*
G54D16*
X96193Y-67893D02*
X96193Y-68379D01*
X96215Y-68436D01*
X96236Y-68464D01*
X96279Y-68493D01*
X96365Y-68493D01*
X96407Y-68464D01*
X96429Y-68436D01*
X96450Y-68379D01*
X96450Y-67893D01*
X96643Y-67950D02*
X96664Y-67921D01*
X96707Y-67893D01*
X96814Y-67893D01*
X96857Y-67921D01*
X96878Y-67950D01*
X96900Y-68007D01*
X96900Y-68064D01*
X96878Y-68150D01*
X96621Y-68493D01*
X96900Y-68493D01*
X97072Y-67950D02*
X97093Y-67921D01*
X97136Y-67893D01*
X97243Y-67893D01*
X97286Y-67921D01*
X97307Y-67950D01*
X97329Y-68007D01*
X97329Y-68064D01*
X97307Y-68150D01*
X97050Y-68493D01*
X97329Y-68493D01*
X92281Y-66893D02*
X92581Y-66893D01*
X92388Y-67493D01*
X92946Y-67093D02*
X92946Y-67493D01*
X92839Y-66864D02*
X92732Y-67293D01*
X93010Y-67293D01*
X93182Y-67493D02*
X93182Y-66893D01*
X93182Y-67179D02*
X93439Y-67179D01*
X93439Y-67493D02*
X93439Y-66893D01*
X93910Y-67436D02*
X93889Y-67464D01*
X93825Y-67493D01*
X93782Y-67493D01*
X93717Y-67464D01*
X93675Y-67407D01*
X93653Y-67350D01*
X93632Y-67236D01*
X93632Y-67150D01*
X93653Y-67036D01*
X93675Y-66979D01*
X93717Y-66921D01*
X93782Y-66893D01*
X93825Y-66893D01*
X93889Y-66921D01*
X93910Y-66950D01*
X94317Y-66893D02*
X94103Y-66893D01*
X94082Y-67179D01*
X94103Y-67150D01*
X94146Y-67121D01*
X94253Y-67121D01*
X94296Y-67150D01*
X94317Y-67179D01*
X94339Y-67236D01*
X94339Y-67379D01*
X94317Y-67436D01*
X94296Y-67464D01*
X94253Y-67493D01*
X94146Y-67493D01*
X94103Y-67464D01*
X94082Y-67436D01*
X94554Y-67493D02*
X94639Y-67493D01*
X94682Y-67464D01*
X94704Y-67436D01*
X94746Y-67350D01*
X94768Y-67236D01*
X94768Y-67007D01*
X94746Y-66950D01*
X94725Y-66921D01*
X94682Y-66893D01*
X94596Y-66893D01*
X94554Y-66921D01*
X94532Y-66950D01*
X94511Y-67007D01*
X94511Y-67150D01*
X94532Y-67207D01*
X94554Y-67236D01*
X94596Y-67264D01*
X94682Y-67264D01*
X94725Y-67236D01*
X94746Y-67207D01*
X94768Y-67150D01*
X95175Y-66893D02*
X94961Y-66893D01*
X94940Y-67179D01*
X94961Y-67150D01*
X95004Y-67121D01*
X95111Y-67121D01*
X95154Y-67150D01*
X95175Y-67179D01*
X95197Y-67236D01*
X95197Y-67379D01*
X95175Y-67436D01*
X95154Y-67464D01*
X95111Y-67493D01*
X95004Y-67493D01*
X94961Y-67464D01*
X94940Y-67436D01*
X83193Y-67893D02*
X83193Y-68379D01*
X83215Y-68436D01*
X83236Y-68464D01*
X83279Y-68493D01*
X83365Y-68493D01*
X83407Y-68464D01*
X83429Y-68436D01*
X83450Y-68379D01*
X83450Y-67893D01*
X83643Y-67950D02*
X83664Y-67921D01*
X83707Y-67893D01*
X83814Y-67893D01*
X83857Y-67921D01*
X83878Y-67950D01*
X83900Y-68007D01*
X83900Y-68064D01*
X83878Y-68150D01*
X83621Y-68493D01*
X83900Y-68493D01*
X84050Y-67893D02*
X84329Y-67893D01*
X84179Y-68121D01*
X84243Y-68121D01*
X84286Y-68150D01*
X84307Y-68179D01*
X84329Y-68236D01*
X84329Y-68379D01*
X84307Y-68436D01*
X84286Y-68464D01*
X84243Y-68493D01*
X84115Y-68493D01*
X84072Y-68464D01*
X84050Y-68436D01*
X79281Y-66893D02*
X79581Y-66893D01*
X79388Y-67493D01*
X79946Y-67093D02*
X79946Y-67493D01*
X79839Y-66864D02*
X79732Y-67293D01*
X80010Y-67293D01*
X80182Y-67493D02*
X80182Y-66893D01*
X80182Y-67179D02*
X80439Y-67179D01*
X80439Y-67493D02*
X80439Y-66893D01*
X80910Y-67436D02*
X80889Y-67464D01*
X80825Y-67493D01*
X80782Y-67493D01*
X80717Y-67464D01*
X80675Y-67407D01*
X80653Y-67350D01*
X80632Y-67236D01*
X80632Y-67150D01*
X80653Y-67036D01*
X80675Y-66979D01*
X80717Y-66921D01*
X80782Y-66893D01*
X80825Y-66893D01*
X80889Y-66921D01*
X80910Y-66950D01*
X81317Y-66893D02*
X81103Y-66893D01*
X81082Y-67179D01*
X81103Y-67150D01*
X81146Y-67121D01*
X81253Y-67121D01*
X81296Y-67150D01*
X81317Y-67179D01*
X81339Y-67236D01*
X81339Y-67379D01*
X81317Y-67436D01*
X81296Y-67464D01*
X81253Y-67493D01*
X81146Y-67493D01*
X81103Y-67464D01*
X81082Y-67436D01*
X81554Y-67493D02*
X81639Y-67493D01*
X81682Y-67464D01*
X81704Y-67436D01*
X81746Y-67350D01*
X81768Y-67236D01*
X81768Y-67007D01*
X81746Y-66950D01*
X81725Y-66921D01*
X81682Y-66893D01*
X81596Y-66893D01*
X81554Y-66921D01*
X81532Y-66950D01*
X81511Y-67007D01*
X81511Y-67150D01*
X81532Y-67207D01*
X81554Y-67236D01*
X81596Y-67264D01*
X81682Y-67264D01*
X81725Y-67236D01*
X81746Y-67207D01*
X81768Y-67150D01*
X82175Y-66893D02*
X81961Y-66893D01*
X81940Y-67179D01*
X81961Y-67150D01*
X82004Y-67121D01*
X82111Y-67121D01*
X82154Y-67150D01*
X82175Y-67179D01*
X82197Y-67236D01*
X82197Y-67379D01*
X82175Y-67436D01*
X82154Y-67464D01*
X82111Y-67493D01*
X82004Y-67493D01*
X81961Y-67464D01*
X81940Y-67436D01*
X70193Y-67893D02*
X70193Y-68379D01*
X70215Y-68436D01*
X70236Y-68464D01*
X70279Y-68493D01*
X70365Y-68493D01*
X70407Y-68464D01*
X70429Y-68436D01*
X70450Y-68379D01*
X70450Y-67893D01*
X70643Y-67950D02*
X70664Y-67921D01*
X70707Y-67893D01*
X70814Y-67893D01*
X70857Y-67921D01*
X70878Y-67950D01*
X70900Y-68007D01*
X70900Y-68064D01*
X70878Y-68150D01*
X70621Y-68493D01*
X70900Y-68493D01*
X71286Y-68093D02*
X71286Y-68493D01*
X71179Y-67864D02*
X71072Y-68293D01*
X71350Y-68293D01*
X66281Y-66893D02*
X66581Y-66893D01*
X66388Y-67493D01*
X66946Y-67093D02*
X66946Y-67493D01*
X66839Y-66864D02*
X66732Y-67293D01*
X67010Y-67293D01*
X67182Y-67493D02*
X67182Y-66893D01*
X67182Y-67179D02*
X67439Y-67179D01*
X67439Y-67493D02*
X67439Y-66893D01*
X67910Y-67436D02*
X67889Y-67464D01*
X67825Y-67493D01*
X67782Y-67493D01*
X67717Y-67464D01*
X67675Y-67407D01*
X67653Y-67350D01*
X67632Y-67236D01*
X67632Y-67150D01*
X67653Y-67036D01*
X67675Y-66979D01*
X67717Y-66921D01*
X67782Y-66893D01*
X67825Y-66893D01*
X67889Y-66921D01*
X67910Y-66950D01*
X68317Y-66893D02*
X68103Y-66893D01*
X68082Y-67179D01*
X68103Y-67150D01*
X68146Y-67121D01*
X68253Y-67121D01*
X68296Y-67150D01*
X68317Y-67179D01*
X68339Y-67236D01*
X68339Y-67379D01*
X68317Y-67436D01*
X68296Y-67464D01*
X68253Y-67493D01*
X68146Y-67493D01*
X68103Y-67464D01*
X68082Y-67436D01*
X68554Y-67493D02*
X68639Y-67493D01*
X68682Y-67464D01*
X68704Y-67436D01*
X68746Y-67350D01*
X68768Y-67236D01*
X68768Y-67007D01*
X68746Y-66950D01*
X68725Y-66921D01*
X68682Y-66893D01*
X68596Y-66893D01*
X68554Y-66921D01*
X68532Y-66950D01*
X68511Y-67007D01*
X68511Y-67150D01*
X68532Y-67207D01*
X68554Y-67236D01*
X68596Y-67264D01*
X68682Y-67264D01*
X68725Y-67236D01*
X68746Y-67207D01*
X68768Y-67150D01*
X69175Y-66893D02*
X68961Y-66893D01*
X68940Y-67179D01*
X68961Y-67150D01*
X69004Y-67121D01*
X69111Y-67121D01*
X69154Y-67150D01*
X69175Y-67179D01*
X69197Y-67236D01*
X69197Y-67379D01*
X69175Y-67436D01*
X69154Y-67464D01*
X69111Y-67493D01*
X69004Y-67493D01*
X68961Y-67464D01*
X68940Y-67436D01*
X57193Y-67893D02*
X57193Y-68379D01*
X57215Y-68436D01*
X57236Y-68464D01*
X57279Y-68493D01*
X57365Y-68493D01*
X57407Y-68464D01*
X57429Y-68436D01*
X57450Y-68379D01*
X57450Y-67893D01*
X57643Y-67950D02*
X57664Y-67921D01*
X57707Y-67893D01*
X57814Y-67893D01*
X57857Y-67921D01*
X57878Y-67950D01*
X57900Y-68007D01*
X57900Y-68064D01*
X57878Y-68150D01*
X57621Y-68493D01*
X57900Y-68493D01*
X58307Y-67893D02*
X58093Y-67893D01*
X58072Y-68179D01*
X58093Y-68150D01*
X58136Y-68121D01*
X58243Y-68121D01*
X58286Y-68150D01*
X58307Y-68179D01*
X58329Y-68236D01*
X58329Y-68379D01*
X58307Y-68436D01*
X58286Y-68464D01*
X58243Y-68493D01*
X58136Y-68493D01*
X58093Y-68464D01*
X58072Y-68436D01*
X53281Y-66893D02*
X53581Y-66893D01*
X53388Y-67493D01*
X53946Y-67093D02*
X53946Y-67493D01*
X53839Y-66864D02*
X53732Y-67293D01*
X54010Y-67293D01*
X54182Y-67493D02*
X54182Y-66893D01*
X54182Y-67179D02*
X54439Y-67179D01*
X54439Y-67493D02*
X54439Y-66893D01*
X54910Y-67436D02*
X54889Y-67464D01*
X54825Y-67493D01*
X54782Y-67493D01*
X54717Y-67464D01*
X54675Y-67407D01*
X54653Y-67350D01*
X54632Y-67236D01*
X54632Y-67150D01*
X54653Y-67036D01*
X54675Y-66979D01*
X54717Y-66921D01*
X54782Y-66893D01*
X54825Y-66893D01*
X54889Y-66921D01*
X54910Y-66950D01*
X55317Y-66893D02*
X55103Y-66893D01*
X55082Y-67179D01*
X55103Y-67150D01*
X55146Y-67121D01*
X55253Y-67121D01*
X55296Y-67150D01*
X55317Y-67179D01*
X55339Y-67236D01*
X55339Y-67379D01*
X55317Y-67436D01*
X55296Y-67464D01*
X55253Y-67493D01*
X55146Y-67493D01*
X55103Y-67464D01*
X55082Y-67436D01*
X55554Y-67493D02*
X55639Y-67493D01*
X55682Y-67464D01*
X55704Y-67436D01*
X55746Y-67350D01*
X55768Y-67236D01*
X55768Y-67007D01*
X55746Y-66950D01*
X55725Y-66921D01*
X55682Y-66893D01*
X55596Y-66893D01*
X55554Y-66921D01*
X55532Y-66950D01*
X55511Y-67007D01*
X55511Y-67150D01*
X55532Y-67207D01*
X55554Y-67236D01*
X55596Y-67264D01*
X55682Y-67264D01*
X55725Y-67236D01*
X55746Y-67207D01*
X55768Y-67150D01*
X56175Y-66893D02*
X55961Y-66893D01*
X55940Y-67179D01*
X55961Y-67150D01*
X56004Y-67121D01*
X56111Y-67121D01*
X56154Y-67150D01*
X56175Y-67179D01*
X56197Y-67236D01*
X56197Y-67379D01*
X56175Y-67436D01*
X56154Y-67464D01*
X56111Y-67493D01*
X56004Y-67493D01*
X55961Y-67464D01*
X55940Y-67436D01*
X102693Y-56893D02*
X102693Y-57379D01*
X102715Y-57436D01*
X102736Y-57464D01*
X102779Y-57493D01*
X102865Y-57493D01*
X102907Y-57464D01*
X102929Y-57436D01*
X102950Y-57379D01*
X102950Y-56893D01*
X103400Y-57493D02*
X103143Y-57493D01*
X103271Y-57493D02*
X103271Y-56893D01*
X103228Y-56979D01*
X103186Y-57036D01*
X103143Y-57064D01*
X103657Y-57150D02*
X103615Y-57121D01*
X103593Y-57093D01*
X103572Y-57036D01*
X103572Y-57007D01*
X103593Y-56950D01*
X103615Y-56921D01*
X103657Y-56893D01*
X103743Y-56893D01*
X103786Y-56921D01*
X103807Y-56950D01*
X103829Y-57007D01*
X103829Y-57036D01*
X103807Y-57093D01*
X103786Y-57121D01*
X103743Y-57150D01*
X103657Y-57150D01*
X103615Y-57179D01*
X103593Y-57207D01*
X103572Y-57264D01*
X103572Y-57379D01*
X103593Y-57436D01*
X103615Y-57464D01*
X103657Y-57493D01*
X103743Y-57493D01*
X103786Y-57464D01*
X103807Y-57436D01*
X103829Y-57379D01*
X103829Y-57264D01*
X103807Y-57207D01*
X103786Y-57179D01*
X103743Y-57150D01*
X98781Y-55893D02*
X99081Y-55893D01*
X98888Y-56493D01*
X99446Y-56093D02*
X99446Y-56493D01*
X99339Y-55864D02*
X99232Y-56293D01*
X99510Y-56293D01*
X99682Y-56493D02*
X99682Y-55893D01*
X99682Y-56179D02*
X99939Y-56179D01*
X99939Y-56493D02*
X99939Y-55893D01*
X100410Y-56436D02*
X100389Y-56464D01*
X100325Y-56493D01*
X100282Y-56493D01*
X100217Y-56464D01*
X100175Y-56407D01*
X100153Y-56350D01*
X100132Y-56236D01*
X100132Y-56150D01*
X100153Y-56036D01*
X100175Y-55979D01*
X100217Y-55921D01*
X100282Y-55893D01*
X100325Y-55893D01*
X100389Y-55921D01*
X100410Y-55950D01*
X100817Y-55893D02*
X100603Y-55893D01*
X100582Y-56179D01*
X100603Y-56150D01*
X100646Y-56121D01*
X100753Y-56121D01*
X100796Y-56150D01*
X100817Y-56179D01*
X100839Y-56236D01*
X100839Y-56379D01*
X100817Y-56436D01*
X100796Y-56464D01*
X100753Y-56493D01*
X100646Y-56493D01*
X100603Y-56464D01*
X100582Y-56436D01*
X101054Y-56493D02*
X101139Y-56493D01*
X101182Y-56464D01*
X101204Y-56436D01*
X101246Y-56350D01*
X101268Y-56236D01*
X101268Y-56007D01*
X101246Y-55950D01*
X101225Y-55921D01*
X101182Y-55893D01*
X101096Y-55893D01*
X101054Y-55921D01*
X101032Y-55950D01*
X101011Y-56007D01*
X101011Y-56150D01*
X101032Y-56207D01*
X101054Y-56236D01*
X101096Y-56264D01*
X101182Y-56264D01*
X101225Y-56236D01*
X101246Y-56207D01*
X101268Y-56150D01*
X101675Y-55893D02*
X101461Y-55893D01*
X101440Y-56179D01*
X101461Y-56150D01*
X101504Y-56121D01*
X101611Y-56121D01*
X101654Y-56150D01*
X101675Y-56179D01*
X101697Y-56236D01*
X101697Y-56379D01*
X101675Y-56436D01*
X101654Y-56464D01*
X101611Y-56493D01*
X101504Y-56493D01*
X101461Y-56464D01*
X101440Y-56436D01*
X63693Y-56893D02*
X63693Y-57379D01*
X63715Y-57436D01*
X63736Y-57464D01*
X63779Y-57493D01*
X63865Y-57493D01*
X63907Y-57464D01*
X63929Y-57436D01*
X63950Y-57379D01*
X63950Y-56893D01*
X64143Y-56950D02*
X64164Y-56921D01*
X64207Y-56893D01*
X64314Y-56893D01*
X64357Y-56921D01*
X64378Y-56950D01*
X64400Y-57007D01*
X64400Y-57064D01*
X64378Y-57150D01*
X64121Y-57493D01*
X64400Y-57493D01*
X64829Y-57493D02*
X64572Y-57493D01*
X64700Y-57493D02*
X64700Y-56893D01*
X64657Y-56979D01*
X64615Y-57036D01*
X64572Y-57064D01*
X59781Y-55893D02*
X60081Y-55893D01*
X59888Y-56493D01*
X60446Y-56093D02*
X60446Y-56493D01*
X60339Y-55864D02*
X60232Y-56293D01*
X60510Y-56293D01*
X60682Y-56493D02*
X60682Y-55893D01*
X60682Y-56179D02*
X60939Y-56179D01*
X60939Y-56493D02*
X60939Y-55893D01*
X61410Y-56436D02*
X61389Y-56464D01*
X61325Y-56493D01*
X61282Y-56493D01*
X61217Y-56464D01*
X61175Y-56407D01*
X61153Y-56350D01*
X61132Y-56236D01*
X61132Y-56150D01*
X61153Y-56036D01*
X61175Y-55979D01*
X61217Y-55921D01*
X61282Y-55893D01*
X61325Y-55893D01*
X61389Y-55921D01*
X61410Y-55950D01*
X61817Y-55893D02*
X61603Y-55893D01*
X61582Y-56179D01*
X61603Y-56150D01*
X61646Y-56121D01*
X61753Y-56121D01*
X61796Y-56150D01*
X61817Y-56179D01*
X61839Y-56236D01*
X61839Y-56379D01*
X61817Y-56436D01*
X61796Y-56464D01*
X61753Y-56493D01*
X61646Y-56493D01*
X61603Y-56464D01*
X61582Y-56436D01*
X62054Y-56493D02*
X62139Y-56493D01*
X62182Y-56464D01*
X62204Y-56436D01*
X62246Y-56350D01*
X62268Y-56236D01*
X62268Y-56007D01*
X62246Y-55950D01*
X62225Y-55921D01*
X62182Y-55893D01*
X62096Y-55893D01*
X62054Y-55921D01*
X62032Y-55950D01*
X62011Y-56007D01*
X62011Y-56150D01*
X62032Y-56207D01*
X62054Y-56236D01*
X62096Y-56264D01*
X62182Y-56264D01*
X62225Y-56236D01*
X62246Y-56207D01*
X62268Y-56150D01*
X62675Y-55893D02*
X62461Y-55893D01*
X62440Y-56179D01*
X62461Y-56150D01*
X62504Y-56121D01*
X62611Y-56121D01*
X62654Y-56150D01*
X62675Y-56179D01*
X62697Y-56236D01*
X62697Y-56379D01*
X62675Y-56436D01*
X62654Y-56464D01*
X62611Y-56493D01*
X62504Y-56493D01*
X62461Y-56464D01*
X62440Y-56436D01*
X76693Y-56893D02*
X76693Y-57379D01*
X76715Y-57436D01*
X76736Y-57464D01*
X76779Y-57493D01*
X76865Y-57493D01*
X76907Y-57464D01*
X76929Y-57436D01*
X76950Y-57379D01*
X76950Y-56893D01*
X77143Y-56950D02*
X77164Y-56921D01*
X77207Y-56893D01*
X77314Y-56893D01*
X77357Y-56921D01*
X77378Y-56950D01*
X77400Y-57007D01*
X77400Y-57064D01*
X77378Y-57150D01*
X77121Y-57493D01*
X77400Y-57493D01*
X77679Y-56893D02*
X77722Y-56893D01*
X77765Y-56921D01*
X77786Y-56950D01*
X77807Y-57007D01*
X77829Y-57121D01*
X77829Y-57264D01*
X77807Y-57379D01*
X77786Y-57436D01*
X77765Y-57464D01*
X77722Y-57493D01*
X77679Y-57493D01*
X77636Y-57464D01*
X77615Y-57436D01*
X77593Y-57379D01*
X77572Y-57264D01*
X77572Y-57121D01*
X77593Y-57007D01*
X77615Y-56950D01*
X77636Y-56921D01*
X77679Y-56893D01*
X72781Y-55893D02*
X73081Y-55893D01*
X72888Y-56493D01*
X73446Y-56093D02*
X73446Y-56493D01*
X73339Y-55864D02*
X73232Y-56293D01*
X73510Y-56293D01*
X73682Y-56493D02*
X73682Y-55893D01*
X73682Y-56179D02*
X73939Y-56179D01*
X73939Y-56493D02*
X73939Y-55893D01*
X74410Y-56436D02*
X74389Y-56464D01*
X74325Y-56493D01*
X74282Y-56493D01*
X74217Y-56464D01*
X74175Y-56407D01*
X74153Y-56350D01*
X74132Y-56236D01*
X74132Y-56150D01*
X74153Y-56036D01*
X74175Y-55979D01*
X74217Y-55921D01*
X74282Y-55893D01*
X74325Y-55893D01*
X74389Y-55921D01*
X74410Y-55950D01*
X74817Y-55893D02*
X74603Y-55893D01*
X74582Y-56179D01*
X74603Y-56150D01*
X74646Y-56121D01*
X74753Y-56121D01*
X74796Y-56150D01*
X74817Y-56179D01*
X74839Y-56236D01*
X74839Y-56379D01*
X74817Y-56436D01*
X74796Y-56464D01*
X74753Y-56493D01*
X74646Y-56493D01*
X74603Y-56464D01*
X74582Y-56436D01*
X75054Y-56493D02*
X75139Y-56493D01*
X75182Y-56464D01*
X75204Y-56436D01*
X75246Y-56350D01*
X75268Y-56236D01*
X75268Y-56007D01*
X75246Y-55950D01*
X75225Y-55921D01*
X75182Y-55893D01*
X75096Y-55893D01*
X75054Y-55921D01*
X75032Y-55950D01*
X75011Y-56007D01*
X75011Y-56150D01*
X75032Y-56207D01*
X75054Y-56236D01*
X75096Y-56264D01*
X75182Y-56264D01*
X75225Y-56236D01*
X75246Y-56207D01*
X75268Y-56150D01*
X75675Y-55893D02*
X75461Y-55893D01*
X75440Y-56179D01*
X75461Y-56150D01*
X75504Y-56121D01*
X75611Y-56121D01*
X75654Y-56150D01*
X75675Y-56179D01*
X75697Y-56236D01*
X75697Y-56379D01*
X75675Y-56436D01*
X75654Y-56464D01*
X75611Y-56493D01*
X75504Y-56493D01*
X75461Y-56464D01*
X75440Y-56436D01*
X89693Y-56893D02*
X89693Y-57379D01*
X89715Y-57436D01*
X89736Y-57464D01*
X89779Y-57493D01*
X89865Y-57493D01*
X89907Y-57464D01*
X89929Y-57436D01*
X89950Y-57379D01*
X89950Y-56893D01*
X90400Y-57493D02*
X90143Y-57493D01*
X90271Y-57493D02*
X90271Y-56893D01*
X90228Y-56979D01*
X90186Y-57036D01*
X90143Y-57064D01*
X90615Y-57493D02*
X90700Y-57493D01*
X90743Y-57464D01*
X90765Y-57436D01*
X90807Y-57350D01*
X90829Y-57236D01*
X90829Y-57007D01*
X90807Y-56950D01*
X90786Y-56921D01*
X90743Y-56893D01*
X90657Y-56893D01*
X90615Y-56921D01*
X90593Y-56950D01*
X90572Y-57007D01*
X90572Y-57150D01*
X90593Y-57207D01*
X90615Y-57236D01*
X90657Y-57264D01*
X90743Y-57264D01*
X90786Y-57236D01*
X90807Y-57207D01*
X90829Y-57150D01*
X85781Y-55893D02*
X86081Y-55893D01*
X85888Y-56493D01*
X86446Y-56093D02*
X86446Y-56493D01*
X86339Y-55864D02*
X86232Y-56293D01*
X86510Y-56293D01*
X86682Y-56493D02*
X86682Y-55893D01*
X86682Y-56179D02*
X86939Y-56179D01*
X86939Y-56493D02*
X86939Y-55893D01*
X87410Y-56436D02*
X87389Y-56464D01*
X87325Y-56493D01*
X87282Y-56493D01*
X87217Y-56464D01*
X87175Y-56407D01*
X87153Y-56350D01*
X87132Y-56236D01*
X87132Y-56150D01*
X87153Y-56036D01*
X87175Y-55979D01*
X87217Y-55921D01*
X87282Y-55893D01*
X87325Y-55893D01*
X87389Y-55921D01*
X87410Y-55950D01*
X87817Y-55893D02*
X87603Y-55893D01*
X87582Y-56179D01*
X87603Y-56150D01*
X87646Y-56121D01*
X87753Y-56121D01*
X87796Y-56150D01*
X87817Y-56179D01*
X87839Y-56236D01*
X87839Y-56379D01*
X87817Y-56436D01*
X87796Y-56464D01*
X87753Y-56493D01*
X87646Y-56493D01*
X87603Y-56464D01*
X87582Y-56436D01*
X88054Y-56493D02*
X88139Y-56493D01*
X88182Y-56464D01*
X88204Y-56436D01*
X88246Y-56350D01*
X88268Y-56236D01*
X88268Y-56007D01*
X88246Y-55950D01*
X88225Y-55921D01*
X88182Y-55893D01*
X88096Y-55893D01*
X88054Y-55921D01*
X88032Y-55950D01*
X88011Y-56007D01*
X88011Y-56150D01*
X88032Y-56207D01*
X88054Y-56236D01*
X88096Y-56264D01*
X88182Y-56264D01*
X88225Y-56236D01*
X88246Y-56207D01*
X88268Y-56150D01*
X88675Y-55893D02*
X88461Y-55893D01*
X88440Y-56179D01*
X88461Y-56150D01*
X88504Y-56121D01*
X88611Y-56121D01*
X88654Y-56150D01*
X88675Y-56179D01*
X88697Y-56236D01*
X88697Y-56379D01*
X88675Y-56436D01*
X88654Y-56464D01*
X88611Y-56493D01*
X88504Y-56493D01*
X88461Y-56464D01*
X88440Y-56436D01*
G54D13*
X45162Y-42795D02*
X44762Y-42795D01*
X44762Y-42700D01*
X44781Y-42642D01*
X44819Y-42604D01*
X44857Y-42585D01*
X44933Y-42566D01*
X44990Y-42566D01*
X45067Y-42585D01*
X45105Y-42604D01*
X45143Y-42642D01*
X45162Y-42700D01*
X45162Y-42795D01*
X45162Y-42185D02*
X45162Y-42414D01*
X45162Y-42300D02*
X44762Y-42300D01*
X44819Y-42338D01*
X44857Y-42376D01*
X44876Y-42414D01*
X41239Y-44058D02*
X41261Y-44074D01*
X41282Y-44124D01*
X41282Y-44158D01*
X41261Y-44208D01*
X41218Y-44241D01*
X41175Y-44258D01*
X41089Y-44274D01*
X41025Y-44274D01*
X40939Y-44258D01*
X40896Y-44241D01*
X40854Y-44208D01*
X40832Y-44158D01*
X40832Y-44124D01*
X40854Y-44074D01*
X40875Y-44058D01*
X41282Y-43724D02*
X41282Y-43924D01*
X41282Y-43824D02*
X40832Y-43824D01*
X40896Y-43858D01*
X40939Y-43891D01*
X40961Y-43924D01*
X40039Y-43892D02*
X40061Y-43908D01*
X40082Y-43958D01*
X40082Y-43992D01*
X40061Y-44042D01*
X40018Y-44075D01*
X39975Y-44092D01*
X39889Y-44108D01*
X39825Y-44108D01*
X39739Y-44092D01*
X39696Y-44075D01*
X39654Y-44042D01*
X39632Y-43992D01*
X39632Y-43958D01*
X39654Y-43908D01*
X39675Y-43892D01*
G54D16*
X40511Y-45171D02*
X40511Y-44828D01*
X40682Y-44999D02*
X40339Y-44999D01*
G54D13*
X40039Y-41058D02*
X40061Y-41074D01*
X40082Y-41124D01*
X40082Y-41158D01*
X40061Y-41208D01*
X40018Y-41241D01*
X39975Y-41258D01*
X39889Y-41274D01*
X39825Y-41274D01*
X39739Y-41258D01*
X39696Y-41241D01*
X39654Y-41208D01*
X39632Y-41158D01*
X39632Y-41124D01*
X39654Y-41074D01*
X39675Y-41058D01*
X39675Y-40924D02*
X39654Y-40908D01*
X39632Y-40874D01*
X39632Y-40791D01*
X39654Y-40758D01*
X39675Y-40741D01*
X39718Y-40724D01*
X39761Y-40724D01*
X39825Y-40741D01*
X40082Y-40941D01*
X40082Y-40724D01*
X41239Y-40892D02*
X41261Y-40908D01*
X41282Y-40958D01*
X41282Y-40992D01*
X41261Y-41042D01*
X41218Y-41075D01*
X41175Y-41092D01*
X41089Y-41108D01*
X41025Y-41108D01*
X40939Y-41092D01*
X40896Y-41075D01*
X40854Y-41042D01*
X40832Y-40992D01*
X40832Y-40958D01*
X40854Y-40908D01*
X40875Y-40892D01*
G54D16*
X40511Y-40171D02*
X40511Y-39828D01*
X40682Y-39999D02*
X40339Y-39999D01*
G54D15*
X34276Y-31566D02*
X33593Y-31566D01*
X33593Y-31403D01*
X33625Y-31362D01*
X33658Y-31342D01*
X33723Y-31322D01*
X33821Y-31322D01*
X33886Y-31342D01*
X33918Y-31362D01*
X33951Y-31403D01*
X33951Y-31566D01*
X33593Y-31179D02*
X33593Y-30914D01*
X33853Y-31057D01*
X33853Y-30995D01*
X33886Y-30955D01*
X33918Y-30934D01*
X33983Y-30914D01*
X34146Y-30914D01*
X34211Y-30934D01*
X34243Y-30955D01*
X34276Y-30995D01*
X34276Y-31118D01*
X34243Y-31158D01*
X34211Y-31179D01*
G54D11*
X41143Y-19742D02*
X41629Y-19742D01*
X41686Y-19714D01*
X41714Y-19685D01*
X41743Y-19628D01*
X41743Y-19514D01*
X41714Y-19456D01*
X41686Y-19428D01*
X41629Y-19399D01*
X41143Y-19399D01*
X41743Y-18799D02*
X41743Y-19142D01*
X41743Y-18970D02*
X41143Y-18970D01*
X41229Y-19027D01*
X41286Y-19085D01*
X41314Y-19142D01*
X41143Y-18599D02*
X41143Y-18199D01*
X41743Y-18456D01*
X41493Y-14386D02*
X41207Y-14586D01*
X41493Y-14729D02*
X40893Y-14729D01*
X40893Y-14501D01*
X40921Y-14443D01*
X40950Y-14415D01*
X41007Y-14386D01*
X41093Y-14386D01*
X41150Y-14415D01*
X41179Y-14443D01*
X41207Y-14501D01*
X41207Y-14729D01*
X41179Y-13929D02*
X41207Y-13843D01*
X41236Y-13815D01*
X41293Y-13786D01*
X41379Y-13786D01*
X41436Y-13815D01*
X41464Y-13843D01*
X41493Y-13901D01*
X41493Y-14129D01*
X40893Y-14129D01*
X40893Y-13929D01*
X40921Y-13872D01*
X40950Y-13843D01*
X41007Y-13815D01*
X41064Y-13815D01*
X41121Y-13843D01*
X41150Y-13872D01*
X41179Y-13929D01*
X41179Y-14129D01*
X41179Y-13329D02*
X41207Y-13243D01*
X41236Y-13215D01*
X41293Y-13186D01*
X41379Y-13186D01*
X41436Y-13215D01*
X41464Y-13243D01*
X41493Y-13301D01*
X41493Y-13529D01*
X40893Y-13529D01*
X40893Y-13329D01*
X40921Y-13272D01*
X40950Y-13243D01*
X41007Y-13215D01*
X41064Y-13215D01*
X41121Y-13243D01*
X41150Y-13272D01*
X41179Y-13329D01*
X41179Y-13529D01*
X41179Y-12729D02*
X41207Y-12643D01*
X41236Y-12615D01*
X41293Y-12586D01*
X41379Y-12586D01*
X41436Y-12615D01*
X41464Y-12643D01*
X41493Y-12701D01*
X41493Y-12929D01*
X40893Y-12929D01*
X40893Y-12729D01*
X40921Y-12672D01*
X40950Y-12643D01*
X41007Y-12615D01*
X41064Y-12615D01*
X41121Y-12643D01*
X41150Y-12672D01*
X41179Y-12729D01*
X41179Y-12929D01*
X41550Y-12472D02*
X41550Y-12015D01*
X41321Y-11901D02*
X41321Y-11615D01*
X41493Y-11958D02*
X40893Y-11758D01*
X41493Y-11558D01*
X41493Y-11015D02*
X41207Y-11215D01*
X41493Y-11358D02*
X40893Y-11358D01*
X40893Y-11130D01*
X40921Y-11072D01*
X40950Y-11044D01*
X41007Y-11015D01*
X41093Y-11015D01*
X41150Y-11044D01*
X41179Y-11072D01*
X41207Y-11130D01*
X41207Y-11358D01*
X41493Y-10758D02*
X40893Y-10758D01*
X40893Y-10615D01*
X40921Y-10530D01*
X40979Y-10472D01*
X41036Y-10444D01*
X41150Y-10415D01*
X41236Y-10415D01*
X41350Y-10444D01*
X41407Y-10472D01*
X41464Y-10530D01*
X41493Y-10615D01*
X41493Y-10758D01*
X40893Y-10158D02*
X41379Y-10158D01*
X41436Y-10130D01*
X41464Y-10101D01*
X41493Y-10044D01*
X41493Y-09930D01*
X41464Y-09872D01*
X41436Y-09844D01*
X41379Y-09815D01*
X40893Y-09815D01*
X41493Y-09529D02*
X40893Y-09529D01*
X41493Y-09243D02*
X40893Y-09243D01*
X41493Y-08900D01*
X40893Y-08900D01*
X40893Y-08500D02*
X40893Y-08386D01*
X40921Y-08328D01*
X40979Y-08271D01*
X41093Y-08243D01*
X41293Y-08243D01*
X41407Y-08271D01*
X41464Y-08328D01*
X41493Y-08386D01*
X41493Y-08500D01*
X41464Y-08557D01*
X41407Y-08614D01*
X41293Y-08643D01*
X41093Y-08643D01*
X40979Y-08614D01*
X40921Y-08557D01*
X40893Y-08500D01*
M02*
